<?xml version="1.0" encoding="utf-8"?>
<!-- Generator: Adobe Illustrator 26.5.0, SVG Export Plug-In . SVG Version: 6.00 Build 0)  -->
<svg version="1.1" id="Laag_1" xmlns="http://www.w3.org/2000/svg" xmlns:xlink="http://www.w3.org/1999/xlink" x="0px" y="0px"
	 viewBox="0 0 876.8 154.2" style="enable-background:new 0 0 876.8 154.2;" xml:space="preserve">
<style type="text/css">
	.st0{fill:#DE4241;}
	.st1{fill:#B23636;}
	.st2{fill:#9A3131;}
	.st3{fill:#6D2A5B;}
	.st4{fill:#EE7947;}
	.st5{fill:#D86A44;}
	.st6{fill:none;stroke:#6D2A5B;stroke-width:8;stroke-miterlimit:10;}
</style>
<g>
	<path class="st0" d="M0,4.2h53.3v139.5H17V34H0V4.2z"/>
	<polygon class="st1" points="35.8,151.5 17,143.7 17,34 35.8,41.8 	"/>
	<polyline class="st1" points="18.8,41.8 0,34 0,4.2 18.8,12 	"/>
	<polygon class="st2" points="17,45 35.8,52.1 35.8,41.8 17,41.1 	"/>
	<path class="st3" d="M18.8,12H72v139.5H35.8V41.8h-17V12z"/>
	<polygon class="st4" points="0,4.2 53.3,4.2 72,12 18.8,12 	"/>
</g>
<g>
	<path class="st0" d="M273.3,48.5c0-33,12.1-47.7,42-47.7c31.3,0,41.1,15.8,41.1,50.5v36.4c0,39.8-12.8,57.9-53.9,57.9l-19.2-2.1
		v-27.7H301c17.3,0,20-4.3,20.2-21.1c-3.4,0.6-7,1.1-10.9,1.1C281.2,95.8,273.3,80,273.3,48.5z M314.6,70.2c1.5,0,4-0.4,6.6-0.8v-23
		c0-14.1-0.8-17.9-6.6-17.9c-6,0-7.2,4-7.2,21.9C307.4,67.5,309.3,70.2,314.6,70.2z"/>
	<path class="st4" d="M340,102.6l-19.1-6.8c0,0,1.9,12-6.1,17.4c-2.2,1.5-5.2,2.5-9.2,2.6c-18.5,0.2-22.3,0.1-22.3,0.1l18.8,7.8
		c0,0,26.4,0.9,30.2-1.6C336.2,119.5,339.6,120.9,340,102.6z"/>
	<path class="st1" d="M347.9,14l-33.1,15.8l-1.9,37.5l-1.3,33.6l-19-7.9c0,0-24.6-6.7-19.1-52.8c0,0,1.4-14.7,6.3-24.1
		C284.8,6.5,347.9,14,347.9,14z"/>
	<path class="st5" d="M311.1,114.9l17.1,8.2c0,0,14.5,1,11.8-20.6l-19.2,0.6C320.7,103.1,320.4,111.5,311.1,114.9z"/>
	<path class="st4" d="M297.5,26.6L279.9,16c0,0,20.7-34.5,78.3-2.2c0,0-2.9,11.5-3.7,11.5S297.5,26.6,297.5,26.6z"/>
	<path class="st3" d="M292.1,56.3c0-33,12.1-47.7,42-47.7c31.3,0,41.1,15.8,41.1,50.5v36.4c0,39.8-12.8,57.9-53.9,57.9l-19.2-2.1
		v-27.7h17.7c17.3,0,20-4.3,20.2-21.1c-3.4,0.6-7,1.1-10.9,1.1C299.9,103.6,292.1,87.9,292.1,56.3z M333.4,78.1c1.5,0,4-0.4,6.6-0.8
		v-23c0-14.1-0.8-17.9-6.6-17.9c-6,0-7.2,4-7.2,21.9C326.1,75.3,328.1,78.1,333.4,78.1z"/>
	<polygon class="st1" points="302.1,151.3 283.3,143.5 283.3,115.8 302.1,123.6 	"/>
</g>
<g>
	<path class="st1" d="M232.4,154.1c0,0-62.1,3.5-59.4-46.9c0,0-0.3-9.5,4.8-19.7l19.4,6.2L232.4,154.1z"/>
	<path class="st4" d="M260.9,14.4c0,0-45.1-26.5-73.3-5.1l21.5,10L260.9,14.4z"/>
	<path class="st4" d="M206.4,84.1l-18.8-7.3c0,0-7.3,4.7-9.9,10.7l19.4,6.2c0,0,17.8,0.9,17.7,0.5C214.8,93.8,206.4,84.1,206.4,84.1
		z"/>
	<polygon class="st4" points="242.1,124.7 223.5,118.4 224.3,128.8 239.9,131.6 244.3,126.6 	"/>
	<path class="st1" d="M187.6,76.8c0,0-14.4-8.1-11.2-41c0,0,0.1-17.6,11.2-26.5l17.7,8.3l4.9,53.3l-2,15.2l-1.9-1.9L187.6,76.8z"/>
	<polygon class="st1" points="240.3,70.2 228.6,65.4 223.5,32.9 239,25.2 250.1,52.1 	"/>
	<path class="st4" d="M231.8,73.2h12.4l-5.3-3.5l-14.7-6.2c0,0,3.2,7,3.6,7.4S231.8,73.2,231.8,73.2z"/>
	<path class="st1" d="M223.5,115.3l0.8-12.4c0,0,1.6-8.5,3-8.6s13.5,1.9,13.5,1.9s5.9,5,5.9,5.4s0,14.4,0,14.4l-2.4,10l-2.2-1.2
		l-16.6-5.6L223.5,115.3z"/>
	<g>
		<path class="st3" d="M206.4,84.1c-7.9-6-11.5-16.4-11.5-33c0-30.2,12.3-42.8,39.8-42.8c29.4,0,39.8,12.5,39.8,42.8
			c0,16.4-3.8,26.6-11.5,32.6c9.8,6.4,14.7,17.2,14.7,32.1c0,25.5-12.8,38.3-43,38.3c-31.7,0-43-12.8-43-38.3
			C191.7,101.1,196.8,90.5,206.4,84.1z M234.7,128c6,0,9.6-2.8,9.6-14.3c0-12.4-1.5-16.4-9.6-16.4c-8.7,0-9.6,5.3-9.6,16.4
			C225.1,125.2,228.5,128,234.7,128z M234.7,70.9c5.5,0,6.8-2.1,6.8-18.7c0-13.6-0.6-17.7-6.8-17.7c-6,0-6.8,4.1-6.8,17.7
			C227.9,68.8,229.2,70.9,234.7,70.9z"/>
	</g>
	<path class="st1" d="M202.6,178.4"/>
</g>
<g>
	<path class="st1" d="M132.6,154.1c0,0-62.1,3.5-59.4-46.9c0,0-0.3-9.5,4.8-19.7l19.4,6.2L132.6,154.1z"/>
	<path class="st4" d="M161.2,14.4c0,0-45.1-26.5-73.3-5.1l21.5,10L161.2,14.4z"/>
	<path class="st4" d="M106.6,84.1l-18.8-7.3c0,0-7.3,4.7-9.9,10.7l19.4,6.2c0,0,17.8,0.9,17.7,0.5C115,93.8,106.6,84.1,106.6,84.1z"
		/>
	<polygon class="st4" points="142.3,124.7 123.7,118.4 124.5,128.8 140.1,131.6 144.5,126.6 	"/>
	<path class="st1" d="M87.9,76.8c0,0-14.4-8.1-11.2-41c0,0,0.1-17.6,11.2-26.5l17.7,8.3l4.9,53.3l-2,15.2l-1.9-1.9L87.9,76.8z"/>
	<polygon class="st1" points="140.5,70.2 128.8,65.4 123.7,32.9 139.3,25.2 150.3,52.1 	"/>
	<path class="st4" d="M132.1,73.2h12.4l-5.3-3.5l-14.7-6.2c0,0,3.2,7,3.6,7.4S132.1,73.2,132.1,73.2z"/>
	<path class="st1" d="M123.7,115.3l0.8-12.4c0,0,1.6-8.5,3-8.6s13.5,1.9,13.5,1.9s5.9,5,5.9,5.4s0,14.4,0,14.4l-2.4,10l-2.2-1.2
		l-16.6-5.6L123.7,115.3z"/>
	<g>
		<path class="st3" d="M106.6,84.1c-7.9-6-11.5-16.4-11.5-33c0-30.2,12.3-42.8,39.8-42.8c29.4,0,39.8,12.5,39.8,42.8
			c0,16.4-3.8,26.6-11.5,32.6c9.8,6.4,14.7,17.2,14.7,32.1c0,25.5-12.8,38.3-43,38.3c-31.7,0-43-12.8-43-38.3
			C91.9,101.1,97.1,90.5,106.6,84.1z M134.9,128c6,0,9.6-2.8,9.6-14.3c0-12.4-1.5-16.4-9.6-16.4c-8.7,0-9.6,5.3-9.6,16.4
			C125.4,125.2,128.8,128,134.9,128z M134.9,70.9c5.5,0,6.8-2.1,6.8-18.7c0-13.6-0.6-17.7-6.8-17.7c-6,0-6.8,4.1-6.8,17.7
			C128.1,68.8,129.4,70.9,134.9,70.9z"/>
	</g>
	<path class="st1" d="M102.9,178.4"/>
</g>
<line class="st6" x1="424.7" y1="1.7" x2="424.7" y2="151.9"/>
<line class="st6" x1="424.7" y1="81.2" x2="876.8" y2="81.2"/>
</svg>
