<?xml version="1.0" encoding="utf-8"?>
<!-- Generator: Adobe Illustrator 26.5.0, SVG Export Plug-In . SVG Version: 6.00 Build 0)  -->
<svg version="1.1" xmlns="http://www.w3.org/2000/svg" xmlns:xlink="http://www.w3.org/1999/xlink" x="0px" y="0px"
	 viewBox="0 0 379.6 154.6" style="enable-background:new 0 0 379.6 154.6;" xml:space="preserve">
<style type="text/css">
	.st0{display:none;}
	.st1{fill:#DE4241;}
	.st2{fill:#B23636;}
	.st3{fill:#9A3131;}
	.st4{fill:#EE7947;}
	.st5{fill:#D86A44;}
	.st6{fill:#6D2A5B;}
	.st7{fill:none;stroke:#6D2A5B;stroke-width:8;stroke-miterlimit:10;}
</style>
<g id="Layer_2" class="st0">
</g>
<g id="Laag_1">
	<g>
		<path class="st1" d="M0,4h53.3v139.5H17V33.8H0V4z"/>
		<path class="st1" d="M72.5,48.5c0-33,12.1-47.7,42-47.7c31.3,0,41.1,15.8,41.1,50.5v36.4c0,39.8-12.8,57.9-53.9,57.9l-19.2-2.1
			v-27.7h17.7c17.3,0,20-4.3,20.2-21.1c-3.4,0.6-7,1.1-10.9,1.1C80.3,95.8,72.5,80,72.5,48.5z M113.8,70.2c1.5,0,4-0.4,6.6-0.8v-23
			c0-14.1-0.8-17.9-6.6-17.9c-6,0-7.2,4-7.2,21.9C106.5,67.5,108.5,70.2,113.8,70.2z"/>
		<path class="st1" d="M219.7,45.1c0-13-1.1-16-6.4-16c-5.5,0-6.2,3.6-6.2,13.2v9.6h-31.3l-0.6-16c0-21.1,9.2-35.1,39-35.1
			c30.9,0,40.7,12.6,40.7,42.8C254.9,60,250,70,242.3,76c10,5.3,14.7,14.9,14.7,31.1c0,26.2-11.5,39.6-42,39.6
			c-28.5,0-42.2-8.7-42.2-33.2l0.4-10.4h34.1c0,11.9,1.3,15.3,7,15.3c5.5,0,7-2.6,7-13.6c0-10.6-2.1-13.4-9.8-13.4h-7V65.8h5.1
			C218.6,65.8,219.7,62.1,219.7,45.1z"/>
		<path class="st1" d="M273,50.8c0-31.9,12.4-50.1,44.3-50.1c31.9,0,43.4,18.1,43.4,50.1v45.8c0,32-11.9,50.1-43.9,50.1
			c-31.9,0-43.9-18.1-43.9-50.1V50.8z M316.9,118.6c7.5,0,7.7-6.4,7.7-24.1V53c0-17.7-0.2-24.1-7.7-24.1c-7.4,0-7.7,6.4-7.7,24.1
			v41.5C309.2,112.2,309.4,118.6,316.9,118.6z"/>
	</g>
	<polygon class="st2" points="35.8,151.3 17,143.5 17,33.8 35.8,41.6 	"/>
	<polyline class="st2" points="18.8,41.6 0,33.8 0,4 18.8,11.8 	"/>
	<polygon class="st3" points="17,44.8 35.8,51.8 35.8,41.6 17,40.9 	"/>
	<path class="st4" d="M139.1,102.6l-19.1-6.8c0,0,1.9,12-6.1,17.4c-2.2,1.5-5.2,2.5-9.2,2.6c-18.5,0.2-22.3,0.1-22.3,0.1l18.8,7.8
		c0,0,26.4,0.9,30.2-1.6C135.3,119.5,138.7,120.9,139.1,102.6z"/>
	<path class="st2" d="M147.1,14L114,29.8l-1.9,37.5l-1.3,33.6l-19-7.9c0,0-24.6-6.7-19.1-52.8c0,0,1.4-14.7,6.3-24.1
		S147.1,14,147.1,14z"/>
	<path class="st5" d="M110.3,114.9l17.1,8.2c0,0,14.5,1,11.8-20.6l-19.2,0.6C119.9,103.1,119.6,111.5,110.3,114.9z"/>
	<path class="st4" d="M96.7,26.6L79,16c0,0,20.7-34.5,78.3-2.2c0,0-2.9,11.5-3.7,11.5S96.7,26.6,96.7,26.6z"/>
	<path class="st4" d="M262.3,16.3c0,0-25.5-21.6-63.8-13.9l2,3.2l21.5,7.6L262.3,16.3z"/>
	<path class="st2" d="M173.3,103c0,0-12.2,53.9,56.9,51.5l-13.4-22.8l-23-23.6L173.3,103z"/>
	<path class="st2" d="M194.6,59.7l-18.8-7.8c0,0-8.2-45.2,22.7-49.5L219,9.9l-1.7,19L194.6,59.7z"/>
	<polygon class="st4" points="192,110.9 173.3,103 207.3,103 226.1,110.9 	"/>
	<path class="st2" d="M218.3,61.2l1.3-3.5c0,0,6.1-26.5,7.1-26.7s20,7.1,20,7.1L243.2,65l-5.2-0.2L218.3,61.2z"/>
	<path class="st2" d="M221,97.4c0,0,1,14.3,0,17.8s10.3,17.1,10.9,16.9c0.6-0.1,19.3-2.9,18.6-5.8c-0.7-2.8-9-35.3-10.2-35.3
		S221,97.4,221,97.4z"/>
	<path class="st4" d="M309.2,15.2l-23.6-4c0,0,12.9-15.1,45.1-9.1s39.5,20.2,39.5,20.2l-55.1,2.2L309.2,15.2z"/>
	<path class="st2" d="M337.4,154.5c0,0-53.7,1.1-61.7-35.9c-8.1-37-6.3-94.6,10-107.4l30.1,5.1l-4.5,99.5L337.4,154.5z"/>
	<path class="st2" d="M324,111.6c0,0-9-7.5-2-8.6s-1.5-50.2-1.5-50.2s4.1-6.6-1.1-4.8c-5.2,1.8,4.7-1.8,4.7-1.8l1.8-15.8l16.4,1.6
		l14,71.1l-11.4,32.5l-23.7-9.2L324,111.6z"/>
	<g>
		<path class="st6" d="M18.8,11.8H72v139.5H35.8V41.6h-17V11.8z"/>
		<path class="st6" d="M91.2,56.3c0-33,12.1-47.7,42-47.7c31.3,0,41.1,15.8,41.1,50.5v36.4c0,39.8-12.8,57.9-53.9,57.9l-19.2-2.1
			v-27.7h17.7c17.3,0,20-4.3,20.2-21.1c-3.4,0.6-7,1.1-10.9,1.1C99.1,103.6,91.2,87.9,91.2,56.3z M132.5,78.1c1.5,0,4-0.4,6.6-0.8
			v-23c0-14.1-0.8-17.9-6.6-17.9c-6,0-7.2,4-7.2,21.9C125.3,75.3,127.2,78.1,132.5,78.1z"/>
		<path class="st6" d="M238.5,52.9c0-13-1.1-16-6.4-16c-5.5,0-6.2,3.6-6.2,13.2v9.6h-31.3l-0.6-16c0-21.1,9.2-35.1,39-35.1
			c30.9,0,40.7,12.6,40.7,42.8c0,16.4-4.9,26.4-12.6,32.4c10,5.3,14.7,14.9,14.7,31.1c0,26.2-11.5,39.6-42,39.6
			c-28.5,0-42.2-8.7-42.2-33.2l0.4-10.4h34.1c0,11.9,1.3,15.3,7,15.3c5.5,0,7-2.6,7-13.6c0-10.6-2.1-13.4-9.8-13.4h-7V73.6h5.1
			C237.4,73.6,238.5,70,238.5,52.9z"/>
		<path class="st6" d="M291.8,58.7c0-31.9,12.4-50.1,44.3-50.1c31.9,0,43.4,18.1,43.4,50.1v45.8c0,32-11.9,50.1-43.9,50.1
			c-31.9,0-43.9-18.1-43.9-50.1V58.7z M335.6,126.4c7.5,0,7.7-6.4,7.7-24.1V60.8c0-17.7-0.2-24.1-7.7-24.1c-7.4,0-7.7,6.4-7.7,24.1
			v41.5C328,120,328.2,126.4,335.6,126.4z"/>
	</g>
	<polygon class="st4" points="0,4 53.3,4 72,11.8 18.8,11.8 	"/>
	<polygon class="st2" points="101.2,151.3 82.5,143.5 82.5,115.8 101.2,123.6 	"/>
	<polygon class="st2" points="223.3,73.6 204.6,65.8 204.6,91.3 223.3,99.1 	"/>
	<path class="st4" d="M204.6,65.8c0,0,12.4,0.8,13.7-4.5l19.7,3.6c0,0-0.4,7.2-4.3,8c-3.9,0.7-10.3,0.8-10.3,0.8l-18.8-7.2"/>
	<line class="st7" x1="-50.2" y1="152.3" x2="-50.2" y2="2.1"/>
	<line class="st7" x1="-50.2" y1="72.7" x2="-502.4" y2="72.7"/>
</g>
</svg>
