<?xml version="1.0" encoding="utf-8"?>
<!-- Generator: Adobe Illustrator 26.5.0, SVG Export Plug-In . SVG Version: 6.00 Build 0)  -->
<svg version="1.1" xmlns="http://www.w3.org/2000/svg" xmlns:xlink="http://www.w3.org/1999/xlink" x="0px" y="0px"
	 viewBox="0 0 881.9 152.5" style="enable-background:new 0 0 881.9 152.5;" xml:space="preserve">
<style type="text/css">
	.st0{display:none;}
	.st1{fill:#DE4241;}
	.st2{fill:#B23636;}
	.st3{fill:#9A3131;}
	.st4{fill:#EE7947;}
	.st5{fill:#D86A44;}
	.st6{fill:#6D2A5B;}
	.st7{fill:none;stroke:#6D2A5B;stroke-width:8;stroke-miterlimit:10;}
</style>
<g id="Layer_2" class="st0">
</g>
<g id="Laag_1">
	<g>
		<path class="st1" d="M502.4,1.9h53.3v139.5h-36.2V31.7h-17V1.9z"/>
		<path class="st1" d="M574.8,46.4c0-33,12.1-47.7,42-47.7c31.3,0,41.1,15.8,41.1,50.5v36.4c0,39.8-12.8,57.9-53.9,57.9l-19.2-2.1
			v-27.7h17.7c17.3,0,20-4.3,20.2-21.1c-3.4,0.6-7,1.1-10.9,1.1C582.7,93.7,574.8,78,574.8,46.4z M616.1,68.2c1.5,0,4-0.4,6.6-0.8
			v-23c0-14.1-0.8-17.9-6.6-17.9c-6,0-7.2,4-7.2,21.9C608.9,65.4,610.8,68.2,616.1,68.2z"/>
		<path class="st1" d="M722.1,43c0-13-1.1-16-6.4-16c-5.5,0-6.2,3.6-6.2,13.2v9.6h-31.3l-0.6-16c0-21.1,9.2-35.1,39-35.1
			c30.9,0,40.7,12.6,40.7,42.8c0,16.4-4.9,26.4-12.6,32.4c10,5.3,14.7,14.9,14.7,31.1c0,26.2-11.5,39.6-42,39.6
			c-28.5,0-42.2-8.7-42.2-33.2l0.4-10.4h34.1c0,11.9,1.3,15.3,7,15.3c5.5,0,7-2.6,7-13.6c0-10.6-2.1-13.4-9.8-13.4h-7V63.7h5.1
			C721,63.7,722.1,60.1,722.1,43z"/>
		<path class="st1" d="M775.4,48.8c0-31.9,12.4-50.1,44.3-50.1c31.9,0,43.4,18.1,43.4,50.1v45.8c0,32-11.9,50.1-43.9,50.1
			c-31.9,0-43.9-18.1-43.9-50.1V48.8z M819.2,116.5c7.5,0,7.7-6.4,7.7-24.1V50.9c0-17.7-0.2-24.1-7.7-24.1c-7.4,0-7.7,6.4-7.7,24.1
			v41.5C811.6,110.1,811.8,116.5,819.2,116.5z"/>
	</g>
	<polygon class="st2" points="538.2,149.3 519.4,141.4 519.4,31.7 538.2,39.6 	"/>
	<polyline class="st2" points="521.1,39.6 502.4,31.7 502.4,1.9 521.1,9.8 	"/>
	<polygon class="st3" points="519.4,42.7 538.2,49.8 538.2,39.6 519.4,38.9 	"/>
	<path class="st4" d="M641.5,100.5l-19.1-6.8c0,0,1.9,12-6.1,17.4c-2.2,1.5-5.2,2.5-9.2,2.6c-18.5,0.2-22.3,0.1-22.3,0.1l18.8,7.8
		c0,0,26.4,0.9,30.2-1.6C637.7,117.5,641.1,118.8,641.5,100.5z"/>
	<path class="st2" d="M649.4,12l-33.1,15.8l-1.9,37.5l-1.3,33.6l-19-7.9c0,0-24.6-6.7-19.1-52.8c0,0,1.4-14.7,6.3-24.1
		C586.3,4.5,649.4,12,649.4,12z"/>
	<path class="st5" d="M612.6,112.8l17.1,8.2c0,0,14.5,1,11.8-20.6l-19.2,0.6C622.3,101.1,621.9,109.4,612.6,112.8z"/>
	<path class="st4" d="M599,24.6L581.4,14c0,0,20.7-34.5,78.3-2.2c0,0-2.9,11.5-3.7,11.5S599,24.6,599,24.6z"/>
	<path class="st4" d="M764.7,14.3c0,0-25.5-21.6-63.8-13.9l2,3.2l21.5,7.6L764.7,14.3z"/>
	<path class="st2" d="M675.6,101c0,0-12.2,53.9,56.9,51.5l-13.4-22.8l-23-23.6L675.6,101z"/>
	<path class="st2" d="M696.9,57.7l-18.8-7.8c0,0-8.2-45.2,22.7-49.5l20.5,7.4l-1.7,19L696.9,57.7z"/>
	<polygon class="st4" points="694.4,108.8 675.6,101 709.7,101 728.5,108.8 	"/>
	<path class="st2" d="M720.6,59.2l1.3-3.5c0,0,6.1-26.5,7.1-26.7c1-0.1,20,7.1,20,7.1l-3.5,26.8l-5.2-0.2L720.6,59.2z"/>
	<path class="st2" d="M723.4,95.4c0,0,1,14.3,0,17.8c-1,3.5,10.3,17.1,10.9,16.9c0.6-0.1,19.3-2.9,18.6-5.8s-9-35.3-10.2-35.3
		C741.6,89,723.4,95.4,723.4,95.4z"/>
	<path class="st4" d="M811.6,13.2l-23.6-4c0,0,12.9-15.1,45.1-9.1s39.5,20.2,39.5,20.2l-55.1,2.2L811.6,13.2z"/>
	<path class="st2" d="M839.8,152.5c0,0-53.7,1.1-61.7-35.9s-6.3-94.6,10-107.4l30.1,5.1l-4.5,99.5L839.8,152.5z"/>
	<path class="st2" d="M826.4,109.6c0,0-9-7.5-2-8.6c6.9-1.1-1.5-50.2-1.5-50.2s4.1-6.6-1.1-4.8s4.7-1.8,4.7-1.8l1.8-15.8l16.4,1.6
		l14,71.1l-11.4,32.5l-23.7-9.2L826.4,109.6z"/>
	<g>
		<path class="st6" d="M521.1,9.8h53.3v139.5h-36.2V39.6h-17V9.8z"/>
		<path class="st6" d="M593.6,54.3c0-33,12.1-47.7,42-47.7c31.3,0,41.1,15.8,41.1,50.5v36.4c0,39.8-12.8,57.9-53.9,57.9l-19.2-2.1
			v-27.7h17.7c17.3,0,20-4.3,20.2-21.1c-3.4,0.6-7,1.1-10.9,1.1C601.5,101.6,593.6,85.8,593.6,54.3z M634.9,76c1.5,0,4-0.4,6.6-0.8
			v-23c0-14.1-0.8-17.9-6.6-17.9c-6,0-7.2,4-7.2,21.9C627.7,73.2,629.6,76,634.9,76z"/>
		<path class="st6" d="M740.8,50.9c0-13-1.1-16-6.4-16c-5.5,0-6.2,3.6-6.2,13.2v9.6h-31.3l-0.6-16c0-21.1,9.2-35.1,39-35.1
			c30.9,0,40.7,12.6,40.7,42.8c0,16.4-4.9,26.4-12.6,32.4c10,5.3,14.7,14.9,14.7,31.1c0,26.2-11.5,39.6-42,39.6
			c-28.5,0-42.2-8.7-42.2-33.2l0.4-10.4h34.1c0,11.9,1.3,15.3,7,15.3c5.5,0,7-2.6,7-13.6c0-10.6-2.1-13.4-9.8-13.4h-7V71.5h5.1
			C739.7,71.5,740.8,67.9,740.8,50.9z"/>
		<path class="st6" d="M794.1,56.6c0-31.9,12.4-50.1,44.3-50.1c31.9,0,43.4,18.1,43.4,50.1v45.8c0,32-11.9,50.1-43.9,50.1
			c-31.9,0-43.9-18.1-43.9-50.1V56.6z M838,124.4c7.5,0,7.7-6.4,7.7-24.1V58.8c0-17.7-0.2-24.1-7.7-24.1c-7.4,0-7.7,6.4-7.7,24.1
			v41.5C830.3,118,830.5,124.4,838,124.4z"/>
	</g>
	<polygon class="st4" points="502.4,1.9 555.6,1.9 574.4,9.8 521.1,9.8 	"/>
	<polygon class="st2" points="603.6,149.3 584.8,141.4 584.8,113.8 603.6,121.6 	"/>
	<polygon class="st2" points="725.7,71.5 706.9,63.7 706.9,89.3 725.7,97.1 	"/>
	<path class="st4" d="M706.9,63.7c0,0,12.4,0.8,13.7-4.5l19.7,3.6c0,0-0.4,7.2-4.3,8c-3.9,0.7-10.3,0.8-10.3,0.8l-18.8-7.2"/>
	<line class="st7" x1="452.1" y1="150.2" x2="452.1" y2="0"/>
	<line class="st7" x1="452.1" y1="70.7" x2="0" y2="70.7"/>
</g>
</svg>
