<svg width="144" height="38" viewBox="0 0 144 38" fill="none" xmlns="http://www.w3.org/2000/svg">
<path d="M5 16.5C3.61929 16.5 2.5 17.6193 2.5 19C2.5 20.3807 3.61929 21.5 5 21.5V16.5ZM140.768 20.7678C141.744 19.7915 141.744 18.2085 140.768 17.2322L124.858 1.32233C123.882 0.34602 122.299 0.34602 121.322 1.32233C120.346 2.29864 120.346 3.88155 121.322 4.85786L135.464 19L121.322 33.1421C120.346 34.1184 120.346 35.7014 121.322 36.6777C122.299 37.654 123.882 37.654 124.858 36.6777L140.768 20.7678ZM5 21.5H139V16.5H5V21.5Z" fill="#6C2A5B"/>
</svg>
