<?xml version="1.0" encoding="utf-8"?>
<!-- Generator: Adobe Illustrator 26.5.0, SVG Export Plug-In . SVG Version: 6.00 Build 0)  -->
<svg version="1.1" xmlns="http://www.w3.org/2000/svg" xmlns:xlink="http://www.w3.org/1999/xlink" x="0px" y="0px"
	 viewBox="0 0 713.8 299.7" style="enable-background:new 0 0 713.8 299.7;" xml:space="preserve">
<style type="text/css">
	.st0{display:none;}
	.st1{fill:#3D1F3A;}
	.st2{fill:#54294E;}
	.st3{fill:#BCB6AF;}
	.st4{fill:#D65853;}
	.st5{fill:#713464;}
	.st6{fill:#632F59;}
	.st7{fill:#B24B58;}
	.st8{fill:#BD4A4A;}
	.st9{fill:#A14040;}
	.st10{fill:#5B2F59;}
	.st11{fill:#EDC86F;}
	.st12{fill:#E48A5F;}
	.st13{fill:none;stroke:#3D1F3A;stroke-miterlimit:10;}
</style>
<g id="Laag_1" class="st0">
	
		<image style="display:inline;overflow:visible;opacity:0.4;" width="2279" height="1102" xlink:href="../../../../DES/originalMaterial/8701117_20230221150942506_1_XLARGE.jpg"  transform="matrix(0.3673 0 0 0.3673 -46.5025 -28.4598)">
	</image>
</g>
<g id="Laag_2">
	<polygon class="st1" points="383.4,79.8 384.3,80.6 384.3,166.8 384.3,186.8 383.4,186.8 	"/>
	<rect x="381.2" y="79.8" class="st2" width="2.3" height="107"/>
	<polygon class="st1" points="381.2,79.8 380.3,80.6 380.3,166.6 380.3,186.6 381.2,186.6 	"/>
	<polygon class="st1" points="38.8,164.9 39.7,165.5 39.7,189.3 39.7,194.9 38.8,194.9 	"/>
	<rect x="36.6" y="164.9" class="st2" width="2.3" height="30"/>
	<polygon class="st1" points="36.6,164.9 35.7,165.5 35.7,189.2 35.7,194.8 36.6,194.8 	"/>
	<polygon class="st1" points="681,156.8 681.9,158.3 681.9,210.4 681.9,222.8 681,222.8 	"/>
	<rect x="678.8" y="156.8" class="st2" width="2.3" height="65.9"/>
	<polygon class="st1" points="678.8,156.8 677.9,158.3 677.9,210.3 677.9,222.6 678.8,222.6 	"/>
	<path class="st3" d="M24.6,234.5L0,239.8l11.3,31.6h35l22,22l62.3-7.9c0,0,67.2-9.5,72.1-8.3c4.9,1.1,117.6,22.4,119.8,21.9
		S423,283.9,423,283.9s52,1.7,54.8,1.1c2.8-0.6,123.1,14.7,123.1,14.7s22.6-18.6,24.8-18.6c2.3,0,68.3,13.6,70,13
		c1.7-0.6,18.1-16.8,18.1-16.8l-24.5-25.6L24.6,234.5z"/>
	<rect x="200.7" y="144.2" class="st2" width="92.6" height="88.1"/>
	<rect x="259.1" y="144.2" class="st2" width="92.6" height="8.2"/>
	<rect x="323.6" y="144.2" class="st2" width="56.3" height="88.1"/>
	<rect x="375.2" y="194.3" class="st2" width="180.9" height="38"/>
	<path class="st4" d="M244.5,198.6h2.1c0,0-1.3,8.5,3.4,15.3c0,0,4.1,7.3,15.2,7.9h424.1v1.7l-21.9,3.5l-145.9-1.8l-130.4,3.1
		c0,0-116.7-0.3-117-0.4s-27-3.9-27-3.9l-7.1-13.1L244.5,198.6z"/>
	<g>
		<polygon class="st5" points="265.2,223.5 237.9,223.5 237.9,265.2 689.3,265.2 689.3,223.5 		"/>
		<polygon class="st6" points="237.9,200.4 24.6,187.2 24.6,252.1 237.9,265.2 237.9,223.5 		"/>
		<path class="st5" d="M265.2,223.5c-11.5,0-20.9-9.4-20.9-20.9c0-0.7,0-1.5,0.1-2.2h-6.5v23.1H265.2z"/>
	</g>
	<polygon class="st7" points="24.6,187.2 23,187 23,185.1 238.3,198.6 238.3,200.4 237.9,200.4 	"/>
	<polygon class="st4" points="238.3,198.6 244.5,198.6 244.4,200.4 238.3,200.4 	"/>
	<rect x="200.7" y="142.4" class="st4" width="179.2" height="1.8"/>
	<polygon class="st4" points="379.9,194.3 387,186.8 555.8,186.6 556.1,194.3 	"/>
	<polygon class="st8" points="387,186.8 379.9,186.6 379.9,194.3 	"/>
	<polygon class="st8" points="293.3,152.4 295.2,154.4 295.2,221.8 293.3,221.8 	"/>
	<polygon class="st8" points="323.6,221.8 323.6,152.4 321.5,154.2 321.5,221.8 	"/>
	<polygon class="st9" points="295.2,154.4 321.5,154.2 323.6,152.4 293.3,152.4 	"/>
	<rect x="295.2" y="154.3" class="st10" width="26.4" height="67.4"/>
	<path class="st4" d="M200.7,188.3c-8.5,1-93.5,2.1-93.5,2.1l93.5,5.8V188.3z"/>
	<polygon class="st8" points="200.7,196.2 197.4,196 195.3,188.6 200.7,188.3 	"/>
	<circle class="st11" cx="461.9" cy="63.8" r="63.8"/>
	<polygon class="st12" points="44.3,169.7 46,164.5 40.7,165.7 	"/>
	<polygon class="st12" points="49.8,168.1 51.4,162.9 46.1,164.1 	"/>
	<polygon class="st12" points="55.2,166.5 56.8,161.3 51.5,162.5 	"/>
	<polygon class="st12" points="60.5,165 62.2,159.8 56.9,161 	"/>
	<polygon class="st12" points="66.2,164 67.9,158.8 62.6,160 	"/>
	<polygon class="st12" points="71.6,162.4 73.3,157.2 68,158.4 	"/>
	<polygon class="st12" points="77.1,161.6 78.7,156.4 73.4,157.6 	"/>
	<polygon class="st12" points="82.5,160.3 84.2,155.1 78.9,156.3 	"/>
	<polygon class="st12" points="87.9,158.8 89.6,153.6 84.2,154.8 	"/>
	<polygon class="st12" points="93.3,157.6 94.9,152.4 89.6,153.6 	"/>
	<polygon class="st12" points="105.1,154.6 106.8,149.4 101.5,150.6 	"/>
	<polygon class="st12" points="99.1,156.2 100.7,151.1 95.4,152.2 	"/>
	<polygon class="st12" points="116.5,151.6 118.2,146.4 112.9,147.6 	"/>
	<polygon class="st12" points="122.2,150 123.8,144.8 118.5,146 	"/>
	<polygon class="st12" points="110.8,153.2 112.5,148 107.2,149.2 	"/>
	<polygon class="st12" points="133.7,147.4 135.4,142.3 130.1,143.4 	"/>
	<polygon class="st12" points="139.3,145.8 141,140.6 135.7,141.8 	"/>
	<polygon class="st12" points="128,149 129.6,143.9 124.3,145 	"/>
	<polygon class="st12" points="151.1,143.2 152.7,138 147.4,139.2 	"/>
	<polygon class="st12" points="156.7,141.6 158.3,136.4 153,137.5 	"/>
	<polygon class="st12" points="145.3,144.8 147,139.6 141.7,140.8 	"/>
	<polygon class="st12" points="168.3,138.6 170,133.4 164.7,134.6 	"/>
	<polygon class="st12" points="174,136.9 175.6,131.8 170.3,132.9 	"/>
	<polygon class="st12" points="162.6,140.2 164.3,135 159,136.2 	"/>
	<polygon class="st12" points="185.5,134.4 187.1,129.2 181.8,130.4 	"/>
	<polygon class="st12" points="191.1,132.8 192.7,127.6 187.4,128.8 	"/>
	<polygon class="st12" points="196.8,131.7 198.4,126.5 193.1,127.7 	"/>
	<polygon class="st12" points="202.4,130 204,124.8 198.7,126 	"/>
	<polygon class="st12" points="179.8,136 181.4,130.8 176.1,132 	"/>
	<polygon class="st12" points="208.9,128.7 210.5,123.6 205.2,124.7 	"/>
	<polygon class="st12" points="214.5,127.1 216.1,121.9 210.8,123.1 	"/>
	<polygon class="st12" points="226.2,124.1 227.8,119 222.5,120.1 	"/>
	<polygon class="st12" points="231.8,122.5 233.4,117.3 228.1,118.5 	"/>
	<polygon class="st12" points="220.4,125.7 222.1,120.5 216.8,121.7 	"/>
	<polygon class="st12" points="243.3,120 244.9,114.8 239.6,116 	"/>
	<polygon class="st12" points="248.9,118.3 250.6,113.1 245.3,114.3 	"/>
	<polygon class="st12" points="254.6,117.2 256.2,112 250.9,113.2 	"/>
	<polygon class="st12" points="260.2,115.6 261.8,110.4 256.5,111.6 	"/>
	<polygon class="st12" points="237.6,121.5 239.2,116.4 233.9,117.5 	"/>
	<polygon class="st12" points="266.7,114.2 268.3,109 263,110.2 	"/>
	<polygon class="st12" points="272.3,112.5 273.9,107.3 268.6,108.5 	"/>
	<polygon class="st12" points="283.9,109.6 285.6,104.4 280.3,105.5 	"/>
	<polygon class="st12" points="289.5,107.9 291.2,102.7 285.9,103.9 	"/>
	<polygon class="st12" points="278.2,111.1 279.9,106 274.6,107.1 	"/>
	<polygon class="st12" points="301.1,105.4 302.7,100.2 297.4,101.4 	"/>
	<polygon class="st12" points="306.7,103.7 308.3,98.5 303,99.7 	"/>
	<polygon class="st12" points="312.4,102.6 314,97.4 308.7,98.6 	"/>
	<polygon class="st12" points="318,101 319.6,95.8 314.3,97 	"/>
	<polygon class="st12" points="295.4,107 297,101.8 291.7,103 	"/>
	<polygon class="st12" points="324.2,99.4 325.8,94.3 320.5,95.4 	"/>
	<polygon class="st12" points="329.8,97.8 331.4,92.6 326.1,93.8 	"/>
	<polygon class="st12" points="341.5,94.8 343.1,89.6 337.8,90.8 	"/>
	<polygon class="st12" points="347.1,93.2 348.7,88 343.4,89.2 	"/>
	<polygon class="st12" points="335.7,96.4 337.4,91.2 332.1,92.4 	"/>
	<polygon class="st12" points="358.6,90.7 360.3,85.5 354.9,86.7 	"/>
	<polygon class="st12" points="364.2,89 365.9,83.8 360.6,85 	"/>
	<polygon class="st12" points="369.9,87.9 371.5,82.7 366.2,83.9 	"/>
	<polygon class="st12" points="375.5,86.3 377.1,81.1 371.8,82.3 	"/>
	<polygon class="st12" points="352.9,92.2 354.5,87.1 349.2,88.2 	"/>
	<polygon class="st12" points="386,85.7 389.9,81.9 384.7,80.4 	"/>
	<polygon class="st12" points="391.7,87 395.6,83.2 390.4,81.7 	"/>
	<polygon class="st12" points="403.3,90 407.3,86.3 402,84.8 	"/>
	<polygon class="st12" points="409,91.3 413,87.6 407.8,86 	"/>
	<polygon class="st12" points="397.6,88.7 401.5,84.9 396.3,83.4 	"/>
	<polygon class="st12" points="420.4,94.7 424.3,90.9 419.1,89.4 	"/>
	<polygon class="st12" points="426.1,95.9 430,92.2 424.8,90.7 	"/>
	<polygon class="st12" points="431.6,97.7 435.5,94 430.3,92.4 	"/>
	<polygon class="st12" points="437.3,99 441.2,95.2 436,93.7 	"/>
	<polygon class="st12" points="414.6,93.3 418.5,89.6 413.3,88 	"/>
	<polygon class="st12" points="443.6,100.8 447.6,97 442.3,95.5 	"/>
	<polygon class="st12" points="449.3,102.1 453.3,98.3 448,96.8 	"/>
	<polygon class="st12" points="461,105.1 464.9,101.4 459.7,99.8 	"/>
	<polygon class="st12" points="466.7,106.4 470.6,102.6 465.4,101.1 	"/>
	<polygon class="st12" points="455.2,103.8 459.1,100 453.9,98.5 	"/>
	<polygon class="st12" points="478,109.8 482,106 476.8,104.5 	"/>
	<polygon class="st12" points="483.7,111 487.7,107.3 482.5,105.8 	"/>
	<polygon class="st12" points="489.2,112.8 493.1,109.1 487.9,107.5 	"/>
	<polygon class="st12" points="494.9,114.1 498.8,110.3 493.6,108.8 	"/>
	<polygon class="st12" points="472.3,108.4 476.2,104.7 471,103.1 	"/>
	<polygon class="st12" points="501.3,115.8 505.3,112 500,110.5 	"/>
	<polygon class="st12" points="507,117 511,113.3 505.7,111.7 	"/>
	<polygon class="st12" points="518.7,120.1 522.6,116.3 517.4,114.8 	"/>
	<polygon class="st12" points="524.4,121.4 528.3,117.6 523.1,116.1 	"/>
	<polygon class="st12" points="512.9,118.7 516.8,115 511.6,113.4 	"/>
	<polygon class="st12" points="535.7,124.7 539.7,121 534.4,119.5 	"/>
	<polygon class="st12" points="541.4,126 545.4,122.3 540.1,120.7 	"/>
	<polygon class="st12" points="546.9,127.8 550.8,124 545.6,122.5 	"/>
	<polygon class="st12" points="552.6,129.1 556.5,125.3 551.3,123.8 	"/>
	<polygon class="st12" points="530,123.4 533.9,119.6 528.7,118.1 	"/>
	<polygon class="st12" points="558.4,130.9 562.3,127.2 557.1,125.6 	"/>
	<polygon class="st12" points="564.1,132.2 568,128.4 562.8,126.9 	"/>
	<polygon class="st12" points="575.7,135.2 579.6,131.5 574.4,130 	"/>
	<polygon class="st12" points="581.4,136.5 585.3,132.8 580.1,131.2 	"/>
	<polygon class="st12" points="569.9,133.9 573.9,130.1 568.7,128.6 	"/>
	<polygon class="st12" points="592.8,139.9 596.7,136.1 591.5,134.6 	"/>
	<polygon class="st12" points="598.5,141.2 602.4,137.4 597.2,135.9 	"/>
	<polygon class="st12" points="603.9,142.9 607.9,139.2 602.7,137.6 	"/>
	<polygon class="st12" points="609.6,144.2 613.6,140.5 608.4,138.9 	"/>
	<polygon class="st12" points="587,138.5 590.9,134.8 585.7,133.2 	"/>
	<polygon class="st12" points="615.9,146.2 619.9,142.4 614.6,140.9 	"/>
	<polygon class="st12" points="621.6,147.4 625.6,143.7 620.4,142.1 	"/>
	<polygon class="st12" points="633.3,150.5 637.2,146.7 632,145.2 	"/>
	<polygon class="st12" points="639,151.8 642.9,148 637.7,146.5 	"/>
	<polygon class="st12" points="627.5,149.1 631.5,145.4 626.2,143.8 	"/>
	<polygon class="st12" points="650.3,155.1 654.3,151.4 649.1,149.9 	"/>
	<polygon class="st12" points="656,156.4 660,152.7 654.8,151.1 	"/>
	<polygon class="st12" points="661.5,158.2 665.4,154.4 660.2,152.9 	"/>
	<polygon class="st12" points="667.2,159.5 671.1,155.7 665.9,154.2 	"/>
	<polygon class="st12" points="673.2,161 677.1,157.2 671.9,155.7 	"/>
	<polygon class="st12" points="644.6,153.8 648.5,150 643.3,148.5 	"/>
	<path class="st13" d="M39,165.4c2.6,1,342.2-85.6,342.2-85.6h2.3l295.3,77.6"/>
</g>
</svg>
