<?xml version="1.0" encoding="utf-8"?>
<!-- Generator: Adobe Illustrator 28.1.0, SVG Export Plug-In . SVG Version: 6.00 Build 0)  -->
<svg version="1.1" xmlns="http://www.w3.org/2000/svg" xmlns:xlink="http://www.w3.org/1999/xlink" x="0px" y="0px"
	 viewBox="0 0 806 269.9" style="enable-background:new 0 0 806 269.9;" xml:space="preserve">
<style type="text/css">
	.st0{display:none;}
	.st1{fill:#B0ADA7;}
	.st2{fill:#E4AB67;}
	.st3{fill:#C07658;}
	.st4{fill:#E08962;}
	.st5{fill:#CD4E4E;}
	.st6{fill:#DD5857;}
	.st7{fill:#AF484F;}
	.st8{fill:#A04143;}
	.st9{fill:#E95857;}
	.st10{fill:#F05452;}
	.st11{fill:#C44949;}
	.st12{fill:#A2393C;}
	.st13{fill:#C04343;}
	.st14{fill:#9B4042;}
	.st15{fill:#DF4F4F;}
	.st16{fill:#BD4243;}
	.st17{fill:#CA5151;}
	.st18{fill:#872E32;}
	.st19{fill:#CC4748;}
	.st20{fill:#C24848;}
	.st21{fill:#D34748;}
	.st22{fill:#CC5252;}
	.st23{fill:#370C36;}
	.st24{fill:#4C1C49;}
	.st25{fill:#984892;}
	.st26{fill:#682B5F;}
	.st27{fill:#632A5E;}
	.st28{fill:#AA58A2;}
	.st29{fill:#B26DAD;}
</style>
<g id="Laag_1" class="st0">
	
		<image style="display:inline;overflow:visible;opacity:0.6;" width="4096" height="1714" xlink:href="../../../../DES/originalMaterial/Untitled_Artwork 2.png"  transform="matrix(0.2058 0 0 0.2058 -35.8451 -216.6082)">
	</image>
</g>
<g id="Laag_4">
	<path class="st1" d="M571.3,188.9l2.1,2.9l-11.1,2l-33.3,4.6l-10.5,4.9l-18-2.2l-6.5,11.6l-23,6.2l-27.6-0.9l-16.2-12.9l-23.9-2.5
		l-29.7,1l-53.6,6.6l-19,6.4l-37.7,2.2l-36.6-9.8l-41-18.3c0,0,106.4-15.7,106.8-15.3s161.9-2,161.9-2l115.9,15.1"/>
	<polygon class="st1" points="435.4,211.6 456.8,237 474.6,258 505.9,251.8 524.7,234.8 531.7,207.9 541.4,196.7 500.5,201.1 	"/>
	<polygon class="st1" points="721.6,209.7 700.2,235.1 682.4,256.2 651.1,250 632.3,233 625.3,206 615.6,194.8 656.5,199.2 	"/>
</g>
<g id="Layer_6">
	<g>
		<rect x="455.1" y="221.7" class="st1" width="239.8" height="2.8"/>
		<polygon class="st1" points="481.7,240 456.4,221.7 453.7,223.6 479,241.9 		"/>
		<polygon class="st1" points="503.6,240 478.3,221.7 475.6,223.6 500.9,241.9 		"/>
		<polygon class="st1" points="525.5,240 500.2,221.7 497.5,223.6 522.8,241.9 		"/>
		<polygon class="st1" points="547.4,240 522.1,221.7 519.4,223.6 544.7,241.9 		"/>
		<polygon class="st1" points="569.3,240 544,221.7 541.3,223.6 566.6,241.9 		"/>
		<polygon class="st1" points="591.2,240 565.9,221.7 563.2,223.6 588.5,241.9 		"/>
		<polygon class="st1" points="613.1,240 587.8,221.7 585.1,223.6 610.4,241.9 		"/>
		<polygon class="st1" points="635,240 609.7,221.7 607,223.6 632.3,241.9 		"/>
		<polygon class="st1" points="656.9,240 631.6,221.7 628.9,223.6 654.2,241.9 		"/>
		<polygon class="st1" points="678.8,240 653.5,221.7 650.8,223.6 676.1,241.9 		"/>
		<polygon class="st1" points="689.6,232 675.4,221.7 672.7,223.6 686.9,233.9 		"/>
		<polygon class="st1" points="502.3,221.7 477,240 479,241.9 505,223.6 		"/>
		<polygon class="st1" points="479,222.3 466.4,231.5 469,233.4 481.7,224.2 		"/>
		<polygon class="st1" points="523.6,221.7 498.3,240 501,241.9 526.3,223.6 		"/>
		<polygon class="st1" points="545.4,221.7 520.1,240 522.8,241.9 548.1,223.6 		"/>
		<polygon class="st1" points="567.4,221.7 542.1,240 544.8,241.9 570.1,223.6 		"/>
		<polygon class="st1" points="589.4,221.7 564.1,240 566.8,241.9 592.1,223.6 		"/>
		<polygon class="st1" points="611.4,221.7 586.1,240 588.7,241.9 614,223.6 		"/>
		<polygon class="st1" points="633.2,221.7 607.9,240 610.6,241.9 635.9,223.6 		"/>
		<polygon class="st1" points="655,221.7 629.7,240 632.4,241.9 657.7,223.6 		"/>
		<polygon class="st1" points="676.9,221.7 651.6,240 654.2,241.9 679.5,223.6 		"/>
		<polygon class="st1" points="698.8,221.7 673.5,240 676.1,241.9 701.4,223.6 		"/>
	</g>
</g>
<g id="brug">
	<circle class="st2" cx="572.2" cy="71.8" r="60"/>
	<g>
		<rect x="435.2" y="93.1" class="st3" width="283.7" height="4.5"/>
		
			<rect x="429.1" y="79.4" transform="matrix(0.7071 -0.7071 0.7071 0.7071 73.9817 341.7886)" class="st3" width="40.9" height="4.3"/>
		
			<rect x="454.2" y="79.4" transform="matrix(0.7071 -0.7071 0.7071 0.7071 81.3161 359.4955)" class="st3" width="40.9" height="4.3"/>
		
			<rect x="479.2" y="79.4" transform="matrix(0.7071 -0.7071 0.7071 0.7071 88.6505 377.2024)" class="st3" width="40.9" height="4.3"/>
		
			<rect x="504.2" y="79.4" transform="matrix(0.7071 -0.7071 0.7071 0.7071 95.985 394.9093)" class="st3" width="40.9" height="4.3"/>
		
			<rect x="529.3" y="79.4" transform="matrix(0.7071 -0.7071 0.7071 0.7071 103.3194 412.6161)" class="st3" width="40.9" height="4.3"/>
		
			<rect x="554.3" y="79.4" transform="matrix(0.7071 -0.7071 0.7071 0.7071 110.6538 430.3231)" class="st3" width="40.9" height="4.3"/>
		
			<rect x="579.4" y="79.4" transform="matrix(0.7071 -0.7071 0.7071 0.7071 117.9883 448.0299)" class="st3" width="40.9" height="4.3"/>
		
			<rect x="604.4" y="79.4" transform="matrix(0.7071 -0.7071 0.7071 0.7071 125.3227 465.7368)" class="st3" width="40.9" height="4.3"/>
		
			<rect x="629.4" y="79.4" transform="matrix(0.7071 -0.7071 0.7071 0.7071 132.6571 483.4437)" class="st3" width="40.9" height="4.3"/>
		
			<rect x="654.5" y="79.4" transform="matrix(0.7071 -0.7071 0.7071 0.7071 139.9916 501.1506)" class="st3" width="40.9" height="4.3"/>
		
			<rect x="682.2" y="85.8" transform="matrix(0.7071 -0.7071 0.7071 0.7071 140.9698 516.2247)" class="st3" width="22.9" height="4.3"/>
		
			<rect x="455" y="79.4" transform="matrix(0.7071 0.7071 -0.7071 0.7071 196.9487 -312.2953)" class="st3" width="40.9" height="4.3"/>
		<polygon class="st3" points="462.5,96.6 448.1,82.1 451.1,79.1 465.6,93.6 		"/>
		
			<rect x="480.1" y="79.4" transform="matrix(0.7071 0.7071 -0.7071 0.7071 204.3065 -330.0584)" class="st3" width="40.9" height="4.3"/>
		
			<rect x="505" y="79.4" transform="matrix(0.7071 0.7071 -0.7071 0.7071 211.6091 -347.6884)" class="st3" width="40.9" height="4.3"/>
		
			<rect x="530.2" y="79.4" transform="matrix(0.7071 0.7071 -0.7071 0.7071 218.9794 -365.4818)" class="st3" width="40.9" height="4.3"/>
		
			<rect x="555.4" y="79.4" transform="matrix(0.7071 0.7071 -0.7071 0.7071 226.3497 -383.2753)" class="st3" width="40.9" height="4.3"/>
		
			<rect x="580.4" y="79.4" transform="matrix(0.7071 0.7071 -0.7071 0.7071 233.6898 -400.9959)" class="st3" width="40.9" height="4.3"/>
		
			<rect x="605.5" y="79.4" transform="matrix(0.7071 0.7071 -0.7071 0.7071 241.0173 -418.6862)" class="st3" width="40.9" height="4.3"/>
		
			<rect x="630.4" y="79.4" transform="matrix(0.7071 0.7071 -0.7071 0.7071 248.3131 -436.2998)" class="st3" width="40.9" height="4.3"/>
		
			<rect x="655.3" y="79.4" transform="matrix(0.7071 0.7071 -0.7071 0.7071 255.623 -453.9475)" class="st3" width="40.9" height="4.3"/>
		
			<rect x="680.4" y="79.4" transform="matrix(0.7071 0.7071 -0.7071 0.7071 262.9585 -471.6569)" class="st3" width="40.9" height="4.3"/>
	</g>
</g>
<g id="Layer_7">
	<g>
		<rect x="441.4" y="96.3" class="st4" width="274.1" height="4.5"/>
		
			<rect x="435.3" y="82.6" transform="matrix(0.7071 -0.7071 0.7071 0.7071 73.5401 347.1144)" class="st4" width="40.9" height="4.3"/>
		
			<rect x="460.4" y="82.6" transform="matrix(0.7071 -0.7071 0.7071 0.7071 80.8745 364.8213)" class="st4" width="40.9" height="4.3"/>
		
			<rect x="485.4" y="82.6" transform="matrix(0.7071 -0.7071 0.7071 0.7071 88.209 382.5282)" class="st4" width="40.9" height="4.3"/>
		
			<rect x="510.4" y="82.6" transform="matrix(0.7071 -0.7071 0.7071 0.7071 95.5434 400.2351)" class="st4" width="40.9" height="4.3"/>
		
			<rect x="535.5" y="82.6" transform="matrix(0.7071 -0.7071 0.7071 0.7071 102.8778 417.942)" class="st4" width="40.9" height="4.3"/>
		
			<rect x="560.5" y="82.6" transform="matrix(0.7071 -0.7071 0.7071 0.7071 110.2123 435.6489)" class="st4" width="40.9" height="4.3"/>
		
			<rect x="585.6" y="82.6" transform="matrix(0.7071 -0.7071 0.7071 0.7071 117.5467 453.3557)" class="st4" width="40.9" height="4.3"/>
		
			<rect x="610.6" y="82.6" transform="matrix(0.7071 -0.7071 0.7071 0.7071 124.8811 471.0626)" class="st4" width="40.9" height="4.3"/>
		
			<rect x="635.7" y="82.6" transform="matrix(0.7071 -0.7071 0.7071 0.7071 132.2156 488.7695)" class="st4" width="40.9" height="4.3"/>
		
			<rect x="660.7" y="82.6" transform="matrix(0.7071 -0.7071 0.7071 0.7071 139.55 506.4764)" class="st4" width="40.9" height="4.3"/>
		
			<rect x="688.4" y="89" transform="matrix(0.7071 -0.7071 0.7071 0.7071 140.5283 521.5505)" class="st4" width="22.9" height="4.3"/>
		<polygon class="st4" points="495.4,100.8 466.5,71.8 468.7,68.8 498.4,97.7 		"/>
		<polygon class="st4" points="468.7,99.8 454.3,85.3 457.3,82.3 471.8,96.8 		"/>
		
			<rect x="486.3" y="82.6" transform="matrix(0.7071 0.7071 -0.7071 0.7071 208.3846 -333.5121)" class="st4" width="40.9" height="4.3"/>
		
			<rect x="511.3" y="82.6" transform="matrix(0.7071 0.7071 -0.7071 0.7071 215.6872 -351.1421)" class="st4" width="40.9" height="4.3"/>
		
			<rect x="536.4" y="82.6" transform="matrix(0.7071 0.7071 -0.7071 0.7071 223.0575 -368.9355)" class="st4" width="40.9" height="4.3"/>
		
			<rect x="561.6" y="82.6" transform="matrix(0.7071 0.7071 -0.7071 0.7071 230.4278 -386.729)" class="st4" width="40.9" height="4.3"/>
		
			<rect x="586.6" y="82.6" transform="matrix(0.7071 0.7071 -0.7071 0.7071 237.7679 -404.4496)" class="st4" width="40.9" height="4.3"/>
		
			<rect x="611.7" y="82.6" transform="matrix(0.7071 0.7071 -0.7071 0.7071 245.0955 -422.1399)" class="st4" width="40.9" height="4.3"/>
		
			<rect x="636.6" y="82.6" transform="matrix(0.7071 0.7071 -0.7071 0.7071 252.3913 -439.7535)" class="st4" width="40.9" height="4.3"/>
		
			<rect x="661.5" y="82.6" transform="matrix(0.7071 0.7071 -0.7071 0.7071 259.7011 -457.4012)" class="st4" width="40.9" height="4.3"/>
		
			<rect x="686.6" y="82.6" transform="matrix(0.7071 0.7071 -0.7071 0.7071 267.0366 -475.1106)" class="st4" width="40.9" height="4.3"/>
	</g>
</g>
<g id="Laag_3">
	<path class="st5" d="M715.5,166.9l-28.3-8.8l-17.4,7.4l1.1,3.6c0,0,25.7,4.2,26,4.1C697.1,173.1,715.5,166.9,715.5,166.9z"/>
	<polygon class="st6" points="713,95.2 702.9,113.6 712.6,101.9 	"/>
	<polygon class="st7" points="721.4,100.8 702.9,113.6 712.6,101.9 	"/>
	<polygon class="st8" points="713,95.2 721.4,100.8 712.6,101.9 	"/>
	<polyline class="st9" points="395.1,62.7 390.8,60.9 377.4,62.7 377.4,64.2 	"/>
	<polygon class="st10" points="655,161 672.5,159.8 669.8,165.4 	"/>
	<polygon class="st11" points="672.5,159.8 669.8,165.4 668.9,165.2 672.1,159.8 	"/>
	<polygon class="st12" points="730.9,161 715.5,166.9 716.7,167.2 732,161.9 	"/>
	<path class="st10" d="M681,127c1-0.7,9.6-10.4,9.6-10.4l14.4-6.9l-2.2,4.4L681,127z"/>
	<polygon class="st10" points="584.3,187.8 587.8,186.2 599.9,184.4 586.8,188.2 	"/>
	<polygon class="st5" points="594.5,185.2 631.5,171.7 655,161 636.1,174 597.2,185.2 	"/>
	<path class="st13" d="M485.8,165.7l-20.5-12L456,143l-13.4-14.4l-15.1-2.5l-14.6-10.7c0,0-10.7-11.3-11.6-11.6
		s-16.9-12.1-16.9-12.1L369.1,78l-14,30.7l31.1,72.8c0,0,30.5,5.2,31.4,5c0.8-0.2,63.1-9.5,63.1-9.5L485.8,165.7z"/>
	<path class="st9" d="M331.5,71c0.3,0,45.4-0.9,45.4-0.9l-0.3,8.3l-3.8-1.6L331.5,71z"/>
	<path class="st14" d="M439.2,167.4c-0.2,0.1-15.7-5.2-15.7-5.2l-34.3-54.6l-9.5-12.9l15.8,4.1l18.2,21.6l26.6,46.7L439.2,167.4z"/>
	<polygon class="st12" points="380.1,95.1 423.5,162.2 424.6,161.3 394.1,113.1 385.7,96.5 	"/>
	<path class="st15" d="M485.8,165.7l-5.1-10.4c0,0-5.4-27.2-6.2-28.1c-0.8-0.8-21.2-12.4-21.9-13.3c-0.6-0.9-18.6-12.9-18.6-12.9
		l-12-1.2l-8.5-5.4l-13.4-2.8L385,95.1l9.5,18.9c0,0,27.2,46.8,30.1,47.4c2.9,0.6,43.1,17.1,44.1,16.5
		C469.8,177.2,485.8,165.7,485.8,165.7z"/>
	<path class="st5" d="M440.1,167.2l28.3-8.8l17.4,7.4l-1.1,3.6c0,0-25.7,4.2-26,4.1S440.1,167.2,440.1,167.2z"/>
	<path class="st12" d="M440.1,167.2l-37.1,10l-1.4-22.9l-4.3-16.7l-11-16.8l-11.3-6.8l-9.9-9.5l-0.7,0.3l18.9,33.1l11.1,42.2
		c0,0,10.1-0.3,10.3-0.3s37.3-10.7,37.3-10.7l-0.5-1.2L440.1,167.2z"/>
	<path class="st16" d="M568.8,188.5c0,0-48.5-14-49.1-14.2c-0.6-0.2-19.2-13-19.2-13l-15.9,4.7l-14.2-6l-72,19.2l1.1,11.1l173.7,1.5
		l-1.9-3.7L568.8,188.5z"/>
	<path class="st17" d="M281.2,83.9c-0.4-0.2-8.3,1.1-8.3,1.1l2.1,3.1L281.2,83.9z"/>
	<polygon class="st9" points="274.3,87 281.2,83.9 306.5,87.9 310.8,91.7 	"/>
	<path class="st18" d="M313.1,92l-38.5-5.8l2.9,19.8c0,0,27.2,11.7,27.6,11.7c0.4,0,10-15.8,10-15.8L313.1,92z"/>
	<polygon class="st12" points="362.7,103.8 372.8,76.7 331.5,71 326,89.1 311.6,89.5 302.5,114.9 346.2,155.3 374.7,124.2 	"/>
	<polygon class="st19" points="402.8,190.2 400.9,153.3 396.6,137.1 385.6,121 374.1,113.9 364.5,104.7 360.1,104.3 351.2,123.2 
		344.5,148.6 345.8,182.1 366.5,192.2 	"/>
	<polyline class="st16" points="373.1,191.8 378.8,191.5 374.6,175.6 345.1,146.1 344.5,148.6 373.1,175.6 373.1,191.8 	"/>
	<path class="st13" d="M442.6,95.5l-8.5,5.6l-12-1.2l-8.5-5.4c0,0-13.2-0.6-13.8,0c-0.6,0.6-15.9,0.6-15.9,0.6l-13.3-12.9l6.7-18
		c0,0,16.9-1.4,17.7-1.4c0.8,0,19.4,6.6,19.4,6.6l20,14.5L442.6,95.5z"/>
	<polygon class="st6" points="442.6,95.5 452.7,113.9 443,102.2 	"/>
	<polygon class="st7" points="434.1,101.1 452.7,113.9 443,102.2 	"/>
	<polygon class="st8" points="442.6,95.5 434.1,101.1 443,102.2 	"/>
	<path class="st12" d="M394.1,113.1c-0.1-0.1-14-18-14-18l5.3,0.7L394.1,113.1z"/>
	<polygon class="st9" points="360.1,104.3 362.7,103.8 365.1,104.5 364.5,104.7 	"/>
	<path class="st20" d="M391.6,96.6l-6.3-0.8c0,0,8.9,17.7,8.8,17.3C393.9,112.8,391.6,96.6,391.6,96.6z"/>
	<polygon class="st10" points="377.4,91.7 400.3,91.7 413.7,94.5 392,96.6 385.7,96.5 380.1,95.1 	"/>
	<polygon class="st21" points="306.5,87.9 326.6,87.1 326,89.1 311.6,89.5 311.6,89.5 	"/>
	<polygon class="st17" points="311.6,89.5 306.5,87.9 310.8,91.7 	"/>
	<polygon class="st9" points="414.5,69.3 412.2,67.4 398.1,61.4 395.1,62.7 	"/>
	<polygon class="st22" points="390.8,60.9 398.1,61.4 395.1,62.7 	"/>
	<polygon class="st7" points="434.5,83.9 418.7,71 412.2,67.4 414.5,69.3 	"/>
	<polygon class="st10" points="500.5,161.3 483,160.1 485.8,165.7 	"/>
	<polygon class="st11" points="483,160.1 485.8,165.7 486.7,165.5 483.4,160.1 	"/>
	<polygon class="st12" points="424.6,161.3 440.1,167.2 438.9,167.5 423.5,162.2 	"/>
	<path class="st10" d="M474.5,127.3c-1-0.7-9.6-10.4-9.6-10.4l-14.4-6.9l2.2,4.4L474.5,127.3z"/>
	<polygon class="st10" points="571.3,188.1 567.8,186.5 555.7,184.7 568.8,188.5 	"/>
	<polygon class="st5" points="561.1,185.5 524,172 500.5,161.3 519.5,174.3 558.4,185.5 	"/>
</g>
<g id="Laag_2">
	<g>
		<path class="st23" d="M30.3,147c1.7-1.1,73.4-69,73.4-69l-29.4,46.2l-32.7,25.7L30.3,147z"/>
		<g>
			<polygon class="st24" points="0,191.8 0,175.6 56.7,150 74.3,124.2 123.2,78 167.8,58.5 169.4,47.5 186.6,37.8 187.3,194.9 
				160.3,198.6 118.5,204.2 87.2,196 			"/>
			<polygon class="st25" points="0,175.6 41.5,149.9 74.3,124.2 56.7,150 			"/>
			<polygon class="st25" points="123.2,78 169.4,47.5 167.8,58.5 			"/>
			<polygon class="st26" points="56.7,150 41.5,149.9 74.3,124.2 			"/>
			<polygon class="st26" points="167.8,58.5 158,55 169.4,47.5 			"/>
			<path class="st27" d="M87.2,196c3.3-5,36-118,36-118l44.6-19.5l-49.2,145.8L87.2,196z"/>
			<polygon class="st24" points="0,175.6 30.3,147 41.5,149.9 			"/>
			<polygon class="st24" points="123.2,78 103.7,78 74.3,124.2 			"/>
			<polygon class="st28" points="103.7,78 114.4,72.5 132.5,71.8 123.2,78 			"/>
			<polygon class="st28" points="186.6,37.8 172.4,37.8 163.1,43.2 174.8,44.4 			"/>
			<polygon class="st24" points="132.5,71.8 163.1,43.2 174.8,44.4 			"/>
			<polygon class="st23" points="153.7,52 158.3,55.1 174.8,44.4 163.1,43.2 			"/>
		</g>
	</g>
	<polygon class="st24" points="373.1,191.8 373.1,175.6 316.4,150 298.8,124.2 249.9,78 205.3,58.5 203.6,47.5 186.5,37.8 
		185.7,194.9 212.7,198.6 254.5,204.2 285.9,196 	"/>
	<polygon class="st25" points="373.1,175.6 331.5,149.9 298.8,124.2 316.4,150 	"/>
	<polygon class="st25" points="249.9,78 203.6,47.5 205.3,58.5 	"/>
	<polygon class="st26" points="316.4,150 331.5,149.9 298.8,124.2 	"/>
	<polygon class="st26" points="205.3,58.5 215.1,55 203.6,47.5 	"/>
	<path class="st27" d="M285.9,196c-3.3-5-36-118-36-118l-44.6-19.5l49.2,145.8L285.9,196z"/>
	<polygon class="st24" points="373.1,175.6 342.8,147 331.5,149.9 	"/>
	<polygon class="st24" points="249.9,78 269.4,78 298.8,124.2 	"/>
	<path class="st23" d="M342.8,147c-1.7-1.1-73.4-69-73.4-69l29.4,46.2l32.7,25.7L342.8,147z"/>
	<polygon class="st28" points="269.4,78 258.7,72.5 240.6,71.8 249.9,78 	"/>
	<polygon class="st28" points="186.5,37.8 200.6,37.8 210,43.2 198.2,44.4 	"/>
	<polygon class="st24" points="240.6,71.8 210,43.2 198.2,44.4 	"/>
	<polygon class="st23" points="219.4,52 214.8,55.1 198.2,44.4 210,43.2 	"/>
	<polygon class="st29" points="172.4,37.8 185.7,34.8 200.6,37.8 186.5,37.8 	"/>
	<polygon class="st1" points="789.1,191.8 782.5,191.5 782.5,191.5 776.8,191.2 756.1,190.1 756.1,190.1 582.7,191.5 582.4,191.8 
		593.3,193.5 626.6,198.1 637,203 655,200.7 661.6,212.3 684.6,218.6 712.2,217.7 728.3,204.8 752.3,202.3 781.9,203.3 806,206.3 
		806,183.6 	"/>
	<path class="st13" d="M754,153.9l4.3-16.7l11-16.8l11.3-6.8l9.9-9.5l2.4-0.7l-8-21.6l-9.7,9.5h3.1l-2.3,3.1l0,0l-0.5,0.6L732,161.9
		c0,0-15.4,5.3-15.7,5.2l24.8,6.7c3.7,0.1,7.6,0.1,11.6,0.2L754,153.9z"/>
	<polygon class="st13" points="715.5,166.9 715.5,166.9 716.3,167.1 	"/>
	<path class="st13" d="M752.7,173.9c-4-0.1-7.9-0.1-11.6-0.2l11.4,3.1L752.7,173.9z"/>
	<path class="st9" d="M806,73.2v-2.8c-10.1-0.2-21.4-0.4-25.7-0.5l2.4,6.6L806,73.2z"/>
	<polygon class="st14" points="775.4,95 775.8,94.4 775.8,94.4 775.5,94.8 	"/>
	<path class="st14" d="M716.3,167.1c0.2,0.1,15.7-5.2,15.7-5.2l-1.1-0.9c-1.1,0.2-7.7,2.8-15.5,5.8L716.3,167.1L716.3,167.1z"/>
	<polygon class="st12" points="766.3,107.3 732,161.9 775.4,95 	"/>
	<path class="st12" d="M775.4,95l0.1-0.2c0,0-14,17.8-14,18l-0.4,0.8c0,0-27.2,46.8-30.1,47.4l1.1,0.9l34.3-54.6L775.4,95z"/>
	<path class="st15" d="M699.6,142.6l13.4-14.4l15.1-2.5l14.6-10.7c0,0,10.7-11.3,11.6-11.6c0.2-0.1,1.7-1.1,3.7-2.5l2-2.4l2.1-0.5
		c0.6-0.4,1.2-0.9,1.8-1.3c0-0.2,0.1-0.4,0.1-0.4l0,0l-0.4,0l-21.7-2.1l-8.5,5.4l-12,1.2c0,0-17.9,12-18.6,12.9s-21,12.5-21.9,13.3
		c-0.8,0.8-6.2,28.1-6.2,28.1l-5.1,10.4l20.5-12L699.6,142.6z"/>
	<path class="st15" d="M670.9,165.7l14.2-6l28.8,7.7l1.5-0.6h0c0,0,0,0,0,0l-0.2-0.1l26.6-46.7l16.1-19.2c-2,1.4-3.5,2.5-3.7,2.5
		c-0.8,0.2-11.6,11.6-11.6,11.6L728,125.7l-15.1,2.5l-13.4,14.4l-9.3,10.7l-20.5,12l0,0L670.9,165.7z"/>
	<path class="st15" d="M763.9,96.7c-0.6,0.4-1.2,0.9-1.8,1.3l1.7-0.4C763.8,97.2,763.9,96.9,763.9,96.7z"/>
	<path class="st15" d="M760,98.5l-2,2.4c1.2-0.9,2.7-1.9,4.1-3L760,98.5z"/>
	<path class="st15" d="M762.3,111.1l0.3-0.5C762.5,110.7,762.4,110.9,762.3,111.1z"/>
	<path class="st15" d="M763,109.8l0.2-0.3C763.1,109.6,763.1,109.7,763,109.8z"/>
	<path class="st15" d="M765.3,105.2l4.4-8.7C768.9,98.1,767,101.8,765.3,105.2z"/>
	<path class="st15" d="M761.5,112.8l0.1-0.2C761.5,112.8,761.5,112.8,761.5,112.8z"/>
	<path class="st15" d="M763.7,108.4l1-2C764.3,107.1,764,107.8,763.7,108.4z"/>
	<path class="st15" d="M761.7,112.4l0.4-0.7C761.9,111.9,761.8,112.2,761.7,112.4z"/>
	<path class="st15" d="M761.5,112.8c0.1-0.3,1.8-11.5,2.3-15.3l-1.7,0.4c-1.5,1.1-2.9,2.1-4.1,3l-16.1,19.2l-26.6,46.7l0.2,0.1
		c7.8-3,14.4-5.6,15.5-5.8L761.5,112.8z"/>
	<path class="st15" d="M761.1,113.6l0.4-0.8l0,0L730.9,161C733.8,160.4,761.1,113.6,761.1,113.6z"/>
	<path class="st12" d="M737.4,173.7c1.2,0,2.4,0,3.7,0.1l-24.8-6.7h0l0,0l-0.9-0.2c-0.5,0.2-1,0.4-1.5,0.6L737.4,173.7z"/>
	<path class="st12" d="M780.5,113.6l-11.3,6.8l-11,16.8l-4.3,16.7l-1.3,20c0.3,0,0.6,0,0.9,0l1.1-21l4.3-16.2l10.9-16.1l11.6-7.1
		l9.6-9.2l-0.7-0.3L780.5,113.6z"/>
	<path class="st12" d="M753.6,173.9c-0.3,0-0.6,0-0.9,0l-0.2,2.9l-11.4-3.1c-1.2,0-2.5,0-3.7-0.1l16,4.3L753.6,173.9z"/>
	<polygon class="st12" points="716.3,167.1 716.3,167.1 716.3,167.1 	"/>
	<path class="st12" d="M715.5,166.9L715.5,166.9l-1.5,0.6h0C714.5,167.2,715,167,715.5,166.9z"/>
	<path class="st16" d="M675,176.7c-0.1,0-0.2,0-0.2,0l-5.1-11.3L655,161c0,0-18.6,12.8-19.2,13c-0.6,0.2-49.1,14.2-49.1,14.2
		l-2.5-0.4l-1.9,3.7l0.2,0l1.8-2.6L675,176.7z"/>
	<path class="st16" d="M756.1,190.1l-3.3-0.2l0.3-6c-7.5,1.2-14.8,2.4-15.2,2.3c-0.8-0.2-59.5-8.9-63-9.5l-90.5,12.2l-1.8,2.6
		L756.1,190.1L756.1,190.1z"/>
	<path class="st16" d="M675,176.7l8.9-1.2c-4.9-3.5-14.1-10.1-14.1-10.1l0,0l5.1,11.3C674.8,176.7,674.9,176.7,675,176.7z"/>
	<path class="st16" d="M714,167.4c-5.3,2.1-10.9,4.3-15.7,6.1l2.8-0.4c0,0,12,0.2,29.5,0.4c-8.8-2.5-17.1-4.9-17.1-4.9L714,167.4z"
		/>
	<path class="st16" d="M750.8,179.4c-0.1,0-10.4-3-20.2-5.8c-17.5-0.3-29.5-0.4-29.5-0.4l-2.8,0.4c-6.3,2.4-11.1,4.2-11.5,3.9
		c-0.2-0.1-1.4-0.9-2.9-2l-8.9,1.2c3.5,0.5,62.1,9.3,63,9.5c0.4,0.1,7.7-1,15.2-2.3l0.2-4.4C751.9,179.4,750.8,179.4,750.8,179.4z"
		/>
	<path class="st16" d="M714,167.4L714,167.4L714,167.4l-28.8-7.7l-14.2,6l-1.1-0.3c0,0,9.2,6.6,14.1,10.1l14.4-1.9
		C703.1,171.7,708.7,169.5,714,167.4z"/>
	<path class="st16" d="M698.3,173.6l-14.4,1.9c1.5,1.1,2.6,1.9,2.9,2C687.1,177.7,692,176,698.3,173.6z"/>
	<path class="st16" d="M714,167.4C714,167.4,714,167.4,714,167.4l-0.5,1.2c0,0,8.3,2.4,17.1,4.9c2.2,0,4.5,0.1,6.9,0.1L714,167.4z"
		/>
	<path class="st16" d="M737.4,173.7c-2.4,0-4.7-0.1-6.9-0.1c9.8,2.8,20.2,5.8,20.2,5.8c0,0,1.1,0,2.5,0.1l0.1-1.5L737.4,173.7z"/>
	<polygon class="st16" points="714,167.4 714,167.4 714,167.4 714,167.4 	"/>
	<polygon class="st12" points="786.4,77.7 800.4,108.4 799.1,111.6 804.4,122.8 806,129.2 806,73.2 782.8,76.4 784.1,79.8 	"/>
	<polygon class="st12" points="795.5,104 799.1,111.6 800.4,108.4 786.4,77.7 784.1,79.8 784.8,81.9 784.8,81.9 792.8,103.5 	"/>
	<path class="st19" d="M806,174.6V153l-22.5,21.3C791.1,174.4,798.7,174.5,806,174.6z"/>
	<path class="st19" d="M789.7,133.5l-17.4,40.6c3.2,0,6.4,0.1,9.6,0.1l23.5-23.5L789.7,133.5z"/>
	<path class="st19" d="M780.9,175.3l1-1c-3.2,0-6.4-0.1-9.6-0.1l-3,7c0,0-5.9,1-12.6,2.1l-0.6,6.7l20.7,1.1l0,0L780.9,175.3z"/>
	<path class="st19" d="M783.5,174.3l-1,1v16.2l6.6,0.4l17-8.2v-9C798.7,174.5,791.1,174.4,783.5,174.3z"/>
	<path class="st19" d="M780.9,123.9l11.5-19.6l-1.2,0.1l-18.9,33.1l-9.7,36.6c3.2,0,6.5,0.1,9.8,0.1l17.4-40.6L780.9,123.9z"/>
	<path class="st19" d="M761.1,179.7c0,0-1.8,0-4-0.1l-0.4,3.7c6.7-1.1,12.6-2.1,12.6-2.1l3-7c-3.3,0-6.6-0.1-9.8-0.1L761.1,179.7z"
		/>
	<path class="st19" d="M769.9,120.7L759,136.8l-4.3,16.2l-1.1,21c2.9,0,5.9,0.1,8.9,0.1l9.7-36.6l18.9-33.1l-9.6,9.2L769.9,120.7z"
		/>
	<path class="st19" d="M762.5,174.1c-3,0-6-0.1-8.9-0.1l-0.2,4l3.7,1l-0.1,0.6c2.1,0.1,4,0.1,4,0.1L762.5,174.1z"/>
	<path class="st19" d="M753.1,183.9l-0.3,6l3.3,0.2l0.6-6.7C755.5,183.5,754.3,183.7,753.1,183.9z"/>
	<path class="st19" d="M757.1,179.6c-1.3,0-2.6-0.1-3.7-0.1l-0.2,4.4c1.2-0.2,2.4-0.4,3.6-0.6L757.1,179.6z"/>
	<path class="st19" d="M753.4,178l-0.1,1.5c1.1,0,2.5,0.1,3.7,0.1l0.1-0.6L753.4,178z"/>
	<polygon class="st19" points="799.1,111.6 789.7,133.5 805.4,150.8 806,150.2 806,129.2 804.4,122.8 	"/>
	<polygon class="st19" points="792.3,104.3 780.9,123.9 789.7,133.5 799.1,111.6 795.5,104 	"/>
	<polygon class="st16" points="782.5,191.5 782.5,191.5 776.8,191.2 	"/>
	<path class="st16" d="M805.4,150.8l-23.5,23.5c0.5,0,1.1,0,1.6,0L806,153v-1.6L805.4,150.8z"/>
	<path class="st16" d="M783.5,174.3c-0.5,0-1.1,0-1.6,0l-1,1l-4.1,15.9l0,0l5.7,0.3v-16.2L783.5,174.3z"/>
	<polygon class="st16" points="806,150.2 805.4,150.8 806,151.4 	"/>
	<path class="st13" d="M741.9,94.2l13.4-2.8h15.9l12.9-11.6l-1.3-3.4L779,78l-0.3-8.3c0,0,0.6,0,1.7,0l-2.2-5.9c0,0-0.3,0-0.8-0.1
		V64l-17.5-1.4L741,69l-20,14.5l-8,11.7l8.5,5.6l12-1.2L741.9,94.2z"/>
	<polygon class="st13" points="784.8,81.9 784.1,79.8 771.2,91.4 775.1,91.4 	"/>
	<path class="st13" d="M779,78l3.8-1.6l0,0l-2.4-6.6c-1.1,0-1.7,0-1.7,0L779,78z"/>
	<rect x="783.4" y="76.3" class="st13" width="0" height="3.6"/>
	
		<rect x="784.4" y="79.7" transform="matrix(0.9379 -0.3468 0.3468 0.9379 20.6642 277.0957)" class="st13" width="0" height="2.2"/>
	<path class="st12" d="M762.3,111.1C762.3,111.1,762.3,111.1,762.3,111.1l0.3-0.6c0,0,0,0,0,0L762.3,111.1z"/>
	<path class="st12" d="M763,109.9C762.9,109.9,762.9,109.9,763,109.9l0.3-0.6c0,0,0,0.1,0,0.1L763,109.9z"/>
	<path class="st12" d="M761.7,112.4C761.7,112.4,761.7,112.4,761.7,112.4l0.4-0.8c0,0,0,0,0,0L761.7,112.4z"/>
	<path class="st12" d="M765.1,105.7l4.8-9.5l0,0l-4.7,9.3C765.1,105.5,765.1,105.6,765.1,105.7z"/>
	<path class="st12" d="M763.6,108.5C763.6,108.6,763.6,108.6,763.6,108.5l1.3-2.5c0,0.1-0.1,0.1-0.1,0.2L763.6,108.5z"/>
	<path class="st12" d="M765.1,105.7c-0.1,0.1-0.1,0.2-0.2,0.4l-1.3,2.6c-0.1,0.2-0.2,0.5-0.3,0.7l-0.3,0.6c-0.1,0.2-0.2,0.4-0.3,0.6
		l-0.3,0.6c-0.1,0.2-0.2,0.3-0.2,0.5l-0.4,0.8c0,0.1-0.1,0.2-0.1,0.2l-0.1,0.2c0.1-0.1,14-18,14-18l-5.6,1.4L765.1,105.7z"/>
	<path class="st12" d="M763.2,109.4C763.2,109.4,763.2,109.4,763.2,109.4l-0.2,0.4c0,0,0,0.1,0,0.1L763.2,109.4z"/>
	<path class="st12" d="M769.9,96.2L769.9,96.2c0,0.1-0.1,0.2-0.1,0.3l-4.4,8.7c0,0.1-0.1,0.2-0.1,0.3L769.9,96.2z"/>
	<path class="st12" d="M764.8,106.2c0,0.1-0.1,0.1-0.1,0.2l-1,2c0,0,0,0.1-0.1,0.1L764.8,106.2z"/>
	<path class="st12" d="M762.6,110.5C762.6,110.5,762.6,110.5,762.6,110.5l-0.3,0.6c0,0,0,0,0,0L762.6,110.5z"/>
	<path class="st12" d="M762.1,111.6C762.1,111.6,762.1,111.6,762.1,111.6l-0.4,0.8c0,0,0,0,0,0L762.1,111.6z"/>
	<polygon class="st12" points="761.5,112.6 761.5,112.8 761.6,112.6 	"/>
	<polygon class="st12" points="761.6,112.6 761.6,112.6 761.5,112.8 761.5,112.8 	"/>
	<polygon class="st9" points="790.4,104.2 791.1,104.4 792.3,104.3 792.8,103.5 	"/>
	<polygon class="st9" points="792.8,103.5 792.3,104.3 795.5,104 	"/>
	<path class="st20" d="M764,96.3L764,96.3c0,0-0.1,0.1-0.1,0.4c0.2-0.1,0.4-0.3,0.6-0.4L764,96.3z"/>
	<path class="st20" d="M768.9,96.2l-4.5,0.1c-0.2,0.1-0.4,0.3-0.6,0.4c0,0.2-0.1,0.5-0.1,0.9L768.9,96.2z"/>
	<path class="st20" d="M761.7,112.4c0.1-0.2,0.2-0.4,0.4-0.7l0.3-0.6c0.1-0.2,0.2-0.3,0.3-0.5l0.4-0.8c0.1-0.1,0.1-0.2,0.2-0.3
		l0.5-1c0.3-0.6,0.7-1.3,1-2l0.6-1.2c1.7-3.4,3.6-7,4.4-8.7l0.1-0.3l-1,0l-5.1,1.3c-0.5,3.8-2.2,15-2.3,15.3c0,0,0,0,0.1-0.2
		L761.7,112.4z"/>
	<path class="st20" d="M763.2,109.4C763.2,109.3,763.2,109.3,763.2,109.4l0.4-0.8c0,0,0-0.1,0-0.1L763.2,109.4z"/>
	<path class="st20" d="M762.6,110.5C762.6,110.5,762.6,110.5,762.6,110.5l0.3-0.6c0,0,0,0,0-0.1L762.6,110.5z"/>
	<path class="st20" d="M764.8,106.2c0-0.1,0.1-0.1,0.1-0.2l0.2-0.4c0-0.1,0.1-0.2,0.1-0.2L764.8,106.2z"/>
	<path class="st20" d="M762.1,111.6C762.1,111.6,762.1,111.6,762.1,111.6l0.3-0.5c0,0,0,0,0,0L762.1,111.6z"/>
	<polygon class="st20" points="761.6,112.5 761.7,112.4 761.7,112.4 	"/>
	<path class="st20" d="M762.3,111.1l-0.2,0.5C762.2,111.4,762.2,111.3,762.3,111.1z"/>
	<path class="st20" d="M763.6,108.6l-0.3,0.7C763.3,109.1,763.5,108.9,763.6,108.6z"/>
	<path class="st20" d="M765.1,105.7l-0.2,0.4C764.9,105.9,765,105.8,765.1,105.7z"/>
	<path class="st20" d="M761.6,112.5l-0.1,0.1c0-0.1,0.1-0.1,0.1-0.2L761.6,112.5z"/>
	<path class="st20" d="M762.9,109.9l-0.3,0.6C762.7,110.3,762.8,110.1,762.9,109.9z"/>
	<path class="st20" d="M763.6,108.5c0,0,0-0.1,0.1-0.1l-0.5,1c0,0,0-0.1,0-0.1L763.6,108.5z"/>
	<polygon class="st20" points="761.7,112.4 761.7,112.4 761.5,112.6 761.6,112.6 761.6,112.5 	"/>
	<path class="st20" d="M765.2,105.5c0-0.1,0.1-0.2,0.1-0.3l-0.6,1.2c0-0.1,0.1-0.1,0.1-0.2L765.2,105.5z"/>
	<path class="st20" d="M763,109.9C763,109.8,763,109.8,763,109.9l-0.3,0.7c0,0,0,0,0,0L763,109.9z"/>
	<path class="st20" d="M762.3,111.1C762.3,111.1,762.3,111.1,762.3,111.1l-0.3,0.5c0,0,0,0,0,0L762.3,111.1z"/>
	<path class="st20" d="M769.9,96.2l-0.1,0.3C769.8,96.4,769.8,96.3,769.9,96.2L769.9,96.2z"/>
	<polygon class="st20" points="761.6,112.6 761.6,112.6 761.6,112.5 	"/>
	<path class="st10" d="M773,95.1l2.8-0.7l2.3-3.1h-3.1l-3.5,3.4c0,0-0.4,0-1,0l-0.4,0.7L773,95.1z"/>
	<polygon class="st10" points="775.5,94.8 775.8,94.4 773,95.1 	"/>
	<path class="st10" d="M766.5,94.8c-4.5-0.1-10.5-0.2-10.8-0.6c-0.6-0.6-13.8,0-13.8,0l21.7,2.1l0.4,0l0.5-0.1
		C765.2,95.7,765.9,95.2,766.5,94.8z"/>
	<path class="st10" d="M770.2,95.5l0.4-0.7c-0.9,0-2.4,0-4,0c-0.6,0.5-1.3,1-2,1.5L770.2,95.5L770.2,95.5z"/>
	<path class="st10" d="M770.2,95.6c0,0.1-0.1,0.2-0.2,0.3v0L770.2,95.6z"/>
	<path class="st10" d="M770,95.9c0,0.1-0.1,0.1-0.1,0.2L770,95.9L770,95.9z"/>
	<path class="st10" d="M771.2,91.4h-15.9l12.2,2.7C769.6,92.5,771.2,91.4,771.2,91.4z"/>
	<path class="st10" d="M770.6,94.7L770.6,94.7c0.6,0.1,1,0.1,1,0.1l3.5-3.4h-3.9c0,0-1.5,1.1-3.7,2.7L770.6,94.7z"/>
	<path class="st10" d="M755.7,94.2c0.4,0.4,6.3,0.5,10.8,0.6c0.3-0.2,0.7-0.5,1-0.7l-12.2-2.7l-13.4,2.8
		C741.9,94.2,755.1,93.6,755.7,94.2z"/>
	<path class="st10" d="M770.6,94.7l-3.1-0.7c-0.3,0.2-0.6,0.5-1,0.7C768.2,94.8,769.6,94.8,770.6,94.7L770.6,94.7z"/>
	<polygon class="st10" points="773,95.1 770.2,95.5 770,95.9 	"/>
	<polygon class="st10" points="770,95.9 769.9,96.2 769.9,96.2 775.5,94.8 773,95.1 	"/>
	<path class="st10" d="M770,95.9l0.2-0.4l0,0c0,0,0,0-0.1,0.1L770,95.9L770,95.9z"/>
	<path class="st10" d="M769.9,96.2l0.1-0.3h0L769.9,96.2C769.9,96.1,769.9,96.2,769.9,96.2L769.9,96.2z"/>
	<path class="st10" d="M764.5,96.2l-0.5,0.1L764.5,96.2C764.5,96.3,764.5,96.2,764.5,96.2z"/>
	<path class="st10" d="M770.2,95.6l0.1-0.1l-5.7,0.7c0,0-0.1,0-0.1,0.1l4.5-0.1l1.1-0.3C770.1,95.8,770.1,95.7,770.2,95.6z"/>
	<path class="st10" d="M769.9,96.1c0-0.1,0.1-0.1,0.1-0.2l-1.1,0.3L769.9,96.1L769.9,96.1z"/>
	<path class="st10" d="M770.2,95.6c0-0.1,0.1-0.1,0.1-0.1L770.2,95.6z"/>
	<path class="st10" d="M769.9,96.1L769.9,96.1L769.9,96.1C769.9,96.2,769.9,96.1,769.9,96.1z"/>
	<path class="st9" d="M777.4,63.8v-1.2l-13.2-1.8l-3.8,1.6C761.1,62.4,774,63.5,777.4,63.8z"/>
	<path class="st9" d="M759.8,62.6l17.5,1.4v-0.3c-3.4-0.3-16.2-1.4-16.9-1.4L759.8,62.6z"/>
	<path class="st9" d="M759.7,62.6L759.7,62.6l0.6-0.3l-2.7-1.2l-14.1,6L741,69C741,69,756.1,63.7,759.7,62.6z"/>
	<path class="st9" d="M741,69l18.8-6.4l-0.2,0C756.1,63.7,741,69,741,69z"/>
	<path class="st9" d="M760.2,62.3l-0.6,0.3l0.1,0c0.4-0.1,0.7-0.2,0.7-0.2L760.2,62.3z"/>
	<path class="st9" d="M759.7,62.6l0.2,0l0.6-0.2C760.3,62.4,760.1,62.5,759.7,62.6z"/>
	<polygon class="st22" points="763.9,60.8 764.2,60.8 764.7,60.6 757.5,61.1 760.2,62.3 	"/>
	<polygon class="st22" points="760.2,62.3 760.4,62.4 764.2,60.8 763.9,60.8 	"/>
	<polygon class="st7" points="743.4,67.1 736.8,70.7 721,83.5 741,69 	"/>
</g>
</svg>
