<?xml version="1.0" encoding="utf-8"?>
<!-- Generator: Adobe Illustrator 26.5.0, SVG Export Plug-In . SVG Version: 6.00 Build 0)  -->
<svg version="1.1" xmlns="http://www.w3.org/2000/svg" xmlns:xlink="http://www.w3.org/1999/xlink" x="0px" y="0px"
	 viewBox="0 0 724.6 177.7" style="enable-background:new 0 0 724.6 177.7;" xml:space="preserve">
<style type="text/css">
	.st0{display:none;}
	.st1{fill:#3F1E3A;}
	.st2{fill:#562952;}
	.st3{fill:#924483;}
	.st4{fill:#713464;}
	.st5{fill:#C04B4B;}
	.st6{fill:none;}
	.st7{fill:#78396E;}
	.st8{fill:#C076AF;}
	.st9{fill:#D65853;}
	.st10{fill:#5B2B52;}
	.st11{fill:#7D3A74;}
	.st12{fill:#6B3266;}
	.st13{fill:#8F448C;}
	.st14{fill:#E48A5F;}
	.st15{fill:#B04747;}
</style>
<g id="background" class="st0">
	
		<image style="display:inline;overflow:visible;" width="1280" height="772" xlink:href="../../../../DES/originalMaterial/DSR-1632_1280x772-dth.jpg"  transform="matrix(0.6119 0 0 0.6119 -27.2941 -176.1621)">
	</image>
</g>
<g id="reference" class="st0">
	
		<image style="display:inline;overflow:visible;opacity:0.7;" width="3508" height="2480" xlink:href="../../../../DES/originalMaterial/Untitled_Artwork copy 2.png"  transform="matrix(0.24 0 0 0.24 -74.1646 -246.0517)">
	</image>
</g>
<g id="kleurenpallet" class="st0">
</g>
<g id="Laag_3">
	<polygon class="st1" points="561,162.1 639.5,162.1 639.5,104.3 560,104.3 	"/>
	<path class="st2" d="M635.4,162.1l-5.6-3.4c0,0,4.6-49.6-21.1-52c-25.7-2.3,0-0.6,0-0.6s5.1-7.2,6.1-7.2c1,0,30.5,7.5,30.5,7.5
		l1.3,36.8L635.4,162.1z"/>
	<path class="st3" d="M601.2,115.6c-17.2,0-31.1,13.9-31.1,31.1c0,17.2,13.9,31.1,31.1,31.1s31.1-13.9,31.1-31.1
		C632.3,129.5,618.4,115.6,601.2,115.6z M601.2,166.6c-11,0-20-8.9-20-20c0-11,8.9-20,20-20s20,8.9,20,20
		C621.2,157.7,612.2,166.6,601.2,166.6z"/>
	<circle class="st4" cx="601.2" cy="146.7" r="20"/>
	<circle class="st3" cx="601.2" cy="146.8" r="6"/>
	<polygon class="st1" points="129.9,160.3 208.3,160.3 208.3,104.6 128.8,104.6 	"/>
	<path class="st2" d="M204.2,160.3l-5.6-3.3c0,0,4.6-48.6-21.1-50.9s0-0.6,0-0.6s5.1-7.1,6.1-7.1s30.5,7.3,30.5,7.3l1.3,36
		L204.2,160.3z"/>
	<path class="st5" d="M656.5,83H5.4L0,92.7V159l132.8,1.4V134c0-15.5,12.5-28,28-28h15.4c15.5,0,28,12.5,28,28v27l96.3,1h262.8v-28
		c0-15.5,12.5-28,28-28h15.4c15.5,0,28,12.5,28,28v28h21.8V83z"/>
	<path class="st3" d="M170.1,113.8c-17.2,0-31.1,13.9-31.1,31.1c0,17.2,13.9,31.1,31.1,31.1s31.1-13.9,31.1-31.1
		C201.1,127.7,187.2,113.8,170.1,113.8z M170.1,164.8c-11,0-20-8.9-20-20c0-11,8.9-20,20-20s20,8.9,20,20
		C190,155.9,181.1,164.8,170.1,164.8z"/>
	<circle class="st4" cx="170.1" cy="144.8" r="20"/>
	<circle class="st3" cx="170.1" cy="144.9" r="6"/>
	<polygon class="st4" points="597.6,79.6 606,79.6 614.6,96.9 655.4,97 655.4,30.8 624.1,30.8 	"/>
	<polygon class="st5" points="43.4,16.3 52.8,0 692.3,0 706,12.1 706,30.8 623.3,30.8 625.4,28.8 36.1,30.8 	"/>
	<polygon class="st4" points="35.4,30.8 7.4,79.6 300.5,79.6 300.5,30.8 	"/>
	<polygon class="st4" points="624.1,30.8 351.6,30.8 351.6,79.6 597.6,79.6 	"/>
	<path class="st4" d="M165.5,60.8l1-1.7C166.1,59.6,165.8,60.2,165.5,60.8z"/>
	<path class="st6" d="M290.3,40.3c0-4-3.2-7.3-7.2-7.4l6.3,10.9C290,42.8,290.3,41.6,290.3,40.3z"/>
	<path class="st6" d="M275.5,40.3c0,4.1,3.3,7.4,7.4,7.4c2.8,0,5.3-1.6,6.5-3.9l-6.5-10.2v-0.8C278.8,32.9,275.5,36.2,275.5,40.3z"
		/>
	<path class="st4" d="M179.8,63.6c0-4.1-3.3-7.4-7.4-7.4c-2.4,0-4.6,1.2-5.9,2.9l-1,1.7c-0.4,0.9-0.6,1.8-0.6,2.8
		c0,4.1,3.3,7.4,7.4,7.4S179.8,67.7,179.8,63.6z"/>
	<path class="st4" d="M283.2,32.9h-0.3C283,32.9,283.1,32.9,283.2,32.9L283.2,32.9z"/>
	<path class="st3" d="M289.4,47.1c0.6-1,0.9-2.2,0.9-3.5c0-4.1-3.3-7.4-7.4-7.4H181.6l-15.1,26.2l-1,1.7c-0.4,0.9-0.6,1.8-0.6,2.8
		c0,4.1,3.3,7.4,7.4,7.4h101.1L289.4,47.1L289.4,47.1C289.4,47.1,289.4,47.1,289.4,47.1z"/>
	<path class="st3" d="M485,47.1c0.6-1,0.9-2.2,0.9-3.5c0-4.1-3.3-7.4-7.4-7.4H377.1l-15.1,26.2l-1,1.7c-0.4,0.9-0.6,1.8-0.6,2.8
		c0,4.1,3.3,7.4,7.4,7.4h101.1L485,47.1L485,47.1C485,47.1,485,47.1,485,47.1z"/>
	<path class="st3" d="M607.4,47.1c0.6-1,0.9-2.2,0.9-3.5c0-4.1-3.3-7.4-7.4-7.4H499.6l-15.1,26.2l-1,1.7c-0.4,0.9-0.6,1.8-0.6,2.8
		c0,4.1,3.3,7.4,7.4,7.4h101.1L607.4,47.1L607.4,47.1C607.4,47.1,607.4,47.1,607.4,47.1z"/>
	<path class="st3" d="M160.5,47.1c0.6-1,0.9-2.2,0.9-3.5c0-4.1-3.3-7.4-7.4-7.4H52.7L37.6,62.3l-1,1.7c-0.4,0.9-0.6,1.8-0.6,2.8
		c0,4.1,3.3,7.4,7.4,7.4h101.1L160.5,47.1L160.5,47.1C160.5,47.1,160.5,47.1,160.5,47.1z"/>
	<path class="st7" d="M273.5,74.3l-2-2H167.7c0,0,1.2,2,4.7,2S273.5,74.3,273.5,74.3z"/>
	<path class="st7" d="M181.7,36.1l2,2h104.3c0,0-1.7-2-5.2-2C279.3,36.1,181.7,36.1,181.7,36.1z"/>
	<path class="st8" d="M183.6,38.1l-16,26.9c0,0-1.3,5.3,2.5,7.2l-1.5,1c0,0-5.1-2.5-3.4-8.6c1.7-6.1,16.4-28.5,16.4-28.5L183.6,38.1
		z"/>
	<path class="st8" d="M271.6,72.3l16-26.9c0,0,1.3-5.3-2.5-7.2l1.5-1c0,0,5.1,2.5,3.4,8.6c-1.7,6.1-16.4,28.5-16.4,28.5L271.6,72.3z
		"/>
	<path class="st7" d="M144.6,74.3l-2-2H38.8c0,0,1.2,2,4.7,2S144.6,74.3,144.6,74.3z"/>
	<path class="st7" d="M52.8,36.1l2,2h104.3c0,0-1.7-2-5.2-2S52.8,36.1,52.8,36.1z"/>
	<path class="st8" d="M54.7,38.1L38.8,65c0,0-1.3,5.3,2.5,7.2l-1.5,1c0,0-5.1-2.5-3.4-8.6s16.4-28.5,16.4-28.5L54.7,38.1z"/>
	<path class="st8" d="M142.8,72.3l16-26.9c0,0,1.3-5.3-2.5-7.2l1.5-1c0,0,5.1,2.5,3.4,8.6c-1.7,6.1-16.4,28.5-16.4,28.5L142.8,72.3z
		"/>
	<path class="st7" d="M469.1,74.3l-2-2H363.3c0,0,1.2,2,4.7,2C371.5,74.3,469.1,74.3,469.1,74.3z"/>
	<path class="st7" d="M377.3,36.1l2,2h104.3c0,0-1.7-2-5.2-2C474.9,36.1,377.3,36.1,377.3,36.1z"/>
	<path class="st8" d="M379.2,38.1l-16,26.9c0,0-1.3,5.3,2.5,7.2l-1.5,1c0,0-5.1-2.5-3.4-8.6c1.7-6.1,16.4-28.5,16.4-28.5L379.2,38.1
		z"/>
	<path class="st8" d="M467.3,72.3l16-26.9c0,0,1.3-5.3-2.5-7.2l1.5-1c0,0,5.1,2.5,3.4,8.6c-1.7,6.1-16.4,28.5-16.4,28.5L467.3,72.3z
		"/>
	<path class="st7" d="M591.5,74.3l-2-2H485.7c0,0,1.2,2,4.7,2C493.9,74.3,591.5,74.3,591.5,74.3z"/>
	<path class="st7" d="M499.7,36.1l2,2h104.3c0,0-1.7-2-5.2-2S499.7,36.1,499.7,36.1z"/>
	<path class="st8" d="M501.6,38.1l-16,26.9c0,0-1.3,5.3,2.5,7.2l-1.5,1c0,0-5.1-2.5-3.4-8.6s16.4-28.5,16.4-28.5L501.6,38.1z"/>
	<path class="st8" d="M589.7,72.3l16-26.9c0,0,1.3-5.3-2.5-7.2l1.5-1c0,0,5.1,2.5,3.4,8.6s-16.4,28.5-16.4,28.5L589.7,72.3z"/>
	<polygon class="st9" points="42.7,17.7 647.3,17.7 639.1,30.8 35.4,30.8 	"/>
	<polygon class="st9" points="7.3,79.6 0,92.7 300.5,92.7 300.5,79.6 	"/>
	<polygon class="st9" points="612.6,92.7 606,79.6 351.6,79.6 351.6,92.7 	"/>
	<rect x="300.5" y="30.8" class="st3" width="11.9" height="48.8"/>
	<rect x="313.5" y="30.8" class="st3" width="11.9" height="48.8"/>
	<rect x="326.5" y="30.8" class="st3" width="11.9" height="48.8"/>
	<rect x="339.6" y="30.8" class="st3" width="12" height="48.8"/>
	<rect x="300.5" y="79.6" class="st3" width="11.9" height="82.4"/>
	<rect x="313.5" y="79.6" class="st3" width="11.9" height="82.4"/>
	<rect x="326.5" y="79.6" class="st3" width="11.9" height="82.4"/>
	<rect x="339.6" y="79.6" class="st3" width="12" height="82.4"/>
	<rect x="312.4" y="30.8" class="st10" width="1.1" height="131.3"/>
	<rect x="325.4" y="30.8" class="st10" width="1.1" height="131.3"/>
	<rect x="338.4" y="30.8" class="st10" width="1.2" height="131.3"/>
	<polygon class="st11" points="300.5,30.8 312.4,30.8 312.4,31.9 301.5,31.9 	"/>
	<polygon class="st11" points="313.5,30.8 325.4,30.8 325.4,31.9 314.5,31.9 	"/>
	<polygon class="st11" points="326.5,30.8 338.4,30.8 338.4,31.9 327.5,31.9 	"/>
	<polygon class="st11" points="339.8,30.8 351.6,30.8 351.6,31.9 340.7,31.9 	"/>
	<polygon class="st12" points="340.7,31.9 340.7,79.6 339.6,79.6 339.6,30.8 339.8,30.8 	"/>
	<polygon class="st12" points="327.6,31.9 327.6,79.6 326.5,79.6 326.5,30.8 326.7,30.8 	"/>
	<g>
		<polygon class="st11" points="329.3,36.4 336.7,36.4 336.7,37.1 329.9,37.1 		"/>
		<polygon class="st12" points="330,37.1 330,66.7 329.3,66.7 329.3,36.4 329.4,36.4 		"/>
		<polygon class="st11" points="336.7,66.7 329.3,66.7 330,66 336.1,66 		"/>
		<polygon class="st12" points="336,66 336,37.1 336.7,36.4 336.7,66.7 336.6,66.7 		"/>
	</g>
	<g>
		<polygon class="st11" points="342.5,36.4 349.8,36.4 349.8,37.1 343.1,37.1 		"/>
		<polygon class="st12" points="343.2,37.1 343.2,66.7 342.5,66.7 342.5,36.4 342.6,36.4 		"/>
		<polygon class="st11" points="349.8,66.7 342.5,66.7 343.2,66 349.3,66 		"/>
		<polygon class="st12" points="349.1,66 349.1,37.1 349.8,36.4 349.8,66.7 349.7,66.7 		"/>
	</g>
	<g>
		<polygon class="st11" points="316.3,36.4 323.7,36.4 323.7,37.1 316.9,37.1 		"/>
		<polygon class="st12" points="317,37.1 317,66.7 316.3,66.7 316.3,36.4 316.4,36.4 		"/>
		<polygon class="st11" points="323.7,66.7 316.3,66.7 317,66 323.1,66 		"/>
		<polygon class="st12" points="323,66 323,37.1 323.7,36.4 323.7,66.7 323.6,66.7 		"/>
	</g>
	<g>
		<polygon class="st11" points="303.3,36.4 310.7,36.4 310.7,37.1 303.9,37.1 		"/>
		<polygon class="st12" points="304,37.1 304,66.7 303.3,66.7 303.3,36.4 303.4,36.4 		"/>
		<polygon class="st11" points="310.7,66.7 303.3,66.7 304,66 310.1,66 		"/>
		<polygon class="st12" points="310,66 310,37.1 310.7,36.4 310.7,66.7 310.6,66.7 		"/>
	</g>
	<polygon class="st12" points="314.6,31.9 314.6,79.6 313.5,79.6 313.5,30.8 313.7,30.8 	"/>
	<polygon class="st12" points="301.6,31.9 301.6,79.6 300.5,79.6 300.5,30.8 300.7,30.8 	"/>
	<rect x="304" y="37.1" class="st13" width="6" height="28.9"/>
	<rect x="317" y="37.1" class="st13" width="6" height="28.9"/>
	<rect x="330" y="37.1" class="st13" width="6" height="28.9"/>
	<rect x="343.2" y="37.1" class="st13" width="6" height="28.9"/>
	<rect x="655.4" y="30.8" class="st3" width="22.5" height="66.2"/>
	<polygon class="st11" points="655.6,30.8 677.9,30.8 677.9,31.9 656.5,31.9 	"/>
	<polygon class="st12" points="656.5,31.9 656.5,96.9 655.4,96.9 655.4,30.8 655.6,30.8 	"/>
	<polygon class="st11" points="660.3,36.4 673.6,36.4 673.6,37.6 661.4,37.6 	"/>
	<polygon class="st12" points="661.5,37.6 661.5,91.3 660.3,91.3 660.3,36.4 660.5,36.4 	"/>
	<polygon class="st11" points="673.6,91.3 660.3,91.3 661.5,90.1 672.6,90.1 	"/>
	<polygon class="st12" points="672.4,90.1 672.4,37.6 673.6,36.4 673.6,91.3 673.4,91.3 	"/>
	<rect x="661.5" y="37.7" class="st13" width="10.8" height="52.4"/>
	<rect x="677.5" y="30.8" class="st3" width="22.5" height="66.2"/>
	<polygon class="st11" points="677.7,30.8 700,30.8 700,31.9 678.6,31.9 	"/>
	<polygon class="st12" points="678.6,31.9 678.6,97 677.5,97 677.5,30.8 677.7,30.8 	"/>
	<polygon class="st11" points="682.4,36.4 695.7,36.4 695.7,37.6 683.4,37.6 	"/>
	<polygon class="st12" points="683.6,37.6 683.6,91.3 682.4,91.3 682.4,36.4 682.6,36.4 	"/>
	<polygon class="st11" points="695.7,91.3 682.4,91.3 683.6,90.1 694.6,90.1 	"/>
	<polygon class="st12" points="694.5,90.1 694.5,37.6 695.7,36.4 695.7,91.3 695.5,91.3 	"/>
	<rect x="683.6" y="37.7" class="st13" width="10.8" height="52.4"/>
	<rect x="655.4" y="95.9" class="st3" width="22.5" height="66.2"/>
	<polygon class="st11" points="655.6,95.9 677.9,95.9 677.9,97 656.5,97 	"/>
	<polygon class="st12" points="656.5,97 656.5,162.1 655.4,162.1 655.4,95.9 655.6,95.9 	"/>
	<polygon class="st11" points="660.3,101.5 673.6,101.5 673.6,102.7 661.4,102.7 	"/>
	<polygon class="st12" points="661.5,102.7 661.5,156.4 660.3,156.4 660.3,101.5 660.5,101.5 	"/>
	<polygon class="st11" points="673.6,156.4 660.3,156.4 661.5,155.2 672.6,155.2 	"/>
	<polygon class="st12" points="672.4,155.2 672.4,102.7 673.6,101.5 673.6,156.4 673.4,156.4 	"/>
	<rect x="661.5" y="102.8" class="st13" width="10.8" height="52.4"/>
	<rect x="677.5" y="95.9" class="st3" width="22.5" height="66.2"/>
	<polygon class="st11" points="677.7,95.9 700,95.9 700,97 678.6,97 	"/>
	<polygon class="st12" points="678.6,97 678.6,162.1 677.5,162.1 677.5,95.9 677.7,95.9 	"/>
	<polygon class="st11" points="682.4,101.5 695.7,101.5 695.7,102.7 683.4,102.7 	"/>
	<polygon class="st12" points="683.6,102.7 683.6,156.4 682.4,156.4 682.4,101.5 682.6,101.5 	"/>
	<polygon class="st11" points="695.7,156.4 682.4,156.4 683.6,155.2 694.6,155.2 	"/>
	<polygon class="st12" points="694.5,155.2 694.5,102.7 695.7,101.5 695.7,156.4 695.5,156.4 	"/>
	<rect x="683.6" y="102.8" class="st13" width="10.8" height="52.4"/>
	<rect x="300.5" y="79.6" class="st12" width="1.1" height="82.4"/>
	<rect x="313.5" y="79.6" class="st12" width="1.1" height="82.4"/>
	<rect x="326.5" y="79.6" class="st12" width="1.1" height="82.4"/>
	<rect x="339.6" y="79.6" class="st12" width="1.1" height="82.4"/>
	<polygon class="st4" points="700,30.8 706,30.8 706,96.9 700,96.9 	"/>
	<rect x="700" y="96.9" class="st5" width="6" height="65.1"/>
	<polygon class="st14" points="639.1,30.8 642.3,30.8 651.5,15.8 43.9,15.8 42.7,17.7 647.3,17.7 	"/>
	<polygon class="st14" points="612.6,92.7 614.6,96.9 351.6,96.9 351.6,92.7 	"/>
	<rect y="92.7" class="st14" width="300.5" height="4.2"/>
	<polygon class="st14" points="35.4,30.8 37,27.9 640.5,27.9 639.1,30.8 	"/>
	<polygon class="st14" points="7.3,79.6 300.5,79.6 300.5,83 5.4,83 	"/>
	<polygon class="st14" points="351.6,79.6 606,79.6 607.7,83 351.6,83 	"/>
	<polygon class="st14" points="603.5,83 608.3,92.7 612.6,92.7 607.7,83 	"/>
	<polygon class="st15" points="706,12.1 724.6,30.8 706,30.8 	"/>
	<polygon class="st10" points="724.6,30.8 706,30.8 706,96.9 724.6,91.3 	"/>
	<polygon class="st15" points="706,96.9 706,162.1 724.6,155.2 724.6,91.3 	"/>
</g>
</svg>
