<?xml version="1.0" encoding="utf-8"?>
<!-- Generator: Adobe Illustrator 26.5.0, SVG Export Plug-In . SVG Version: 6.00 Build 0)  -->
<svg version="1.1" xmlns="http://www.w3.org/2000/svg" xmlns:xlink="http://www.w3.org/1999/xlink" x="0px" y="0px"
	 viewBox="0 0 425.2 425.2" style="enable-background:new 0 0 425.2 425.2;" xml:space="preserve">
<style type="text/css">
	.st0{display:none;}
	.st1{fill:#84407A;}
	.st2{fill:#70376B;}
	.st3{fill:#592A50;}
	.st4{fill:#492445;}
	.st5{fill:#713464;}
	.st6{fill:#4C2649;}
	.st7{fill:#64305C;}
	.st8{fill:#5B2D59;}
	.st9{fill:#6D3568;}
	.st10{fill:#3A1C36;}
	.st11{fill:#472343;}
	.st12{fill:#8F478A;}
	.st13{fill:#A04F97;}
	.st14{fill:#221323;}
	.st15{fill:none;}
	.st16{fill:#462849;}
	.st17{fill:#56325B;}
</style>
<g id="referentie" class="st0">
	
		<image style="display:inline;overflow:visible;" width="4818" height="7227" xlink:href="../../../../DES/originalMaterial/yoann-siloine-_T4w3JDm6ug-unsplash.jpg"  transform="matrix(0.2175 0 0 0.2175 -311.4476 -573.4706)">
	</image>
</g>
<g id="Laag_2">
	<g>
		<path class="st1" d="M120.6,81.4h289.2c0,0,14.2,0.3,15.4,19.4h-8.4l-296.3-8.2V81.4z"/>
		<path class="st1" d="M120.6,92.6V81.4c0,0-4.9-0.1-4.9,1.6c0,1.8,0,14.5,0,14.5l7.4,0.9L120.6,92.6z"/>
		<path class="st2" d="M115.8,96.6L115.7,83c0,0-1.6,6.2-5.3,6.3v11.5l2.7,1.6l2.6-2.8L115.8,96.6z"/>
		<path class="st1" d="M0.1,113.9l3.5-19.5c0,0,4.1-6.7,12.7-4.7l-1.3,11.1l-6.8,5.9L0.1,113.9z"/>
		<path class="st3" d="M0,331.9v20.9c0,8.3,6.8,15.1,15.1,15.1h395c8.3,0,15.1-6.8,15.1-15.1v-20.9H0z"/>
		<rect x="0" y="331.9" class="st4" width="425.2" height="4.3"/>
		<path class="st3" d="M425.2,168.8l0-52.9c0-8.3-6.8-15.1-15.1-15.1h-395c-8.3,0-15.1,6.8-15.1,15.1l0,52.9H425.2z"/>
		<rect y="168.8" class="st4" width="425.2" height="4.3"/>
		<rect x="0" y="173.1" class="st5" width="425.2" height="158.9"/>
		<circle class="st4" cx="240.7" cy="249.8" r="105.5"/>
		<circle class="st3" cx="240.7" cy="253.1" r="105.5"/>
		<circle class="st6" cx="240.5" cy="253.1" r="101.6"/>
		<circle class="st7" cx="240.7" cy="257" r="101.6"/>
		<circle class="st8" cx="240.7" cy="259.1" r="94.7"/>
		<circle class="st9" cx="240.7" cy="263.9" r="94.7"/>
		<circle class="st3" cx="240.5" cy="262.4" r="57.3"/>
		<polygon class="st10" points="215.3,250.8 196.4,225 211.7,207.5 234.1,203.6 260.3,204.7 282.2,213.1 285.9,221.2 287.7,224.5 
			265.4,249.2 		"/>
		<polygon class="st10" points="265.8,267.8 288.9,299.2 269.8,314 247.1,321.9 217.7,316.7 198.9,305.5 193.5,298.5 191.7,295 
			215.7,269.4 		"/>
		<circle class="st11" cx="240.6" cy="259.1" r="26.7"/>
		<path class="st12" d="M240.6,176.9c-45.4,0-82.2,36.8-82.2,82.2c0,45.4,36.8,82.2,82.2,82.2s82.2-36.8,82.2-82.2
			C322.8,213.7,286,176.9,240.6,176.9z M240.6,316c-31.7,0-57.5-25.7-57.5-57.5c0-31.7,25.7-57.5,57.5-57.5s57.5,25.7,57.5,57.5
			C298.1,290.2,272.4,316,240.6,316z"/>
		<path class="st13" d="M240.6,180.7c-45.4,0-82.2,36.8-82.2,82.2c0,45.4,36.8,82.2,82.2,82.2s82.2-36.8,82.2-82.2
			C322.8,217.5,286,180.7,240.6,180.7z M240.6,319.7c-31.7,0-57.5-25.7-57.5-57.5c0-31.7,25.7-57.5,57.5-57.5s57.5,25.7,57.5,57.5
			C298.1,294,272.4,319.7,240.6,319.7z"/>
		<rect x="230.4" y="184.7" class="st3" width="20.4" height="15"/>
		<polygon class="st14" points="230.4,184.7 234.1,188.4 234.1,196.1 230.4,199.7 		"/>
		<polygon class="st14" points="250.9,199.7 247.2,196.1 247.2,188.4 250.9,184.7 		"/>
		<polygon class="st10" points="234.1,196.1 230.4,199.7 250.9,199.7 247.2,196.1 		"/>
		<polygon class="st10" points="247.2,188.4 250.9,184.7 230.4,184.7 234.1,188.4 		"/>
		
			<ellipse transform="matrix(0.9732 -0.2298 0.2298 0.9732 -19.2411 30.3175)" class="st3" cx="120.6" cy="97.8" rx="5.2" ry="5.2"/>
		<path class="st15" d="M115.8,96.6h1.7H115.8c-0.1,0.3-0.1,0.6-0.1,0.9c0,2.7,2.2,4.9,4.9,4.9c2.7,0,4.9-2.2,4.9-4.9
			c0-2.7-2.2-4.9-4.9-4.9v0.7v-0.7C118.2,92.6,116.2,94.3,115.8,96.6z"/>
		<path class="st3" d="M415.6,111.9c-5.3,0-9.6-4.3-9.6-9.6s4.3-9.6,9.6-9.6h-295c2.7,0,4.9,2.2,4.9,4.9c0,2.7-2.2,4.9-4.9,4.9
			c-2.7,0-4.9-2.2-4.9-4.9c0-0.3,0-0.6,0.1-0.9c-0.3,2.3-2.4,4.2-4.8,4.2v17.8h314.2v-16.4C425.2,107.6,420.9,111.9,415.6,111.9z"/>
		<circle class="st3" cx="415.6" cy="102.2" r="9.6"/>
		<polygon class="st2" points="12.4,89.3 110.4,89.3 110.4,100.8 12.4,100.8 		"/>
		<path class="st3" d="M191.2,99.5"/>
		<rect x="191.7" y="97.8" class="st3" width="57.5" height="42.2"/>
		<polygon class="st14" points="191.7,97.8 202,108.1 202,129.7 191.7,140 		"/>
		<polygon class="st14" points="249.2,140 239,129.7 239,108.1 249.2,97.8 		"/>
		<polygon class="st10" points="202,129.7 191.7,140 249.2,140 239,129.7 		"/>
		<polygon class="st10" points="239,108.1 249.2,97.8 191.7,97.8 202,108.1 		"/>
		<polygon class="st14" points="288.9,97.8 306.7,108.1 306.7,129.7 288.9,140 		"/>
		<polygon class="st14" points="388.4,140 370.6,129.7 370.6,108.1 388.4,97.8 		"/>
		<polygon class="st10" points="306.7,129.7 288.9,140 388.4,140 370.6,129.7 		"/>
		<polygon class="st10" points="370.6,108.1 388.4,97.8 288.9,97.8 306.7,108.1 		"/>
		<polygon class="st14" points="342.4,73.8 342.4,86 346.3,88.1 346.3,76.7 		"/>
		<polygon class="st14" points="392.4,73.8 392.4,86 388.5,88.1 388.5,76.7 		"/>
		<rect x="354.7" y="79.2" class="st16" width="25.3" height="11.4"/>
		<polygon class="st17" points="346.3,88.1 354.7,90.6 354.7,79.2 346.3,76.7 		"/>
		<polygon class="st17" points="380,90.6 388.5,88.1 388.5,76.7 380,79.2 		"/>
		<polygon class="st17" points="342.4,73.8 346.3,76.7 354.7,79.2 380,79.2 388.5,76.7 392.4,73.8 392.4,71.6 387.5,68.6 380,67.8 
			356.3,67.8 349,68.5 342.4,71.4 		"/>
	</g>
</g>
</svg>
