<?xml version="1.0" encoding="utf-8"?>
<!-- Generator: Adobe Illustrator 26.5.0, SVG Export Plug-In . SVG Version: 6.00 Build 0)  -->
<svg version="1.1" id="Laag_1" xmlns="http://www.w3.org/2000/svg" xmlns:xlink="http://www.w3.org/1999/xlink" x="0px" y="0px"
	 viewBox="0 0 2063.1 1199.4" style="enable-background:new 0 0 2063.1 1199.4;" xml:space="preserve">
<style type="text/css">
	.st0{display:none;}
	.st1{fill:none;stroke:#6C2A5B;stroke-width:8.5039;stroke-miterlimit:10;}
	.st2{fill:#E7E0D3;stroke:#6C2A5B;stroke-width:8.5039;stroke-miterlimit:10;}
	.st3{fill:none;}
	.st4{enable-background:new    ;}
	.st5{fill:#6C2A5B;}
</style>
<g id="Laag_1_00000045599322038817426530000016101630645224441253_" class="st0">
</g>
<g id="Laag_3">
	<polyline class="st1" points="-20.4,236.1 325.6,247.4 612.6,167.8 670.6,633.4 822.6,784.4 1106.6,901.4 1380.6,842.4 
		1741.6,1055.4 2063.1,1118.9 	"/>
</g>
<g id="Laag_2_00000065796071392046933930000000397939757867458746_">
	<circle class="st2" cx="325.6" cy="247.4" r="34"/>
	<circle class="st2" cx="612.6" cy="175.4" r="34"/>
	<circle class="st2" cx="670.6" cy="633.4" r="34"/>
	<circle class="st2" cx="822.6" cy="784.4" r="34"/>
	<circle class="st2" cx="1106.6" cy="901.4" r="34"/>
	<circle class="st2" cx="1380.6" cy="842.4" r="34"/>
	<circle class="st2" cx="1741.6" cy="1055.4" r="34"/>
	<rect x="294.7" y="175.1" class="st3" width="137.2" height="44"/>
	<g class="st4">
		<path class="st5" d="M301.4,175.1c5.6,0,7.8,2.3,7.8,11c0,8.6-2.2,11.3-7.8,11.3h-5.3v-22.3H301.4z M303.8,186.1
			c0-6-0.5-6.7-2.1-6.7h-0.5v13.8h0.5C303.3,193.1,303.8,192,303.8,186.1z"/>
		<path class="st5" d="M311.3,177.4c0-1.7,1.1-2.7,2.6-2.7s2.6,0.9,2.6,2.7c0,1.8-1.1,2.7-2.6,2.7S311.3,179.1,311.3,177.4z
			 M316.2,181.6v15.7h-4.8v-15.7H316.2z"/>
		<path class="st5" d="M317,199c1.7,0,2.4-0.1,2.4-2.7v-11.1h-1.4v-3.7h6.2v15.3c0,4.5-1.5,6.1-5.5,6.1l-1.7-0.3V199z M318.9,177.4
			c0-1.7,1.1-2.7,2.6-2.7s2.6,0.9,2.6,2.7c0,1.8-1.1,2.7-2.6,2.7S318.9,179.1,318.9,177.4z"/>
		<path class="st5" d="M326.2,187.1c0-3.7,1.5-6,5.8-6c4.3,0,5.8,2.3,5.8,6v4.7c0,3.7-1.5,6-5.8,6c-4.3,0-5.8-2.3-5.8-6V187.1z
			 M331.9,194c1,0,1-0.8,1-1.9v-5.2c0-1.1,0-1.9-1-1.9c-1,0-1,0.8-1,1.9v5.2C331,193.2,331,194,331.9,194z"/>
		<path class="st5" d="M351.4,186.1v11.2h-4.8v-10.6c0-0.9-0.3-1.1-0.8-1.1c-0.5,0-0.9,0.2-1.1,0.4v11.3h-4.8v-11.1l-0.3-4.5
			l4.1-0.4l0.4,1.5c0.9-0.7,1.9-1.5,3.9-1.5C350.3,181.3,351.4,182.9,351.4,186.1z"/>
	</g>
	<rect x="572.7" y="111.1" class="st3" width="137.2" height="44"/>
	<g class="st4">
		<path class="st5" d="M579.4,111.1v17.6h4.5v4.6h-9.7v-22.3H579.4z"/>
		<path class="st5" d="M589.1,133.8c-2.6,0-4-1.7-4-5c0-3.7,1.9-5.3,5.9-5.3h0.8v-0.3c0-1.7-0.5-2.1-2-2.1c-1,0-2.3,0.2-3.4,0.5
			l-0.6-3.5c1.7-0.5,3.4-0.8,5.2-0.8c3.6,0,5.4,1.7,5.4,5.5v6.3l0.3,4.2l-3.8,0.3l-0.4-1.4C592.1,132.8,591.1,133.8,589.1,133.8z
			 M589.5,128.4c0,1.2,0.4,1.7,1,1.7c0.6,0,0.9-0.3,1.3-0.5v-3.1h-0.7C590,126.5,589.5,126.9,589.5,128.4z"/>
		<path class="st5" d="M598.6,129v-11.3h4.8v11.1c0,0.9,0.3,1.1,0.8,1.1c0.5,0,0.8-0.2,1-0.3v-11.9h4.8v11.3l0.3,4.5l-4.1,0.4
			l-0.4-1.5c-0.7,0.7-1.6,1.5-3.4,1.5C600,133.8,598.6,132.5,598.6,129z"/>
		<path class="st5" d="M622.9,121.6l-0.1,1.3h-4.5v-1.3c0-0.7-0.1-1.1-0.7-1.1c-0.5,0-0.7,0.3-0.7,1.1c0,1.7,1.2,2,2.6,2.6
			c2.3,1.1,3.7,2.3,3.7,4.8c0,2.8-1.3,4.8-5.6,4.8s-5.5-1.6-5.5-3.8l0.1-1.8h4.5v1c0,0.9,0.2,1.4,0.9,1.4c0.6,0,0.9-0.3,0.9-1.1
			c0-1.2-0.8-1.6-2.5-2.4c-2.4-1-3.8-2.8-3.8-5.5c0-2.8,1.7-4.4,5.4-4.4S622.9,118.7,622.9,121.6z"/>
		<path class="st5" d="M628.5,133.8c-2.6,0-4-1.7-4-5c0-3.7,1.9-5.3,5.9-5.3h0.8v-0.3c0-1.7-0.5-2.1-2-2.1c-1,0-2.3,0.2-3.4,0.5
			l-0.6-3.5c1.7-0.5,3.4-0.8,5.2-0.8c3.6,0,5.4,1.7,5.4,5.5v6.3l0.3,4.2l-3.8,0.3l-0.4-1.4C631.5,132.8,630.5,133.8,628.5,133.8z
			 M628.9,128.4c0,1.2,0.4,1.7,1,1.7c0.6,0,0.9-0.3,1.3-0.5v-3.1h-0.7C629.4,126.5,628.9,126.9,628.9,128.4z"/>
		<path class="st5" d="M649.7,122.1v11.2h-4.8v-10.6c0-0.9-0.3-1.1-0.8-1.1c-0.5,0-0.9,0.2-1.1,0.4v11.3h-4.8v-11.1l-0.3-4.5
			l4.1-0.4l0.4,1.5c0.9-0.7,1.9-1.5,3.9-1.5C648.6,117.3,649.7,118.9,649.7,122.1z"/>
		<path class="st5" d="M663.7,122.1v11.2h-4.8v-10.6c0-0.9-0.3-1.1-0.8-1.1c-0.5,0-0.9,0.2-1.1,0.4v11.3h-4.8v-11.1l-0.3-4.5
			l4.1-0.4l0.4,1.5c0.9-0.7,1.9-1.5,3.9-1.5C662.6,117.3,663.7,118.9,663.7,122.1z"/>
		<path class="st5" d="M670.4,127.4v0.4c0,1.4,0.4,2,2.1,2h4.1v3.5l-4.1,0.3c-5.1,0-6.8-1.8-6.8-5.8v-5c0-3.4,1.4-5.7,5.6-5.7
			c4.3,0,5.5,2,5.5,6.8l-0.3,3.4H670.4z M670.4,122.3v2.1h2.2v-2.1c0-1-0.1-1.6-1.1-1.6C670.5,120.6,670.4,121.3,670.4,122.3z"/>
	</g>
	<rect x="676.7" y="568.1" class="st3" width="137.2" height="44"/>
	<g class="st4">
		<path class="st5" d="M700,590.3h-5.1l-0.4-9.9l-0.2-8.1h-0.5l-0.9,7.8l-1.2,10.2h-6.2l-1.2-10.4l-0.9-7.6H683l-0.1,8l-0.3,10h-5.1
			l1.5-22.3h8.1l0.8,7.3l0.8,10.1l0.8-10l0.8-7.4h8.1L700,590.3z"/>
		<path class="st5" d="M701.8,570.4c0-1.7,1.1-2.7,2.6-2.7s2.6,0.9,2.6,2.7c0,1.8-1.1,2.7-2.6,2.7S701.8,572.1,701.8,570.4z
			 M706.7,574.6v15.7h-4.8v-15.7H706.7z"/>
		<path class="st5" d="M715.6,586.7v3.7l-2.3,0.3c-2.8,0-4.3-0.7-4.3-4.8v-17.7h4.8v17.2c0,1.1,0.1,1.4,1.1,1.4H715.6z"/>
		<path class="st5" d="M720.5,590.8c-2.6,0-4-1.7-4-5c0-3.7,1.9-5.3,5.9-5.3h0.8v-0.3c0-1.7-0.5-2.1-2-2.1c-1,0-2.3,0.2-3.4,0.5
			l-0.6-3.5c1.7-0.5,3.4-0.8,5.2-0.8c3.6,0,5.4,1.7,5.4,5.5v6.3l0.3,4.2l-3.8,0.3l-0.4-1.4C723.5,589.8,722.5,590.8,720.5,590.8z
			 M720.9,585.4c0,1.2,0.4,1.7,1,1.7c0.6,0,0.9-0.3,1.3-0.5v-3.1h-0.7C721.4,583.5,720.9,583.9,720.9,585.4z"/>
		<path class="st5" d="M741.7,579.1v11.2h-4.8v-10.6c0-0.9-0.3-1.1-0.8-1.1c-0.5,0-0.9,0.2-1.1,0.4v11.3h-4.8v-11.1l-0.3-4.5
			l4.1-0.4l0.4,1.5c0.9-0.7,1.9-1.5,3.9-1.5C740.6,574.3,741.7,575.9,741.7,579.1z"/>
	</g>
	<rect x="799.7" y="715.1" class="st3" width="137.2" height="44"/>
	<g class="st4">
		<path class="st5" d="M812.3,715.1v4.6h-3.5v17.6h-5.2v-17.6H800v-4.6H812.3z"/>
		<path class="st5" d="M819.4,725.8c-0.9,0-1.9,0.3-2.4,0.7v10.8h-4.8v-11.1l-0.3-4.5l4.1-0.4l0.4,1.5c0.5-0.6,1.1-1.5,3-1.5
			c0.6,0,1.1,0.1,1.5,0.2l-0.3,4.3C820,725.9,819.8,725.8,819.4,725.8z"/>
		<path class="st5" d="M821.8,717.4c0-1.7,1.1-2.7,2.6-2.7s2.6,0.9,2.6,2.7c0,1.8-1.1,2.7-2.6,2.7S821.8,719.1,821.8,717.4z
			 M826.7,721.6v15.7h-4.8v-15.7H826.7z"/>
		<path class="st5" d="M833.5,731.4v0.4c0,1.4,0.4,2,2.1,2h4.1v3.5l-4.1,0.3c-5.1,0-6.8-1.8-6.8-5.8v-5c0-3.4,1.4-5.7,5.6-5.7
			c4.3,0,5.5,2,5.5,6.8l-0.3,3.4H833.5z M833.5,726.3v2.1h2.2v-2.1c0-1-0.1-1.6-1.1-1.6C833.6,724.6,833.5,725.3,833.5,726.3z"/>
		<path class="st5" d="M852.4,725.6l-0.1,1.3h-4.5v-1.3c0-0.7-0.1-1.1-0.7-1.1c-0.5,0-0.7,0.3-0.7,1.1c0,1.7,1.2,2,2.6,2.6
			c2.3,1.1,3.7,2.3,3.7,4.8c0,2.8-1.3,4.8-5.6,4.8s-5.5-1.6-5.5-3.8l0.1-1.8h4.5v1c0,0.9,0.2,1.4,0.9,1.4c0.6,0,0.9-0.3,0.9-1.1
			c0-1.2-0.8-1.6-2.5-2.4c-2.4-1-3.8-2.8-3.8-5.5c0-2.8,1.7-4.4,5.4-4.4S852.4,722.7,852.4,725.6z"/>
		<path class="st5" d="M862.1,733.7v3.7l-2.8,0.3c-3.1,0-4.6-1.3-4.6-4.8v-7.5h-1.6v-3.7h1.6l0.8-4.3h4v4.3h2.6v3.7h-2.6v6.4
			c0,1.6,0.1,2,1.4,2H862.1z"/>
		<path class="st5" d="M868.1,731.4v0.4c0,1.4,0.4,2,2.1,2h4.1v3.5l-4.1,0.3c-5.1,0-6.8-1.8-6.8-5.8v-5c0-3.4,1.4-5.7,5.6-5.7
			c4.3,0,5.5,2,5.5,6.8l-0.3,3.4H868.1z M868.1,726.3v2.1h2.2v-2.1c0-1-0.1-1.6-1.1-1.6C868.2,724.6,868.1,725.3,868.1,726.3z"/>
	</g>
	<rect x="1071.7" y="823.1" class="st3" width="137.2" height="44"/>
	<g class="st4">
		<path class="st5" d="M1078,840.4l0,0.3h5.8v4.6h-11.2l-0.2-4.6l6-12.7l0-0.3h-5.2v-4.6h10.6l0.2,4.6L1078,840.4z"/>
		<path class="st5" d="M1089.4,845.8c-2.6,0-4-1.7-4-5c0-3.7,1.9-5.3,5.9-5.3h0.8v-0.3c0-1.7-0.5-2.1-2-2.1c-1,0-2.3,0.2-3.4,0.5
			l-0.6-3.5c1.7-0.5,3.4-0.8,5.2-0.8c3.6,0,5.4,1.7,5.4,5.5v6.3l0.3,4.2l-3.8,0.3l-0.4-1.4C1092.4,844.8,1091.4,845.8,1089.4,845.8z
			 M1089.8,840.4c0,1.2,0.4,1.7,1,1.7s0.9-0.3,1.3-0.5v-3.1h-0.7C1090.3,838.5,1089.8,838.9,1089.8,840.4z"/>
		<path class="st5" d="M1104.2,840.6l-0.5,1.1l0,0.1h1.9c3.5,0,5.2,1.3,5.2,4.1c0,3-2,5.1-6.5,5.1c-4.3,0-6.1-1.5-6.1-4.2
			c0-1.6,0.9-2.8,1.6-3.5l-0.5-1l1.4-2.5c-1.4-0.9-2-2.4-2-4.8c0-4,1.6-5.8,5.7-5.8c1.3,0,2.3,0.2,3.1,0.5l2-1.2l2,2.8l-1.7,1.7
			c0.1,0.6,0.2,1.3,0.2,2c0,4-1.6,5.7-5.7,5.7C1104.4,840.6,1104.3,840.6,1104.2,840.6z M1104.3,847.5c1.2,0,2-0.3,2-1.2
			c0-1-0.9-1.1-2-1.1h-1.6c-0.2,0.3-0.3,0.7-0.3,1.2C1102.4,847.2,1103.2,847.5,1104.3,847.5z M1105.6,834.9c0-2.1-0.1-2.6-1.1-2.6
			c-1,0-1.1,0.5-1.1,2.6c0,2.1,0.1,2.6,1.1,2.6C1105.5,837.6,1105.6,837.1,1105.6,834.9z"/>
		<path class="st5" d="M1119.9,833.8c-0.9,0-1.9,0.3-2.4,0.7v10.8h-4.8v-11.1l-0.3-4.5l4.1-0.4l0.4,1.5c0.5-0.6,1.1-1.5,3-1.5
			c0.6,0,1.1,0.1,1.5,0.2l-0.3,4.3C1120.5,833.9,1120.2,833.8,1119.9,833.8z"/>
		<path class="st5" d="M1126.7,839.4v0.4c0,1.4,0.4,2,2.1,2h4.1v3.5l-4.1,0.3c-5.1,0-6.8-1.8-6.8-5.8v-5c0-3.4,1.4-5.7,5.6-5.7
			s5.5,2,5.5,6.8l-0.3,3.4H1126.7z M1126.7,834.3v2.1h2.2v-2.1c0-1-0.1-1.6-1.1-1.6S1126.7,833.3,1126.7,834.3z"/>
		<path class="st5" d="M1135.2,823.1h4.8v4.5c0,1.2-0.1,1.9-0.1,2.7c0.5-0.5,1.4-1,2.8-1c2.8,0,4.1,2.1,4.1,6v4.3
			c0,4.1-2,6.2-5.9,6.2c-2,0-4.1-0.4-5.6-1V823.1z M1141.9,835c0-1.1-0.2-1.7-0.9-1.7c-0.4,0-0.8,0.3-1,0.4v8.1
			c0.4,0.1,0.7,0.2,0.9,0.2c1,0,1-1.1,1-2.5V835z"/>
	</g>
	<rect x="1338.7" y="774.1" class="st3" width="137.2" height="44"/>
	<g class="st4">
		<path class="st5" d="M1345.5,774.1c5,0,7.1,1.6,7.1,6.2c0,2.4-0.8,4.1-2.4,5.1c1.8,0.8,2.8,2.4,2.8,4.9c0,4.3-2.3,6-7.4,6h-5.4
			v-22.3H1345.5z M1347.3,780.8c0-2.3-0.5-2.7-2.1-2.7h-0.1v5.8h0.1C1347.1,783.9,1347.3,783,1347.3,780.8z M1347.8,789.9
			c0-2-0.6-2.4-2.5-2.4h-0.1v4.9h0.1C1347.2,792.3,1347.8,791.9,1347.8,789.9z"/>
		<path class="st5" d="M1359.2,790.4v0.4c0,1.4,0.4,2,2.1,2h4.1v3.5l-4.1,0.3c-5.1,0-6.8-1.8-6.8-5.8v-5c0-3.4,1.4-5.7,5.6-5.7
			c4.3,0,5.5,2,5.5,6.8l-0.3,3.4H1359.2z M1359.2,785.3v2.1h2.2v-2.1c0-1-0.1-1.6-1.1-1.6C1359.3,783.6,1359.2,784.3,1359.2,785.3z"
			/>
		<path class="st5" d="M1374.2,792.7v3.7l-2.3,0.3c-2.8,0-4.3-0.7-4.3-4.8v-17.7h4.8v17.2c0,1.1,0.1,1.4,1.1,1.4H1374.2z"/>
		<path class="st5" d="M1380.8,791.6l-0.5,1.1l0,0.1h1.9c3.5,0,5.2,1.3,5.2,4.1c0,3-2,5.1-6.5,5.1c-4.3,0-6.1-1.5-6.1-4.2
			c0-1.6,0.9-2.8,1.6-3.5l-0.5-1l1.4-2.5c-1.4-0.9-2-2.4-2-4.8c0-4,1.6-5.8,5.7-5.8c1.3,0,2.3,0.2,3.1,0.5l2-1.2l2,2.8l-1.7,1.7
			c0.1,0.6,0.2,1.3,0.2,2c0,4-1.6,5.7-5.7,5.7C1381,791.6,1380.9,791.6,1380.8,791.6z M1380.9,798.5c1.2,0,2-0.3,2-1.2
			c0-1-0.9-1.1-2-1.1h-1.6c-0.2,0.3-0.3,0.7-0.3,1.2C1379,798.2,1379.7,798.5,1380.9,798.5z M1382.2,785.9c0-2.1-0.1-2.6-1.1-2.6
			c-1,0-1.1,0.5-1.1,2.6c0,2.1,0.1,2.6,1.1,2.6C1382,788.6,1382.2,788.1,1382.2,785.9z"/>
		<path class="st5" d="M1396.4,784.8c-0.9,0-1.9,0.3-2.4,0.7v10.8h-4.8v-11.1l-0.3-4.5l4.1-0.4l0.4,1.5c0.5-0.6,1.1-1.5,3-1.5
			c0.6,0,1.1,0.1,1.5,0.2l-0.3,4.3C1397.1,784.9,1396.8,784.8,1396.4,784.8z"/>
		<path class="st5" d="M1402.2,796.8c-2.6,0-4-1.7-4-5c0-3.7,1.9-5.3,5.9-5.3h0.8v-0.3c0-1.7-0.5-2.1-2-2.1c-1,0-2.3,0.2-3.4,0.5
			l-0.6-3.5c1.7-0.5,3.4-0.8,5.2-0.8c3.6,0,5.4,1.7,5.4,5.5v6.3l0.3,4.2l-3.8,0.3l-0.4-1.4C1405.2,795.8,1404.2,796.8,1402.2,796.8z
			 M1402.6,791.4c0,1.2,0.4,1.7,1,1.7c0.6,0,0.9-0.3,1.3-0.5v-3.1h-0.7C1403.1,789.5,1402.6,789.9,1402.6,791.4z"/>
		<path class="st5" d="M1423.4,796.3l-4.1,0.3l-0.4-1.4c-0.6,0.7-1.4,1.5-3.2,1.5c-3,0-4.3-2.3-4.3-6.1V786c0-4.1,2-5.8,5.6-5.8
			c0.1,0,1,0.1,1.2,0.1c0-0.5-0.1-1.3-0.1-2.4v-3.8h4.8v18.1L1423.4,796.3z M1418.3,784.1c-0.2-0.1-0.5-0.1-0.8-0.1
			c-1,0-1.2,0.7-1.2,2v4.6c0,1.6,0.3,2.3,1,2.3c0.5,0,0.8-0.2,1-0.4V784.1z"/>
		<path class="st5" d="M1429.7,790.4v0.4c0,1.4,0.4,2,2.1,2h4.1v3.5l-4.1,0.3c-5.1,0-6.8-1.8-6.8-5.8v-5c0-3.4,1.4-5.7,5.6-5.7
			s5.5,2,5.5,6.8l-0.3,3.4H1429.7z M1429.7,785.3v2.1h2.2v-2.1c0-1-0.1-1.6-1.1-1.6S1429.7,784.3,1429.7,785.3z"/>
	</g>
	<rect x="1715.7" y="985.1" class="st3" width="137.2" height="44"/>
	<g class="st4">
		<path class="st5" d="M1729.2,990.9l-0.1,1.7h-4.9v-1.1c0-2-0.1-2.8-1-2.8c-0.9,0-1.1,0.5-1.1,2.2c0,4.6,7.5,4.3,7.5,11
			c0,3.7-1.8,5.9-6.5,5.9s-6.3-1.8-6.3-5.8l0.1-1.1h4.9v0.9c0,1.7,0.3,2.3,1.3,2.3s1.3-0.4,1.3-1.8c0-4.2-7.5-3.7-7.5-11.4
			c0-4,1.7-6.1,6.3-6.1C1727.8,984.7,1729.2,986.6,1729.2,990.9z"/>
		<path class="st5" d="M1731.3,997.1c0-3.7,1.5-6,5.8-6s5.8,2.3,5.8,6v4.7c0,3.7-1.5,6-5.8,6s-5.8-2.3-5.8-6V997.1z M1737.1,1004
			c1,0,1-0.8,1-1.9v-5.2c0-1.1,0-1.9-1-1.9s-1,0.8-1,1.9v5.2C1736.1,1003.2,1736.1,1004,1737.1,1004z"/>
		<path class="st5" d="M1745.7,995.3h-1.7v-3.7h1.7v-0.7c0-4.3,2-6.2,6-6.2c2.2,0,4.2,0.4,5.3,0.9l-0.8,3.6c-1-0.2-2.2-0.5-3.4-0.5
			c-1.4,0-2.3,0.2-2.3,2.5v0.4h7.3v15.7h-4.8v-12h-2.4v12h-4.8V995.3z"/>
		<path class="st5" d="M1763.7,1007.8c-2.6,0-4-1.7-4-5c0-3.7,1.9-5.3,5.9-5.3h0.8v-0.3c0-1.7-0.5-2.1-2-2.1c-1,0-2.3,0.2-3.4,0.5
			l-0.6-3.5c1.7-0.5,3.4-0.8,5.2-0.8c3.6,0,5.4,1.7,5.4,5.5v6.3l0.3,4.2l-3.8,0.3l-0.4-1.4
			C1766.7,1006.8,1765.7,1007.8,1763.7,1007.8z M1764.1,1002.4c0,1.2,0.4,1.7,1,1.7s0.9-0.3,1.3-0.5v-3.1h-0.7
			C1764.6,1000.5,1764.1,1000.9,1764.1,1002.4z"/>
	</g>
</g>
</svg>
