<svg width="1133" height="462" viewBox="0 0 1133 462" fill="none" xmlns="http://www.w3.org/2000/svg">
<path d="M389 200H795" stroke="#883778" stroke-width="5"/>
<path d="M392 200H157C154.239 200 152 197.761 152 195V138" stroke="#883778" stroke-width="5"/>
<path d="M658 200L893 200C895.761 200 898 202.239 898 205L898 326" stroke="#883778" stroke-width="5"/>
<path d="M303 136L9.00001 136" stroke="#883778" stroke-width="5"/>
<path d="M744 326L1038 326" stroke="#883778" stroke-width="5"/>
<path d="M0 3.47559H44.0378V118.734H14.0458V28.0971H0V3.47559Z" fill="#DE4241"/>
<path d="M29.5789 125.179L14.0459 118.734V28.0972L29.5789 34.5417V125.179Z" fill="#B23636"/>
<path d="M15.533 34.5417L0 28.0971V3.47559L15.533 9.92015" fill="#B23636"/>
<path d="M14.0459 37.1857L29.5789 43.0519V34.5417L14.0459 33.9634V37.1857Z" fill="#9A3131"/>
<path d="M15.5327 9.92017H59.4879V125.179H29.5786V34.5417H15.5327V9.92017Z" fill="#6D2A5B"/>
<path d="M0 3.47559H44.0378L59.4883 9.92015H15.533L0 3.47559Z" fill="#EE7947"/>
<path d="M225.808 40.0774C225.808 12.8119 235.805 0.666382 260.509 0.666382C286.37 0.666382 294.467 13.7208 294.467 42.3908V72.4654C294.467 105.349 283.891 120.304 249.933 120.304L234.07 118.569V95.6824H248.694C262.988 95.6824 265.219 92.1296 265.384 78.249C262.575 78.7447 259.6 79.1579 256.378 79.1579C232.335 79.1579 225.808 66.1035 225.808 40.0774ZM259.931 58.0065C261.17 58.0065 263.236 57.676 265.384 57.3455V38.3423C265.384 26.6925 264.723 23.5528 259.931 23.5528C254.973 23.5528 253.982 26.8578 253.982 41.6472C253.982 55.7757 255.552 58.0065 259.931 58.0065Z" fill="#DE4241"/>
<path d="M280.917 84.7763L265.136 79.158C265.136 79.158 266.706 89.0727 260.096 93.5343C258.278 94.7736 255.8 95.5999 252.495 95.6825C237.209 95.8477 234.07 95.7651 234.07 95.7651L249.603 102.21C249.603 102.21 271.415 102.953 274.555 100.888C277.777 98.7395 280.586 99.8962 280.917 84.7763Z" fill="#EE7947"/>
<path d="M287.444 11.5726L260.096 24.6269L258.526 55.6104L257.452 83.3716L241.754 76.8444C241.754 76.8444 221.429 71.3087 225.973 33.2197C225.973 33.2197 227.13 21.0742 231.178 13.3076C235.309 5.37587 287.444 11.5726 287.444 11.5726Z" fill="#B23636"/>
<path d="M257.039 94.9388L271.168 101.714C271.168 101.714 283.148 102.54 280.917 84.6936L265.053 85.1893C264.971 85.1893 264.723 92.1296 257.039 94.9388Z" fill="#D86A44"/>
<path d="M245.802 21.983L231.261 13.225C231.261 13.225 248.364 -15.2797 295.954 11.4074C295.954 11.4074 293.558 20.9089 292.897 20.9089C292.236 20.9089 245.802 21.983 245.802 21.983Z" fill="#EE7947"/>
<path d="M241.341 46.5219C241.341 19.2565 251.338 7.11096 276.042 7.11096C301.903 7.11096 310 20.1653 310 48.8354V78.91C310 111.794 299.424 126.748 265.467 126.748L249.603 125.013V102.127H264.227C278.521 102.127 280.752 98.5742 280.917 84.6936C278.108 85.1893 275.133 85.6024 271.911 85.6024C247.785 85.6024 241.341 72.6307 241.341 46.5219ZM275.464 64.5337C276.703 64.5337 278.769 64.2032 280.917 63.8727V44.8695C280.917 33.2197 280.256 30.08 275.464 30.08C270.507 30.08 269.515 33.3849 269.515 48.1744C269.433 62.2202 271.085 64.5337 275.464 64.5337Z" fill="#6D2A5B"/>
<path d="M249.603 125.014L234.07 118.569V95.6825L249.603 102.127V125.014Z" fill="#B23636"/>
<path d="M192.015 127.327C192.015 127.327 140.707 130.219 142.937 88.5768C142.937 88.5768 142.69 80.7277 146.903 72.3002L162.932 77.4228L192.015 127.327Z" fill="#B23636"/>
<path d="M215.563 11.903C215.563 11.903 178.3 -9.99194 155 7.6893L172.764 15.9516L215.563 11.903Z" fill="#EE7947"/>
<path d="M170.533 69.491L155 63.4595C155 63.4595 148.969 67.3428 146.821 72.3001L162.85 77.4227C162.85 77.4227 177.556 78.1664 177.474 77.8359C177.474 77.5054 170.533 69.491 170.533 69.491Z" fill="#EE7947"/>
<path d="M200.029 103.036L184.662 97.8305L185.323 106.423L198.212 108.737L201.847 104.606L200.029 103.036Z" fill="#EE7947"/>
<path d="M155 63.4595C155 63.4595 143.103 56.7671 145.747 29.5843C145.747 29.5843 145.829 15.0427 155 7.68927L169.625 14.5469L173.673 58.5848L172.021 71.1434L170.451 69.5736L155 63.4595Z" fill="#B23636"/>
<path d="M198.542 58.0065L188.875 54.0406L184.662 27.1882L197.468 20.8263L206.639 43.0518L198.542 58.0065Z" fill="#B23636"/>
<path d="M191.52 60.4852H201.765L197.386 57.5934L185.24 52.4708C185.24 52.4708 187.884 58.2543 188.215 58.5848C188.545 58.9153 191.52 60.4852 191.52 60.4852Z" fill="#EE7947"/>
<path d="M184.662 95.2693L185.323 85.0241C185.323 85.0241 186.645 78.0011 187.801 77.9185C188.958 77.8359 198.955 79.4884 198.955 79.4884C198.955 79.4884 203.83 83.6195 203.83 83.95C203.83 84.2805 203.83 95.8476 203.83 95.8476L201.847 104.11L200.029 103.118L186.314 98.4916L184.662 95.2693Z" fill="#B23636"/>
<path d="M170.533 69.491C164.006 64.5336 161.032 55.9409 161.032 42.2255C161.032 17.2735 171.194 6.86304 193.915 6.86304C218.206 6.86304 226.799 17.1909 226.799 42.2255C226.799 55.7756 223.66 64.2031 217.298 69.1605C225.395 74.4483 229.443 83.3716 229.443 95.6823C229.443 116.751 218.867 127.327 193.915 127.327C167.724 127.327 158.388 116.751 158.388 95.6823C158.388 83.5368 162.601 74.7788 170.533 69.491ZM193.915 105.762C198.873 105.762 201.847 103.449 201.847 93.9473C201.847 83.7021 200.608 80.3972 193.915 80.3972C186.727 80.3972 185.984 84.7761 185.984 93.9473C185.984 103.449 188.793 105.762 193.915 105.762ZM193.915 58.5848C198.46 58.5848 199.534 56.8497 199.534 43.1344C199.534 31.8977 199.038 28.5102 193.915 28.5102C188.958 28.5102 188.297 31.8977 188.297 43.1344C188.297 56.8497 189.371 58.5848 193.915 58.5848Z" fill="#6D2A5B"/>
<path d="M109.557 127.327C109.557 127.327 58.2486 130.219 60.4794 88.5768C60.4794 88.5768 60.2315 80.7277 64.4453 72.3002L80.4741 77.4228L109.557 127.327Z" fill="#B23636"/>
<path d="M133.187 11.903C133.187 11.903 95.9246 -9.99194 72.625 7.6893L90.3889 15.9516L133.187 11.903Z" fill="#EE7947"/>
<path d="M88.0755 69.491L72.5424 63.4595C72.5424 63.4595 66.511 67.3428 64.3628 72.3001L80.3916 77.4227C80.3916 77.4227 95.0984 78.1664 95.0158 77.8359C95.0158 77.5054 88.0755 69.491 88.0755 69.491Z" fill="#EE7947"/>
<path d="M117.571 103.036L102.204 97.8305L102.865 106.423L115.754 108.737L119.389 104.606L117.571 103.036Z" fill="#EE7947"/>
<path d="M72.6249 63.4595C72.6249 63.4595 60.7272 56.7671 63.3712 29.5843C63.3712 29.5843 63.4538 15.0427 72.6249 7.68927L87.2491 14.5469L91.2976 58.5848L89.6452 71.1434L88.0753 69.5736L72.6249 63.4595Z" fill="#B23636"/>
<path d="M116.084 58.0065L106.417 54.0406L102.204 27.1882L115.093 20.8263L124.181 43.0518L116.084 58.0065Z" fill="#B23636"/>
<path d="M109.144 60.4852H119.389L115.01 57.5934L102.865 52.4708C102.865 52.4708 105.509 58.2543 105.839 58.5848C106.17 58.9153 109.144 60.4852 109.144 60.4852Z" fill="#EE7947"/>
<path d="M102.204 95.2693L102.865 85.0241C102.865 85.0241 104.187 78.0011 105.343 77.9185C106.5 77.8359 116.497 79.4884 116.497 79.4884C116.497 79.4884 121.372 83.6195 121.372 83.95C121.372 84.2805 121.372 95.8476 121.372 95.8476L119.389 104.11L117.571 103.118L103.856 98.4916L102.204 95.2693Z" fill="#B23636"/>
<path d="M88.0752 69.491C81.548 64.5336 78.5736 55.9409 78.5736 42.2255C78.5736 17.2735 88.7362 6.86304 111.457 6.86304C135.748 6.86304 144.341 17.1909 144.341 42.2255C144.341 55.7756 141.202 64.2031 134.84 69.1605C142.937 74.4483 146.985 83.3716 146.985 95.6823C146.985 116.751 136.409 127.327 111.457 127.327C85.266 127.327 75.9297 116.751 75.9297 95.6823C75.9297 83.5368 80.2261 74.7788 88.0752 69.491ZM111.457 105.762C116.415 105.762 119.389 103.449 119.389 93.9473C119.389 83.7021 118.15 80.3972 111.457 80.3972C104.269 80.3972 103.526 84.7761 103.526 93.9473C103.608 103.449 106.417 105.762 111.457 105.762ZM111.457 58.5848C116.002 58.5848 117.076 56.8497 117.076 43.1344C117.076 31.8977 116.58 28.5102 111.457 28.5102C106.5 28.5102 105.839 31.8977 105.839 43.1344C105.839 56.8497 106.913 58.5848 111.457 58.5848Z" fill="#6D2A5B"/>
<g clip-path="url(#clip0_544_21)">
<path d="M741 343.157H783.123V453.241H754.435V366.673H741V343.157Z" fill="#DE4241"/>
<path d="M798.297 378.273C798.297 352.232 807.86 340.631 831.49 340.631C856.227 340.631 863.972 353.1 863.972 380.483V409.207C863.972 440.615 853.856 454.898 821.374 454.898L806.2 453.241V431.382H820.189C833.861 431.382 835.995 427.988 836.153 414.731C833.466 415.204 830.621 415.599 827.539 415.599C804.462 415.599 798.297 403.131 798.297 378.273ZM830.937 395.397C832.122 395.397 834.098 395.082 836.153 394.766V376.616C836.153 365.489 835.521 362.49 830.937 362.49C826.195 362.49 825.247 365.647 825.247 379.772C825.168 393.267 826.748 395.397 830.937 395.397Z" fill="#DE4241"/>
<path d="M914.63 375.59C914.63 365.331 913.761 362.964 909.572 362.964C905.226 362.964 904.672 365.805 904.672 373.38V380.956H879.936L879.462 368.33C879.462 351.679 886.732 340.631 910.284 340.631C934.704 340.631 942.449 350.574 942.449 374.406C942.449 387.348 938.577 395.239 932.491 399.974C940.394 404.157 944.109 411.732 944.109 424.516C944.109 445.192 935.02 455.766 910.916 455.766C888.392 455.766 877.565 448.9 877.565 429.567L877.881 421.36H904.83C904.83 430.75 905.858 433.433 910.363 433.433C914.709 433.433 915.895 431.382 915.895 422.701C915.895 414.336 914.235 412.127 908.15 412.127H902.618V391.925H906.648C913.761 391.925 914.63 389.005 914.63 375.59Z" fill="#DE4241"/>
<path d="M956.753 380.088C956.753 354.915 966.553 340.552 991.764 340.552C1016.97 340.552 1026.06 354.836 1026.06 380.088V416.23C1026.06 441.483 1016.66 455.766 991.369 455.766C966.158 455.766 956.674 441.483 956.674 416.23V380.088H956.753ZM991.448 433.591C997.375 433.591 997.533 428.541 997.533 414.573V381.824C997.533 367.856 997.375 362.806 991.448 362.806C985.599 362.806 985.362 367.856 985.362 381.824V414.573C985.362 428.541 985.52 433.591 991.448 433.591Z" fill="#DE4241"/>
<path d="M769.293 459.396L754.436 453.241V366.673L769.293 372.828V459.396Z" fill="#B23636"/>
<path d="M755.858 372.828L741 366.673V343.157L755.858 349.312" fill="#B23636"/>
<path d="M754.436 375.353L769.293 380.877V372.828L754.436 372.276V375.353Z" fill="#9A3131"/>
<path d="M850.932 420.965L835.837 415.599C835.837 415.599 837.339 425.069 831.016 429.33C829.278 430.514 826.907 431.303 823.745 431.382C809.125 431.539 806.122 431.461 806.122 431.461L820.979 437.616C820.979 437.616 841.843 438.326 844.847 436.353C847.929 434.301 850.616 435.406 850.932 420.965Z" fill="#EE7947"/>
<path d="M857.254 351.048L831.095 363.516L829.593 393.109L828.566 419.624L813.55 413.389C813.55 413.389 794.109 408.102 798.455 371.723C798.455 371.723 799.562 360.123 803.434 352.705C807.307 345.287 857.254 351.048 857.254 351.048Z" fill="#B23636"/>
<path d="M828.171 430.671L841.685 437.142C841.685 437.142 853.145 437.932 851.011 420.886L835.837 421.36C835.758 421.36 835.521 427.988 828.171 430.671Z" fill="#D86A44"/>
<path d="M817.423 360.991L803.435 352.626C803.435 352.626 819.794 325.401 865.315 350.89C865.315 350.89 863.024 359.965 862.391 359.965C861.759 359.965 817.423 360.991 817.423 360.991Z" fill="#EE7947"/>
<path d="M948.297 352.863C948.297 352.863 928.145 335.818 897.876 341.894L899.457 344.419L916.448 350.417L948.297 352.863Z" fill="#EE7947"/>
<path d="M877.96 421.281C877.96 421.281 868.319 463.815 922.929 461.921L912.339 443.929L894.162 425.305L877.96 421.281Z" fill="#B23636"/>
<path d="M894.794 387.111L879.936 380.956C879.936 380.956 873.455 345.287 897.876 341.894L914.077 347.812L912.733 362.806L894.794 387.111Z" fill="#B23636"/>
<path d="M892.739 427.515L877.96 421.281H904.83L919.688 427.515H892.739Z" fill="#EE7947"/>
<path d="M913.524 388.295L914.551 385.533C914.551 385.533 919.372 364.621 920.162 364.463C920.953 364.305 935.969 370.066 935.969 370.066L933.203 391.294L929.093 391.136L913.524 388.295Z" fill="#B23636"/>
<path d="M915.658 416.862C915.658 416.862 916.448 428.146 915.658 430.908C914.868 433.67 923.798 444.402 924.272 444.245C924.746 444.166 939.525 441.956 938.972 439.668C938.419 437.458 931.859 411.811 930.911 411.811C929.962 411.811 915.658 416.862 915.658 416.862Z" fill="#B23636"/>
<path d="M985.363 351.995L966.711 348.838C966.711 348.838 976.906 336.922 1002.35 341.657C1027.8 346.392 1033.57 357.598 1033.57 357.598L990.025 359.334L985.363 351.995Z" fill="#EE7947"/>
<path d="M1007.65 461.921C1007.65 461.921 965.21 462.789 958.887 433.591C952.486 404.393 953.909 358.939 966.791 348.838L990.579 352.863L987.022 431.382L1007.65 461.921Z" fill="#B23636"/>
<path d="M997.059 428.067C997.059 428.067 989.946 422.149 995.479 421.281C1001.01 420.413 994.293 381.666 994.293 381.666C994.293 381.666 997.533 376.458 993.424 377.878C989.314 379.299 997.138 376.458 997.138 376.458L998.561 363.99L1011.52 365.252L1022.59 421.36L1013.58 447.007L994.846 439.747L997.059 428.067Z" fill="#B23636"/>
<path d="M755.858 349.312H797.902V459.396H769.293V372.828H755.858V349.312Z" fill="#6D2A5B"/>
<path d="M813.076 384.428C813.076 358.387 822.639 346.787 846.269 346.787C871.006 346.787 878.751 359.255 878.751 386.638V415.362C878.751 446.77 868.635 461.053 836.153 461.053L820.979 459.396V437.537H834.968C848.64 437.537 850.774 434.144 850.932 420.886C848.245 421.36 845.4 421.754 842.317 421.754C819.32 421.754 813.076 409.365 813.076 384.428ZM845.716 401.631C846.901 401.631 848.877 401.316 850.932 401V382.85C850.932 371.723 850.3 368.725 845.716 368.725C840.974 368.725 840.026 371.881 840.026 386.007C840.026 399.422 841.527 401.631 845.716 401.631Z" fill="#6D2A5B"/>
<path d="M929.488 381.745C929.488 371.486 928.619 369.119 924.43 369.119C920.084 369.119 919.53 371.96 919.53 379.536V387.111H894.794L894.32 374.485C894.32 357.834 901.59 346.787 925.142 346.787C949.562 346.787 957.307 356.73 957.307 380.562C957.307 393.503 953.434 401.395 947.349 406.129C955.252 410.312 958.967 417.888 958.967 430.671C958.967 451.347 949.878 461.921 925.774 461.921C903.25 461.921 892.423 455.056 892.423 435.722L892.739 427.515H919.688C919.688 436.906 920.716 439.589 925.221 439.589C929.567 439.589 930.753 437.537 930.753 428.856C930.753 420.492 929.093 418.282 923.008 418.282H917.476V398.08H921.506C928.619 398.08 929.488 395.239 929.488 381.745Z" fill="#6D2A5B"/>
<path d="M971.611 386.322C971.611 361.149 981.411 346.787 1006.62 346.787C1031.83 346.787 1040.92 361.07 1040.92 386.322V422.464C1040.92 447.717 1031.52 462 1006.23 462C981.016 462 971.532 447.717 971.532 422.464V386.322H971.611ZM1006.23 439.747C1012.15 439.747 1012.31 434.696 1012.31 420.728V387.979C1012.31 374.012 1012.15 368.961 1006.23 368.961C1000.38 368.961 1000.14 374.012 1000.14 387.979V420.728C1000.22 434.696 1000.38 439.747 1006.23 439.747Z" fill="#6D2A5B"/>
<path d="M741 343.157H783.123L797.902 349.312H755.858L741 343.157Z" fill="#EE7947"/>
<path d="M820.979 459.396L806.2 453.241V431.382L820.979 437.537V459.396Z" fill="#B23636"/>
<path d="M917.475 398.08L902.697 391.925V412.048L917.475 418.203V398.08Z" fill="#B23636"/>
<path d="M902.697 391.925C902.697 391.925 912.497 392.556 913.524 388.374L929.093 391.215C929.093 391.215 928.777 396.897 925.695 397.528C922.612 398.08 917.555 398.159 917.555 398.159L902.697 392.477" fill="#EE7947"/>
</g>
<defs>
<clipPath id="clip0_544_21">
<rect width="300" height="122" fill="white" transform="translate(741 340)"/>
</clipPath>
</defs>
</svg>
