<?xml version="1.0" encoding="utf-8"?>
<!-- Generator: Adobe Illustrator 26.5.0, SVG Export Plug-In . SVG Version: 6.00 Build 0)  -->
<svg version="1.1" id="Laag_1" xmlns="http://www.w3.org/2000/svg" xmlns:xlink="http://www.w3.org/1999/xlink" x="0px" y="0px"
	 viewBox="0 0 2063.1 1199.4" style="enable-background:new 0 0 2063.1 1199.4;" xml:space="preserve">
<style type="text/css">
	.st0{display:none;}
	.st1{fill:none;stroke:#6C2A5B;stroke-width:8.5039;stroke-miterlimit:10;}
	.st2{fill:#E7E0D3;stroke:#6C2A5B;stroke-width:8.5039;stroke-miterlimit:10;}
	.st3{fill:none;}
	.st4{fill:#6C2A5B;}
	.st5{font-family:'AvoryIPE-Bl';}
	.st6{font-size:28.3465px;}
</style>
<g id="Laag_1_00000045599322038817426530000016101630645224441253_" class="st0">
</g>
<g id="Laag_3">
	<polyline class="st1" points="-20.4,236.1 325.6,247.4 612.6,167.8 670.6,633.4 822.6,784.4 1106.6,901.4 1380.6,842.4 
		1741.6,1055.4 2063.1,1118.9 	"/>
</g>
<g id="Laag_2_00000065796071392046933930000000397939757867458746_">
	<circle class="st2" cx="325.6" cy="247.4" r="34"/>
	<circle class="st2" cx="612.6" cy="175.4" r="34"/>
	<circle class="st2" cx="670.6" cy="633.4" r="34"/>
	<circle class="st2" cx="822.6" cy="784.4" r="34"/>
	<circle class="st2" cx="1106.6" cy="901.4" r="34"/>
	<circle class="st2" cx="1380.6" cy="842.4" r="34"/>
	<circle class="st2" cx="1741.6" cy="1055.4" r="34"/>
	<rect x="294.7" y="175.1" class="st3" width="137.2" height="44"/>
	<text transform="matrix(1 0 0 1 294.7287 197.3455)" class="st4 st5 st6">Dijon</text>
	<rect x="572.7" y="111.1" class="st3" width="137.2" height="44"/>
	<text transform="matrix(1 0 0 1 572.7288 133.3455)" class="st4 st5 st6">Lausanne</text>
	<rect x="676.7" y="568.1" class="st3" width="137.2" height="44"/>
	<text transform="matrix(1 0 0 1 676.7287 590.3455)" class="st4 st5 st6">Milan</text>
	<rect x="799.7" y="715.1" class="st3" width="137.2" height="44"/>
	<text transform="matrix(1 0 0 1 799.7287 737.3455)" class="st4 st5 st6">Trieste</text>
	<rect x="1071.7" y="823.1" class="st3" width="137.2" height="44"/>
	<text transform="matrix(1 0 0 1 1071.7288 845.3455)" class="st4 st5 st6">Zagreb</text>
	<rect x="1338.7" y="774.1" class="st3" width="137.2" height="44"/>
	<text transform="matrix(1 0 0 1 1338.7288 796.3455)" class="st4 st5 st6">Belgrade</text>
	<rect x="1715.7" y="985.1" class="st3" width="137.2" height="44"/>
	<text transform="matrix(1 0 0 1 1715.7288 1007.3455)" class="st4 st5 st6">Sofia</text>
</g>
</svg>
