<?xml version="1.0" encoding="utf-8"?>
<!-- Generator: Adobe Illustrator 26.5.0, SVG Export Plug-In . SVG Version: 6.00 Build 0)  -->
<svg version="1.1" xmlns="http://www.w3.org/2000/svg" xmlns:xlink="http://www.w3.org/1999/xlink" x="0px" y="0px"
	 viewBox="0 0 500 500" style="enable-background:new 0 0 500 500;" xml:space="preserve">
<style type="text/css">
	.st0{display:none;}
	.st1{fill:#5C2A5B;}
</style>
<g id="Laag_1" class="st0">
</g>
<g id="Laag_2">
	<g>
		<path class="st1" d="M455,17c15.4,0,28,12.6,28,28v410c0,15.4-12.6,28-28,28H306.5V341.5h41h14.2l2.5-14l13-72.2l3.6-20h-20.3h-54
			v-35.2c1.4-6.4,4.4-10.4,9.7-13.1c5.6-2.8,12-3.1,14.6-3.1c0.4,0,0.8,0,1,0c1.5,0.1,3.1,0.1,5,0.1h23.7h17v-17V99.5V84.6
			l-14.8-1.9c-14.4-1.9-28.1-2.8-40.8-2.8c-46.4,0-81.1,12.5-103.2,37.3c-25.8,28.9-24.6,64.2-24.1,71.1V233h-47.1h-17v17v74.5v17
			h17h46V483H45c-15.4,0-28-12.6-28-28V45c0-15.4,12.6-28,28-28H455 M455,0H45C20.1,0,0,20.1,0,45v410c0,24.9,20.1,45,45,45h165.5
			V324.5h-63V250h64.1v-62.5c0,0-10.1-90.7,110.3-90.7c11.6,0,24.4,0.8,38.6,2.7V167h-23.7c-1.5,0-2.9,0-4.4-0.1c-0.4,0-1,0-1.7,0
			c-9,0-36.2,2.4-41.2,31.6v53.8h71l-13,72.2h-58V500H455c24.9,0,45-20.1,45-45V45C500,20.1,479.9,0,455,0L455,0z"/>
	</g>
</g>
</svg>
