<?xml version="1.0" encoding="utf-8"?>
<!-- Generator: Adobe Illustrator 26.5.0, SVG Export Plug-In . SVG Version: 6.00 Build 0)  -->
<svg version="1.1" xmlns="http://www.w3.org/2000/svg" xmlns:xlink="http://www.w3.org/1999/xlink" x="0px" y="0px"
	 viewBox="0 0 500 500" style="enable-background:new 0 0 500 500;" xml:space="preserve">
<style type="text/css">
	.st0{display:none;}
	.st1{fill:#E7E0D3;}
</style>
<g id="Laag_1" class="st0">
	
		<image style="display:inline;overflow:visible;" width="2048" height="2048" xlink:href="3E72D50A0603B7E0.png"  transform="matrix(0.2441 0 0 0.2441 0 0)">
	</image>
</g>
<g id="Laag_2">
	<g>
		<path class="st1" d="M453.9,17.5c15.7,0,28.6,12.8,28.6,28.6v407.9c0,15.7-12.8,28.6-28.6,28.6H46.1c-15.7,0-28.6-12.8-28.6-28.6
			V46.1c0-15.7,12.8-28.6,28.6-28.6H453.9 M453.9,0.5H46.1C21,0.5,0.5,21,0.5,46.1v407.9c0,25.1,20.5,45.6,45.6,45.6h407.9
			c25.1,0,45.6-20.5,45.6-45.6V46.1C499.5,21,479,0.5,453.9,0.5L453.9,0.5z"/>
	</g>
	<g>
		<path class="st1" d="M253.5,127c35.7,0,69.2,13.9,94.4,39.1c25.2,25.2,39.1,58.7,39.1,94.4s-13.9,69.2-39.1,94.4
			c-25.2,25.2-58.7,39.1-94.4,39.1s-69.2-13.9-94.4-39.1c-25.2-25.2-39.1-58.7-39.1-94.4s13.9-69.2,39.1-94.4S217.8,127,253.5,127
			 M253.5,110C170.4,110,103,177.4,103,260.5S170.4,411,253.5,411S404,343.6,404,260.5S336.6,110,253.5,110L253.5,110z"/>
	</g>
	<g>
		<path class="st1" d="M404,66c14.9,0,27,12.1,27,27s-12.1,27-27,27s-27-12.1-27-27S389.1,66,404,66 M404,49c-24.3,0-44,19.7-44,44
			s19.7,44,44,44s44-19.7,44-44S428.3,49,404,49L404,49z"/>
	</g>
</g>
</svg>
