<?xml version="1.0" encoding="utf-8"?>
<!-- Generator: Adobe Illustrator 26.5.0, SVG Export Plug-In . SVG Version: 6.00 Build 0)  -->
<svg version="1.1" xmlns="http://www.w3.org/2000/svg" xmlns:xlink="http://www.w3.org/1999/xlink" x="0px" y="0px"
	 viewBox="0 0 425.2 425.2" style="enable-background:new 0 0 425.2 425.2;" xml:space="preserve">
<style type="text/css">
	.st0{display:none;}
	.st1{fill:#8F387C;}
	.st2{fill:#6E2A5B;}
	.st3{fill:#833473;}
	.st4{fill:#783169;}
	.st5{fill:#803371;}
	.st6{fill:#692A5F;}
	.st7{fill:#4A1E45;}
	.st8{fill:#5B2355;}
</style>
<g id="Laag_1" class="st0">
	
		<image style="display:inline;overflow:visible;" width="1125" height="1125" xlink:href="../../../../DES/originalMaterial/s-l1200.jpg"  transform="matrix(0.565 0 0 0.565 -71.8037 -105.2207)">
	</image>
</g>
<g id="Laag_2">
	<g>
		<polygon class="st1" points="151.1,50.5 315.8,28.8 343.6,378.5 145.9,415 		"/>
		<polygon class="st2" points="151.1,50.5 99.2,21.1 81.9,365.9 145.9,415 		"/>
		<polygon class="st3" points="81.9,365.9 75.9,367.6 145.9,419.9 145.9,415 		"/>
		<polygon class="st2" points="75.9,373.8 75.9,367.6 145.9,419.9 145.9,425.2 		"/>
		<polygon class="st4" points="343.6,378.5 349.3,381 145.9,419.9 145.9,415 		"/>
		<polygon class="st1" points="349.3,381 349.3,387.2 145.9,425.2 145.9,419.9 		"/>
		<polygon class="st5" points="119,26.5 261.4,6.5 261.4,0 99.2,21.1 		"/>
		<polygon class="st5" points="151.1,50.5 153.5,43.9 302.1,26.5 315.8,28.8 		"/>
		<polygon class="st5" points="119,26.5 153.5,43.9 151.1,50.5 99.2,21.1 		"/>
		<polygon class="st5" points="261.4,6.5 302.1,26.5 315.8,28.8 261.4,0 		"/>
		<polygon class="st6" points="119,26.5 153.5,43.9 261.4,31.3 261.4,6.5 		"/>
		<polygon class="st7" points="302.1,26.5 261.4,6.5 261.4,31.3 		"/>
		<g>
			<path class="st6" d="M206.9,89.9c1.9,0,3.6,0.6,5,1.5c-1.6-1.7-3.9-2.8-6.6-2.8c-4.8,0-8.6,3.6-8.6,8.1c0,2.7,1.4,5.1,3.6,6.5
				c-1.3-1.4-2.1-3.2-2.1-5.2C198.2,93.5,202.1,89.9,206.9,89.9z"/>
			<path class="st6" d="M214,96.7c0-2-0.8-3.8-2.1-5.2c-1.4-1-3.2-1.5-5-1.5c-4.8,0-8.6,3.6-8.6,8.1c0,2,0.8,3.8,2.1,5.2
				c1.4,1,3.2,1.5,5,1.5C210.1,104.7,214,101.1,214,96.7z"/>
			<path class="st8" d="M210.4,90.1c1.3,1.4,2.1,3.2,2.1,5.2c0,4.5-3.9,8.1-8.6,8.1c-1.9,0-3.6-0.6-5-1.5c1.6,1.7,3.9,2.8,6.6,2.8
				c4.8,0,8.6-3.6,8.6-8.1C214,94,212.6,91.6,210.4,90.1z"/>
		</g>
		<g>
			<path class="st6" d="M236.1,84.9c1.9,0,3.6,0.6,5,1.5c-1.6-1.7-3.9-2.8-6.6-2.8c-4.8,0-8.6,3.6-8.6,8.1c0,2.7,1.4,5.1,3.6,6.5
				c-1.3-1.4-2.1-3.2-2.1-5.2C227.5,88.5,231.3,84.9,236.1,84.9z"/>
			<path class="st6" d="M243.3,91.7c0-2-0.8-3.8-2.1-5.2c-1.4-1-3.2-1.5-5-1.5c-4.8,0-8.6,3.6-8.6,8.1c0,2,0.8,3.8,2.1,5.2
				c1.4,1,3.2,1.5,5,1.5C239.4,99.7,243.3,96.1,243.3,91.7z"/>
			<path class="st8" d="M239.7,85.1c1.3,1.4,2.1,3.2,2.1,5.2c0,4.5-3.9,8.1-8.6,8.1c-1.9,0-3.6-0.6-5-1.5c1.6,1.7,3.9,2.8,6.6,2.8
				c4.8,0,8.6-3.6,8.6-8.1C243.3,89,241.8,86.6,239.7,85.1z"/>
		</g>
		<g>
			<path class="st6" d="M263.9,81.8c1.9,0,3.6,0.6,5,1.5c-1.6-1.7-3.9-2.8-6.6-2.8c-4.8,0-8.6,3.6-8.6,8.1c0,2.7,1.4,5.1,3.6,6.5
				c-1.3-1.4-2.1-3.2-2.1-5.2C255.3,85.5,259.2,81.8,263.9,81.8z"/>
			<path class="st6" d="M271.1,88.6c0-2-0.8-3.8-2.1-5.2c-1.4-1-3.2-1.5-5-1.5c-4.8,0-8.6,3.6-8.6,8.1c0,2,0.8,3.8,2.1,5.2
				c1.4,1,3.2,1.5,5,1.5C267.2,96.7,271.1,93.1,271.1,88.6z"/>
			<path class="st8" d="M267.5,82.1c1.3,1.4,2.1,3.2,2.1,5.2c0,4.5-3.9,8.1-8.6,8.1c-1.9,0-3.6-0.6-5-1.5c1.6,1.7,3.9,2.8,6.6,2.8
				c4.8,0,8.6-3.6,8.6-8.1C271.1,85.9,269.7,83.6,267.5,82.1z"/>
		</g>
		<g>
			<path class="st6" d="M280.7,109.1c1.9,0,3.6,0.6,5,1.5c-1.6-1.7-3.9-2.8-6.6-2.8c-4.8,0-8.6,3.6-8.6,8.1c0,2.7,1.4,5.1,3.6,6.5
				c-1.3-1.4-2.1-3.2-2.1-5.2C272.1,112.7,275.9,109.1,280.7,109.1z"/>
			<path class="st6" d="M287.9,115.9c0-2-0.8-3.8-2.1-5.2c-1.4-1-3.2-1.5-5-1.5c-4.8,0-8.6,3.6-8.6,8.1c0,2,0.8,3.8,2.1,5.2
				c1.4,1,3.2,1.5,5,1.5C284,123.9,287.9,120.3,287.9,115.9z"/>
			<path class="st8" d="M284.3,109.3c1.3,1.4,2.1,3.2,2.1,5.2c0,4.5-3.9,8.1-8.6,8.1c-1.9,0-3.6-0.6-5-1.5c1.6,1.7,3.9,2.8,6.6,2.8
				c4.8,0,8.6-3.6,8.6-8.1C287.9,113.2,286.4,110.8,284.3,109.3z"/>
		</g>
		<g>
			<path class="st6" d="M252.2,112.8c1.9,0,3.6,0.6,5,1.5c-1.6-1.7-3.9-2.8-6.6-2.8c-4.8,0-8.6,3.6-8.6,8.1c0,2.7,1.4,5.1,3.6,6.5
				c-1.3-1.4-2.1-3.2-2.1-5.2C243.5,116.4,247.4,112.8,252.2,112.8z"/>
			<path class="st6" d="M259.3,119.5c0-2-0.8-3.8-2.1-5.2c-1.4-1-3.2-1.5-5-1.5c-4.8,0-8.6,3.6-8.6,8.1c0,2,0.8,3.8,2.1,5.2
				c1.4,1,3.2,1.5,5,1.5C255.4,127.6,259.3,124,259.3,119.5z"/>
			<path class="st8" d="M255.7,113c1.3,1.4,2.1,3.2,2.1,5.2c0,4.5-3.9,8.1-8.6,8.1c-1.9,0-3.6-0.6-5-1.5c1.6,1.7,3.9,2.8,6.6,2.8
				c4.8,0,8.6-3.6,8.6-8.1C259.3,116.8,257.9,114.5,255.7,113z"/>
		</g>
		<g>
			<path class="st6" d="M222.1,116.8c1.9,0,3.6,0.6,5,1.5c-1.6-1.7-3.9-2.8-6.6-2.8c-4.8,0-8.6,3.6-8.6,8.1c0,2.7,1.4,5.1,3.6,6.5
				c-1.3-1.4-2.1-3.2-2.1-5.2C213.4,120.4,217.3,116.8,222.1,116.8z"/>
			<path class="st6" d="M229.2,123.6c0-2-0.8-3.8-2.1-5.2c-1.4-1-3.2-1.5-5-1.5c-4.8,0-8.6,3.6-8.6,8.1c0,2,0.8,3.8,2.1,5.2
				c1.4,1,3.2,1.5,5,1.5C225.3,131.6,229.2,128,229.2,123.6z"/>
			<path class="st8" d="M225.6,117.1c1.3,1.4,2.1,3.2,2.1,5.2c0,4.5-3.9,8.1-8.6,8.1c-1.9,0-3.6-0.6-5-1.5c1.6,1.7,3.9,2.8,6.6,2.8
				c4.8,0,8.6-3.6,8.6-8.1C229.2,120.9,227.8,118.5,225.6,117.1z"/>
		</g>
		<g>
			<path class="st6" d="M191.7,120.9c1.9,0,3.6,0.6,5,1.5c-1.6-1.7-3.9-2.8-6.6-2.8c-4.8,0-8.6,3.6-8.6,8.1c0,2.7,1.4,5.1,3.6,6.5
				c-1.3-1.4-2.1-3.2-2.1-5.2C183,124.5,186.9,120.9,191.7,120.9z"/>
			<path class="st6" d="M198.8,127.7c0-2-0.8-3.8-2.1-5.2c-1.4-1-3.2-1.5-5-1.5c-4.8,0-8.6,3.6-8.6,8.1c0,2,0.8,3.8,2.1,5.2
				c1.4,1,3.2,1.5,5,1.5C194.9,135.8,198.8,132.2,198.8,127.7z"/>
			<path class="st8" d="M195.2,121.2c1.3,1.4,2.1,3.2,2.1,5.2c0,4.5-3.9,8.1-8.6,8.1c-1.9,0-3.6-0.6-5-1.5c1.6,1.7,3.9,2.8,6.6,2.8
				c4.8,0,8.6-3.6,8.6-8.1C198.8,125,197.4,122.6,195.2,121.2z"/>
		</g>
		<g>
			<path class="st6" d="M282.9,168.7c1.9,0,3.6,0.6,5,1.5c-1.6-1.7-3.9-2.8-6.6-2.8c-4.8,0-8.6,3.6-8.6,8.1c0,2.7,1.4,5.1,3.6,6.5
				c-1.3-1.4-2.1-3.2-2.1-5.2C274.3,172.3,278.2,168.7,282.9,168.7z"/>
			<path class="st6" d="M290.1,175.4c0-2-0.8-3.8-2.1-5.2c-1.4-1-3.2-1.5-5-1.5c-4.8,0-8.6,3.6-8.6,8.1c0,2,0.8,3.8,2.1,5.2
				c1.4,1,3.2,1.5,5,1.5C286.2,183.5,290.1,179.9,290.1,175.4z"/>
			<path class="st8" d="M286.5,168.9c1.3,1.4,2.1,3.2,2.1,5.2c0,4.5-3.9,8.1-8.6,8.1c-1.9,0-3.6-0.6-5-1.5c1.6,1.7,3.9,2.8,6.6,2.8
				c4.8,0,8.6-3.6,8.6-8.1C290.1,172.7,288.7,170.4,286.5,168.9z"/>
		</g>
		<g>
			<path class="st6" d="M254.4,172.3c1.9,0,3.6,0.6,5,1.5c-1.6-1.7-3.9-2.8-6.6-2.8c-4.8,0-8.6,3.6-8.6,8.1c0,2.7,1.4,5.1,3.6,6.5
				c-1.3-1.4-2.1-3.2-2.1-5.2C245.7,175.9,249.6,172.3,254.4,172.3z"/>
			<path class="st6" d="M261.5,179.1c0-2-0.8-3.8-2.1-5.2c-1.4-1-3.2-1.5-5-1.5c-4.8,0-8.6,3.6-8.6,8.1c0,2,0.8,3.8,2.1,5.2
				c1.4,1,3.2,1.5,5,1.5C257.6,187.2,261.5,183.5,261.5,179.1z"/>
			<path class="st8" d="M257.9,172.6c1.3,1.4,2.1,3.2,2.1,5.2c0,4.5-3.9,8.1-8.6,8.1c-1.9,0-3.6-0.6-5-1.5c1.6,1.7,3.9,2.8,6.6,2.8
				c4.8,0,8.6-3.6,8.6-8.1C261.5,176.4,260.1,174,257.9,172.6z"/>
		</g>
		<g>
			<path class="st6" d="M224.3,176.4c1.9,0,3.6,0.6,5,1.5c-1.6-1.7-3.9-2.8-6.6-2.8c-4.8,0-8.6,3.6-8.6,8.1c0,2.7,1.4,5.1,3.6,6.5
				c-1.3-1.4-2.1-3.2-2.1-5.2C215.6,180,219.5,176.4,224.3,176.4z"/>
			<path class="st6" d="M231.4,183.1c0-2-0.8-3.8-2.1-5.2c-1.4-1-3.2-1.5-5-1.5c-4.8,0-8.6,3.6-8.6,8.1c0,2,0.8,3.8,2.1,5.2
				c1.4,1,3.2,1.5,5,1.5C227.6,191.2,231.4,187.6,231.4,183.1z"/>
			<path class="st8" d="M227.8,176.6c1.3,1.4,2.1,3.2,2.1,5.2c0,4.5-3.9,8.1-8.6,8.1c-1.9,0-3.6-0.6-5-1.5c1.6,1.7,3.9,2.8,6.6,2.8
				c4.8,0,8.6-3.6,8.6-8.1C231.4,180.5,230,178.1,227.8,176.6z"/>
		</g>
		<g>
			<path class="st6" d="M193.9,180.5c1.9,0,3.6,0.6,5,1.5c-1.6-1.7-3.9-2.8-6.6-2.8c-4.8,0-8.6,3.6-8.6,8.1c0,2.7,1.4,5.1,3.6,6.5
				c-1.3-1.4-2.1-3.2-2.1-5.2C185.2,184.1,189.1,180.5,193.9,180.5z"/>
			<path class="st6" d="M201,187.3c0-2-0.8-3.8-2.1-5.2c-1.4-1-3.2-1.5-5-1.5c-4.8,0-8.6,3.6-8.6,8.1c0,2,0.8,3.8,2.1,5.2
				c1.4,1,3.2,1.5,5,1.5C197.2,195.3,201,191.7,201,187.3z"/>
			<path class="st8" d="M197.4,180.7c1.3,1.4,2.1,3.2,2.1,5.2c0,4.5-3.9,8.1-8.6,8.1c-1.9,0-3.6-0.6-5-1.5c1.6,1.7,3.9,2.8,6.6,2.8
				c4.8,0,8.6-3.6,8.6-8.1C201,184.6,199.6,182.2,197.4,180.7z"/>
		</g>
		<g>
			<path class="st6" d="M285.7,227.5c1.9,0,3.6,0.6,5,1.5c-1.6-1.7-3.9-2.8-6.6-2.8c-4.8,0-8.6,3.6-8.6,8.1c0,2.7,1.4,5.1,3.6,6.5
				c-1.3-1.4-2.1-3.2-2.1-5.2C277,231.1,280.9,227.5,285.7,227.5z"/>
			<path class="st6" d="M292.8,234.2c0-2-0.8-3.8-2.1-5.2c-1.4-1-3.2-1.5-5-1.5c-4.8,0-8.6,3.6-8.6,8.1c0,2,0.8,3.8,2.1,5.2
				c1.4,1,3.2,1.5,5,1.5C288.9,242.3,292.8,238.7,292.8,234.2z"/>
			<path class="st8" d="M289.2,227.7c1.3,1.4,2.1,3.2,2.1,5.2c0,4.5-3.9,8.1-8.6,8.1c-1.9,0-3.6-0.6-5-1.5c1.6,1.7,3.9,2.8,6.6,2.8
				c4.8,0,8.6-3.6,8.6-8.1C292.8,231.6,291.4,229.2,289.2,227.7z"/>
		</g>
		<g>
			<path class="st6" d="M257.1,231.1c1.9,0,3.6,0.6,5,1.5c-1.6-1.7-3.9-2.8-6.6-2.8c-4.8,0-8.6,3.6-8.6,8.1c0,2.7,1.4,5.1,3.6,6.5
				c-1.3-1.4-2.1-3.2-2.1-5.2C248.4,234.7,252.3,231.1,257.1,231.1z"/>
			<path class="st6" d="M264.2,237.9c0-2-0.8-3.8-2.1-5.2c-1.4-1-3.2-1.5-5-1.5c-4.8,0-8.6,3.6-8.6,8.1c0,2,0.8,3.8,2.1,5.2
				c1.4,1,3.2,1.5,5,1.5C260.4,246,264.2,242.4,264.2,237.9z"/>
			<path class="st8" d="M260.6,231.4c1.3,1.4,2.1,3.2,2.1,5.2c0,4.5-3.9,8.1-8.6,8.1c-1.9,0-3.6-0.6-5-1.5c1.6,1.7,3.9,2.8,6.6,2.8
				c4.8,0,8.6-3.6,8.6-8.1C264.2,235.2,262.8,232.8,260.6,231.4z"/>
		</g>
		<g>
			<path class="st6" d="M227,235.2c1.9,0,3.6,0.6,5,1.5c-1.6-1.7-3.9-2.8-6.6-2.8c-4.8,0-8.6,3.6-8.6,8.1c0,2.7,1.4,5.1,3.6,6.5
				c-1.3-1.4-2.1-3.2-2.1-5.2C218.4,238.8,222.2,235.2,227,235.2z"/>
			<path class="st6" d="M234.1,242c0-2-0.8-3.8-2.1-5.2c-1.4-1-3.2-1.5-5-1.5c-4.8,0-8.6,3.6-8.6,8.1c0,2,0.8,3.8,2.1,5.2
				c1.4,1,3.2,1.5,5,1.5C230.3,250,234.1,246.4,234.1,242z"/>
			<path class="st8" d="M230.6,235.4c1.3,1.4,2.1,3.2,2.1,5.2c0,4.5-3.9,8.1-8.6,8.1c-1.9,0-3.6-0.6-5-1.5c1.6,1.7,3.9,2.8,6.6,2.8
				c4.8,0,8.6-3.6,8.6-8.1C234.1,239.3,232.7,236.9,230.6,235.4z"/>
		</g>
		<g>
			<path class="st6" d="M196.6,239.3c1.9,0,3.6,0.6,5,1.5c-1.6-1.7-3.9-2.8-6.6-2.8c-4.8,0-8.6,3.6-8.6,8.1c0,2.7,1.4,5.1,3.6,6.5
				c-1.3-1.4-2.1-3.2-2.1-5.2C188,242.9,191.8,239.3,196.6,239.3z"/>
			<path class="st6" d="M203.7,246.1c0-2-0.8-3.8-2.1-5.2c-1.4-1-3.2-1.5-5-1.5c-4.8,0-8.6,3.6-8.6,8.1c0,2,0.8,3.8,2.1,5.2
				c1.4,1,3.2,1.5,5,1.5C199.9,254.1,203.7,250.5,203.7,246.1z"/>
			<path class="st8" d="M200.2,239.6c1.3,1.4,2.1,3.2,2.1,5.2c0,4.5-3.9,8.1-8.6,8.1c-1.9,0-3.6-0.6-5-1.5c1.6,1.7,3.9,2.8,6.6,2.8
				c4.8,0,8.6-3.6,8.6-8.1C203.7,243.4,202.3,241,200.2,239.6z"/>
		</g>
		<g>
			<path class="st6" d="M296.5,77.5c1.9,0,3.6,0.6,5,1.5c-1.6-1.7-3.9-2.8-6.6-2.8c-4.8,0-8.6,3.6-8.6,8.1c0,2.7,1.4,5.1,3.6,6.5
				c-1.3-1.4-2.1-3.2-2.1-5.2C287.9,81.1,291.7,77.5,296.5,77.5z"/>
			<path class="st6" d="M303.7,84.2c0-2-0.8-3.8-2.1-5.2c-1.4-1-3.2-1.5-5-1.5c-4.8,0-8.6,3.6-8.6,8.1c0,2,0.8,3.8,2.1,5.2
				c1.4,1,3.2,1.5,5,1.5C299.8,92.3,303.7,88.7,303.7,84.2z"/>
			<path class="st8" d="M300.1,77.7c1.3,1.4,2.1,3.2,2.1,5.2c0,4.5-3.9,8.1-8.6,8.1c-1.9,0-3.6-0.6-5-1.5c1.6,1.7,3.9,2.8,6.6,2.8
				c4.8,0,8.6-3.6,8.6-8.1C303.7,81.5,302.2,79.2,300.1,77.7z"/>
		</g>
		<g>
			<path class="st6" d="M210.2,149.5c1.9,0,3.6,0.6,5,1.5c-1.6-1.7-3.9-2.8-6.6-2.8c-4.8,0-8.6,3.6-8.6,8.1c0,2.7,1.4,5.1,3.6,6.5
				c-1.3-1.4-2.1-3.2-2.1-5.2C201.6,153.1,205.4,149.5,210.2,149.5z"/>
			<path class="st6" d="M217.4,156.3c0-2-0.8-3.8-2.1-5.2c-1.4-1-3.2-1.5-5-1.5c-4.8,0-8.6,3.6-8.6,8.1c0,2,0.8,3.8,2.1,5.2
				c1.4,1,3.2,1.5,5,1.5C213.5,164.3,217.4,160.7,217.4,156.3z"/>
			<path class="st8" d="M213.8,149.7c1.3,1.4,2.1,3.2,2.1,5.2c0,4.5-3.9,8.1-8.6,8.1c-1.9,0-3.6-0.6-5-1.5c1.6,1.7,3.9,2.8,6.6,2.8
				c4.8,0,8.6-3.6,8.6-8.1C217.4,153.6,215.9,151.2,213.8,149.7z"/>
		</g>
		<g>
			<path class="st6" d="M179.3,152.5c1.9,0,3.6,0.6,5,1.5c-1.6-1.7-3.9-2.8-6.6-2.8c-4.8,0-8.6,3.6-8.6,8.1c0,2.7,1.4,5.1,3.6,6.5
				c-1.3-1.4-2.1-3.2-2.1-5.2C170.7,156.1,174.5,152.5,179.3,152.5z"/>
			<path class="st6" d="M186.5,159.3c0-2-0.8-3.8-2.1-5.2c-1.4-1-3.2-1.5-5-1.5c-4.8,0-8.6,3.6-8.6,8.1c0,2,0.8,3.8,2.1,5.2
				c1.4,1,3.2,1.5,5,1.5C182.6,167.4,186.5,163.8,186.5,159.3z"/>
			<path class="st8" d="M182.9,152.8c1.3,1.4,2.1,3.2,2.1,5.2c0,4.5-3.9,8.1-8.6,8.1c-1.9,0-3.6-0.6-5-1.5c1.6,1.7,3.9,2.8,6.6,2.8
				c4.8,0,8.6-3.6,8.6-8.1C186.5,156.6,185,154.2,182.9,152.8z"/>
		</g>
		<g>
			<path class="st6" d="M239.5,144.5c1.9,0,3.6,0.6,5,1.5c-1.6-1.7-3.9-2.8-6.6-2.8c-4.8,0-8.6,3.6-8.6,8.1c0,2.7,1.4,5.1,3.6,6.5
				c-1.3-1.4-2.1-3.2-2.1-5.2C230.8,148.1,234.7,144.5,239.5,144.5z"/>
			<path class="st6" d="M246.6,151.3c0-2-0.8-3.8-2.1-5.2c-1.4-1-3.2-1.5-5-1.5c-4.8,0-8.6,3.6-8.6,8.1c0,2,0.8,3.8,2.1,5.2
				c1.4,1,3.2,1.5,5,1.5C242.7,159.3,246.6,155.7,246.6,151.3z"/>
			<path class="st8" d="M243,144.7c1.3,1.4,2.1,3.2,2.1,5.2c0,4.5-3.9,8.1-8.6,8.1c-1.9,0-3.6-0.6-5-1.5c1.6,1.7,3.9,2.8,6.6,2.8
				c4.8,0,8.6-3.6,8.6-8.1C246.6,148.6,245.2,146.2,243,144.7z"/>
		</g>
		<g>
			<path class="st6" d="M267.3,141.4c1.9,0,3.6,0.6,5,1.5c-1.6-1.7-3.9-2.8-6.6-2.8c-4.8,0-8.6,3.6-8.6,8.1c0,2.7,1.4,5.1,3.6,6.5
				c-1.3-1.4-2.1-3.2-2.1-5.2C258.6,145,262.5,141.4,267.3,141.4z"/>
			<path class="st6" d="M274.4,148.2c0-2-0.8-3.8-2.1-5.2c-1.4-1-3.2-1.5-5-1.5c-4.8,0-8.6,3.6-8.6,8.1c0,2,0.8,3.8,2.1,5.2
				c1.4,1,3.2,1.5,5,1.5C270.5,156.3,274.4,152.7,274.4,148.2z"/>
			<path class="st8" d="M270.8,141.7c1.3,1.4,2.1,3.2,2.1,5.2c0,4.5-3.9,8.1-8.6,8.1c-1.9,0-3.6-0.6-5-1.5c1.6,1.7,3.9,2.8,6.6,2.8
				c4.8,0,8.6-3.6,8.6-8.1C274.4,145.5,273,143.1,270.8,141.7z"/>
		</g>
		<g>
			<path class="st6" d="M299.9,137.1c1.9,0,3.6,0.6,5,1.5c-1.6-1.7-3.9-2.8-6.6-2.8c-4.8,0-8.6,3.6-8.6,8.1c0,2.7,1.4,5.1,3.6,6.5
				c-1.3-1.4-2.1-3.2-2.1-5.2C291.2,140.7,295.1,137.1,299.9,137.1z"/>
			<path class="st6" d="M307,143.8c0-2-0.8-3.8-2.1-5.2c-1.4-1-3.2-1.5-5-1.5c-4.8,0-8.6,3.6-8.6,8.1c0,2,0.8,3.8,2.1,5.2
				c1.4,1,3.2,1.5,5,1.5C303.1,151.9,307,148.3,307,143.8z"/>
			<path class="st8" d="M303.4,137.3c1.3,1.4,2.1,3.2,2.1,5.2c0,4.5-3.9,8.1-8.6,8.1c-1.9,0-3.6-0.6-5-1.5c1.6,1.7,3.9,2.8,6.6,2.8
				c4.8,0,8.6-3.6,8.6-8.1C307,141.1,305.6,138.8,303.4,137.3z"/>
		</g>
		<g>
			<path class="st6" d="M211.1,208.3c1.9,0,3.6,0.6,5,1.5c-1.6-1.7-3.9-2.8-6.6-2.8c-4.8,0-8.6,3.6-8.6,8.1c0,2.7,1.4,5.1,3.6,6.5
				c-1.3-1.4-2.1-3.2-2.1-5.2C202.5,211.9,206.4,208.3,211.1,208.3z"/>
			<path class="st6" d="M218.3,215.1c0-2-0.8-3.8-2.1-5.2c-1.4-1-3.2-1.5-5-1.5c-4.8,0-8.6,3.6-8.6,8.1c0,2,0.8,3.8,2.1,5.2
				c1.4,1,3.2,1.5,5,1.5C214.4,223.2,218.3,219.5,218.3,215.1z"/>
			<path class="st8" d="M214.7,208.6c1.3,1.4,2.1,3.2,2.1,5.2c0,4.5-3.9,8.1-8.6,8.1c-1.9,0-3.6-0.6-5-1.5c1.6,1.7,3.9,2.8,6.6,2.8
				c4.8,0,8.6-3.6,8.6-8.1C218.3,212.4,216.9,210,214.7,208.6z"/>
		</g>
		<g>
			<path class="st6" d="M180.2,211.4c1.9,0,3.6,0.6,5,1.5c-1.6-1.7-3.9-2.8-6.6-2.8c-4.8,0-8.6,3.6-8.6,8.1c0,2.7,1.4,5.1,3.6,6.5
				c-1.3-1.4-2.1-3.2-2.1-5.2C171.6,215,175.5,211.4,180.2,211.4z"/>
			<path class="st6" d="M187.4,218.1c0-2-0.8-3.8-2.1-5.2c-1.4-1-3.2-1.5-5-1.5c-4.8,0-8.6,3.6-8.6,8.1c0,2,0.8,3.8,2.1,5.2
				c1.4,1,3.2,1.5,5,1.5C183.5,226.2,187.4,222.6,187.4,218.1z"/>
			<path class="st8" d="M183.8,211.6c1.3,1.4,2.1,3.2,2.1,5.2c0,4.5-3.9,8.1-8.6,8.1c-1.9,0-3.6-0.6-5-1.5c1.6,1.7,3.9,2.8,6.6,2.8
				c4.8,0,8.6-3.6,8.6-8.1C187.4,215.4,186,213.1,183.8,211.6z"/>
		</g>
		<g>
			<path class="st6" d="M240.4,203.3c1.9,0,3.6,0.6,5,1.5c-1.6-1.7-3.9-2.8-6.6-2.8c-4.8,0-8.6,3.6-8.6,8.1c0,2.7,1.4,5.1,3.6,6.5
				c-1.3-1.4-2.1-3.2-2.1-5.2C231.7,206.9,235.6,203.3,240.4,203.3z"/>
			<path class="st6" d="M247.5,210.1c0-2-0.8-3.8-2.1-5.2c-1.4-1-3.2-1.5-5-1.5c-4.8,0-8.6,3.6-8.6,8.1c0,2,0.8,3.8,2.1,5.2
				c1.4,1,3.2,1.5,5,1.5C243.6,218.1,247.5,214.5,247.5,210.1z"/>
			<path class="st8" d="M243.9,203.5c1.3,1.4,2.1,3.2,2.1,5.2c0,4.5-3.9,8.1-8.6,8.1c-1.9,0-3.6-0.6-5-1.5c1.6,1.7,3.9,2.8,6.6,2.8
				c4.8,0,8.6-3.6,8.6-8.1C247.5,207.4,246.1,205,243.9,203.5z"/>
		</g>
		<g>
			<path class="st6" d="M268.2,200.3c1.9,0,3.6,0.6,5,1.5c-1.6-1.7-3.9-2.8-6.6-2.8c-4.8,0-8.6,3.6-8.6,8.1c0,2.7,1.4,5.1,3.6,6.5
				c-1.3-1.4-2.1-3.2-2.1-5.2C259.5,203.9,263.4,200.3,268.2,200.3z"/>
			<path class="st6" d="M275.3,207c0-2-0.8-3.8-2.1-5.2c-1.4-1-3.2-1.5-5-1.5c-4.8,0-8.6,3.6-8.6,8.1c0,2,0.8,3.8,2.1,5.2
				c1.4,1,3.2,1.5,5,1.5C271.5,215.1,275.3,211.5,275.3,207z"/>
			<path class="st8" d="M271.7,200.5c1.3,1.4,2.1,3.2,2.1,5.2c0,4.5-3.9,8.1-8.6,8.1c-1.9,0-3.6-0.6-5-1.5c1.6,1.7,3.9,2.8,6.6,2.8
				c4.8,0,8.6-3.6,8.6-8.1C275.3,204.3,273.9,202,271.7,200.5z"/>
		</g>
		<g>
			<path class="st6" d="M300.8,195.9c1.9,0,3.6,0.6,5,1.5c-1.6-1.7-3.9-2.8-6.6-2.8c-4.8,0-8.6,3.6-8.6,8.1c0,2.7,1.4,5.1,3.6,6.5
				c-1.3-1.4-2.1-3.2-2.1-5.2C292.1,199.5,296,195.9,300.8,195.9z"/>
			<path class="st6" d="M307.9,202.6c0-2-0.8-3.8-2.1-5.2c-1.4-1-3.2-1.5-5-1.5c-4.8,0-8.6,3.6-8.6,8.1c0,2,0.8,3.8,2.1,5.2
				c1.4,1,3.2,1.5,5,1.5C304,210.7,307.9,207.1,307.9,202.6z"/>
			<path class="st8" d="M304.3,196.1c1.3,1.4,2.1,3.2,2.1,5.2c0,4.5-3.9,8.1-8.6,8.1c-1.9,0-3.6-0.6-5-1.5c1.6,1.7,3.9,2.8,6.6,2.8
				c4.8,0,8.6-3.6,8.6-8.1C307.9,200,306.5,197.6,304.3,196.1z"/>
		</g>
		<g>
			<path class="st6" d="M287.7,284.2c1.9,0,3.6,0.6,5,1.5c-1.6-1.7-3.9-2.8-6.6-2.8c-4.8,0-8.6,3.6-8.6,8.1c0,2.7,1.4,5.1,3.6,6.5
				c-1.3-1.4-2.1-3.2-2.1-5.2C279.1,287.8,283,284.2,287.7,284.2z"/>
			<path class="st6" d="M294.9,290.9c0-2-0.8-3.8-2.1-5.2c-1.4-1-3.2-1.5-5-1.5c-4.8,0-8.6,3.6-8.6,8.1c0,2,0.8,3.8,2.1,5.2
				c1.4,1,3.2,1.5,5,1.5C291,299,294.9,295.4,294.9,290.9z"/>
			<path class="st8" d="M291.3,284.4c1.3,1.4,2.1,3.2,2.1,5.2c0,4.5-3.9,8.1-8.6,8.1c-1.9,0-3.6-0.6-5-1.5c1.6,1.7,3.9,2.8,6.6,2.8
				c4.8,0,8.6-3.6,8.6-8.1C294.9,288.2,293.5,285.9,291.3,284.4z"/>
		</g>
		<g>
			<path class="st6" d="M259.2,287.8c1.9,0,3.6,0.6,5,1.5c-1.6-1.7-3.9-2.8-6.6-2.8c-4.8,0-8.6,3.6-8.6,8.1c0,2.7,1.4,5.1,3.6,6.5
				c-1.3-1.4-2.1-3.2-2.1-5.2C250.5,291.4,254.4,287.8,259.2,287.8z"/>
			<path class="st6" d="M266.3,294.6c0-2-0.8-3.8-2.1-5.2c-1.4-1-3.2-1.5-5-1.5c-4.8,0-8.6,3.6-8.6,8.1c0,2,0.8,3.8,2.1,5.2
				c1.4,1,3.2,1.5,5,1.5C262.4,302.7,266.3,299.1,266.3,294.6z"/>
			<path class="st8" d="M262.7,288.1c1.3,1.4,2.1,3.2,2.1,5.2c0,4.5-3.9,8.1-8.6,8.1c-1.9,0-3.6-0.6-5-1.5c1.6,1.7,3.9,2.8,6.6,2.8
				c4.8,0,8.6-3.6,8.6-8.1C266.3,291.9,264.9,289.5,262.7,288.1z"/>
		</g>
		<g>
			<path class="st6" d="M229.1,291.9c1.9,0,3.6,0.6,5,1.5c-1.6-1.7-3.9-2.8-6.6-2.8c-4.8,0-8.6,3.6-8.6,8.1c0,2.7,1.4,5.1,3.6,6.5
				c-1.3-1.4-2.1-3.2-2.1-5.2C220.5,295.5,224.3,291.9,229.1,291.9z"/>
			<path class="st6" d="M236.2,298.7c0-2-0.8-3.8-2.1-5.2c-1.4-1-3.2-1.5-5-1.5c-4.8,0-8.6,3.6-8.6,8.1c0,2,0.8,3.8,2.1,5.2
				c1.4,1,3.2,1.5,5,1.5C232.4,306.7,236.2,303.1,236.2,298.7z"/>
			<path class="st8" d="M232.6,292.1c1.3,1.4,2.1,3.2,2.1,5.2c0,4.5-3.9,8.1-8.6,8.1c-1.9,0-3.6-0.6-5-1.5c1.6,1.7,3.9,2.8,6.6,2.8
				c4.8,0,8.6-3.6,8.6-8.1C236.2,296,234.8,293.6,232.6,292.1z"/>
		</g>
		<g>
			<path class="st6" d="M198.7,296c1.9,0,3.6,0.6,5,1.5c-1.6-1.7-3.9-2.8-6.6-2.8c-4.8,0-8.6,3.6-8.6,8.1c0,2.7,1.4,5.1,3.6,6.5
				c-1.3-1.4-2.1-3.2-2.1-5.2C190.1,299.6,193.9,296,198.7,296z"/>
			<path class="st6" d="M205.8,302.8c0-2-0.8-3.8-2.1-5.2c-1.4-1-3.2-1.5-5-1.5c-4.8,0-8.6,3.6-8.6,8.1c0,2,0.8,3.8,2.1,5.2
				c1.4,1,3.2,1.5,5,1.5C202,310.8,205.8,307.2,205.8,302.8z"/>
			<path class="st8" d="M202.2,296.2c1.3,1.4,2.1,3.2,2.1,5.2c0,4.5-3.9,8.1-8.6,8.1c-1.9,0-3.6-0.6-5-1.5c1.6,1.7,3.9,2.8,6.6,2.8
				c4.8,0,8.6-3.6,8.6-8.1C205.8,300.1,204.4,297.7,202.2,296.2z"/>
		</g>
		<g>
			<path class="st6" d="M213.2,265c1.9,0,3.6,0.6,5,1.5c-1.6-1.7-3.9-2.8-6.6-2.8c-4.8,0-8.6,3.6-8.6,8.1c0,2.7,1.4,5.1,3.6,6.5
				c-1.3-1.4-2.1-3.2-2.1-5.2C204.6,268.6,208.5,265,213.2,265z"/>
			<path class="st6" d="M220.4,271.8c0-2-0.8-3.8-2.1-5.2c-1.4-1-3.2-1.5-5-1.5c-4.8,0-8.6,3.6-8.6,8.1c0,2,0.8,3.8,2.1,5.2
				c1.4,1,3.2,1.5,5,1.5C216.5,279.8,220.4,276.2,220.4,271.8z"/>
			<path class="st8" d="M216.8,265.3c1.3,1.4,2.1,3.2,2.1,5.2c0,4.5-3.9,8.1-8.6,8.1c-1.9,0-3.6-0.6-5-1.5c1.6,1.7,3.9,2.8,6.6,2.8
				c4.8,0,8.6-3.6,8.6-8.1C220.4,269.1,219,266.7,216.8,265.3z"/>
		</g>
		<g>
			<path class="st6" d="M182.3,268c1.9,0,3.6,0.6,5,1.5c-1.6-1.7-3.9-2.8-6.6-2.8c-4.8,0-8.6,3.6-8.6,8.1c0,2.7,1.4,5.1,3.6,6.5
				c-1.3-1.4-2.1-3.2-2.1-5.2C173.7,271.7,177.5,268,182.3,268z"/>
			<path class="st6" d="M189.5,274.8c0-2-0.8-3.8-2.1-5.2c-1.4-1-3.2-1.5-5-1.5c-4.8,0-8.6,3.6-8.6,8.1c0,2,0.8,3.8,2.1,5.2
				c1.4,1,3.2,1.5,5,1.5C185.6,282.9,189.5,279.3,189.5,274.8z"/>
			<path class="st8" d="M185.9,268.3c1.3,1.4,2.1,3.2,2.1,5.2c0,4.5-3.9,8.1-8.6,8.1c-1.9,0-3.6-0.6-5-1.5c1.6,1.7,3.9,2.8,6.6,2.8
				c4.8,0,8.6-3.6,8.6-8.1C189.5,272.1,188,269.8,185.9,268.3z"/>
		</g>
		<g>
			<path class="st6" d="M242.5,260c1.9,0,3.6,0.6,5,1.5c-1.6-1.7-3.9-2.8-6.6-2.8c-4.8,0-8.6,3.6-8.6,8.1c0,2.7,1.4,5.1,3.6,6.5
				c-1.3-1.4-2.1-3.2-2.1-5.2C233.8,263.6,237.7,260,242.5,260z"/>
			<path class="st6" d="M249.6,266.8c0-2-0.8-3.8-2.1-5.2c-1.4-1-3.2-1.5-5-1.5c-4.8,0-8.6,3.6-8.6,8.1c0,2,0.8,3.8,2.1,5.2
				c1.4,1,3.2,1.5,5,1.5C245.7,274.8,249.6,271.2,249.6,266.8z"/>
			<path class="st8" d="M246,260.2c1.3,1.4,2.1,3.2,2.1,5.2c0,4.5-3.9,8.1-8.6,8.1c-1.9,0-3.6-0.6-5-1.5c1.6,1.7,3.9,2.8,6.6,2.8
				c4.8,0,8.6-3.6,8.6-8.1C249.6,264.1,248.2,261.7,246,260.2z"/>
		</g>
		<g>
			<path class="st6" d="M270.3,256.9c1.9,0,3.6,0.6,5,1.5c-1.6-1.7-3.9-2.8-6.6-2.8c-4.8,0-8.6,3.6-8.6,8.1c0,2.7,1.4,5.1,3.6,6.5
				c-1.3-1.4-2.1-3.2-2.1-5.2C261.6,260.6,265.5,256.9,270.3,256.9z"/>
			<path class="st6" d="M277.4,263.7c0-2-0.8-3.8-2.1-5.2c-1.4-1-3.2-1.5-5-1.5c-4.8,0-8.6,3.6-8.6,8.1c0,2,0.8,3.8,2.1,5.2
				c1.4,1,3.2,1.5,5,1.5C273.6,271.8,277.4,268.2,277.4,263.7z"/>
			<path class="st8" d="M273.8,257.2c1.3,1.4,2.1,3.2,2.1,5.2c0,4.5-3.9,8.1-8.6,8.1c-1.9,0-3.6-0.6-5-1.5c1.6,1.7,3.9,2.8,6.6,2.8
				c4.8,0,8.6-3.6,8.6-8.1C277.4,261,276,258.7,273.8,257.2z"/>
		</g>
		<g>
			<path class="st6" d="M302.9,252.6c1.9,0,3.6,0.6,5,1.5c-1.6-1.7-3.9-2.8-6.6-2.8c-4.8,0-8.6,3.6-8.6,8.1c0,2.7,1.4,5.1,3.6,6.5
				c-1.3-1.4-2.1-3.2-2.1-5.2C294.2,256.2,298.1,252.6,302.9,252.6z"/>
			<path class="st6" d="M310,259.3c0-2-0.8-3.8-2.1-5.2c-1.4-1-3.2-1.5-5-1.5c-4.8,0-8.6,3.6-8.6,8.1c0,2,0.8,3.8,2.1,5.2
				c1.4,1,3.2,1.5,5,1.5C306.1,267.4,310,263.8,310,259.3z"/>
			<path class="st8" d="M306.4,252.8c1.3,1.4,2.1,3.2,2.1,5.2c0,4.5-3.9,8.1-8.6,8.1c-1.9,0-3.6-0.6-5-1.5c1.6,1.7,3.9,2.8,6.6,2.8
				c4.8,0,8.6-3.6,8.6-8.1C310,256.7,308.6,254.3,306.4,252.8z"/>
		</g>
		<g>
			<path class="st6" d="M288.7,345.1c1.9,0,3.6,0.6,5,1.5c-1.6-1.7-3.9-2.8-6.6-2.8c-4.8,0-8.6,3.6-8.6,8.1c0,2.7,1.4,5.1,3.6,6.5
				c-1.3-1.4-2.1-3.2-2.1-5.2C280,348.7,283.9,345.1,288.7,345.1z"/>
			<path class="st6" d="M295.8,351.8c0-2-0.8-3.8-2.1-5.2c-1.4-1-3.2-1.5-5-1.5c-4.8,0-8.6,3.6-8.6,8.1c0,2,0.8,3.8,2.1,5.2
				c1.4,1,3.2,1.5,5,1.5C291.9,359.9,295.8,356.3,295.8,351.8z"/>
			<path class="st8" d="M292.2,345.3c1.3,1.4,2.1,3.2,2.1,5.2c0,4.5-3.9,8.1-8.6,8.1c-1.9,0-3.6-0.6-5-1.5c1.6,1.7,3.9,2.8,6.6,2.8
				c4.8,0,8.6-3.6,8.6-8.1C295.8,349.1,294.4,346.8,292.2,345.3z"/>
		</g>
		<g>
			<path class="st6" d="M260.1,348.7c1.9,0,3.6,0.6,5,1.5c-1.6-1.7-3.9-2.8-6.6-2.8c-4.8,0-8.6,3.6-8.6,8.1c0,2.7,1.4,5.1,3.6,6.5
				c-1.3-1.4-2.1-3.2-2.1-5.2C251.4,352.3,255.3,348.7,260.1,348.7z"/>
			<path class="st6" d="M267.2,355.5c0-2-0.8-3.8-2.1-5.2c-1.4-1-3.2-1.5-5-1.5c-4.8,0-8.6,3.6-8.6,8.1c0,2,0.8,3.8,2.1,5.2
				c1.4,1,3.2,1.5,5,1.5C263.4,363.6,267.2,360,267.2,355.5z"/>
			<path class="st8" d="M263.6,349c1.3,1.4,2.1,3.2,2.1,5.2c0,4.5-3.9,8.1-8.6,8.1c-1.9,0-3.6-0.6-5-1.5c1.6,1.7,3.9,2.8,6.6,2.8
				c4.8,0,8.6-3.6,8.6-8.1C267.2,352.8,265.8,350.4,263.6,349z"/>
		</g>
		<g>
			<path class="st6" d="M230,352.8c1.9,0,3.6,0.6,5,1.5c-1.6-1.7-3.9-2.8-6.6-2.8c-4.8,0-8.6,3.6-8.6,8.1c0,2.7,1.4,5.1,3.6,6.5
				c-1.3-1.4-2.1-3.2-2.1-5.2C221.4,356.4,225.2,352.8,230,352.8z"/>
			<path class="st6" d="M237.2,359.5c0-2-0.8-3.8-2.1-5.2c-1.4-1-3.2-1.5-5-1.5c-4.8,0-8.6,3.6-8.6,8.1c0,2,0.8,3.8,2.1,5.2
				c1.4,1,3.2,1.5,5,1.5C233.3,367.6,237.2,364,237.2,359.5z"/>
			<path class="st8" d="M233.6,353c1.3,1.4,2.1,3.2,2.1,5.2c0,4.5-3.9,8.1-8.6,8.1c-1.9,0-3.6-0.6-5-1.5c1.6,1.7,3.9,2.8,6.6,2.8
				c4.8,0,8.6-3.6,8.6-8.1C237.2,356.9,235.7,354.5,233.6,353z"/>
		</g>
		<g>
			<path class="st6" d="M199.6,356.9c1.9,0,3.6,0.6,5,1.5c-1.6-1.7-3.9-2.8-6.6-2.8c-4.8,0-8.6,3.6-8.6,8.1c0,2.7,1.4,5.1,3.6,6.5
				c-1.3-1.4-2.1-3.2-2.1-5.2C191,360.5,194.8,356.9,199.6,356.9z"/>
			<path class="st6" d="M206.8,363.7c0-2-0.8-3.8-2.1-5.2c-1.4-1-3.2-1.5-5-1.5c-4.8,0-8.6,3.6-8.6,8.1c0,2,0.8,3.8,2.1,5.2
				c1.4,1,3.2,1.5,5,1.5C202.9,371.7,206.8,368.1,206.8,363.7z"/>
			<path class="st8" d="M203.2,357.1c1.3,1.4,2.1,3.2,2.1,5.2c0,4.5-3.9,8.1-8.6,8.1c-1.9,0-3.6-0.6-5-1.5c1.6,1.7,3.9,2.8,6.6,2.8
				c4.8,0,8.6-3.6,8.6-8.1C206.8,361,205.3,358.6,203.2,357.1z"/>
		</g>
		<g>
			<path class="st6" d="M214.2,325.9c1.9,0,3.6,0.6,5,1.5c-1.6-1.7-3.9-2.8-6.6-2.8c-4.8,0-8.6,3.6-8.6,8.1c0,2.7,1.4,5.1,3.6,6.5
				c-1.3-1.4-2.1-3.2-2.1-5.2C205.5,329.5,209.4,325.9,214.2,325.9z"/>
			<path class="st6" d="M221.3,332.7c0-2-0.8-3.8-2.1-5.2c-1.4-1-3.2-1.5-5-1.5c-4.8,0-8.6,3.6-8.6,8.1c0,2,0.8,3.8,2.1,5.2
				c1.4,1,3.2,1.5,5,1.5C217.4,340.7,221.3,337.1,221.3,332.7z"/>
			<path class="st8" d="M217.7,326.1c1.3,1.4,2.1,3.2,2.1,5.2c0,4.5-3.9,8.1-8.6,8.1c-1.9,0-3.6-0.6-5-1.5c1.6,1.7,3.9,2.8,6.6,2.8
				c4.8,0,8.6-3.6,8.6-8.1C221.3,330,219.9,327.6,217.7,326.1z"/>
		</g>
		<g>
			<path class="st6" d="M183.2,328.9c1.9,0,3.6,0.6,5,1.5c-1.6-1.7-3.9-2.8-6.6-2.8c-4.8,0-8.6,3.6-8.6,8.1c0,2.7,1.4,5.1,3.6,6.5
				c-1.3-1.4-2.1-3.2-2.1-5.2C174.6,332.6,178.5,328.9,183.2,328.9z"/>
			<path class="st6" d="M190.4,335.7c0-2-0.8-3.8-2.1-5.2c-1.4-1-3.2-1.5-5-1.5c-4.8,0-8.6,3.6-8.6,8.1c0,2,0.8,3.8,2.1,5.2
				c1.4,1,3.2,1.5,5,1.5C186.5,343.8,190.4,340.2,190.4,335.7z"/>
			<path class="st8" d="M186.8,329.2c1.3,1.4,2.1,3.2,2.1,5.2c0,4.5-3.9,8.1-8.6,8.1c-1.9,0-3.6-0.6-5-1.5c1.6,1.7,3.9,2.8,6.6,2.8
				c4.8,0,8.6-3.6,8.6-8.1C190.4,333,189,330.6,186.8,329.2z"/>
		</g>
		<g>
			<path class="st6" d="M243.4,320.9c1.9,0,3.6,0.6,5,1.5c-1.6-1.7-3.9-2.8-6.6-2.8c-4.8,0-8.6,3.6-8.6,8.1c0,2.7,1.4,5.1,3.6,6.5
				c-1.3-1.4-2.1-3.2-2.1-5.2C234.7,324.5,238.6,320.9,243.4,320.9z"/>
			<path class="st6" d="M250.5,327.7c0-2-0.8-3.8-2.1-5.2c-1.4-1-3.2-1.5-5-1.5c-4.8,0-8.6,3.6-8.6,8.1c0,2,0.8,3.8,2.1,5.2
				c1.4,1,3.2,1.5,5,1.5C246.7,335.7,250.5,332.1,250.5,327.7z"/>
			<path class="st8" d="M246.9,321.1c1.3,1.4,2.1,3.2,2.1,5.2c0,4.5-3.9,8.1-8.6,8.1c-1.9,0-3.6-0.6-5-1.5c1.6,1.7,3.9,2.8,6.6,2.8
				c4.8,0,8.6-3.6,8.6-8.1C250.5,325,249.1,322.6,246.9,321.1z"/>
		</g>
		<g>
			<path class="st6" d="M271.2,317.8c1.9,0,3.6,0.6,5,1.5c-1.6-1.7-3.9-2.8-6.6-2.8c-4.8,0-8.6,3.6-8.6,8.1c0,2.7,1.4,5.1,3.6,6.5
				c-1.3-1.4-2.1-3.2-2.1-5.2C262.6,321.5,266.4,317.8,271.2,317.8z"/>
			<path class="st6" d="M278.3,324.6c0-2-0.8-3.8-2.1-5.2c-1.4-1-3.2-1.5-5-1.5c-4.8,0-8.6,3.6-8.6,8.1c0,2,0.8,3.8,2.1,5.2
				c1.4,1,3.2,1.5,5,1.5C274.5,332.7,278.3,329.1,278.3,324.6z"/>
			<path class="st8" d="M274.8,318.1c1.3,1.4,2.1,3.2,2.1,5.2c0,4.5-3.9,8.1-8.6,8.1c-1.9,0-3.6-0.6-5-1.5c1.6,1.7,3.9,2.8,6.6,2.8
				c4.8,0,8.6-3.6,8.6-8.1C278.3,321.9,276.9,319.6,274.8,318.1z"/>
		</g>
		<g>
			<path class="st6" d="M303.8,313.5c1.9,0,3.6,0.6,5,1.5c-1.6-1.7-3.9-2.8-6.6-2.8c-4.8,0-8.6,3.6-8.6,8.1c0,2.7,1.4,5.1,3.6,6.5
				c-1.3-1.4-2.1-3.2-2.1-5.2C295.1,317.1,299,313.5,303.8,313.5z"/>
			<path class="st6" d="M310.9,320.2c0-2-0.8-3.8-2.1-5.2c-1.4-1-3.2-1.5-5-1.5c-4.8,0-8.6,3.6-8.6,8.1c0,2,0.8,3.8,2.1,5.2
				c1.4,1,3.2,1.5,5,1.5C307.1,328.3,310.9,324.7,310.9,320.2z"/>
			<path class="st8" d="M307.3,313.7c1.3,1.4,2.1,3.2,2.1,5.2c0,4.5-3.9,8.1-8.6,8.1c-1.9,0-3.6-0.6-5-1.5c1.6,1.7,3.9,2.8,6.6,2.8
				c4.8,0,8.6-3.6,8.6-8.1C310.9,317.5,309.5,315.2,307.3,313.7z"/>
		</g>
		<g>
			<path class="st6" d="M176,92.9c1.9,0,3.6,0.6,5,1.5c-1.6-1.7-3.9-2.8-6.6-2.8c-4.8,0-8.6,3.6-8.6,8.1c0,2.7,1.4,5.1,3.6,6.5
				c-1.3-1.4-2.1-3.2-2.1-5.2C167.3,96.6,171.2,92.9,176,92.9z"/>
			<path class="st6" d="M183.1,99.7c0-2-0.8-3.8-2.1-5.2c-1.4-1-3.2-1.5-5-1.5c-4.8,0-8.6,3.6-8.6,8.1c0,2,0.8,3.8,2.1,5.2
				c1.4,1,3.2,1.5,5,1.5C179.2,107.8,183.1,104.2,183.1,99.7z"/>
			<path class="st8" d="M179.5,93.2c1.3,1.4,2.1,3.2,2.1,5.2c0,4.5-3.9,8.1-8.6,8.1c-1.9,0-3.6-0.6-5-1.5c1.6,1.7,3.9,2.8,6.6,2.8
				c4.8,0,8.6-3.6,8.6-8.1C183.1,97,181.7,94.6,179.5,93.2z"/>
		</g>
	</g>
</g>
</svg>
