<?xml version="1.0" encoding="utf-8"?>
<!-- Generator: Adobe Illustrator 26.5.0, SVG Export Plug-In . SVG Version: 6.00 Build 0)  -->
<svg version="1.1" xmlns="http://www.w3.org/2000/svg" xmlns:xlink="http://www.w3.org/1999/xlink" x="0px" y="0px"
	 viewBox="0 0 556.2 496.3" style="enable-background:new 0 0 556.2 496.3;" xml:space="preserve">
<style type="text/css">
	.st0{display:none;}
	.st1{fill:#FFFFFF;stroke:#1D1D1B;stroke-width:1.6569;stroke-miterlimit:10;}
	.st2{fill:#EE7948;}
	.st3{fill:#6C2A5B;}
	.st4{fill:#DE4341;}
	.st5{fill:#9D3F89;}
	.st6{fill:#4F2045;}
	.st7{fill:#BF5E3C;}
	.st8{fill:#F2BF52;}
	.st9{fill:none;}
	.st10{fill:#D8D1C7;}
	.st11{fill:#C64242;}
	.st12{fill:#823472;}
	.st13{fill:#8E3A82;}
	.st14{fill:#722F6C;}
	.st15{fill:#963C85;}
	.st16{fill:#602654;}
	.st17{fill:#6D2C61;}
	.st18{fill:#B53C3C;}
	.st19{fill:#BA3838;}
	.st20{fill:#F14C4C;}
	.st21{fill:#A53232;}
	.st22{fill:#A83535;}
	.st23{fill:#CC3E3E;}
	.st24{fill:#B73939;}
	.st25{fill:#C13D3D;}
	.st26{fill:#9E3347;}
	.st27{fill:#A53535;}
	.st28{fill:#BC3B3B;}
	.st29{fill:#A33434;}
	.st30{fill:#BA3A3A;}
	.st31{fill:#7A316B;}
	.st32{fill:#702D63;}
	.st33{fill:#CC4646;}
	.st34{fill:#DD4343;}
	.st35{fill:#C93F3F;}
	.st36{fill:#AF3838;}
	.st37{fill:#722E65;}
	.st38{fill:#843573;}
	.st39{fill:#B74141;}
	.st40{fill:#9B3838;}
	.st41{fill:#892C2C;}
</style>
<g id="Laag_1" class="st0">
	
		<image style="display:inline;overflow:visible;" width="5184" height="3456" xlink:href="../../../../DES/originalMaterial/gio-4usa-DguElY-unsplash.jpg"  transform="matrix(6.582890e-02 0 0 6.582890e-02 217.2363 159.7389)">
	</image>
</g>
<g id="Laag_2" class="st0">
	
		<image style="display:inline;overflow:visible;" width="458" height="744" xlink:href="../../../../DES/originalMaterial/Screenshot 2024-01-14 at 14.36.46.png"  transform="matrix(0.5 0 0 0.5 116.3437 105.8096)">
	</image>
</g>
<g id="Laag_3">
	<g>
		<path class="st1" d="M56.7,20.6"/>
		<polygon class="st2" points="68,25.7 183.9,0 361.8,29.6 248.2,55.1 		"/>
		<polygon class="st3" points="247.3,383.8 360.8,358.7 360.8,29.3 247.3,54.8 		"/>
		<polygon class="st4" points="68,348.5 248.2,384.1 247.3,54.8 68,25.7 		"/>
		<polygon class="st5" points="301.3,43.1 301.3,371.6 301.3,372.3 308.6,370.7 308.6,41.5 		"/>
		<polygon class="st5" points="308.6,41.5 308.6,370 308.6,370.7 316,369.1 316,39.9 		"/>
		<polygon class="st6" points="316,41.5 310.4,42.7 308.6,41.5 316,39.9 		"/>
		<polygon class="st6" points="308.6,370.7 308.6,41.5 310.4,42.7 310.4,370.3 		"/>
		<polygon class="st6" points="308.6,43.1 303.1,44.3 301.3,43.1 308.6,41.5 		"/>
		<polygon class="st6" points="301.3,372.3 301.3,43.1 303.1,44.3 303.1,372 		"/>
		<polygon class="st6" points="330.7,164.2 345.5,173 345.5,166.7 		"/>
		<polygon class="st7" points="136,10.6 130.4,11.9 133.6,11.7 137.2,10.8 		"/>
		<polygon class="st7" points="123.4,13.4 130.4,11.9 132.1,12.1 126.5,13.4 		"/>
		<path class="st8" d="M252.7,138.1"/>
		<polygon class="st7" points="123.4,13.4 301.3,43.1 303.1,42.7 126.5,13.4 		"/>
		<polygon class="st7" points="133.6,11.7 310.4,41.1 308.6,41.5 130.4,11.9 		"/>
		<path class="st9" d="M268.7,94.4"/>
		<polygon class="st4" points="360.4,151.3 360.2,169.5 330.7,164.2 331,146 		"/>
		<polygon class="st3" points="360.4,151.3 372.2,149.2 372,166.7 360.2,169.5 		"/>
		<polygon class="st6" points="331,271.2 360.8,288.5 360.8,276 		"/>
		<polygon class="st4" points="360.7,258.3 360.5,276.5 331,271.2 331.3,253 		"/>
		<polygon class="st3" points="360.7,258.5 372.5,256.3 372.3,273.8 360.5,276.6 		"/>
		<polygon class="st2" points="331.3,253.1 346,252.4 346,255.8 		"/>
		<polygon class="st4" points="360.2,169.3 360.7,258.3 346,255.7 345.5,166.7 		"/>
		<polygon class="st3" points="372,166.7 372.5,256.3 360.7,258.5 360.2,169.5 		"/>
		<polygon class="st2" points="372.2,149.2 343.4,144 331,146 360.4,151.3 		"/>
	</g>
	<polygon class="st10" points="1.6,365.9 62.5,388.1 101.8,427.6 120.1,447.1 511.2,496.3 555.8,417.6 252.7,286.3 	"/>
</g>
<g id="Laag_5">
	<g>
		<polygon class="st3" points="451.4,392.2 451.4,294.2 532.8,253.5 532.8,354.2 451.4,417.9 		"/>
		<polygon class="st11" points="1.6,278 451.4,294.2 451.4,417.9 1.6,365.7 		"/>
		<polygon class="st4" points="27.1,360.6 18.1,341.5 1.6,340.2 1.6,365.9 27.1,368.7 		"/>
		<polygon class="st4" points="424.4,406.7 433.7,391.3 451.4,392.2 451.4,417.9 424.4,414.8 		"/>
		<polygon class="st12" points="460.8,289.4 463.3,408.6 451.4,417.9 451.4,294.2 		"/>
		<polygon class="st13" points="469.3,403.8 451.4,417.9 451.4,392.2 462.9,386.4 		"/>
		<ellipse class="st14" cx="456.7" cy="303.2" rx="2.4" ry="3.2"/>
		<ellipse class="st14" cx="457" cy="323.1" rx="2.4" ry="3.2"/>
		<ellipse class="st14" cx="457" cy="343" rx="2.4" ry="3.2"/>
		<ellipse class="st14" cx="457" cy="362.9" rx="2.4" ry="3.2"/>
		<ellipse class="st14" cx="457.8" cy="382.1" rx="2.4" ry="3.2"/>
		<ellipse class="st14" cx="457" cy="362.8" rx="2.2" ry="3.1"/>
		<ellipse class="st14" cx="457.6" cy="381.9" rx="2.2" ry="3.1"/>
		<ellipse class="st15" cx="456.1" cy="302.9" rx="2.2" ry="3.1"/>
		<ellipse class="st15" cx="456.7" cy="322.9" rx="2.2" ry="3.1"/>
		<ellipse class="st15" cx="456.7" cy="342.8" rx="2.2" ry="3.1"/>
		<ellipse class="st15" cx="456.7" cy="362.8" rx="2.2" ry="3.1"/>
		<ellipse class="st15" cx="457.1" cy="381.8" rx="2.5" ry="3.1"/>
		<polygon class="st16" points="460.8,289.4 460.9,292.1 532.8,255.9 532.8,253.5 		"/>
		<polygon class="st16" points="463.3,290.9 465.6,385 472.2,401.6 469.3,403.8 462.9,386.4 460.9,292.1 461.9,289.4 		"/>
		<polygon class="st17" points="451.4,390.8 462.8,385.3 462.9,386.4 451.4,392.2 		"/>
		<polygon class="st4" points="44.1,284.6 86.8,286.6 80.7,316.5 38.3,312.9 		"/>
		
			<ellipse transform="matrix(0.1666 -0.986 0.986 0.1666 -249.1166 303.8282)" class="st18" cx="55.2" cy="299.3" rx="8.8" ry="7.3"/>
		
			<ellipse transform="matrix(0.1666 -0.986 0.986 0.1666 -245.2883 286.4484)" class="st19" cx="46.8" cy="288.3" rx="2.6" ry="1.9"/>
		
			<ellipse transform="matrix(0.1666 -0.986 0.986 0.1666 -270.4013 300.5342)" class="st19" cx="42.6" cy="310.2" rx="2.6" ry="1.9"/>
		
			<ellipse transform="matrix(0.1211 -0.9926 0.9926 0.1211 -241.0717 351.5254)" class="st19" cx="78" cy="311.9" rx="2.7" ry="2.2"/>
		
			<ellipse transform="matrix(0.1211 -0.9926 0.9926 0.1211 -214.5868 337.1957)" class="st19" cx="83.1" cy="289.8" rx="2.7" ry="2.2"/>
		
			<ellipse transform="matrix(0.1666 -0.986 0.986 0.1666 -250.2036 300.7042)" class="st20" cx="52.8" cy="298.4" rx="6.5" ry="5.6"/>
		
			<ellipse transform="matrix(0.1666 -0.986 0.986 0.1666 -245.5004 285.4485)" class="st20" cx="46.1" cy="287.9" rx="2.6" ry="1.9"/>
		
			<ellipse transform="matrix(0.1666 -0.986 0.986 0.1666 -216.5427 322.8715)" class="st20" cx="82.7" cy="289.5" rx="2.6" ry="2.2"/>
		
			<ellipse transform="matrix(0.1666 -0.986 0.986 0.1666 -242.9951 335.8601)" class="st20" cx="77.2" cy="311.7" rx="2.8" ry="2.4"/>
		
			<ellipse transform="matrix(0.1211 -0.9926 0.9926 0.1211 -270.8142 313.955)" class="st20" cx="41.9" cy="309.9" rx="2.6" ry="2.2"/>
		<polygon class="st21" points="1.6,340.2 1.6,339 19.1,340.6 18.1,341.5 		"/>
		<polygon class="st19" points="27.1,360.6 27.9,359.7 19.1,340.6 18.1,341.5 		"/>
		<polygon class="st19" points="27.1,360.6 27.1,368.7 28,368.8 27.9,359.7 		"/>
		<polygon class="st21" points="38.3,312.9 39.9,314.3 82.3,318.1 80.7,316.5 		"/>
		<polygon class="st19" points="80.7,316.5 86.8,286.6 88.2,288.5 82.3,318.1 		"/>
		<polygon class="st19" points="424.4,406.7 425.8,407.7 434.8,392.9 433.7,391.3 		"/>
		<polygon class="st19" points="425.9,414.9 425.8,407.7 424.4,406.7 424.4,414.8 		"/>
		<polygon class="st21" points="434.8,392.9 451.4,393.8 451.4,392.2 433.7,391.3 		"/>
		<polygon class="st4" points="307.8,292.8 350.5,294.8 344.5,324.7 302.1,321.2 		"/>
		
			<ellipse transform="matrix(0.1666 -0.986 0.986 0.1666 -37.4061 570.7742)" class="st18" cx="318.9" cy="307.5" rx="8.8" ry="7.3"/>
		
			<ellipse transform="matrix(0.1666 -0.986 0.986 0.1666 -33.5777 553.3945)" class="st19" cx="310.6" cy="296.6" rx="2.6" ry="1.9"/>
		
			<ellipse transform="matrix(0.1666 -0.986 0.986 0.1666 -58.6908 567.4803)" class="st19" cx="306.3" cy="318.5" rx="2.6" ry="1.9"/>
		
			<ellipse transform="matrix(0.1211 -0.9926 0.9926 0.1211 -17.4199 620.59)" class="st19" cx="341.7" cy="320.1" rx="2.7" ry="2.2"/>
		<ellipse transform="matrix(0.1211 -0.9926 0.9926 0.1211 9.0649 606.2603)" class="st19" cx="346.9" cy="298" rx="2.7" ry="2.2"/>
		
			<ellipse transform="matrix(0.1666 -0.986 0.986 0.1666 -38.493 567.6503)" class="st20" cx="316.5" cy="306.6" rx="6.5" ry="5.6"/>
		
			<ellipse transform="matrix(0.1666 -0.986 0.986 0.1666 -33.7899 552.3945)" class="st20" cx="309.9" cy="296.2" rx="2.6" ry="1.9"/>
		
			<ellipse transform="matrix(0.1666 -0.986 0.986 0.1666 -4.8321 589.8176)" class="st20" cx="346.5" cy="297.8" rx="2.6" ry="2.2"/>
		
			<ellipse transform="matrix(0.1666 -0.986 0.986 0.1666 -31.2846 602.8062)" class="st20" cx="340.9" cy="319.9" rx="2.8" ry="2.4"/>
		
			<ellipse transform="matrix(0.1211 -0.9926 0.9926 0.1211 -47.1624 583.0195)" class="st20" cx="305.7" cy="318.1" rx="2.6" ry="2.2"/>
		<polygon class="st21" points="302.1,321.2 303.7,322.6 346.1,326.3 344.5,324.7 		"/>
		<polygon class="st19" points="344.5,324.7 350.5,294.8 352,296.8 346.1,326.3 		"/>
		<polygon class="st22" points="340.9,292.3 340.3,294.3 341.4,294.4 342.1,292.5 		"/>
		<polygon class="st23" points="433.7,391.3 435.4,293.6 451.4,294.2 451.4,392.2 		"/>
		<g>
			
				<ellipse transform="matrix(0.1211 -0.9926 0.9926 0.1211 88.2405 706.6741)" class="st19" cx="443.2" cy="303.5" rx="2.8" ry="2.3"/>
			
				<ellipse transform="matrix(0.1666 -0.986 0.986 0.1666 69.6321 688.9307)" class="st20" cx="442.4" cy="303.3" rx="2.9" ry="2.5"/>
		</g>
		<g>
			
				<ellipse transform="matrix(0.1211 -0.9926 0.9926 0.1211 69.1232 724.5333)" class="st19" cx="443.7" cy="323.2" rx="2.8" ry="2.3"/>
			<ellipse transform="matrix(0.1666 -0.986 0.986 0.1666 50.6212 705.8894)" class="st20" cx="442.9" cy="323" rx="2.9" ry="2.5"/>
		</g>
		<g>
			
				<ellipse transform="matrix(0.1211 -0.9926 0.9926 0.1211 49.1046 741.1034)" class="st19" cx="443.1" cy="342.8" rx="2.8" ry="2.3"/>
			
				<ellipse transform="matrix(0.1666 -0.986 0.986 0.1666 30.7618 721.5729)" class="st20" cx="442.2" cy="342.6" rx="2.9" ry="2.5"/>
		</g>
		<g>
			
				<ellipse transform="matrix(0.1211 -0.9926 0.9926 0.1211 29.0261 758.8813)" class="st19" cx="443.1" cy="363" rx="2.8" ry="2.3"/>
			<ellipse transform="matrix(0.1666 -0.986 0.986 0.1666 10.817 738.431)" class="st20" cx="442.2" cy="362.8" rx="2.9" ry="2.5"/>
		</g>
		<g>
			
				<ellipse transform="matrix(0.1211 -0.9926 0.9926 0.1211 9.7466 775.9519)" class="st19" cx="443.1" cy="382.5" rx="2.8" ry="2.3"/>
			
				<ellipse transform="matrix(0.1666 -0.986 0.986 0.1666 -8.3341 754.6182)" class="st20" cx="442.2" cy="382.2" rx="2.9" ry="2.5"/>
		</g>
		<polygon class="st24" points="436.1,391.4 437.3,293.7 435.4,293.6 433.7,391.3 435.5,391.3 		"/>
		<polygon class="st23" points="19.1,340.6 19.1,278.6 1.6,278 1.6,339 		"/>
		<polyline class="st24" points="16.6,340.3 17,278.5 19.1,278.6 19.1,340.6 		"/>
		
			<ellipse transform="matrix(0.1211 -0.9926 0.9926 0.1211 -299.5472 282.3921)" class="st19" cx="9.7" cy="310.4" rx="2.7" ry="2.2"/>
		
			<ellipse transform="matrix(0.1666 -0.986 0.986 0.1666 -298.3758 267.2485)" class="st20" cx="8.9" cy="310.1" rx="2.8" ry="2.4"/>
		
			<ellipse transform="matrix(0.1211 -0.9926 0.9926 0.1211 -310.7363 291.7895)" class="st19" cx="9.4" cy="321.4" rx="2.7" ry="2.2"/>
		
			<ellipse transform="matrix(0.1666 -0.986 0.986 0.1666 -309.4789 276.1468)" class="st20" cx="8.6" cy="321.1" rx="2.8" ry="2.4"/>
		
			<ellipse transform="matrix(0.1211 -0.9926 0.9926 0.1211 -323.4947 302.5764)" class="st19" cx="9.1" cy="334" rx="2.7" ry="2.2"/>
		
			<ellipse transform="matrix(0.1666 -0.986 0.986 0.1666 -322.1409 286.3626)" class="st20" cx="8.3" cy="333.7" rx="2.8" ry="2.4"/>
		
			<ellipse transform="matrix(0.1211 -0.9926 0.9926 0.1211 -272.9771 258.5316)" class="st19" cx="9.5" cy="283.4" rx="2.7" ry="2.2"/>
		
			<ellipse transform="matrix(0.1666 -0.986 0.986 0.1666 -271.9751 244.6142)" class="st20" cx="8.7" cy="283.2" rx="2.8" ry="2.4"/>
		
			<ellipse transform="matrix(0.1211 -0.9926 0.9926 0.1211 -286.6418 270.6306)" class="st19" cx="9.5" cy="297.2" rx="2.7" ry="2.2"/>
		<ellipse transform="matrix(0.1666 -0.986 0.986 0.1666 -285.5488 256.0872)" class="st20" cx="8.7" cy="297" rx="2.8" ry="2.4"/>
		<polygon class="st25" points="0,278 389.3,291.9 451.4,294.2 451.4,258.4 1.7,249 		"/>
		<polygon class="st26" points="19.1,280.3 65.5,282.1 65.9,280.3 19.1,278.6 		"/>
		<polygon class="st26" points="79.6,282.5 332.9,291.7 333.1,289.9 80,280.8 		"/>
		<path class="st26" d="M342.8,290.3l92.6,3.3l0,2.2c0,0-95.3-4.1-95.1-4.1C340.5,291.7,342.8,290.3,342.8,290.3z"/>
		<polygon class="st27" points="435.4,293.6 437.3,293.7 437.3,295.7 435.4,295.7 		"/>
		<polygon class="st28" points="451.4,296.4 437.3,295.7 437.3,293.7 451.4,294.2 		"/>
		<polygon class="st29" points="17,280.2 19.1,280.3 19.1,278.6 17,278.5 		"/>
		<polygon class="st30" points="1.6,279.6 17,280.2 17,278.5 1.6,278 		"/>
		<polygon class="st31" points="451.4,258.4 533.3,226.7 533.3,253.2 451.4,294.2 		"/>
		<polygon class="st32" points="460.9,292.1 451.4,296.4 451.4,294.2 460.8,289.4 		"/>
		<polygon class="st33" points="1.7,249 451.4,258.4 533.3,226.7 158.4,226.2 		"/>
		<polygon class="st34" points="1.7,249 29.4,249.7 29.4,257.6 19.1,278.6 0,278 		"/>
		<polygon class="st35" points="29.4,249.7 31.2,249.7 31.2,258.4 29.4,257.6 		"/>
		<polygon class="st36" points="19.1,278.6 29.4,257.6 31.2,258.4 20.8,278.6 		"/>
		<polygon class="st34" points="451.4,294.2 436.3,293.3 421.9,274.9 422.5,257.8 451.4,258.4 		"/>
		<polygon class="st35" points="422.5,257.8 418.6,257.8 418.6,276 421.9,274.9 		"/>
		<polygon class="st36" points="436.3,293.3 421.9,274.9 418.6,276 432,293.7 		"/>
		<polygon class="st13" points="460.8,289.4 470.1,271.6 470.1,251.2 451.4,258.4 451.4,294.2 		"/>
		<polygon class="st37" points="460.8,289.4 470.1,271.6 472.9,272.7 464.3,287.9 		"/>
		<polygon class="st38" points="470.1,271.6 470.1,251.2 472.9,250.1 472.9,272.7 		"/>
		<polygon class="st39" points="309.9,286.3 311.1,286.9 353.1,289.3 352,288.5 		"/>
		<polygon class="st33" points="309.9,286.3 352,288.5 352,265.5 309.9,264.5 		"/>
		<g>
			<polygon class="st25" points="312,283.5 312.8,284.3 330.1,285.3 330.9,284.4 316.5,280.3 			"/>
			<polygon class="st20" points="329.9,271.6 312.3,271 312,283.5 331.5,284.5 			"/>
		</g>
		<polygon class="st20" points="329.9,287.8 329.9,271.6 343.4,272.2 343.4,288.5 		"/>
		<polygon class="st25" points="343.7,289 344.1,272.7 343.4,272.2 343.4,288.5 		"/>
		<polygon class="st40" points="352,265.5 352.7,266.4 353.1,289.3 352,288.5 		"/>
		<polygon class="st39" points="46.1,277.4 47.3,278.1 89.3,280.4 88.2,279.7 		"/>
		<polygon class="st33" points="46.1,277.4 88.2,279.7 88.2,256.7 46.1,255.7 		"/>
		<g>
			<polygon class="st25" points="48.3,274.7 49,275.5 66.4,276.5 67.2,275.6 52.8,271.5 			"/>
			<polygon class="st20" points="66.2,262.8 48.5,262.2 48.3,274.7 67.7,275.7 			"/>
		</g>
		<polygon class="st20" points="66.2,279 66.2,262.8 79.6,263.4 79.6,280.3 		"/>
		<polygon class="st25" points="80,280.2 80.3,263.9 79.6,263.4 79.6,279.7 		"/>
		<polygon class="st40" points="88.2,256.7 89,257.6 89.3,280.4 88.2,279.7 		"/>
		<g>
			<polygon class="st20" points="334,313.5 340.9,292.3 330.7,291.4 323.9,312.7 			"/>
			<polygon class="st20" points="329.9,287.2 329.1,291.4 342.5,292.5 343.4,288.5 			"/>
			<polygon class="st21" points="323.9,312.7 325,313.5 335,314.4 334,313.5 			"/>
			<polygon class="st19" points="340.3,294.3 334,313.5 335,314.4 341.4,294.4 			"/>
			<polygon class="st41" points="340.8,292.8 342.8,293.1 342.5,292.5 340.9,292.3 			"/>
			<polygon class="st22" points="342.5,292.5 343.4,288.5 343.7,289 342.8,293.1 			"/>
			<polygon class="st41" points="329.1,291.4 330.3,292.6 330.6,291.5 			"/>
		</g>
		<g>
			<polygon class="st20" points="70.3,305.3 77.2,284 66.9,283.1 60.2,304.5 			"/>
			<polygon class="st20" points="66.2,279 65.3,283.1 78.7,284.2 79.6,280.3 			"/>
			<polygon class="st21" points="60.2,304.5 61.3,305.3 71.2,306.1 70.3,305.3 			"/>
			<polygon class="st19" points="76.5,286.1 70.3,305.3 71.2,306.1 77.6,286.1 			"/>
			<polygon class="st22" points="77.2,284 76.5,286.1 77.6,286.1 78.3,284.2 			"/>
			<polygon class="st41" points="77,284.6 79,284.9 78.7,284.2 77.2,284 			"/>
			<polygon class="st22" points="78.7,284.2 79.6,280.3 80,280.8 79,284.9 			"/>
			<polygon class="st41" points="65.3,283.1 66.5,284.4 66.9,283.3 			"/>
		</g>
	</g>
</g>
<g id="Laag_4">
	<g>
		<polygon class="st3" points="486.2,450 486.2,366.3 555.8,331.5 555.8,417.6 486.2,472 		"/>
		<polygon class="st11" points="101.8,352.4 486.2,366.3 486.2,472 101.8,427.4 		"/>
		<polygon class="st4" points="123.6,423.1 115.9,406.7 101.8,405.6 101.8,427.6 123.6,430 		"/>
		<polygon class="st4" points="463.2,462.4 471.1,449.3 486.2,450 486.2,472 463.2,469.3 		"/>
		<polygon class="st12" points="494.3,362.2 496.4,464.1 486.2,472 486.2,366.3 		"/>
		<polygon class="st13" points="501.5,460 486.2,472 486.2,450 496.1,445.1 		"/>
		<ellipse class="st14" cx="490.8" cy="374" rx="2.1" ry="2.8"/>
		<ellipse class="st14" cx="491" cy="391" rx="2.1" ry="2.8"/>
		<ellipse class="st14" cx="491" cy="408" rx="2.1" ry="2.8"/>
		<ellipse class="st14" cx="491" cy="425" rx="2.1" ry="2.8"/>
		<ellipse class="st14" cx="491.7" cy="441.4" rx="2.1" ry="2.8"/>
		<ellipse class="st14" cx="491" cy="424.9" rx="1.9" ry="2.7"/>
		<ellipse class="st14" cx="491.5" cy="441.3" rx="1.9" ry="2.7"/>
		<ellipse class="st15" cx="490.3" cy="373.7" rx="1.9" ry="2.7"/>
		<ellipse class="st15" cx="490.8" cy="390.8" rx="1.9" ry="2.7"/>
		<ellipse class="st15" cx="490.8" cy="407.9" rx="1.9" ry="2.7"/>
		<ellipse class="st15" cx="490.8" cy="424.9" rx="1.9" ry="2.7"/>
		<ellipse class="st15" cx="491.1" cy="441.1" rx="2.1" ry="2.7"/>
		<polygon class="st16" points="494.3,362.2 494.3,364.5 555.8,333.6 555.8,331.5 		"/>
		<polygon class="st16" points="496.4,363.5 498.4,443.9 504,458.1 501.5,460 496.1,445.1 494.3,364.5 495.2,362.2 		"/>
		<polygon class="st17" points="486.2,448.9 496,444.2 496.1,445.1 486.2,450 		"/>
		<polygon class="st4" points="138.1,358.1 174.6,359.8 169.4,385.4 133.2,382.3 		"/>
		
			<ellipse transform="matrix(0.1666 -0.986 0.986 0.1666 -242.4566 454.4421)" class="st18" cx="147.6" cy="370.6" rx="7.5" ry="6.2"/>
		
			<ellipse transform="matrix(0.1666 -0.986 0.986 0.1666 -239.1847 439.5888)" class="st19" cx="140.4" cy="361.3" rx="2.2" ry="1.6"/>
		
			<ellipse transform="matrix(0.1666 -0.986 0.986 0.1666 -260.6472 451.6271)" class="st19" cx="136.8" cy="380" rx="2.2" ry="1.6"/>
		
			<ellipse transform="matrix(0.1211 -0.9926 0.9926 0.1211 -231.7725 501.0942)" class="st19" cx="167.1" cy="381.4" rx="2.3" ry="1.9"/>
		
			<ellipse transform="matrix(0.1211 -0.9926 0.9926 0.1211 -209.1376 488.8476)" class="st19" cx="171.5" cy="362.5" rx="2.3" ry="1.9"/>
		
			<ellipse transform="matrix(0.1666 -0.986 0.986 0.1666 -243.3855 451.7723)" class="st20" cx="145.6" cy="369.9" rx="5.6" ry="4.8"/>
		<ellipse transform="matrix(0.1666 -0.986 0.986 0.1666 -239.366 438.7343)" class="st20" cx="139.9" cy="361" rx="2.2" ry="1.6"/>
		
			<ellipse transform="matrix(0.1666 -0.986 0.986 0.1666 -214.6178 470.7173)" class="st20" cx="171.1" cy="362.3" rx="2.2" ry="1.8"/>
		
			<ellipse transform="matrix(0.1666 -0.986 0.986 0.1666 -237.225 481.8178)" class="st20" cx="166.4" cy="381.2" rx="2.4" ry="2.1"/>
		
			<ellipse transform="matrix(0.1211 -0.9926 0.9926 0.1211 -257.1915 468.9852)" class="st20" cx="136.2" cy="379.7" rx="2.2" ry="1.8"/>
		<polygon class="st21" points="101.8,405.6 101.8,404.6 116.7,405.9 115.9,406.7 		"/>
		<polygon class="st19" points="123.6,423.1 124.3,422.3 116.7,405.9 115.9,406.7 		"/>
		<polygon class="st19" points="123.6,423.1 123.6,430 124.4,430.1 124.3,422.3 		"/>
		<polygon class="st21" points="133.2,382.3 134.6,383.5 170.8,386.7 169.4,385.4 		"/>
		<polygon class="st19" points="169.4,385.4 174.6,359.8 175.9,361.5 170.8,386.7 		"/>
		<polygon class="st19" points="463.2,462.4 464.3,463.3 472,450.6 471.1,449.3 		"/>
		<polygon class="st19" points="464.5,469.5 464.3,463.3 463.2,462.4 463.2,469.3 		"/>
		<polygon class="st21" points="472,450.6 486.2,451.4 486.2,450 471.1,449.3 		"/>
		<polygon class="st4" points="363.5,365.1 400,366.8 394.9,392.4 358.6,389.4 		"/>
		<ellipse transform="matrix(0.1666 -0.986 0.986 0.1666 -61.5213 682.5837)" class="st18" cx="373" cy="377.7" rx="7.5" ry="6.2"/>
		
			<ellipse transform="matrix(0.1666 -0.986 0.986 0.1666 -58.2494 667.7303)" class="st19" cx="365.9" cy="368.3" rx="2.2" ry="1.6"/>
		<ellipse transform="matrix(0.1666 -0.986 0.986 0.1666 -79.712 679.7686)" class="st19" cx="362.3" cy="387" rx="2.2" ry="1.6"/>
		
			<ellipse transform="matrix(0.1211 -0.9926 0.9926 0.1211 -40.6318 731.0463)" class="st19" cx="392.5" cy="388.5" rx="2.3" ry="1.9"/>
		
			<ellipse transform="matrix(0.1211 -0.9926 0.9926 0.1211 -17.997 718.7996)" class="st19" cx="396.9" cy="369.6" rx="2.3" ry="1.9"/>
		<ellipse transform="matrix(0.1666 -0.986 0.986 0.1666 -62.4502 679.9139)" class="st20" cx="371" cy="376.9" rx="5.6" ry="4.8"/>
		<ellipse transform="matrix(0.1666 -0.986 0.986 0.1666 -58.4307 666.8758)" class="st20" cx="365.3" cy="368" rx="2.2" ry="1.6"/>
		
			<ellipse transform="matrix(0.1666 -0.986 0.986 0.1666 -33.6824 698.8588)" class="st20" cx="396.6" cy="369.4" rx="2.2" ry="1.8"/>
		
			<ellipse transform="matrix(0.1666 -0.986 0.986 0.1666 -56.2897 709.9593)" class="st20" cx="391.8" cy="388.3" rx="2.4" ry="2.1"/>
		
			<ellipse transform="matrix(0.1211 -0.9926 0.9926 0.1211 -66.0508 698.9373)" class="st20" cx="361.7" cy="386.8" rx="2.2" ry="1.8"/>
		<polygon class="st21" points="358.6,389.4 360,390.5 396.2,393.7 394.9,392.4 		"/>
		<polygon class="st19" points="394.9,392.4 400,366.8 401.3,368.5 396.2,393.7 		"/>
		<polygon class="st22" points="391.8,364.7 391.3,366.4 392.2,366.4 392.8,364.8 		"/>
		<polygon class="st23" points="471.1,449.3 472.6,365.8 486.2,366.3 486.2,450 		"/>
		<g>
			
				<ellipse transform="matrix(0.1211 -0.9926 0.9926 0.1211 49.6693 804.6168)" class="st19" cx="479.2" cy="374.3" rx="2.4" ry="2"/>
			
				<ellipse transform="matrix(0.1666 -0.986 0.986 0.1666 29.9573 783.5645)" class="st20" cx="478.5" cy="374.1" rx="2.5" ry="2.1"/>
		</g>
		<g>
			
				<ellipse transform="matrix(0.1211 -0.9926 0.9926 0.1211 33.331 819.8799)" class="st19" cx="479.7" cy="391.1" rx="2.4" ry="2"/>
			
				<ellipse transform="matrix(0.1666 -0.986 0.986 0.1666 13.7099 798.0579)" class="st20" cx="478.9" cy="390.9" rx="2.5" ry="2.1"/>
		</g>
		<g>
			
				<ellipse transform="matrix(0.1211 -0.9926 0.9926 0.1211 16.2224 834.0413)" class="st19" cx="479.1" cy="407.9" rx="2.4" ry="2"/>
			
				<ellipse transform="matrix(0.1666 -0.986 0.986 0.1666 -3.2626 811.4615)" class="st20" cx="478.4" cy="407.7" rx="2.5" ry="2.1"/>
		</g>
		<g>
			
				<ellipse transform="matrix(0.1211 -0.9926 0.9926 0.1211 -0.9374 849.235)" class="st19" cx="479.1" cy="425.1" rx="2.4" ry="2"/>
			
				<ellipse transform="matrix(0.1666 -0.986 0.986 0.1666 -20.3081 825.8691)" class="st20" cx="478.4" cy="424.9" rx="2.5" ry="2.1"/>
		</g>
		<g>
			
				<ellipse transform="matrix(0.1211 -0.9926 0.9926 0.1211 -17.4144 863.8241)" class="st19" cx="479.1" cy="441.7" rx="2.4" ry="2"/>
			
				<ellipse transform="matrix(0.1666 -0.986 0.986 0.1666 -36.6754 839.7032)" class="st20" cx="478.4" cy="441.5" rx="2.5" ry="2.1"/>
		</g>
		<polygon class="st24" points="473.2,449.4 474.2,365.8 472.6,365.8 471.1,449.3 472.7,449.3 		"/>
		<polygon class="st23" points="116.7,405.9 116.7,353 101.8,352.4 101.8,404.6 		"/>
		<polyline class="st24" points="114.7,405.7 115,352.9 116.7,353 116.7,405.9 		"/>
		
			<ellipse transform="matrix(0.1211 -0.9926 0.9926 0.1211 -281.7478 442.0104)" class="st19" cx="108.7" cy="380.1" rx="2.3" ry="1.9"/>
		
			<ellipse transform="matrix(0.1666 -0.986 0.986 0.1666 -284.5552 423.1799)" class="st20" cx="108.1" cy="379.9" rx="2.4" ry="2.1"/>
		
			<ellipse transform="matrix(0.1211 -0.9926 0.9926 0.1211 -291.3104 450.0418)" class="st19" cx="108.5" cy="389.5" rx="2.3" ry="1.9"/>
		
			<ellipse transform="matrix(0.1666 -0.986 0.986 0.1666 -294.0444 430.7847)" class="st20" cx="107.8" cy="389.3" rx="2.4" ry="2.1"/>
		
			<ellipse transform="matrix(0.1211 -0.9926 0.9926 0.1211 -302.2141 459.2607)" class="st19" cx="108.2" cy="400.3" rx="2.3" ry="1.9"/>
		
			<ellipse transform="matrix(0.1666 -0.986 0.986 0.1666 -304.8658 439.5155)" class="st20" cx="107.6" cy="400.1" rx="2.4" ry="2.1"/>
		
			<ellipse transform="matrix(0.1211 -0.9926 0.9926 0.1211 -259.04 421.6184)" class="st19" cx="108.6" cy="357.1" rx="2.3" ry="1.9"/>
		
			<ellipse transform="matrix(0.1666 -0.986 0.986 0.1666 -261.9923 403.8358)" class="st20" cx="107.9" cy="356.9" rx="2.4" ry="2.1"/>
		
			<ellipse transform="matrix(0.1211 -0.9926 0.9926 0.1211 -270.7184 431.9587)" class="st19" cx="108.6" cy="368.9" rx="2.3" ry="1.9"/>
		
			<ellipse transform="matrix(0.1666 -0.986 0.986 0.1666 -273.5929 413.6411)" class="st20" cx="107.9" cy="368.7" rx="2.4" ry="2.1"/>
		<polygon class="st25" points="100.4,352.4 433.2,364.4 486.2,366.3 486.2,335.7 101.9,327.7 		"/>
		<polygon class="st26" points="116.7,354.4 156.4,356 156.7,354.4 116.7,353 		"/>
		<polygon class="st26" points="168.5,356.3 385,364.2 385.2,362.6 168.8,354.9 		"/>
		<path class="st26" d="M393.4,362.9l79.1,2.8l0,1.8c0,0-81.4-3.5-81.3-3.5C391.4,364.2,393.4,362.9,393.4,362.9z"/>
		<polygon class="st27" points="472.6,365.8 474.2,365.8 474.2,367.6 472.5,367.6 		"/>
		<polygon class="st28" points="486.2,368.2 474.2,367.6 474.2,365.8 486.2,366.3 		"/>
		<polygon class="st29" points="115,354.3 116.7,354.4 116.7,353 115,352.9 		"/>
		<polygon class="st30" points="101.8,353.8 115,354.3 115,352.9 101.8,352.4 		"/>
		<polygon class="st31" points="486.2,335.7 556.2,308.6 556.2,331.3 486.2,366.3 		"/>
		<polygon class="st32" points="494.3,364.5 486.2,368.2 486.2,366.3 494.3,362.2 		"/>
		<polygon class="st33" points="101.9,327.7 486.2,335.7 556.2,308.6 235.8,308.2 		"/>
		<polygon class="st34" points="101.9,327.7 125.6,328.2 125.6,335 116.7,353 100.4,352.4 		"/>
		<polygon class="st35" points="125.6,328.2 127.1,328.2 127.1,335.7 125.6,335 		"/>
		<polygon class="st36" points="116.7,353 125.6,335 127.1,335.7 118.2,353 		"/>
		<polygon class="st34" points="486.2,366.3 473.4,365.6 461,349.8 461.5,335.2 486.2,335.7 		"/>
		<polygon class="st35" points="461.5,335.2 458.2,335.2 458.2,350.7 461,349.8 		"/>
		<polygon class="st36" points="473.4,365.6 461,349.8 458.2,350.7 469.6,365.8 		"/>
		<polygon class="st13" points="494.3,362.2 502.2,347 502.2,329.5 486.2,335.7 486.2,366.3 		"/>
		<polygon class="st37" points="494.3,362.2 502.2,347 504.6,347.9 497.3,361 		"/>
		<polygon class="st38" points="502.2,347 502.2,329.5 504.6,328.6 504.6,347.9 		"/>
		<polygon class="st39" points="365.3,359.5 366.3,360.1 402.2,362.1 401.3,361.4 		"/>
		<polygon class="st33" points="365.3,359.5 401.3,361.4 401.3,341.8 365.3,340.9 		"/>
		<g>
			<polygon class="st25" points="367.1,357.2 367.8,357.8 382.6,358.7 383.3,358 371,354.4 			"/>
			<polygon class="st20" points="382.4,347 367.3,346.5 367.1,357.2 383.7,358 			"/>
		</g>
		<polygon class="st20" points="382.4,360.9 382.4,347 393.9,347.5 393.9,361.4 		"/>
		<polygon class="st25" points="394.2,361.9 394.5,347.9 393.9,347.5 393.9,361.4 		"/>
		<polygon class="st40" points="401.3,341.8 401.9,342.5 402.2,362.1 401.3,361.4 		"/>
		<polygon class="st39" points="139.9,352 140.9,352.5 176.8,354.6 175.9,353.9 		"/>
		<polygon class="st33" points="139.9,352 175.9,353.9 175.9,334.2 139.9,333.4 		"/>
		<g>
			<polygon class="st25" points="141.7,349.7 142.3,350.3 157.2,351.2 157.9,350.4 145.6,346.9 			"/>
			<polygon class="st20" points="157,339.5 141.9,339 141.7,349.7 158.3,350.5 			"/>
		</g>
		<polygon class="st20" points="157,353.3 157,339.5 168.5,339.9 168.5,354.4 		"/>
		<polygon class="st25" points="168.8,354.3 169.1,340.4 168.5,339.9 168.5,353.9 		"/>
		<polygon class="st40" points="175.9,334.2 176.5,335 176.8,354.6 175.9,353.9 		"/>
		<g>
			<polygon class="st20" points="385.9,382.8 391.8,364.7 383,363.9 377.3,382.1 			"/>
			<polygon class="st20" points="382.4,360.3 381.7,363.9 393.1,364.8 393.9,361.4 			"/>
			<polygon class="st21" points="377.3,382.1 378.2,382.8 386.8,383.5 385.9,382.8 			"/>
			<polygon class="st19" points="391.3,366.4 385.9,382.8 386.8,383.5 392.2,366.4 			"/>
			<polygon class="st41" points="391.7,365.1 393.4,365.4 393.1,364.8 391.8,364.7 			"/>
			<polygon class="st22" points="393.1,364.8 393.9,361.4 394.2,361.9 393.4,365.4 			"/>
			<polygon class="st41" points="381.7,363.9 382.7,364.9 383,364 			"/>
		</g>
		<g>
			<polygon class="st20" points="160.5,375.8 166.4,357.6 157.6,356.9 151.9,375.1 			"/>
			<polygon class="st20" points="157,353.3 156.2,356.9 167.7,357.8 168.5,354.4 			"/>
			<polygon class="st21" points="151.9,375.1 152.8,375.8 161.3,376.5 160.5,375.8 			"/>
			<polygon class="st19" points="165.8,359.4 160.5,375.8 161.3,376.5 166.8,359.4 			"/>
			<polygon class="st22" points="166.4,357.6 165.8,359.4 166.8,359.4 167.4,357.8 			"/>
			<polygon class="st41" points="166.3,358.1 168,358.3 167.7,357.8 166.4,357.6 			"/>
			<polygon class="st22" points="167.7,357.8 168.5,354.4 168.8,354.8 168,358.3 			"/>
			<polygon class="st41" points="156.2,356.9 157.3,357.9 157.6,357 			"/>
		</g>
	</g>
</g>
</svg>
