<?xml version="1.0" encoding="utf-8"?>
<!-- Generator: Adobe Illustrator 26.5.0, SVG Export Plug-In . SVG Version: 6.00 Build 0)  -->
<svg version="1.1" id="Laag_1" xmlns="http://www.w3.org/2000/svg" xmlns:xlink="http://www.w3.org/1999/xlink" x="0px" y="0px"
	 viewBox="0 0 374.7 362.9" style="enable-background:new 0 0 374.7 362.9;" xml:space="preserve">
<style type="text/css">
	.st0{display:none;}
	.st1{fill:none;}
	.st2{fill:#662E59;}
	.st3{enable-background:new    ;}
</style>
<g id="Laag_1_00000158736831180901843030000006310174429323439002_" class="st0">
	
		<image style="display:inline;overflow:visible;enable-background:new    ;" width="225" height="225" xlink:href="../../../../DES/originalMaterial/Unknown 2.png"  transform="matrix(1 0 0 1 75.8082 46.3373)">
	</image>
</g>
<g id="Laag_2_00000087406866946657193760000007138854324364891575_">
	<g>
		<g>
			<g>
				<line class="st1" x1="0" y1="254.3" x2="374.4" y2="254.3"/>
				<g>
					<g>
						<rect y="234.3" class="st2" width="374.4" height="40.1"/>
					</g>
				</g>
			</g>
			<g>
				<g>
					<g>
						<path class="st2" d="M330.6,79.3c-11.2,20.1-23.6,39.6-37.2,58.3c-6.7,9.4-13.9,18.5-21.3,27.4c-7.5,8.8-15.2,17.6-23.3,25.9
							c-8.1,8.3-16.5,16.5-25.2,24.2c-8.8,7.7-17.9,15.1-27.3,22.1c-9.5,7-19.3,13.6-29.6,19.6c-5.1,3-10.4,5.9-15.8,8.6
							c-2.7,1.4-5.5,2.7-8.3,4c-1.4,0.6-2.9,1.3-4.4,1.9c-0.8,0.3-1.5,0.6-2.3,0.9l-1.2,0.5l-1.5,0.6l-12.9-37.9l1.1-0.4l1.6-0.6
							c1.1-0.4,2.2-0.9,3.3-1.4c2.2-1,4.5-2.1,6.8-3.2c4.5-2.3,9-4.7,13.5-7.3c8.9-5.2,17.6-11.1,26.1-17.3
							c8.4-6.2,16.6-12.9,24.6-19.9c7.9-7,15.5-14.4,22.9-22s14.4-15.6,21.3-23.8c6.7-8.3,13.4-16.6,19.6-25.3
							c12.6-17.3,24.1-35.5,34.6-54.3L330.6,79.3z"/>
					</g>
				</g>
			</g>
			<g>
				<line class="st1" x1="0" y1="146.4" x2="374.4" y2="146.4"/>
				<g>
					<g>
						<rect y="126.4" class="st2" width="374.4" height="40.1"/>
					</g>
				</g>
			</g>
			<g>
				<path class="st2" d="M80.1,146.4c0,0,70.3-3.3,143.9-135.7"/>
				<g>
					<g>
						<path class="st2" d="M241.5,20.4c-17.1,30.7-36.9,60.4-61.8,86.9c-6.3,6.6-12.8,13-19.7,19c-7,6-14.3,11.8-22.2,17
							s-16.2,10.1-25.2,14.1c-4.5,2-9.2,3.8-14.1,5.4c-1.2,0.4-2.5,0.7-3.8,1.1c-1.3,0.3-2.6,0.7-3.9,1l-2,0.4l-2.1,0.4
							c-0.8,0.1-1.5,0.2-2.3,0.3l-1.3,0.2l-0.8,0.1h-0.4h-0.8l-1.9-40h-0.4c0.9,12.2,0.2,2.8,0.4,5.2l-0.1-1.1l-0.2-2.1l-0.2-2.1
							l0,0l0,0H79l0.8-0.1l1-0.2l1.1-0.2c0.7-0.1,1.5-0.4,2.2-0.5l2.3-0.7c3.2-1,6.4-2.2,9.7-3.7c6.5-2.9,13-6.6,19.2-10.8
							c6.3-4.2,12.3-8.9,18.2-14s11.5-10.6,16.9-16.3c10.8-11.5,20.9-24.1,30.1-37.4c9.5-13.1,18-27,26-41.3L241.5,20.4z"/>
					</g>
				</g>
			</g>
		</g>
		<rect x="-1.6" y="305.4" class="st1" width="391.6" height="61.3"/>
		<g class="st3">
			<path class="st2" d="M14.9,314.3H-1.7v-6h40.4v6H22v48.6h-7.1V314.3z"/>
			<path class="st2" d="M40.9,335.9c0-4.6-0.1-8.6-0.3-12.2h6.2l0.2,7.7h0.3c1.8-5.3,6.1-8.6,10.9-8.6c0.8,0,1.4,0.1,2,0.2v6.7
				c-0.7-0.2-1.5-0.2-2.4-0.2c-5,0-8.6,3.8-9.6,9.2c-0.2,1-0.3,2.1-0.3,3.3v20.9h-7V335.9z"/>
			<path class="st2" d="M88.7,362.9l-0.6-4.9h-0.2c-2.2,3.1-6.4,5.8-12,5.8c-7.9,0-12-5.6-12-11.3c0-9.5,8.4-14.7,23.6-14.6v-0.8
				c0-3.2-0.9-9.1-8.9-9.1c-3.6,0-7.5,1.1-10.2,2.9l-1.6-4.7c3.2-2.1,7.9-3.5,12.9-3.5c12,0,14.9,8.2,14.9,16v14.7
				c0,3.4,0.2,6.7,0.6,9.4H88.7z M87.7,342.9c-7.8-0.2-16.6,1.2-16.6,8.8c0,4.6,3.1,6.8,6.7,6.8c5.1,0,8.3-3.2,9.5-6.6
				c0.2-0.7,0.4-1.5,0.4-2.3V342.9z"/>
			<path class="st2" d="M114,312.7c0.1,2.4-1.7,4.4-4.5,4.4c-2.5,0-4.3-1.9-4.3-4.4c0-2.5,1.9-4.5,4.5-4.5
				C112.3,308.2,114,310.2,114,312.7z M106,362.9v-39.2h7.1v39.2H106z"/>
			<path class="st2" d="M125,334.3c0-4.1-0.1-7.4-0.3-10.6h6.3l0.4,6.5h0.2c1.9-3.7,6.5-7.4,13-7.4c5.4,0,13.9,3.2,13.9,16.7v23.4
				h-7.1v-22.6c0-6.3-2.3-11.6-9.1-11.6c-4.7,0-8.3,3.3-9.6,7.3c-0.3,0.9-0.5,2.1-0.5,3.3v23.6H125V334.3z"/>
			<path class="st2" d="M193.4,362.9l-13.9-54.6h7.5l6.5,27.6c1.6,6.8,3.1,13.6,4.1,18.9h0.2c0.9-5.4,2.6-11.9,4.5-19l7.3-27.5h7.4
				l6.6,27.7c1.5,6.5,3,13,3.8,18.7h0.2c1.1-6,2.7-12.1,4.4-18.9l7.2-27.5h7.2l-15.5,54.6h-7.4l-6.9-28.4c-1.7-7-2.8-12.3-3.6-17.8
				h-0.2c-1,5.4-2.2,10.8-4.2,17.8l-7.8,28.4H193.4z"/>
			<path class="st2" d="M285.6,343c0,14.5-10,20.8-19.5,20.8c-10.6,0-18.8-7.8-18.8-20.2c0-13.1,8.6-20.8,19.4-20.8
				C278,322.8,285.6,331,285.6,343z M254.5,343.4c0,8.6,4.9,15.1,11.9,15.1c6.8,0,11.9-6.4,11.9-15.2c0-6.6-3.3-15.1-11.7-15.1
				C258.1,328.2,254.5,335.9,254.5,343.4z"/>
			<path class="st2" d="M294.6,335.9c0-4.6-0.1-8.6-0.3-12.2h6.2l0.2,7.7h0.3c1.8-5.3,6.1-8.6,10.9-8.6c0.8,0,1.4,0.1,2,0.2v6.7
				c-0.7-0.2-1.5-0.2-2.4-0.2c-5,0-8.6,3.8-9.6,9.2c-0.2,1-0.3,2.1-0.3,3.3v20.9h-7V335.9z"/>
			<path class="st2" d="M321.4,305.4h7.1v57.5h-7.1V305.4z"/>
			<path class="st2" d="M374.4,305.4v47.4c0,3.5,0.1,7.5,0.3,10.1h-6.4l-0.3-6.8h-0.2c-2.2,4.4-7,7.7-13.4,7.7
				c-9.5,0-16.8-8-16.8-19.9c-0.1-13,8-21.1,17.6-21.1c6,0,10,2.8,11.8,6h0.2v-23.4H374.4z M367.3,339.7c0-0.9-0.1-2.1-0.3-3
				c-1.1-4.5-4.9-8.3-10.3-8.3c-7.4,0-11.7,6.5-11.7,15.2c0,7.9,3.9,14.5,11.6,14.5c4.8,0,9.2-3.2,10.5-8.5c0.2-1,0.3-1.9,0.3-3.1
				V339.7z"/>
		</g>
	</g>
</g>
</svg>
