<?xml version="1.0" encoding="utf-8"?>
<!-- Generator: Adobe Illustrator 26.5.0, SVG Export Plug-In . SVG Version: 6.00 Build 0)  -->
<svg version="1.1" xmlns="http://www.w3.org/2000/svg" xmlns:xlink="http://www.w3.org/1999/xlink" x="0px" y="0px"
	 viewBox="0 0 374.7 362.9" style="enable-background:new 0 0 374.7 362.9;" xml:space="preserve">
<style type="text/css">
	.st0{display:none;}
	.st1{fill:#662E59;}
	.st2{fill:none;}
	.st3{font-family:'MyriadPro-Regular';}
	.st4{font-size:81.025px;}
</style>
<g id="Laag_1" class="st0">
	
		<image style="display:inline;overflow:visible;" width="225" height="225" xlink:href="../../../../DES/originalMaterial/Unknown 2.png"  transform="matrix(1 0 0 1 75.8082 46.3373)">
	</image>
</g>
<g id="Laag_2">
	<g>
		<g>
			<g>
				<line class="st1" x1="0" y1="254.3" x2="374.4" y2="254.3"/>
				<g>
					<g>
						<rect x="0" y="234.3" class="st1" width="374.4" height="40.1"/>
					</g>
				</g>
			</g>
			<g>
				<g>
					<g>
						<path class="st1" d="M330.6,79.3c-11.2,20.1-23.6,39.6-37.2,58.3c-6.7,9.4-13.9,18.5-21.3,27.4c-7.5,8.8-15.2,17.6-23.3,25.9
							c-8.1,8.3-16.5,16.5-25.2,24.2c-8.8,7.7-17.9,15.1-27.3,22.1c-9.5,7-19.3,13.6-29.6,19.6c-5.1,3-10.4,5.9-15.8,8.6
							c-2.7,1.4-5.5,2.7-8.3,4c-1.4,0.6-2.9,1.3-4.4,1.9c-0.8,0.3-1.5,0.6-2.3,0.9l-1.2,0.5l-1.5,0.6l-12.9-37.9l1.1-0.4l1.6-0.6
							c1.1-0.4,2.2-0.9,3.3-1.4c2.2-1,4.5-2.1,6.8-3.2c4.5-2.3,9-4.7,13.5-7.3c8.9-5.2,17.6-11.1,26.1-17.3
							c8.4-6.2,16.6-12.9,24.6-19.9c7.9-7,15.5-14.4,22.9-22c7.4-7.6,14.4-15.6,21.3-23.8c6.7-8.3,13.4-16.6,19.6-25.3
							c12.6-17.3,24.1-35.5,34.6-54.3L330.6,79.3z"/>
					</g>
				</g>
			</g>
			<g>
				<line class="st1" x1="0" y1="146.4" x2="374.4" y2="146.4"/>
				<g>
					<g>
						<rect x="0" y="126.4" class="st1" width="374.4" height="40.1"/>
					</g>
				</g>
			</g>
			<g>
				<path class="st1" d="M80.1,146.4c0,0,70.3-3.3,143.9-135.7"/>
				<g>
					<g>
						<path class="st1" d="M241.5,20.4c-17.1,30.7-36.9,60.4-61.8,86.9c-6.3,6.6-12.8,13-19.7,19c-7,6-14.3,11.8-22.2,17
							c-7.9,5.2-16.2,10.1-25.2,14.1c-4.5,2-9.2,3.8-14.1,5.4c-1.2,0.4-2.5,0.7-3.8,1.1c-1.3,0.3-2.6,0.7-3.9,1l-2,0.4l-2.1,0.4
							c-0.8,0.1-1.5,0.2-2.3,0.3l-1.3,0.2l-0.8,0.1l-0.4,0l-0.8,0l-1.9-40l-0.4,0c0.9,12.2,0.2,2.8,0.4,5.2l-0.1-1.1l-0.2-2.1
							l-0.2-2.1l0,0l0,0l0.3,0l0.8-0.1l1-0.2l1.1-0.2c0.7-0.1,1.5-0.4,2.2-0.5l2.3-0.7c3.2-1,6.4-2.2,9.7-3.7
							c6.5-2.9,13-6.6,19.2-10.8c6.3-4.2,12.3-8.9,18.2-14c5.9-5.1,11.5-10.6,16.9-16.3c10.8-11.5,20.9-24.1,30.1-37.4
							C190,29.2,198.5,15.3,206.5,1L241.5,20.4z"/>
					</g>
				</g>
			</g>
		</g>
		<rect x="-1.6" y="305.4" class="st2" width="391.6" height="61.3"/>
		<text transform="matrix(1 0 0 1 -1.6362 362.928)" class="st1 st3 st4">Train World</text>
	</g>
</g>
</svg>
