<?xml version="1.0" encoding="utf-8"?>
<!-- Generator: Adobe Illustrator 26.5.0, SVG Export Plug-In . SVG Version: 6.00 Build 0)  -->
<svg version="1.1" xmlns="http://www.w3.org/2000/svg" xmlns:xlink="http://www.w3.org/1999/xlink" x="0px" y="0px"
	 viewBox="0 0 425.2 425.2" style="enable-background:new 0 0 425.2 425.2;" xml:space="preserve">
<style type="text/css">
	.st0{display:none;}
	.st1{fill:#54284C;}
	.st2{fill:#D65853;}
	.st3{fill:#B24B58;}
	.st4{fill:#FFFFFF;}
	.st5{fill:#9A4251;}
	.st6{fill:#914153;}
	.st7{fill:#7C394B;}
	.st8{fill:#C24C4C;}
	.st9{fill:#A64858;}
	.st10{fill:#6D3345;}
	.st11{fill:#713464;}
</style>
<g id="Laag_1" class="st0">
	
		<image style="display:inline;overflow:visible;" width="600" height="600" xlink:href="../../../../DES/originalMaterial/shopping.jpeg"  transform="matrix(1 0 0 1 -87.4016 -62.3465)">
	</image>
</g>
<g id="Laag_2">
	<g>
		<path class="st1" d="M127.6,390.9c0,0-7.5,21.9,44.3,31.7c0,0,67.5,9,106-6.8c38.5-15.9,20.9-32.8,20.9-32.8l-86.4,18.3
			L127.6,390.9z"/>
		<polygon class="st2" points="181.5,34.1 243.9,34.1 222.5,183.2 204.8,183.2 		"/>
		<polygon class="st3" points="300,28.1 243.9,34.1 222.5,183.2 229.7,182.3 		"/>
		<path class="st4" d="M181.5,34.1"/>
		<polygon class="st5" points="300,28.1 323.3,22.3 234.2,179.3 229.7,182.3 		"/>
		<polygon class="st6" points="335,17.5 323.3,22.3 234.2,179.3 239.2,175.3 		"/>
		<polygon class="st3" points="125.2,28.1 181.3,34.1 204.8,183.2 195.4,182.3 		"/>
		<polygon class="st5" points="125.2,28.1 101.9,22.3 191,179.3 195.4,182.3 		"/>
		<polygon class="st6" points="90.2,17.5 101.9,22.3 191,179.3 186,175.3 		"/>
		<polygon class="st7" points="90.2,17.5 93.2,12.6 115.1,6.4 169.5,0 242.6,0 288.8,2.6 320.3,7.6 332.7,12.2 335,17.5 323.3,22.3 
			300,28.1 243.9,34.1 181.3,34.1 125.2,28.1 101.9,22.3 		"/>
		<polygon class="st8" points="169.5,0 175.7,33.5 181.3,34.1 235,34.1 242.6,0 		"/>
		<polygon class="st9" points="288.8,2.6 279.6,30.3 243.9,34.1 235,34.1 242.6,0 		"/>
		<polygon class="st7" points="320.3,7.6 313.5,24.7 300,28.1 279.6,30.3 288.8,2.6 		"/>
		<path class="st9" d="M129.8,28.6c0,0-14.7-22.2-14.7-22.2L169.5,0l6.2,33.5L129.8,28.6z"/>
		<polygon class="st10" points="93.2,12.6 101.9,22.3 90.2,17.5 		"/>
		<polygon class="st11" points="125.2,28.1 128.3,26.3 173.4,21 237.9,21 281.5,24.6 306.6,26.9 300,28.1 243.9,34.1 181.3,34.1 		
			"/>
		<ellipse class="st11" cx="214.9" cy="390.9" rx="87.3" ry="28.5"/>
		<path class="st1" d="M222.5,183.2"/>
		<polygon class="st2" points="222.5,183.2 218.1,230.1 218.1,376.8 225.6,394 203.4,394 211.6,376.6 208.7,229.9 204.8,183.2 		"/>
		<polygon class="st3" points="195.4,182.3 204.8,230.1 208.7,375.2 195.4,384.8 203.4,394 211.6,376.6 208.7,229.9 204.8,183.2 		
			"/>
		<polygon class="st3" points="229.7,182.3 222.5,183.2 218.1,230.1 218.1,376.8 225.6,394 232.8,383.1 222.5,376.3 222.5,230.4 		
			"/>
		<polygon class="st6" points="239.2,175.3 225.6,230.1 225.6,374.4 227.9,377.9 232.8,383.1 222.5,376.3 222.5,230.4 229.7,182.3 
					"/>
		<polygon class="st6" points="195.4,384.8 201.6,377.6 205.3,374.4 201.5,230.7 186,175.3 195.4,182.3 204.8,230.1 208.7,375.2 		
			"/>
	</g>
</g>
</svg>
