<?xml version="1.0" encoding="utf-8"?>
<!-- Generator: Adobe Illustrator 28.1.0, SVG Export Plug-In . SVG Version: 6.00 Build 0)  -->
<svg version="1.1" xmlns="http://www.w3.org/2000/svg" xmlns:xlink="http://www.w3.org/1999/xlink" x="0px" y="0px"
	 viewBox="0 0 694.6 544.4" style="enable-background:new 0 0 694.6 544.4;" xml:space="preserve">
<style type="text/css">
	.st0{display:none;}
	.st1{fill:#E4AB67;}
	.st2{fill:#C07658;}
	.st3{fill:#E08962;}
	.st4{fill:#B0ADA7;}
	.st5{fill:#C04343;}
	.st6{fill:#E95857;}
	.st7{fill:#9B4042;}
	.st8{fill:#A2393C;}
	.st9{fill:#DF4F4F;}
	.st10{fill:#CD4E4E;}
	.st11{fill:#BD4243;}
	.st12{fill:#CA5151;}
	.st13{fill:#872E32;}
	.st14{fill:#CC4748;}
	.st15{fill:#DD5857;}
	.st16{fill:#AF484F;}
	.st17{fill:#A04143;}
	.st18{fill:#C24848;}
	.st19{fill:#F05452;}
	.st20{fill:#D34748;}
	.st21{fill:#CC5252;}
	.st22{fill:#C44949;}
	.st23{fill:#4C1C49;}
	.st24{fill:#984892;}
	.st25{fill:#682B5F;}
	.st26{fill:#632A5E;}
	.st27{fill:#370C36;}
	.st28{fill:#AA58A2;}
</style>
<g id="Laag_1" class="st0">
	
		<image style="display:inline;overflow:visible;opacity:0.6;" width="4096" height="1714" xlink:href="../../../../DES/originalMaterial/Untitled_Artwork 2.png"  transform="matrix(0.2058 0 0 0.2058 -67.993 194.4969)">
	</image>
</g>
<g id="Laag_4">
	<circle class="st1" cx="351.2" cy="281.8" r="82.1"/>
</g>
<g id="Laag_3">
	<g>
		<rect x="140.2" y="346.2" class="st2" width="388.3" height="6.1"/>
		
			<rect x="131.9" y="327.5" transform="matrix(0.7071 -0.7071 0.7071 0.7071 -186.7991 209.8468)" class="st2" width="56" height="5.9"/>
		
			<rect x="166.2" y="327.5" transform="matrix(0.7071 -0.7071 0.7071 0.7071 -176.7589 234.086)" class="st2" width="56" height="5.9"/>
		
			<rect x="200.5" y="327.5" transform="matrix(0.7071 -0.7071 0.7071 0.7071 -166.7187 258.3251)" class="st2" width="56" height="5.9"/>
		
			<rect x="234.7" y="327.5" transform="matrix(0.7071 -0.7071 0.7071 0.7071 -156.6785 282.5643)" class="st2" width="56" height="5.9"/>
		
			<rect x="269" y="327.5" transform="matrix(0.7071 -0.7071 0.7071 0.7071 -146.6383 306.8034)" class="st2" width="56" height="5.9"/>
		
			<rect x="303.3" y="327.5" transform="matrix(0.7071 -0.7071 0.7071 0.7071 -136.5981 331.0426)" class="st2" width="56" height="5.9"/>
		
			<rect x="337.6" y="327.5" transform="matrix(0.7071 -0.7071 0.7071 0.7071 -126.5579 355.2817)" class="st2" width="56" height="5.9"/>
		
			<rect x="371.9" y="327.5" transform="matrix(0.7071 -0.7071 0.7071 0.7071 -116.5177 379.5209)" class="st2" width="56" height="5.9"/>
		
			<rect x="406.1" y="327.5" transform="matrix(0.7071 -0.7071 0.7071 0.7071 -106.4776 403.7601)" class="st2" width="56" height="5.9"/>
		
			<rect x="440.4" y="327.5" transform="matrix(0.7071 -0.7071 0.7071 0.7071 -96.4374 427.9992)" class="st2" width="56" height="5.9"/>
		
			<rect x="478.3" y="336.2" transform="matrix(0.7071 -0.7071 0.7071 0.7071 -95.0982 448.6343)" class="st2" width="31.4" height="5.9"/>
		
			<rect x="167.3" y="327.5" transform="matrix(0.7071 0.7071 -0.7071 0.7071 290.8482 -41.35)" class="st2" width="56" height="5.9"/>
		<polygon class="st2" points="177.6,351 157.9,331.2 162,327 181.8,346.8 		"/>
		
			<rect x="201.7" y="327.5" transform="matrix(0.7071 0.7071 -0.7071 0.7071 300.9203 -65.6662)" class="st2" width="56" height="5.9"/>
		
			<rect x="235.9" y="327.5" transform="matrix(0.7071 0.7071 -0.7071 0.7071 310.9169 -89.8001)" class="st2" width="56" height="5.9"/>
		
			<rect x="270.3" y="327.5" transform="matrix(0.7071 0.7071 -0.7071 0.7071 321.0061 -114.1578)" class="st2" width="56" height="5.9"/>
		
			<rect x="304.8" y="327.5" transform="matrix(0.7071 0.7071 -0.7071 0.7071 331.0954 -138.5155)" class="st2" width="56" height="5.9"/>
		
			<rect x="339.1" y="327.5" transform="matrix(0.7071 0.7071 -0.7071 0.7071 341.1434 -162.7733)" class="st2" width="56" height="5.9"/>
		
			<rect x="373.3" y="327.5" transform="matrix(0.7071 0.7071 -0.7071 0.7071 351.1742 -186.9899)" class="st2" width="56" height="5.9"/>
		
			<rect x="407.4" y="327.5" transform="matrix(0.7071 0.7071 -0.7071 0.7071 361.1615 -211.1013)" class="st2" width="56" height="5.9"/>
		
			<rect x="441.6" y="327.5" transform="matrix(0.7071 0.7071 -0.7071 0.7071 371.1681 -235.2594)" class="st2" width="56" height="5.9"/>
		
			<rect x="475.9" y="327.5" transform="matrix(0.7071 0.7071 -0.7071 0.7071 381.2097 -259.502)" class="st2" width="56" height="5.9"/>
	</g>
</g>
<g id="Layer_6">
</g>
<g id="brug">
	<g>
		<rect x="148.7" y="350.6" class="st3" width="375.2" height="6.1"/>
		
			<rect x="140.4" y="331.8" transform="matrix(0.7071 -0.7071 0.7071 0.7071 -187.4035 217.1374)" class="st3" width="56" height="5.9"/>
		
			<rect x="174.7" y="331.8" transform="matrix(0.7071 -0.7071 0.7071 0.7071 -177.3633 241.3765)" class="st3" width="56" height="5.9"/>
		
			<rect x="209" y="331.8" transform="matrix(0.7071 -0.7071 0.7071 0.7071 -167.3231 265.6157)" class="st3" width="56" height="5.9"/>
		
			<rect x="243.2" y="331.8" transform="matrix(0.7071 -0.7071 0.7071 0.7071 -157.2829 289.8548)" class="st3" width="56" height="5.9"/>
		
			<rect x="277.5" y="331.8" transform="matrix(0.7071 -0.7071 0.7071 0.7071 -147.2428 314.094)" class="st3" width="56" height="5.9"/>
		
			<rect x="311.8" y="331.8" transform="matrix(0.7071 -0.7071 0.7071 0.7071 -137.2026 338.3332)" class="st3" width="56" height="5.9"/>
		
			<rect x="346.1" y="331.8" transform="matrix(0.7071 -0.7071 0.7071 0.7071 -127.1624 362.5723)" class="st3" width="56" height="5.9"/>
		
			<rect x="380.4" y="331.8" transform="matrix(0.7071 -0.7071 0.7071 0.7071 -117.1222 386.8115)" class="st3" width="56" height="5.9"/>
		
			<rect x="414.6" y="331.8" transform="matrix(0.7071 -0.7071 0.7071 0.7071 -107.082 411.0506)" class="st3" width="56" height="5.9"/>
		
			<rect x="448.9" y="331.8" transform="matrix(0.7071 -0.7071 0.7071 0.7071 -97.0418 435.2898)" class="st3" width="56" height="5.9"/>
		
			<rect x="486.8" y="340.5" transform="matrix(0.7071 -0.7071 0.7071 0.7071 -95.7026 455.9249)" class="st3" width="31.4" height="5.9"/>
		<polygon class="st3" points="222.6,356.7 183,317.1 186.1,312.9 226.8,352.5 		"/>
		<polygon class="st3" points="186.1,355.4 166.4,335.5 170.5,331.4 190.3,351.2 		"/>
		
			<rect x="210.2" y="331.8" transform="matrix(0.7071 0.7071 -0.7071 0.7071 306.5029 -70.394)" class="st3" width="56" height="5.9"/>
		
			<rect x="244.4" y="331.8" transform="matrix(0.7071 0.7071 -0.7071 0.7071 316.4995 -94.5279)" class="st3" width="56" height="5.9"/>
		
			<rect x="278.8" y="331.8" transform="matrix(0.7071 0.7071 -0.7071 0.7071 326.5887 -118.8856)" class="st3" width="56" height="5.9"/>
		
			<rect x="313.2" y="331.8" transform="matrix(0.7071 0.7071 -0.7071 0.7071 336.678 -143.2433)" class="st3" width="56" height="5.9"/>
		
			<rect x="347.6" y="331.8" transform="matrix(0.7071 0.7071 -0.7071 0.7071 346.726 -167.5011)" class="st3" width="56" height="5.9"/>
		
			<rect x="381.8" y="331.8" transform="matrix(0.7071 0.7071 -0.7071 0.7071 356.7568 -191.7177)" class="st3" width="56" height="5.9"/>
		
			<rect x="415.9" y="331.8" transform="matrix(0.7071 0.7071 -0.7071 0.7071 366.7441 -215.8291)" class="st3" width="56" height="5.9"/>
		
			<rect x="450.1" y="331.8" transform="matrix(0.7071 0.7071 -0.7071 0.7071 376.7507 -239.9872)" class="st3" width="56" height="5.9"/>
		
			<rect x="484.3" y="331.8" transform="matrix(0.7071 0.7071 -0.7071 0.7071 386.7923 -264.2297)" class="st3" width="56" height="5.9"/>
	</g>
</g>
<g id="Laag_2">
	<path class="st4" d="M257.4,476.6l-2.8,4l17.7,3.5l45.6,6.3l14.3,6.7l24.7-3l8.9,15.9l31.5,8.5l37.7-1.2l22.1-17.7l32.8-3.4
		l40.6,1.4l73.4,9.1l26,8.8l51.6,3l50.1-13.4l56.1-25c0,0-145.6-21.5-146.3-21c-0.6,0.5-221.6-2.7-221.6-2.7L257.4,476.6"/>
	<path class="st5" d="M377,445.6l28.1-16.5l12.7-14.7l18.4-19.8l20.6-3.4l20-14.7c0,0,14.7-15.5,15.8-15.8
		c1.1-0.3,23.2-16.6,23.2-16.6l20.9-18.7l19.2,42.1l-42.6,99.7c0,0-41.8,7.1-42.9,6.8c-1.1-0.3-86.4-13-86.4-13L377,445.6z"/>
	<path class="st6" d="M588.1,315.9c-0.5,0.1-62.1-1.2-62.1-1.2l0.5,11.3l5.2-2.2L588.1,315.9z"/>
	<path class="st7" d="M440.7,447.9c0.3,0.1,21.5-7.1,21.5-7.1l46.9-74.7l13-17.7l-21.6,5.6l-24.8,29.5l-36.4,63.9L440.7,447.9z"/>
	<polygon class="st8" points="521.7,349 462.2,440.7 460.7,439.5 502.5,373.6 514,350.8 	"/>
	<path class="st9" d="M377,445.6l6.9-14.2c0,0,7.3-37.3,8.5-38.4c1.1-1.1,29.1-17,29.9-18.3c0.8-1.2,25.4-17.6,25.4-17.6l16.4-1.7
		l11.6-7.3l18.4-3.9l21,4.6l-13.1,25.9c0,0-37.3,64-41.2,64.8c-4,0.8-59,23.4-60.4,22.6C398.9,461.3,377,445.6,377,445.6z"/>
	<path class="st10" d="M439.5,447.6l-38.7-12.1L377,445.6l1.5,5c0,0,35.2,5.7,35.6,5.6C414.4,456.1,439.5,447.6,439.5,447.6z"/>
	<path class="st8" d="M439.5,447.6l50.8,13.7l2-31.3l5.9-22.9l15-22.9l15.5-9.4l13.5-12.9l0.9,0.4l-25.9,45.2l-15.2,57.7
		c0,0-13.8-0.4-14-0.4S436.8,450,436.8,450l0.7-1.7L439.5,447.6z"/>
	<path class="st11" d="M263.3,476.8c0,0,66.4-19.2,67.2-19.5c0.8-0.3,26.3-17.8,26.3-17.8l21.7,6.5l19.5-8.2l98.5,26.3l-1.4,15.2
		l-237.7,2l2.5-5.1L263.3,476.8z"/>
	<path class="st12" d="M657.1,333.5c0.5-0.2,11.4,1.6,11.4,1.6l-2.9,4.3L657.1,333.5z"/>
	<polygon class="st6" points="666.4,337.8 657.1,333.5 622.3,339.1 616.5,344.2 	"/>
	<path class="st13" d="M613.4,344.7l52.7-7.9l-3.9,27.1c0,0-37.3,16-37.8,16s-13.7-21.6-13.7-21.6L613.4,344.7z"/>
	<polygon class="st8" points="545.4,360.8 531.7,323.7 588.1,315.9 595.7,340.7 615.4,341.3 627.9,376 568,431.4 529,388.7 	"/>
	<polygon class="st14" points="490.6,479.1 493.2,428.5 499.1,406.4 514.1,384.4 529.9,374.7 543,362.1 549,361.5 561.2,387.3 
		570.4,422.1 568.6,468.1 540.3,481.8 	"/>
	<polyline class="st11" points="531.3,481.3 523.5,480.8 529.1,459.1 569.5,418.7 570.4,422.1 531.3,459.1 531.3,481.3 	"/>
	<path class="st5" d="M436.1,349.5l11.6,7.6l16.4-1.7l11.6-7.3c0,0,18.1-0.8,18.9,0c0.8,0.8,21.7,0.8,21.7,0.8l18.1-17.7l-9.1-24.6
		c0,0-23.2-2-24.3-2c-1.1,0-26.5,9-26.5,9l-27.4,19.9L436.1,349.5z"/>
	<polygon class="st15" points="436.1,349.5 422.3,374.7 435.6,358.6 	"/>
	<polygon class="st16" points="447.7,357.1 422.3,374.7 435.6,358.6 	"/>
	<polygon class="st17" points="436.1,349.5 447.7,357.1 435.6,358.6 	"/>
	<path class="st8" d="M502.5,373.6c0.1-0.2,19.2-24.6,19.2-24.6l-7.2,0.9L502.5,373.6z"/>
	<polygon class="st6" points="549,361.5 545.4,360.8 542.1,361.8 543,362.1 	"/>
	<path class="st18" d="M505.9,351l8.6-1.1c0,0-12.2,24.2-12,23.7C502.7,373.1,505.9,351,505.9,351z"/>
	<polygon class="st19" points="525.4,344.2 494,344.2 475.7,348.1 505.4,351 514,350.8 521.7,349 	"/>
	<polygon class="st20" points="622.3,339.1 594.8,338 595.7,340.7 615.4,341.3 615.4,341.3 	"/>
	<polygon class="st12" points="615.4,341.3 622.3,339.1 616.5,344.2 	"/>
	<polyline class="st6" points="500,304.8 505.8,302.4 524.2,304.8 524.2,306.8 	"/>
	<polygon class="st6" points="474.5,313.6 477.7,311 497.1,302.8 501.1,304.6 	"/>
	<polygon class="st21" points="506.9,302.1 497.1,302.8 501.1,304.6 	"/>
	<polygon class="st16" points="447.2,333.5 468.8,315.9 477.7,311 474.5,313.6 	"/>
	<polygon class="st19" points="356.8,439.5 380.7,437.8 377,445.6 	"/>
	<polygon class="st22" points="380.7,437.8 377,445.6 375.7,445.2 380.2,437.9 	"/>
	<polygon class="st8" points="460.7,439.5 439.5,447.6 441.2,448 462.2,440.7 	"/>
	<path class="st19" d="M392.4,393c1.3-0.9,13.2-14.2,13.2-14.2l19.7-9.5l-3,6L392.4,393z"/>
	<polygon class="st19" points="260,476.2 264.8,474 281.3,471.6 263.3,476.8 	"/>
	<polygon class="st10" points="273.9,472.7 324.6,454.2 356.8,439.5 330.9,457.4 277.6,472.7 	"/>
	<polygon class="st23" points="607.9,323.6 581.1,323.6 540.9,386.8 	"/>
	<g>
		<polygon class="st23" points="439.2,479.4 439.2,457.2 516.8,422.2 540.9,386.8 607.9,323.6 668.9,296.8 671.1,281.8 694.6,268.6 
			695.6,483.6 658.7,488.6 601.5,496.4 558.6,485.1 		"/>
		<g>
			<polygon class="st24" points="439.2,457.2 496.1,422 540.9,386.8 516.8,422.2 			"/>
			<polygon class="st24" points="607.9,323.6 671.1,281.8 668.9,296.8 			"/>
			<polygon class="st25" points="516.8,422.2 496.1,422 540.9,386.8 			"/>
			<polygon class="st25" points="668.9,296.8 655.5,292.1 671.1,281.8 			"/>
			<path class="st26" d="M558.6,485.1c4.5-6.8,49.3-161.5,49.3-161.5l61-26.7l-67.4,199.5L558.6,485.1z"/>
			<polygon class="st23" points="439.2,457.2 480.6,418.1 496.1,422 			"/>
			<path class="st27" d="M480.6,418.1c2.3-1.5,100.5-94.5,100.5-94.5l-40.3,63.2L496.1,422L480.6,418.1z"/>
			<polygon class="st28" points="581.1,323.6 595.8,316 620.6,315.2 607.9,323.6 			"/>
			<polygon class="st28" points="694.6,268.6 675.3,268.6 662.5,276 678.5,277.6 			"/>
			<polygon class="st23" points="620.6,315.2 662.5,276 678.5,277.6 			"/>
			<polygon class="st27" points="649.6,288 655.9,292.3 678.5,277.6 662.5,276 			"/>
		</g>
	</g>
	<g>
		<path class="st4" d="M434.7,474.8l2.8,4l-14.2,3.3l-45.6,6.3l-14.3,6.7l-24.7-3l-8.9,15.9l-31.5,8.5l-37.7-1.2l-22.1-17.7
			l-32.8-3.4l-40.6,1.4l-73.4,9.1l-26,8.8l-51.6,3L-36,503l-56.1-25c0,0,145.6-21.5,146.3-21c0.6,0.5,221.6-2.7,221.6-2.7
			L434.7,474.8"/>
		<path class="st5" d="M318.6,443.7l-28.1-16.5l-12.7-14.7l-18.4-19.8l-20.6-3.4l-20-14.7c0,0-14.7-15.5-15.8-15.8
			s-23.2-16.6-23.2-16.6L159,323.6l-19.2,42.1l42.6,99.7c0,0,41.8,7.1,42.9,6.8s86.4-13,86.4-13L318.6,443.7z"/>
		<path class="st6" d="M107.5,314c0.5,0.1,62.1-1.2,62.1-1.2l-0.5,11.3l-5.2-2.2L107.5,314z"/>
		<path class="st7" d="M254.9,446c-0.3,0.1-21.5-7.1-21.5-7.1l-46.9-74.7l-13-17.7l21.6,5.6l24.8,29.5l36.4,63.9L254.9,446z"/>
		<polygon class="st8" points="173.9,347.1 233.4,438.8 234.9,437.6 193.1,371.7 181.6,348.9 		"/>
		<path class="st9" d="M318.6,443.7l-6.9-14.2c0,0-7.3-37.3-8.5-38.4c-1.1-1.1-29.1-17-29.9-18.3c-0.8-1.2-25.4-17.6-25.4-17.6
			l-16.4-1.7l-11.6-7.3l-18.4-3.9l-21,4.6l13.1,25.9c0,0,37.3,64,41.2,64.8s59,23.4,60.4,22.6C296.8,459.4,318.6,443.7,318.6,443.7z
			"/>
		<path class="st10" d="M256.1,445.7l38.7-12.1l23.9,10.1l-1.5,5c0,0-35.2,5.7-35.6,5.6S256.1,445.7,256.1,445.7z"/>
		<path class="st8" d="M256.1,445.7l-50.8,13.7l-2-31.3l-5.9-22.9l-15-22.9l-15.5-9.4l-13.5-12.9l-0.9,0.4l25.9,45.2l15.2,57.7
			c0,0,13.8-0.4,14-0.4c0.2,0,51.1-14.7,51.1-14.7l-0.7-1.7L256.1,445.7z"/>
		<path class="st11" d="M432.3,474.9c0,0-66.4-19.2-67.2-19.5s-26.3-17.8-26.3-17.8l-21.7,6.5l-19.5-8.2l-98.5,26.3l1.4,15.2
			l237.7,2l-2.5-5.1L432.3,474.9z"/>
		<path class="st12" d="M38.5,331.6c-0.5-0.2-11.4,1.6-11.4,1.6l2.9,4.3L38.5,331.6z"/>
		<polygon class="st6" points="29.2,335.9 38.5,331.6 73.3,337.2 79.1,342.3 		"/>
		<path class="st13" d="M82.3,342.8l-52.7-7.9l3.9,27.1c0,0,37.3,16,37.8,16s13.7-21.6,13.7-21.6L82.3,342.8z"/>
		<polygon class="st8" points="150.2,358.9 163.9,321.8 107.5,314 100,338.8 80.2,339.4 67.8,374.1 127.6,429.5 166.6,386.8 		"/>
		<polygon class="st14" points="205,477.2 202.4,426.6 196.5,404.5 181.6,382.5 165.7,372.8 152.6,360.2 146.6,359.6 134.4,385.4 
			125.2,420.2 127.1,466.2 155.3,479.9 		"/>
		<polyline class="st11" points="164.3,479.4 172.1,479 166.5,457.2 126.1,416.8 125.2,420.2 164.3,457.2 164.3,479.4 		"/>
		<path class="st5" d="M259.5,347.6l-11.6,7.6l-16.4-1.7l-11.6-7.3c0,0-18.1-0.8-18.9,0c-0.8,0.8-21.7,0.8-21.7,0.8l-18.1-17.7
			l9.1-24.6c0,0,23.2-2,24.3-2s26.5,9,26.5,9l27.4,19.9L259.5,347.6z"/>
		<polygon class="st15" points="259.5,347.6 273.3,372.8 260,356.7 		"/>
		<polygon class="st16" points="247.9,355.2 273.3,372.8 260,356.7 		"/>
		<polygon class="st17" points="259.5,347.6 247.9,355.2 260,356.7 		"/>
		<path class="st8" d="M193.1,371.7c-0.1-0.2-19.2-24.6-19.2-24.6l7.2,0.9L193.1,371.7z"/>
		<polygon class="st6" points="146.6,359.6 150.2,358.9 153.5,359.9 152.6,360.2 		"/>
		<path class="st18" d="M189.7,349.1l-8.6-1.1c0,0,12.2,24.2,12,23.7C192.9,371.2,189.7,349.1,189.7,349.1z"/>
		<polygon class="st19" points="170.3,342.3 201.6,342.3 220,346.2 190.2,349.1 181.6,348.9 173.9,347.1 		"/>
		<polygon class="st20" points="73.3,337.2 100.8,336.1 100,338.8 80.2,339.4 80.2,339.4 		"/>
		<polygon class="st12" points="80.2,339.4 73.3,337.2 79.1,342.3 		"/>
		<polyline class="st6" points="195.7,302.9 189.8,300.5 171.4,302.9 171.4,304.9 		"/>
		<polygon class="st6" points="221.1,311.7 217.9,309.1 198.6,300.9 194.5,302.7 		"/>
		<polygon class="st21" points="188.7,300.2 198.6,300.9 194.5,302.7 		"/>
		<polygon class="st16" points="248.5,331.6 226.8,314 217.9,309.1 221.1,311.7 		"/>
		<polygon class="st19" points="338.8,437.6 314.9,436 318.6,443.7 		"/>
		<polygon class="st22" points="314.9,436 318.6,443.7 319.9,443.3 315.4,436 		"/>
		<polygon class="st8" points="234.9,437.6 256.1,445.7 254.4,446.1 233.4,438.8 		"/>
		<path class="st19" d="M303.2,391.1c-1.3-0.9-13.2-14.2-13.2-14.2l-19.7-9.5l3,6L303.2,391.1z"/>
		<polygon class="st19" points="435.7,474.4 430.9,472.1 414.3,469.7 432.3,474.9 		"/>
		<polygon class="st10" points="421.7,470.8 371,452.3 338.8,437.6 364.8,455.5 418,470.8 		"/>
		<polygon class="st23" points="164.3,479.4 164.3,457.2 86.8,422.2 62.7,386.8 -4.3,323.6 -65.3,296.8 -67.6,281.8 -91.1,268.6 
			-92.1,483.6 -55.2,488.6 2.1,496.4 45,485.1 		"/>
		<polygon class="st24" points="164.3,457.2 107.5,422 62.7,386.8 86.8,422.2 		"/>
		<polygon class="st25" points="86.8,422.2 107.5,422 62.7,386.8 		"/>
		<path class="st26" d="M45,485.1c-4.5-6.8-49.3-161.5-49.3-161.5l-61-26.7L2.1,496.4L45,485.1z"/>
		<polygon class="st23" points="164.3,457.2 122.9,418.1 107.5,422 		"/>
		<polygon class="st23" points="-4.3,323.6 22.4,323.6 62.7,386.8 		"/>
		<path class="st27" d="M122.9,418.1c-2.3-1.5-100.5-94.5-100.5-94.5l40.3,63.2l44.8,35.2L122.9,418.1z"/>
		<polygon class="st28" points="22.4,323.6 7.7,316 -17.1,315.2 -4.3,323.6 		"/>
	</g>
	<g>
		<polygon class="st23" points="253.4,478 253.4,455.8 175.9,420.8 111.5,322.2 84.8,322.2 23.8,295.5 21.5,280.4 -2,267.2 
			-3,482.2 33.9,487.2 91.2,495 134.1,483.7 		"/>
		<g>
			<polygon class="st24" points="253.4,455.8 196.6,420.6 151.8,385.4 175.9,420.8 			"/>
			<polygon class="st24" points="84.8,322.2 21.5,280.4 23.8,295.5 			"/>
			<polygon class="st25" points="175.9,420.8 196.6,420.6 151.8,385.4 			"/>
			<polygon class="st25" points="23.8,295.5 37.2,290.7 21.5,280.4 			"/>
			<path class="st26" d="M134.1,483.7c-4.5-6.8-49.3-161.5-49.3-161.5l-61-26.7L91.2,495L134.1,483.7z"/>
			<polygon class="st23" points="253.4,455.8 212,416.7 196.6,420.6 			"/>
			<path class="st27" d="M212,416.7c-2.3-1.5-100.5-94.5-100.5-94.5l40.3,63.2l44.8,35.2L212,416.7z"/>
			<polygon class="st28" points="111.5,322.2 96.8,314.7 72.1,313.8 84.8,322.2 			"/>
			<polygon class="st28" points="-2,267.2 17.4,267.2 30.2,274.6 14.1,276.2 			"/>
			<polygon class="st23" points="72.1,313.8 30.2,274.6 14.1,276.2 			"/>
			<polygon class="st27" points="43.1,286.6 36.7,290.9 14.1,276.2 30.2,274.6 			"/>
		</g>
	</g>
</g>
</svg>
