<?xml version="1.0" encoding="utf-8"?>
<!-- Generator: Adobe Illustrator 28.1.0, SVG Export Plug-In . SVG Version: 6.00 Build 0)  -->
<svg version="1.1" xmlns="http://www.w3.org/2000/svg" xmlns:xlink="http://www.w3.org/1999/xlink" x="0px" y="0px"
	 viewBox="0 0 694.6 544.4" style="enable-background:new 0 0 694.6 544.4;" xml:space="preserve">
<style type="text/css">
	.st0{display:none;}
	.st1{fill:#E4AB67;}
	.st2{fill:#C07658;}
	.st3{fill:#E08962;}
	.st4{fill:#B0ADA7;}
	.st5{fill:#C04343;}
	.st6{fill:#E95857;}
	.st7{fill:#9B4042;}
	.st8{fill:#A2393C;}
	.st9{fill:#DF4F4F;}
	.st10{fill:#CD4E4E;}
	.st11{fill:#BD4243;}
	.st12{fill:#CA5151;}
	.st13{fill:#872E32;}
	.st14{fill:#CC4748;}
	.st15{fill:#DD5857;}
	.st16{fill:#AF484F;}
	.st17{fill:#A04143;}
	.st18{fill:#C24848;}
	.st19{fill:#F05452;}
	.st20{fill:#D34748;}
	.st21{fill:#CC5252;}
	.st22{fill:#C44949;}
	.st23{fill:#4C1C49;}
	.st24{fill:#984892;}
	.st25{fill:#682B5F;}
	.st26{fill:#632A5E;}
	.st27{fill:#370C36;}
	.st28{fill:#AA58A2;}
	.st29{fill:none;}
</style>
<g id="Laag_1" class="st0">
	
		<image style="display:inline;overflow:visible;opacity:0.6;" width="4096" height="1714" xlink:href="../../../../DES/originalMaterial/Untitled_Artwork 2.png"  transform="matrix(0.2058 0 0 0.2058 -67.993 194.4969)">
	</image>
</g>
<g id="Laag_4">
	<circle class="st1" cx="351.2" cy="281.8" r="82.1"/>
</g>
<g id="Laag_3">
	<g>
		<rect x="140.2" y="346.2" class="st2" width="388.3" height="6.1"/>
		
			<rect x="131.9" y="327.5" transform="matrix(0.7071 -0.7071 0.7071 0.7071 -186.7991 209.8468)" class="st2" width="56" height="5.9"/>
		
			<rect x="166.2" y="327.5" transform="matrix(0.7071 -0.7071 0.7071 0.7071 -176.7589 234.086)" class="st2" width="56" height="5.9"/>
		
			<rect x="200.5" y="327.5" transform="matrix(0.7071 -0.7071 0.7071 0.7071 -166.7187 258.3251)" class="st2" width="56" height="5.9"/>
		
			<rect x="234.7" y="327.5" transform="matrix(0.7071 -0.7071 0.7071 0.7071 -156.6785 282.5643)" class="st2" width="56" height="5.9"/>
		
			<rect x="269" y="327.5" transform="matrix(0.7071 -0.7071 0.7071 0.7071 -146.6383 306.8034)" class="st2" width="56" height="5.9"/>
		
			<rect x="303.3" y="327.5" transform="matrix(0.7071 -0.7071 0.7071 0.7071 -136.5981 331.0426)" class="st2" width="56" height="5.9"/>
		
			<rect x="337.6" y="327.5" transform="matrix(0.7071 -0.7071 0.7071 0.7071 -126.5579 355.2817)" class="st2" width="56" height="5.9"/>
		
			<rect x="371.9" y="327.5" transform="matrix(0.7071 -0.7071 0.7071 0.7071 -116.5177 379.5209)" class="st2" width="56" height="5.9"/>
		
			<rect x="406.1" y="327.5" transform="matrix(0.7071 -0.7071 0.7071 0.7071 -106.4776 403.7601)" class="st2" width="56" height="5.9"/>
		
			<rect x="440.4" y="327.5" transform="matrix(0.7071 -0.7071 0.7071 0.7071 -96.4374 427.9992)" class="st2" width="56" height="5.9"/>
		
			<rect x="478.3" y="336.2" transform="matrix(0.7071 -0.7071 0.7071 0.7071 -95.0982 448.6343)" class="st2" width="31.4" height="5.9"/>
		
			<rect x="167.3" y="327.5" transform="matrix(0.7071 0.7071 -0.7071 0.7071 290.8482 -41.35)" class="st2" width="56" height="5.9"/>
		<polygon class="st2" points="177.6,351 157.9,331.2 162,327 181.8,346.8 		"/>
		
			<rect x="201.7" y="327.5" transform="matrix(0.7071 0.7071 -0.7071 0.7071 300.9203 -65.6662)" class="st2" width="56" height="5.9"/>
		
			<rect x="235.9" y="327.5" transform="matrix(0.7071 0.7071 -0.7071 0.7071 310.9169 -89.8001)" class="st2" width="56" height="5.9"/>
		
			<rect x="270.3" y="327.5" transform="matrix(0.7071 0.7071 -0.7071 0.7071 321.0061 -114.1578)" class="st2" width="56" height="5.9"/>
		
			<rect x="304.8" y="327.5" transform="matrix(0.7071 0.7071 -0.7071 0.7071 331.0954 -138.5155)" class="st2" width="56" height="5.9"/>
		
			<rect x="339.1" y="327.5" transform="matrix(0.7071 0.7071 -0.7071 0.7071 341.1434 -162.7733)" class="st2" width="56" height="5.9"/>
		
			<rect x="373.3" y="327.5" transform="matrix(0.7071 0.7071 -0.7071 0.7071 351.1742 -186.9899)" class="st2" width="56" height="5.9"/>
		
			<rect x="407.4" y="327.5" transform="matrix(0.7071 0.7071 -0.7071 0.7071 361.1615 -211.1013)" class="st2" width="56" height="5.9"/>
		
			<rect x="441.6" y="327.5" transform="matrix(0.7071 0.7071 -0.7071 0.7071 371.1681 -235.2594)" class="st2" width="56" height="5.9"/>
		
			<rect x="475.9" y="327.5" transform="matrix(0.7071 0.7071 -0.7071 0.7071 381.2097 -259.502)" class="st2" width="56" height="5.9"/>
	</g>
</g>
<g id="Layer_6">
</g>
<g id="brug">
	
		<image style="display:none;overflow:visible;" width="657" height="489" xlink:href="../../../../DES/assetsMobile/Stamp_Caïro copy.png"  transform="matrix(1 0 0 1 -895.1661 -86.2483)">
	</image>
	<g>
		<rect x="148.7" y="350.6" class="st3" width="375.2" height="6.1"/>
		
			<rect x="140.4" y="331.8" transform="matrix(0.7071 -0.7071 0.7071 0.7071 -187.4035 217.1374)" class="st3" width="56" height="5.9"/>
		
			<rect x="174.7" y="331.8" transform="matrix(0.7071 -0.7071 0.7071 0.7071 -177.3633 241.3765)" class="st3" width="56" height="5.9"/>
		
			<rect x="209" y="331.8" transform="matrix(0.7071 -0.7071 0.7071 0.7071 -167.3231 265.6157)" class="st3" width="56" height="5.9"/>
		
			<rect x="243.2" y="331.8" transform="matrix(0.7071 -0.7071 0.7071 0.7071 -157.2829 289.8548)" class="st3" width="56" height="5.9"/>
		
			<rect x="277.5" y="331.8" transform="matrix(0.7071 -0.7071 0.7071 0.7071 -147.2428 314.094)" class="st3" width="56" height="5.9"/>
		
			<rect x="311.8" y="331.8" transform="matrix(0.7071 -0.7071 0.7071 0.7071 -137.2026 338.3332)" class="st3" width="56" height="5.9"/>
		
			<rect x="346.1" y="331.8" transform="matrix(0.7071 -0.7071 0.7071 0.7071 -127.1624 362.5723)" class="st3" width="56" height="5.9"/>
		
			<rect x="380.4" y="331.8" transform="matrix(0.7071 -0.7071 0.7071 0.7071 -117.1222 386.8115)" class="st3" width="56" height="5.9"/>
		
			<rect x="414.6" y="331.8" transform="matrix(0.7071 -0.7071 0.7071 0.7071 -107.082 411.0506)" class="st3" width="56" height="5.9"/>
		
			<rect x="448.9" y="331.8" transform="matrix(0.7071 -0.7071 0.7071 0.7071 -97.0418 435.2898)" class="st3" width="56" height="5.9"/>
		
			<rect x="486.8" y="340.5" transform="matrix(0.7071 -0.7071 0.7071 0.7071 -95.7026 455.9249)" class="st3" width="31.4" height="5.9"/>
		<polygon class="st3" points="222.6,356.7 183,317.1 186.1,312.9 226.8,352.5 		"/>
		<polygon class="st3" points="186.1,355.4 166.4,335.5 170.5,331.4 190.3,351.2 		"/>
		
			<rect x="210.2" y="331.8" transform="matrix(0.7071 0.7071 -0.7071 0.7071 306.5029 -70.394)" class="st3" width="56" height="5.9"/>
		
			<rect x="244.4" y="331.8" transform="matrix(0.7071 0.7071 -0.7071 0.7071 316.4995 -94.5279)" class="st3" width="56" height="5.9"/>
		
			<rect x="278.8" y="331.8" transform="matrix(0.7071 0.7071 -0.7071 0.7071 326.5887 -118.8856)" class="st3" width="56" height="5.9"/>
		
			<rect x="313.2" y="331.8" transform="matrix(0.7071 0.7071 -0.7071 0.7071 336.678 -143.2433)" class="st3" width="56" height="5.9"/>
		
			<rect x="347.6" y="331.8" transform="matrix(0.7071 0.7071 -0.7071 0.7071 346.726 -167.5011)" class="st3" width="56" height="5.9"/>
		
			<rect x="381.8" y="331.8" transform="matrix(0.7071 0.7071 -0.7071 0.7071 356.7568 -191.7177)" class="st3" width="56" height="5.9"/>
		
			<rect x="415.9" y="331.8" transform="matrix(0.7071 0.7071 -0.7071 0.7071 366.7441 -215.8291)" class="st3" width="56" height="5.9"/>
		
			<rect x="450.1" y="331.8" transform="matrix(0.7071 0.7071 -0.7071 0.7071 376.7507 -239.9872)" class="st3" width="56" height="5.9"/>
		
			<rect x="484.3" y="331.8" transform="matrix(0.7071 0.7071 -0.7071 0.7071 386.7923 -264.2297)" class="st3" width="56" height="5.9"/>
	</g>
</g>
<g id="Laag_2">
	<path class="st4" d="M641.5,458.9c-0.6,0.5-221.6-2.7-221.6-2.7l-162.4,20.4l-2.8,4l17.7,3.5l45.6,6.3l14.3,6.7l24.7-3l8.9,15.9
		l31.5,8.5l37.7-1.2l22.1-17.7l32.8-3.4l40.6,1.4l73.4,9.1l26,8.8l51.6,3l13.1-3.5v-48.5C665.9,462.2,641.7,458.7,641.5,458.9z"/>
	<path class="st5" d="M377,445.6l28.1-16.5l12.7-14.7l18.4-19.8l20.6-3.4l20-14.7c0,0,14.7-15.5,15.8-15.8
		c1.1-0.3,23.2-16.6,23.2-16.6l20.9-18.7l19.2,42.1l-42.6,99.7c0,0-41.8,7.1-42.9,6.8c-1.1-0.3-86.4-13-86.4-13L377,445.6z"/>
	<path class="st6" d="M588.1,315.9c-0.5,0.1-62.1-1.2-62.1-1.2l0.5,11.3l5.2-2.2L588.1,315.9z"/>
	<path class="st7" d="M440.7,447.9c0.3,0.1,21.5-7.1,21.5-7.1l46.9-74.7l13-17.7l-21.6,5.6l-24.8,29.5l-36.4,63.9L440.7,447.9z"/>
	<polygon class="st8" points="521.7,349 462.2,440.7 460.7,439.5 502.5,373.6 514,350.8 	"/>
	<path class="st9" d="M377,445.6l6.9-14.2c0,0,7.3-37.3,8.5-38.4c1.1-1.1,29.1-17,29.9-18.3c0.8-1.2,25.4-17.6,25.4-17.6l16.4-1.7
		l11.6-7.3l18.4-3.9l21,4.6l-13.1,25.9c0,0-37.3,64-41.2,64.8c-4,0.8-59,23.4-60.4,22.6C398.9,461.3,377,445.6,377,445.6z"/>
	<path class="st10" d="M439.5,447.6l-38.7-12.1L377,445.6l1.5,5c0,0,35.2,5.7,35.6,5.6C414.4,456.1,439.5,447.6,439.5,447.6z"/>
	<path class="st8" d="M439.5,447.6l50.8,13.7l2-31.3l5.9-22.9l15-22.9l15.5-9.4l13.5-12.9l0.9,0.4l-25.9,45.2l-15.2,57.7
		c0,0-13.8-0.4-14-0.4S436.8,450,436.8,450l0.7-1.7L439.5,447.6z"/>
	<path class="st11" d="M263.3,476.8c0,0,66.4-19.2,67.2-19.5c0.8-0.3,26.3-17.8,26.3-17.8l21.7,6.5l19.5-8.2l98.5,26.3l-1.4,15.2
		l-237.7,2l2.5-5.1L263.3,476.8z"/>
	<path class="st12" d="M657.1,333.5c0.5-0.2,11.4,1.6,11.4,1.6l-2.9,4.3L657.1,333.5z"/>
	<polygon class="st6" points="666.4,337.8 657.1,333.5 622.3,339.1 616.5,344.2 	"/>
	<path class="st13" d="M613.4,344.7l52.7-7.9l-3.9,27.1c0,0-37.3,16-37.8,16s-13.7-21.6-13.7-21.6L613.4,344.7z"/>
	<polygon class="st8" points="545.4,360.8 531.7,323.7 588.1,315.9 595.7,340.7 615.4,341.3 627.9,376 568,431.4 529,388.7 	"/>
	<polygon class="st14" points="490.6,479.1 493.2,428.5 499.1,406.4 514.1,384.4 529.9,374.7 543,362.1 549,361.5 561.2,387.3 
		570.4,422.1 568.6,468.1 540.3,481.8 	"/>
	<polyline class="st11" points="531.3,481.3 523.5,480.8 529.1,459.1 569.5,418.7 570.4,422.1 531.3,459.1 531.3,481.3 	"/>
	<path class="st13" d="M623,294.2"/>
	<path class="st5" d="M436.1,349.5l11.6,7.6l16.4-1.7l11.6-7.3c0,0,18.1-0.8,18.9,0c0.8,0.8,21.7,0.8,21.7,0.8l18.1-17.7l-9.1-24.6
		c0,0-23.2-2-24.3-2c-1.1,0-26.5,9-26.5,9l-27.4,19.9L436.1,349.5z"/>
	<polygon class="st15" points="436.1,349.5 422.3,374.7 435.6,358.6 	"/>
	<polygon class="st16" points="447.7,357.1 422.3,374.7 435.6,358.6 	"/>
	<polygon class="st17" points="436.1,349.5 447.7,357.1 435.6,358.6 	"/>
	<path class="st8" d="M502.5,373.6c0.1-0.2,19.2-24.6,19.2-24.6l-7.2,0.9L502.5,373.6z"/>
	<polygon class="st6" points="549,361.5 545.4,360.8 542.1,361.8 543,362.1 	"/>
	<path class="st18" d="M505.9,351l8.6-1.1c0,0-12.2,24.2-12,23.7C502.7,373.1,505.9,351,505.9,351z"/>
	<polygon class="st19" points="525.4,344.2 494,344.2 475.7,348.1 505.4,351 514,350.8 521.7,349 	"/>
	<polygon class="st20" points="622.3,339.1 594.8,338 595.7,340.7 615.4,341.3 615.4,341.3 	"/>
	<polygon class="st12" points="615.4,341.3 622.3,339.1 616.5,344.2 	"/>
	<polyline class="st6" points="500,304.8 505.8,302.4 524.2,304.8 524.2,306.8 	"/>
	<polygon class="st6" points="474.5,313.6 477.7,311 497.1,302.8 501.1,304.6 	"/>
	<polygon class="st21" points="506.9,302.1 497.1,302.8 501.1,304.6 	"/>
	<polygon class="st16" points="447.2,333.5 468.8,315.9 477.7,311 474.5,313.6 	"/>
	<polygon class="st19" points="356.8,439.5 380.7,437.8 377,445.6 	"/>
	<polygon class="st22" points="380.7,437.8 377,445.6 375.7,445.2 380.2,437.9 	"/>
	<polygon class="st8" points="460.7,439.5 439.5,447.6 441.2,448 462.2,440.7 	"/>
	<path class="st19" d="M392.4,393c1.3-0.9,13.2-14.2,13.2-14.2l19.7-9.5l-3,6L392.4,393z"/>
	<polygon class="st19" points="260,476.2 264.8,474 281.3,471.6 263.3,476.8 	"/>
	<polygon class="st10" points="273.9,472.7 324.6,454.2 356.8,439.5 330.9,457.4 277.6,472.7 	"/>
	<polygon class="st23" points="607.9,323.6 581.1,323.6 540.9,386.8 	"/>
	<g>
		<polygon class="st23" points="439.2,479.4 439.2,457.2 516.8,422.2 540.9,386.8 607.9,323.6 668.9,296.8 671.1,281.8 694.6,268.6 
			695.6,483.6 658.7,488.6 601.5,496.4 558.6,485.1 		"/>
		<g>
			<polygon class="st24" points="439.2,457.2 496.1,422 540.9,386.8 516.8,422.2 			"/>
			<polygon class="st24" points="607.9,323.6 671.1,281.8 668.9,296.8 			"/>
			<polygon class="st25" points="516.8,422.2 496.1,422 540.9,386.8 			"/>
			<polygon class="st25" points="668.9,296.8 655.5,292.1 671.1,281.8 			"/>
			<path class="st26" d="M558.6,485.1c4.5-6.8,49.3-161.5,49.3-161.5l61-26.7l-67.4,199.5L558.6,485.1z"/>
			<polygon class="st23" points="439.2,457.2 480.6,418.1 496.1,422 			"/>
			<path class="st27" d="M480.6,418.1c2.3-1.5,100.5-94.5,100.5-94.5l-40.3,63.2L496.1,422L480.6,418.1z"/>
			<polygon class="st28" points="581.1,323.6 595.8,316 620.6,315.2 607.9,323.6 			"/>
			<polygon class="st28" points="694.6,268.6 675.3,268.6 662.5,276 678.5,277.6 			"/>
			<polygon class="st23" points="620.6,315.2 662.5,276 678.5,277.6 			"/>
			<polygon class="st27" points="649.6,288 655.9,292.3 678.5,277.6 662.5,276 			"/>
		</g>
	</g>
	<polygon class="st29" points="318.6,443.7 318.6,443.7 318.6,443.7 	"/>
	<path class="st29" d="M338.8,437.6c0,0,3.5,2.4,8,5.5L338.8,437.6z"/>
	<polygon class="st29" points="319.9,443.3 338.8,437.6 319.9,443.3 	"/>
	<path class="st29" d="M418,470.8L418,470.8L418,470.8c5.1,1.5,9.3,2.7,11.8,3.4l0,0L418,470.8z"/>
	<path class="st4" d="M432.3,474.9L432.3,474.9C432.2,474.9,432.3,474.9,432.3,474.9z"/>
	<path class="st4" d="M429.8,474.2L429.8,474.2c1.1,0.3,1.9,0.5,2.3,0.7L429.8,474.2z"/>
	<path class="st4" d="M200.5,477.4l-28.4,1.5l-7.8,0.5v-0.1l-9,0.5l-28.3-13.7l-0.4-9.8c-39.9,0.5-72.3,0.9-72.5,0.7
		c-0.3-0.2-26.2,3.4-56.1,7.8v47.3l16.1,4.3l51.6-3l26-8.8l73.4-9.1l40.6-1.4l32.8,3.4l22.1,17.7l37.7,1.2l31.5-8.5l8.9-15.9l24.7,3
		l14.3-6.7l45.6-6.3l11.6-2.7L200.5,477.4z"/>
	<path class="st5" d="M167,372.8l15.5,9.4l15,22.9l5.9,22.9l1.7,27.3c5.5-0.1,10.8-0.2,15.9-0.2l35.1-9.4l0,0l-1.2,0.3l0,0h0
		l-0.4,0.1l-21-7.3l-59.3-91.5l-0.6-0.9l0,0l-3.2-4.2h4.2l-13.3-13l-10.9,29.6l3.3,1L167,372.8z"/>
	<path class="st5" d="M256.1,445.7C256.1,445.7,256.1,445.7,256.1,445.7L256.1,445.7L256.1,445.7z"/>
	<path class="st5" d="M256.3,445.8l0.7,0.3C256.8,446,256.6,445.9,256.3,445.8z"/>
	<path class="st5" d="M221,455.1c-5.1,0.1-10.4,0.1-15.9,0.2l0.3,4L221,455.1z"/>
	<path class="st6" d="M167.2,312.8c-11.3,0.2-59.4,1.2-59.8,1.2l56.4,7.8L167.2,312.8z"/>
	<polygon class="st7" points="173.5,346.5 173.5,346.5 174.1,347.4 173.9,347.1 	"/>
	<polygon class="st7" points="182.5,350.7 182.2,350 182.2,350 	"/>
	<polygon class="st7" points="181.6,348.9 181.8,349.2 181.8,349.2 181.6,348.9 	"/>
	<polygon class="st7" points="254.9,446 254.9,446 254.9,446 	"/>
	<path class="st7" d="M256.1,445.7c-10.6-4.2-19.6-7.7-21.2-8L256.1,445.7L256.1,445.7z"/>
	<polygon class="st8" points="174.1,347.4 233.4,438.8 186.5,364.2 	"/>
	<path class="st8" d="M184.9,355.3C184.9,355.3,184.9,355.3,184.9,355.3l-0.8-1.6c0,0,0-0.1-0.1-0.1L184.9,355.3z"/>
	<path class="st8" d="M183,351.6c0-0.1-0.1-0.1-0.1-0.2l-0.3-0.7l-0.4-0.8c0,0,0-0.1,0-0.1L183,351.6z"/>
	<polygon class="st8" points="186,357.6 185.8,357.2 185.8,357.2 	"/>
	<path class="st8" d="M183.9,353.4c0-0.1-0.1-0.2-0.1-0.3l-0.4-0.9c0-0.1-0.1-0.2-0.1-0.2L183.9,353.4z"/>
	<path class="st8" d="M193.7,372.8l-0.6-1.1c-0.1-0.2-19.2-24.6-19.2-24.6l0.2,0.3l12.4,16.8l46.9,74.7l1.5-1.2
		C231,436.8,193.7,372.8,193.7,372.8z"/>
	<path class="st8" d="M181.8,349.2l-0.1-0.3l0,0L181.8,349.2C181.8,349.3,181.8,349.2,181.8,349.2z"/>
	<path class="st9" d="M273,372.6l-25.1-17.4l-16.4-1.7l-11.6-7.3l-29.7,2.9l-0.5,0l0.1,0c0,0,0,0.2,0.1,0.5c0.8,0.6,1.6,1.2,2.4,1.8
		l2.9,0.7l2.8,3.3c2.8,2,4.8,3.4,5.1,3.4c1.1,0.3,15.8,15.8,15.8,15.8l20,14.7l20.6,3.4l18.4,19.8l12.7,14.7l28.1,16.5l-6.9-14.2
		c0,0-7.3-37.3-8.5-38.4l-29.9-17.7L273,372.6z"/>
	<path class="st9" d="M303,390.9c0.1,0.1,0.1,0.1,0.2,0.2C303.2,391,303.1,391,303,390.9z"/>
	<path class="st9" d="M277.8,412.5l-18.4-19.8l-20.6-3.4l-20-14.7c0,0-14.7-15.5-15.8-15.8c-0.3-0.1-2.4-1.5-5.1-3.4l22.1,26.2
		l36.4,63.9l38.4-12l23.9,10.1l-28.1-16.5L277.8,412.5z"/>
	<path class="st9" d="M256.1,445.7L256.1,445.7l0.3-0.1L256.1,445.7C256.1,445.7,256.1,445.7,256.1,445.7z"/>
	<path class="st9" d="M257.1,446.1l1.1,0.4l0,0l0.2,0c-1.4-0.5-2.2-0.8-2.2-0.8l0.3,0.1C256.6,445.9,256.8,446,257.1,446.1z"/>
	<polygon class="st9" points="256.1,445.7 256.1,445.7 256.1,445.7 	"/>
	<path class="st9" d="M192.3,351.4c-0.8-0.6-1.6-1.2-2.4-1.8c0,0.3,0.1,0.7,0.2,1.2L192.3,351.4z"/>
	<path class="st9" d="M195.1,352.1l-2.9-0.7c2,1.4,3.9,2.8,5.6,4L195.1,352.1z"/>
	<path class="st9" d="M181.8,349.2c0-0.1-0.1-0.2-0.1-0.3l0,0L181.8,349.2z"/>
	<path class="st9" d="M185.9,357.3l2.2,4.3C187.3,360.2,186.6,358.7,185.9,357.3z"/>
	<path class="st9" d="M188.6,362.7l2.2,4.3C190.1,365.8,189.4,364.3,188.6,362.7z"/>
	<path class="st9" d="M184.1,353.8l0.7,1.4C184.6,354.7,184.3,354.3,184.1,353.8z"/>
	<path class="st9" d="M191.5,368.5l0.8,1.5C192.1,369.6,191.8,369.1,191.5,368.5z"/>
	<path class="st9" d="M183.3,352.3l0.4,0.7C183.6,352.8,183.5,352.5,183.3,352.3z"/>
	<path class="st9" d="M182.9,351.4c-0.3-0.5-0.5-1-0.7-1.4l0.4,0.7L182.9,351.4z"/>
	<path class="st9" d="M193.1,371.7l41.8,66c1.5,0.3,10.5,3.8,21.2,8l0.3-0.1l0,0L220,381.7l-22.1-26.2c-1.7-1.2-3.6-2.6-5.6-4
		l-2.3-0.6C190.7,356,192.9,371.3,193.1,371.7z"/>
	<path class="st9" d="M192.7,370.8l0.3,0.6C192.9,371.3,192.8,371.1,192.7,370.8z"/>
	<path class="st9" d="M193.1,371.7c0,0,0,0-0.1-0.1L193.1,371.7z"/>
	<path class="st9" d="M193.7,372.8c0,0,37.3,64,41.2,64.8l-41.8-66l0,0L193.7,372.8z"/>
	<polygon class="st9" points="193.1,371.6 193.1,371.7 193.1,371.6 	"/>
	<path class="st9" d="M183.8,353.1C183.7,353.1,183.7,353.1,183.8,353.1l-0.4-0.8c0,0,0,0,0,0L183.8,353.1z"/>
	<path class="st9" d="M190.8,367.1C190.8,367.1,190.8,367.1,190.8,367.1l-2.2-4.4c0,0,0-0.1,0-0.1L190.8,367.1z"/>
	<path class="st9" d="M184.8,355.3C184.8,355.2,184.8,355.2,184.8,355.3l-0.7-1.5c0,0,0,0,0-0.1L184.8,355.3z"/>
	<path class="st9" d="M186,357.6l2.1,4.2c0,0,0-0.1-0.1-0.1l-2.2-4.3c0,0,0,0,0-0.1L186,357.6z"/>
	<polygon class="st9" points="193,371.4 193,371.4 192.7,370.8 192.7,370.8 	"/>
	<path class="st9" d="M192.3,370C192.3,370,192.3,370,192.3,370l-0.8-1.5c0,0,0,0,0,0L192.3,370z"/>
	<path class="st9" d="M182.9,351.4C182.9,351.4,182.9,351.4,182.9,351.4l-0.3-0.7L182.9,351.4z"/>
	<polygon class="st10" points="318.6,443.7 318.6,443.7 318.6,443.7 	"/>
	<polygon class="st10" points="318.6,443.7 318.6,443.7 318.6,443.7 	"/>
	<path class="st10" d="M256.4,445.6L256.4,445.6L256.4,445.6l-0.3,0.1c0,0,0.8,0.3,2.2,0.8l39.3-10.5l19.5,8.2l1.6-0.5l0,0
		l-23.9-10.1L256.4,445.6z"/>
	<polygon class="st10" points="256.4,445.6 256.4,445.6 256.4,445.6 	"/>
	<path class="st8" d="M226,455l32.1-8.6c-0.4-0.1-0.7-0.3-1.1-0.4l-0.7-0.3c-0.1,0-0.2-0.1-0.3-0.1l-35.1,9.4
		C222.7,455.1,224.4,455.1,226,455z"/>
	<path class="st8" d="M181.6,382.5l15,22l5.9,22.1l1.4,28.7c0.4,0,0.8,0,1.2,0l-1.7-27.3l-5.9-22.9l-15-22.9l-15.5-9.4l-13.5-12.9
		l-0.9,0.4l13.2,12.6L181.6,382.5z"/>
	<path class="st8" d="M204.2,460.8L226,455c-1.6,0-3.3,0-5,0.1l-15.7,4.2l-0.3-4c-0.4,0-0.8,0-1.2,0L204.2,460.8z"/>
	<path class="st8" d="M258.1,446.5L258.1,446.5l-1.1-0.4C257.4,446.2,257.8,446.3,258.1,446.5L258.1,446.5z"/>
	<path class="st8" d="M256.3,445.8l-0.3-0.1h0C256.2,445.7,256.3,445.7,256.3,445.8z"/>
	<path class="st11" d="M319.9,443.3l-1.3,0.3l0,0l-1.5,5c0,0-0.3,0-0.8,0.1l-4.6,10.2l118,15.2c-2.5-0.7-6.7-1.9-11.8-3.4
		l-53.2-15.3l-17.9-12.3c-4.5-3.1-8-5.5-8-5.5L319.9,443.3L319.9,443.3z"/>
	<polygon class="st11" points="434.7,474.8 437.6,478.8 434.9,479.4 438.2,479.4 435.7,474.4 433.6,474.7 	"/>
	<path class="st11" d="M434.7,474.8l-1.1-0.1l-1.4,0.2c0,0,0,0-0.1,0l-0.1,0c-0.4-0.1-1.1-0.3-2.3-0.7l-118-15.2l-0.1,0.1
		c0,0-85.3,12.7-86.4,13c-0.5,0.1-10.5-1.4-20.7-3.1l0.4,8.2l-4.5,0.2l234.4,2l2.6-0.6L434.7,474.8z"/>
	<path class="st11" d="M235.4,454.9c23.9-0.3,40.3-0.6,40.3-0.6l3.8,0.5c-6.5-2.5-14.2-5.5-21.4-8.3l0.7,1.7
		C258.8,448.1,247.5,451.4,235.4,454.9z"/>
	<path class="st11" d="M299.5,457.4l12.3,1.6l4.6-10.2c-1.2,0.2-3.4,0.6-6.3,1C306.5,452.4,302.4,455.3,299.5,457.4z"/>
	<path class="st11" d="M295.3,460.2c-0.5,0.3-7.1-2.1-15.8-5.4l-3.8-0.5c0,0-16.4,0.2-40.3,0.6c-13.4,3.9-27.6,8-27.7,8
		c-0.1,0-1.5,0-3.5,0.1l0.3,6.1c10.2,1.7,20.2,3.2,20.7,3.1c1.1-0.3,86.4-13,86.4-13l0.1-0.1l-12.3-1.6
		C297.3,458.9,295.7,460,295.3,460.2z"/>
	<path class="st11" d="M258.1,446.5c7.2,2.8,14.9,5.8,21.4,8.3l19.9,2.6c2.9-2.1,7-5,10.6-7.6c-10.3,1.7-28.2,4.6-28.5,4.5
		c-0.3-0.1-17.1-5.8-23.3-7.9L258.1,446.5L258.1,446.5z"/>
	<path class="st11" d="M295.3,460.2c0.3-0.2,1.9-1.3,4.1-2.9l-19.9-2.6C288.2,458.1,294.9,460.5,295.3,460.2z"/>
	<path class="st11" d="M317.2,448.7l1.5-5l0,0l-2.3,5.1C316.9,448.7,317.2,448.7,317.2,448.7z"/>
	<path class="st11" d="M316.3,448.8l2.3-5.1l0,0c0,0-3.9,2.8-8.6,6.1C312.9,449.4,315.2,449,316.3,448.8z"/>
	<path class="st11" d="M310.1,449.8c4.6-3.3,8.6-6.1,8.6-6.1l-1.6,0.5l-19.5-8.2l-39.3,10.5c6.2,2.1,23,7.8,23.3,7.9
		C281.9,454.4,299.8,451.5,310.1,449.8z"/>
	<path class="st11" d="M226,455c3.3,0,6.4-0.1,9.4-0.1c12-3.5,23.4-6.8,23.4-6.8l-0.7-1.7c0,0,0,0,0,0L226,455z"/>
	<path class="st11" d="M204.2,460.8l0.1,2.1c1.9,0,3.4-0.1,3.5-0.1c0.1,0,14.3-4.1,27.7-8c-3,0-6.2,0.1-9.4,0.1L204.2,460.8z"/>
	<polygon class="st11" points="258.1,446.5 258.1,446.5 258.1,446.5 	"/>
	<path class="st12" d="M29.2,335.9l0.5-0.2l-0.1-0.8l-1.2-1.9c-0.7,0.1-1.2,0.2-1.2,0.2l2.8,4.1l-0.2-1.3L29.2,335.9z"/>
	<path class="st12" d="M38.5,331.6c-0.3-0.1-3.7,0.4-6.8,0.8c0.5,0.5,1.1,1,1.6,1.5L38.5,331.6z"/>
	<path class="st6" d="M35.2,335.7l43.9,6.6v0l-5.9-5.1l-34.7-5.6l-4.4,3C34.5,335,34.8,335.4,35.2,335.7z"/>
	<path class="st6" d="M34.1,334.7l4.4-3l-5.1,2.4C33.6,334.2,33.9,334.4,34.1,334.7z"/>
	<polygon class="st6" points="29.2,335.9 29.7,336 29.7,335.7 	"/>
	<path class="st13" d="M36.4,336.9c8.9,8.4,21,19.9,33.4,31.5l9.3-26.1L36.4,336.9z"/>
	<polygon class="st13" points="29.6,334.9 29.7,335.7 30,335.5 	"/>
	<polygon class="st13" points="30.9,336.9 30.4,336.1 29.7,336 29.9,337.3 30.1,337.5 	"/>
	<path class="st13" d="M79.1,342.3l-43.9-6.6c0.4,0.4,0.8,0.8,1.2,1.2L79.1,342.3L79.1,342.3z"/>
	<polygon class="st13" points="29.7,335.7 29.7,336 30.4,336.1 30,335.5 	"/>
	<path class="st8" d="M79.1,342.3l3.1,0.5l2.8,13.6c0,0-6.3,10.2-10.3,16.6c23.9,22.5,47.1,44.3,48.2,45l2.3,2.2l0.9-3.4l0,0
		l8.3-31.4l7.3-15.4l-1.9-4.4l19.2-42.1l3.2,2.9l1.7-4.7l-56.4-7.8l-7.5,24.8l-19.8,0.6L79.1,342.3z"/>
	<polygon class="st8" points="150.2,358.9 161.1,329.3 161.1,329.3 162.2,326.5 159,323.6 139.8,365.6 141.6,370.1 146.6,359.6 	"/>
	<polygon class="st8" points="79.1,342.3 79.1,342.3 79.1,342.3 	"/>
	<path class="st8" d="M85.1,356.4l-2.8-13.6l-3.1-0.5l0,0h0l-9.3,26.1c1.6,1.5,3.3,3.1,4.9,4.6C78.8,366.7,85.1,356.4,85.1,356.4z"
		/>
	<rect x="79.1" y="342.3" class="st8" width="0" height="0"/>
	<path class="st14" d="M132.9,423.7l32.2,32.2c4.4-0.1,8.8-0.1,13.1-0.2l-23.8-55.6L132.9,423.7z"/>
	<path class="st14" d="M126,439.9l0.7,16.5c11.2-0.1,23-0.3,34.8-0.5L126,439.9z"/>
	<path class="st14" d="M155.3,479.9l9-0.5v-22.2l-2.9-1.3c-11.8,0.2-23.6,0.3-34.8,0.5l0.4,9.8L155.3,479.9z"/>
	<path class="st14" d="M199.6,468.2c-9.1-1.5-17.2-2.9-17.2-2.9l-4.1-9.6c-4.4,0.1-8.7,0.1-13.1,0.2l1.3,1.3l5.6,21.7l0,0l28.4-1.5
		h0L199.6,468.2z"/>
	<path class="st14" d="M178.4,405.5l-25.9-45.2l-1.7-0.2l15.7,26.8l-12.1,13.2l23.8,55.6c4.5-0.1,9-0.1,13.4-0.2L178.4,405.5z"/>
	<path class="st14" d="M193.7,463.2l-2-7.7c-4.4,0.1-8.9,0.1-13.4,0.2l4.1,9.6c0,0,8.1,1.4,17.2,2.9l-0.5-5.1
		C196.2,463.1,193.7,463.2,193.7,463.2z"/>
	<path class="st14" d="M202.4,426.6l-5.9-22.1l-15-22l-15.8-9.7l-13.2-12.6l25.9,45.2l13.2,50.1c4.1-0.1,8.2-0.1,12.2-0.2
		L202.4,426.6z"/>
	<path class="st14" d="M204.2,460.8l-0.3-5.5c-4,0.1-8.1,0.1-12.2,0.2l2,7.7c0,0,2.5-0.1,5.4-0.1l-0.1-0.8L204.2,460.8z"/>
	<path class="st14" d="M204.6,469c-1.7-0.3-3.3-0.5-5-0.8l0.9,9.2h0l4.5-0.2L204.6,469z"/>
	<path class="st14" d="M199.1,463.1l0.5,5.1c1.6,0.3,3.3,0.5,5,0.8l-0.3-6.1C202.7,463,200.9,463,199.1,463.1z"/>
	<path class="st14" d="M199.1,462.2l0.1,0.8c1.7,0,3.6-0.1,5.1-0.1l-0.1-2.1L199.1,462.2z"/>
	<polygon class="st14" points="154.5,400.1 141.6,370.1 134.4,385.4 126.1,416.8 132.9,423.7 	"/>
	<polygon class="st14" points="166.6,386.8 150.9,360 146.6,359.6 141.6,370.1 154.5,400.1 	"/>
	<polygon class="st11" points="164.3,479.4 172.1,479 164.3,479.4 	"/>
	<rect x="125.7" y="416.8" class="st11" width="0" height="3.5"/>
	<path class="st11" d="M131,425.7l31.9,30.2c0.7,0,1.5,0,2.2,0l-32.2-32.2L131,425.7z"/>
	<path class="st11" d="M166.5,457.2l-1.3-1.3c-0.7,0-1.5,0-2.2,0l1.4,1.3v22.2l7.8-0.4l0,0L166.5,457.2z"/>
	<polygon class="st11" points="131,425.7 132.9,423.7 126.1,416.8 125.2,420.2 	"/>
	<path class="st5" d="M169.1,324l-5.2-2.2l-1.7,4.7l17.7,15.8h21.7l18.4,3.9l11.6,7.3l16.4,1.7l11.6-7.6l-11-16l-27.4-19.9
		l-25.7-8.8l-24,2v-0.3c-0.7,0.1-1.1,0.1-1.1,0.1l-3,8.1c1.5,0,2.4,0,2.4,0L169.1,324z"/>
	<polygon class="st5" points="174.5,342.3 179.9,342.3 162.2,326.5 161.1,329.3 	"/>
	<path class="st5" d="M163.9,321.8l5.2,2.2l0.5-11.3c0,0-0.9,0-2.4,0L163.9,321.8L163.9,321.8z"/>
	<rect x="163.1" y="321.7" class="st5" width="0" height="5"/>
	
		<rect x="160.2" y="327.9" transform="matrix(0.3468 -0.9379 0.9379 0.3468 -201.9361 365.7907)" class="st5" width="3" height="0"/>
	<polygon class="st15" points="272.7,372.1 270.3,367.3 259.5,347.6 260,356.7 	"/>
	<path class="st16" d="M272.7,372.1L260,356.7l-12.1-1.5c0,0,21.6,14.4,25,17.2L272.7,372.1z"/>
	<path class="st16" d="M272.9,372.4c-3.4-2.8-25-17.2-25-17.2l25.1,17.4L272.9,372.4z"/>
	<polygon class="st17" points="260,356.7 259.5,347.6 247.9,355.2 	"/>
	<path class="st8" d="M192.4,370.3C192.4,370.3,192.4,370.3,192.4,370.3l-1.1-2.1c0,0,0,0,0-0.1l-2.8-5.6c-0.1-0.2-0.2-0.4-0.3-0.6
		l-2.2-4.3l-0.2-0.3c-0.3-0.6-0.6-1.3-1-1.9l-0.9-1.7c0-0.1-0.1-0.2-0.1-0.3l-0.7-1.4c-0.1-0.2-0.2-0.3-0.2-0.5l-0.8-1.7
		c-0.1-0.2-0.2-0.4-0.3-0.6l-0.2-0.3l-7.7-1.9c0,0,19.1,24.4,19.2,24.6l-0.1-0.2c0,0,0,0,0,0L192.4,370.3z"/>
	<path class="st8" d="M192.4,370.3c0-0.1-0.1-0.2-0.1-0.2l-0.8-1.5c-0.1-0.1-0.1-0.2-0.2-0.3L192.4,370.3z"/>
	<path class="st8" d="M191.3,368.1c-0.2-0.3-0.3-0.7-0.5-1l-2.3-4.5c0,0,0-0.1-0.1-0.1L191.3,368.1z"/>
	<path class="st8" d="M193,371.5l0.1,0.2l0,0L193,371.5C193.1,371.5,193,371.5,193,371.5z"/>
	<path class="st8" d="M193,371.5C193,371.5,193,371.4,193,371.5l-0.3-0.7c-0.1-0.2-0.2-0.3-0.3-0.5L193,371.5z"/>
	<path class="st8" d="M188.1,361.8l-2.1-4.2l2.2,4.3C188.2,361.8,188.1,361.8,188.1,361.8z"/>
	<polygon class="st6" points="153.5,359.9 150.2,358.9 150.9,360 152.6,360.2 	"/>
	<polygon class="st6" points="146.6,359.6 150.9,360 150.2,358.9 	"/>
	<polygon class="st18" points="182.2,350 182.2,350 181.8,349.2 181.8,349.2 	"/>
	<path class="st18" d="M182.1,349.9C182.1,349.9,182.2,349.9,182.1,349.9l-0.3-0.7c0,0,0,0,0,0.1L182.1,349.9z"/>
	<path class="st18" d="M183.2,352c0,0.1,0.1,0.2,0.1,0.2l-0.4-0.9c0,0.1,0.1,0.1,0.1,0.2L183.2,352z"/>
	<path class="st18" d="M184,353.6c0,0,0,0.1,0.1,0.1l-0.3-0.6c0,0.1,0.1,0.2,0.1,0.3L184,353.6z"/>
	<path class="st18" d="M185.8,357.2C185.8,357.2,185.8,357.2,185.8,357.2l-1-2c0,0,0,0,0,0.1L185.8,357.2z"/>
	<path class="st18" d="M189.8,349.6c0-0.3-0.1-0.5-0.1-0.5l-0.1,0l-0.6,0C189.3,349.2,189.6,349.4,189.8,349.6z"/>
	<path class="st18" d="M183,349l7,1.8c-0.1-0.5-0.1-0.9-0.2-1.2c-0.3-0.2-0.5-0.4-0.8-0.6L183,349z"/>
	<path class="st18" d="M181.8,349.2l0.4,0.8c0.2,0.4,0.5,0.9,0.7,1.4l0.5,0.9c0.1,0.2,0.2,0.5,0.4,0.7l0.4,0.8
		c0.2,0.4,0.5,0.9,0.7,1.4l1.1,2.1c0.7,1.4,1.5,2.9,2.2,4.3l0.5,1.1c0.8,1.6,1.5,3,2.2,4.3l0.7,1.5c0.3,0.6,0.5,1.1,0.8,1.5l0.4,0.8
		c0.1,0.3,0.2,0.4,0.3,0.6l0.1,0.2c0,0.1,0.1,0.1,0.1,0.1c-0.2-0.4-2.4-15.7-3.1-20.9l-7-1.8l-1.3,0
		C181.7,349,181.7,349.1,181.8,349.2z"/>
	<path class="st18" d="M191.5,368.5C191.5,368.5,191.5,368.5,191.5,368.5l-0.7-1.4c0,0,0,0,0,0.1L191.5,368.5z"/>
	<path class="st18" d="M188.6,362.6C188.6,362.7,188.6,362.7,188.6,362.6l-0.5-1c0,0,0,0.1,0.1,0.1L188.6,362.6z"/>
	<path class="st18" d="M183.3,352.3C183.3,352.3,183.3,352.3,183.3,352.3l-0.4-0.9c0,0,0,0,0,0L183.3,352.3z"/>
	<path class="st18" d="M184.1,353.8C184.1,353.8,184.1,353.8,184.1,353.8l-0.4-0.7c0,0,0,0.1,0,0.1L184.1,353.8z"/>
	<path class="st18" d="M185.8,357.2C185.8,357.3,185.9,357.3,185.8,357.2l-1-2c0,0,0,0.1,0,0.1L185.8,357.2z"/>
	<polygon class="st18" points="193.1,371.6 193.1,371.6 193,371.4 193,371.4 	"/>
	<polygon class="st18" points="192.7,370.8 192.7,370.8 192.3,370 192.3,370 	"/>
	<path class="st18" d="M188.5,362.5l-0.3-0.6C188.3,362.1,188.4,362.3,188.5,362.5z"/>
	<path class="st18" d="M185.8,357.2l-1-1.9C185.2,356,185.5,356.6,185.8,357.2z"/>
	<path class="st18" d="M191.4,368.2L191.4,368.2C191.3,368.1,191.3,368.2,191.4,368.2z"/>
	<path class="st18" d="M193,371.5L193,371.5C193,371.5,193,371.5,193,371.5z"/>
	<path class="st18" d="M183.2,352l-0.2-0.5C183,351.7,183.1,351.9,183.2,352z"/>
	<path class="st18" d="M184,353.6l-0.1-0.3C183.9,353.5,184,353.6,184,353.6z"/>
	<path class="st18" d="M182.1,349.9l-0.3-0.6C181.9,349.5,182,349.7,182.1,349.9z"/>
	<path class="st18" d="M192.4,370.3L192.4,370.3C192.4,370.3,192.4,370.3,192.4,370.3z"/>
	<path class="st18" d="M191.4,368.2c0.1,0.1,0.1,0.2,0.2,0.3l-0.7-1.4C191,367.5,191.2,367.8,191.4,368.2L191.4,368.2z"/>
	<path class="st18" d="M192.4,370.3c0.1,0.2,0.2,0.4,0.3,0.5l-0.4-0.8C192.3,370.1,192.4,370.2,192.4,370.3L192.4,370.3z"/>
	<path class="st18" d="M193,371.5L193,371.5C193,371.5,193.1,371.5,193,371.5L193,371.5C193,371.4,193,371.5,193,371.5z"/>
	<path class="st18" d="M188.5,362.5c0,0,0,0.1,0.1,0.1l-0.5-0.9c0,0,0,0.1,0.1,0.1L188.5,362.5z"/>
	<path class="st19" d="M181.3,348.3l-0.1-0.3c0,0,0,0,0,0L181.3,348.3C181.3,348.3,181.3,348.3,181.3,348.3z"/>
	<path class="st19" d="M173.5,346.5l3.8,1l3.8,0.5l0,0l-0.5-1c-0.9,0-1.4,0-1.4,0l-4.8-4.7h-4.2L173.5,346.5z"/>
	<polygon class="st19" points="177.3,347.5 173.5,346.5 173.9,347.1 	"/>
	<path class="st19" d="M181.6,348.9L181.6,348.9L181.6,348.9L181.6,348.9c-0.1-0.1-0.1-0.1-0.1-0.2L181.6,348.9z"/>
	<path class="st19" d="M201,346.2c-0.5,0.5-8.7,0.7-14.8,0.8c0.9,0.6,1.8,1.3,2.8,2l0.7,0.1l0.5,0l29.7-2.9
		C220,346.2,201.9,345.3,201,346.2z"/>
	<path class="st19" d="M188.9,349c-1-0.7-1.9-1.4-2.8-2c-2.3,0-4.3,0-5.5,0l0.5,1L188.9,349z"/>
	<path class="st19" d="M181.2,348l0.1,0.3C181.2,348.1,181.2,348,181.2,348z"/>
	<path class="st19" d="M181.6,348.9C181.6,348.9,181.6,348.9,181.6,348.9L181.6,348.9L181.6,348.9z"/>
	<path class="st19" d="M201.6,342.3h-21.7c0,0,2.1,1.5,5,3.7L201.6,342.3z"/>
	<path class="st19" d="M179.3,347c0,0,0.5,0,1.4,0l0-0.1l4.2-0.9c-2.9-2.1-5-3.7-5-3.7h-5.4L179.3,347z"/>
	<path class="st19" d="M186.2,347c6.2-0.1,14.3-0.3,14.8-0.8c0.8-0.8,18.9,0,18.9,0l-18.4-3.9l-16.7,3.7
		C185.3,346.3,185.7,346.6,186.2,347z"/>
	<path class="st19" d="M184.9,346l-4.2,0.9l0,0.1c1.3,0,3.3,0,5.5,0C185.7,346.6,185.3,346.3,184.9,346z"/>
	<path class="st19" d="M181.3,348.3l-0.2-0.4l-3.8-0.5l4.2,1.1C181.4,348.5,181.4,348.4,181.3,348.3z"/>
	<path class="st19" d="M181.6,348.9l-0.1-0.2c0-0.1-0.1-0.2-0.1-0.2l-4.2-1.1l-3.4-0.4L181.6,348.9z"/>
	<path class="st19" d="M181.5,348.6L181.5,348.6l-0.1-0.3c0,0,0,0,0,0.1L181.5,348.6z"/>
	<path class="st19" d="M181.1,348L181.1,348C181.1,348,181.2,348,181.1,348L181.1,348z"/>
	<path class="st19" d="M181.6,348.8C181.6,348.8,181.6,348.8,181.6,348.8l-0.1-0.2l0,0L181.6,348.8z"/>
	<path class="st19" d="M189.1,349.1l0.6,0l-0.7-0.1C189,349,189,349,189.1,349.1z"/>
	<path class="st19" d="M181.2,348c0,0,0.1,0.1,0.1,0.3l0.1,0.3l1.5,0.4l6.1,0.1c0,0-0.1-0.1-0.1-0.1L181.2,348L181.2,348z"/>
	<path class="st19" d="M181.6,348.9C181.6,348.9,181.6,348.9,181.6,348.9l1.4,0.1l-1.5-0.4L181.6,348.9z"/>
	<path class="st19" d="M181.3,348.3c0,0.1,0.1,0.1,0.1,0.2l0,0L181.3,348.3z"/>
	<path class="st19" d="M181.5,348.6c0,0.1,0.1,0.1,0.1,0.2L181.5,348.6L181.5,348.6z"/>
	<polygon class="st20" points="100,338.8 100.8,336.1 73.3,337.2 80.2,339.4 	"/>
	<polygon class="st12" points="80.2,339.4 73.3,337.2 79.1,342.3 	"/>
	<polygon class="st12" points="79.1,342.3 80.2,339.4 79.1,342.3 79.1,342.3 	"/>
	<polygon class="st12" points="79.1,342.3 79.1,342.3 79.1,342.3 	"/>
	<path class="st6" d="M189.4,300.5l-18,2.4v1.6c4.6-0.4,22.2-1.9,23.2-1.9L189.4,300.5z"/>
	<path class="st6" d="M195.3,303l-0.8-0.3c-1,0-18.5,1.5-23.2,1.9v0.3L195.3,303z"/>
	<path class="st6" d="M195.7,302.9L195.7,302.9c4.8,1.5,25.4,8.8,25.4,8.8l-3.2-2.6l-19.3-8.2l-3.8,1.6L195.7,302.9z"/>
	<path class="st6" d="M195.3,303l25.7,8.8c0,0-20.6-7.3-25.5-8.8L195.3,303z"/>
	<path class="st6" d="M195.7,302.9l-0.9-0.4l-0.3,0.1C194.7,302.7,195,302.8,195.7,302.9L195.7,302.9z"/>
	<path class="st6" d="M194.5,302.7l0.8,0.3l0.2,0C195,302.8,194.7,302.7,194.5,302.7z"/>
	<polygon class="st21" points="194.8,302.6 198.6,300.9 188.7,300.2 189.4,300.5 189.8,300.5 	"/>
	<polygon class="st21" points="194.8,302.6 189.8,300.5 189.4,300.5 194.5,302.7 	"/>
	<polygon class="st16" points="248.5,331.6 226.8,314 217.9,309.1 221.1,311.7 	"/>
	<polygon class="st19" points="338.8,437.6 315.4,436 319.9,443.3 	"/>
	<polygon class="st22" points="315.4,436 314.9,436 315.4,436 	"/>
	<rect x="319.3" y="442.8" class="st22" width="0" height="1.3"/>
	<polygon class="st22" points="319.9,443.3 318.6,443.7 319.9,443.3 	"/>
	<polygon class="st22" points="315.4,436 314.9,436 318.6,443.7 319.9,443.3 	"/>
	<path class="st8" d="M254.4,446.1l0.4-0.1c-0.3,0.1-21.5-7.1-21.5-7.1L254.4,446.1z"/>
	<polygon class="st8" points="254.9,446 256.1,445.7 256.1,445.7 256.1,445.7 	"/>
	<path class="st8" d="M254.9,446L254.9,446l1.2-0.3l-21.2-8l-1.5,1.2C233.4,438.8,254.6,446.1,254.9,446z"/>
	<polygon class="st8" points="256.1,445.7 256.1,445.7 256.1,445.7 	"/>
	<path class="st19" d="M303,390.9c-2-1.7-13-14.1-13-14.1l-19.7-9.5l0,0l3,5.5C274.1,374,300.3,388.9,303,390.9z"/>
	<path class="st19" d="M273,372.6l0.4,0.7l29.9,17.7c-0.1,0-0.1-0.1-0.2-0.2c-2.7-2-28.9-16.9-29.7-18.1L273,372.6z"/>
	<polygon class="st19" points="273.3,372.8 270.3,367.3 272.7,372.1 	"/>
	<path class="st19" d="M273.3,372.8l-0.6-0.7l0.2,0.3C273.1,372.6,273.3,372.7,273.3,372.8z"/>
	<path class="st19" d="M272.9,372.4l0.1,0.2l0.3,0.2C273.3,372.7,273.1,372.6,272.9,372.4z"/>
	<polygon class="st19" points="429.8,474.2 433.6,474.7 435.7,474.4 430.9,472.1 421.7,470.8 418,470.8 	"/>
	<path class="st19" d="M432.2,474.9L432.2,474.9l1.4-0.2l-3.9-0.5l2.3,0.7C432.1,474.9,432.2,474.9,432.2,474.9z"/>
	<path class="st19" d="M432.2,474.9c0,0-0.1,0-0.1,0L432.2,474.9z"/>
	<path class="st10" d="M365.1,455.4c0.6,0.2,33.3,9.7,52.9,15.3l0,0h0l-3.7-1.1l7.4,1.1h0L371,452.3l-32.2-14.7l8,5.5
		C354.4,448.3,364.5,455.3,365.1,455.4z"/>
	<path class="st10" d="M346.8,443.2l17.9,12.3l53.2,15.3c-19.6-5.7-52.3-15.1-52.9-15.3C364.5,455.3,354.4,448.3,346.8,443.2z"/>
	<polygon class="st10" points="418,470.8 421.7,470.8 414.3,469.7 	"/>
	<path class="st24" d="M161.5,455.9l2.9,1.3l-2.1-1.3C162,455.9,161.7,455.9,161.5,455.9z"/>
	<path class="st23" d="M162.2,455.9l2.1,1.3l-1.4-1.3C162.7,455.9,162.5,455.9,162.2,455.9z"/>
	<polygon class="st23" points="125.2,420.2 125.2,420.2 125.2,420.2 	"/>
	
		<rect x="147" y="418.9" transform="matrix(0.687 -0.7266 0.7266 0.687 -274.3187 244.7754)" class="st23" width="0" height="43.9"/>
	<polygon class="st23" points="162.9,455.9 164.3,457.2 162.9,455.9 	"/>
	<rect x="128.1" y="419" class="st23" width="0" height="8"/>
	<path class="st27" d="M35.2,335.7c-0.4-0.3-0.7-0.7-1.1-1l-1,0.7L35.2,335.7z"/>
	<path class="st27" d="M34.1,334.7c-0.2-0.2-0.5-0.5-0.7-0.7l-2.4,1.1l2.1,0.3L34.1,334.7z"/>
	<polygon class="st27" points="31,335.1 29.6,334.9 29.6,334.9 30,335.5 	"/>
	<polygon class="st27" points="30.9,336.9 31.8,336.3 30.4,336.1 	"/>
	<path class="st27" d="M33.1,335.4l-1.3,0.9l4.6,0.6c-0.4-0.4-0.8-0.8-1.2-1.2L33.1,335.4z"/>
	<g>
		<polygon class="st23" points="253.4,478 253.4,455.8 175.9,420.8 111.5,322.2 84.8,322.2 23.8,295.5 21.5,280.4 -2,267.2 
			-3,482.2 33.9,487.2 91.2,495 134.1,483.7 		"/>
		<g>
			<polygon class="st24" points="253.4,455.8 196.6,420.6 151.8,385.4 175.9,420.8 			"/>
			<polygon class="st24" points="84.8,322.2 21.5,280.4 23.8,295.5 			"/>
			<polygon class="st25" points="175.9,420.8 196.6,420.6 151.8,385.4 			"/>
			<polygon class="st25" points="23.8,295.5 37.2,290.7 21.5,280.4 			"/>
			<path class="st26" d="M134.1,483.7c-4.5-6.8-49.3-161.5-49.3-161.5l-61-26.7L91.2,495L134.1,483.7z"/>
			<polygon class="st23" points="253.4,455.8 212,416.7 196.6,420.6 			"/>
			<path class="st27" d="M212,416.7c-2.3-1.5-100.5-94.5-100.5-94.5l40.3,63.2l44.8,35.2L212,416.7z"/>
			<polygon class="st28" points="111.5,322.2 96.8,314.7 72.1,313.8 84.8,322.2 			"/>
			<polygon class="st28" points="-2,267.2 17.4,267.2 30.2,274.6 14.1,276.2 			"/>
			<polygon class="st23" points="72.1,313.8 30.2,274.6 14.1,276.2 			"/>
			<polygon class="st27" points="43.1,286.6 36.7,290.9 14.1,276.2 30.2,274.6 			"/>
		</g>
	</g>
</g>
</svg>
