<?xml version="1.0" encoding="utf-8"?>
<!-- Generator: Adobe Illustrator 26.5.0, SVG Export Plug-In . SVG Version: 6.00 Build 0)  -->
<svg version="1.1" xmlns="http://www.w3.org/2000/svg" xmlns:xlink="http://www.w3.org/1999/xlink" x="0px" y="0px"
	 viewBox="0 0 668.9 367.6" style="enable-background:new 0 0 668.9 367.6;" xml:space="preserve">
<style type="text/css">
	.st0{fill:#E17F55;}
	.st1{fill:#EAC266;}
	.st2{fill:#CF4F48;}
	.st3{display:none;}
</style>
<g id="Laag_2">
	<g>
		<path class="st0" d="M498,161.6l74.9,185.1c0,0,0,0,0,0h96c0,0,0,0,0,0L498,161.6C498,161.6,498,161.6,498,161.6z"/>
		<polyline class="st1" points="572.9,346.7 298.6,344.3 490.2,161.5 497.9,161.5 		"/>
	</g>
	<g>
		<path class="st0" d="M135.4,219.9l50.9,115.4c0,0,0,0,0,0h65.2c0,0,0,0,0,0L135.4,219.9C135.5,219.9,135.4,219.9,135.4,219.9z"/>
		<polyline class="st1" points="186.3,335.3 0,333.8 130.2,219.8 135.4,219.8 		"/>
	</g>
	<circle class="st2" cx="324.6" cy="111.5" r="111.5"/>
</g>
<g id="Laag_1">
	
		<image style="overflow:visible;" width="2244" height="1067" xlink:href="ECA463A423F6FF66.png"  transform="matrix(0.24 0 0 0.24 62.0549 111.5102)">
	</image>
</g>
<g id="Laag_3" class="st3">
</g>
</svg>
