<?xml version="1.0" encoding="utf-8"?>
<!-- Generator: Adobe Illustrator 26.5.0, SVG Export Plug-In . SVG Version: 6.00 Build 0)  -->
<svg version="1.1" xmlns="http://www.w3.org/2000/svg" xmlns:xlink="http://www.w3.org/1999/xlink" x="0px" y="0px"
	 viewBox="0 0 656 493.5" style="enable-background:new 0 0 656 493.5;" xml:space="preserve">
<style type="text/css">
	.st0{fill:#963E8E;}
	.st1{fill:#6D2C64;}
	.st2{fill:#4C1E43;}
	.st3{fill:#E6DFD3;}
	.st4{display:none;}
	.st5{fill:#DE4341;}
	.st6{fill:#F1A447;}
	.st7{fill:#EF7A47;}
</style>
<g id="Laag_5">
	<path class="st0" d="M23.9,471.3c0,0,10.1-4.2,13.2-10.8c3.1-6.6-0.5-19.5-0.5-19.5s-2.3-6.5-9-8.7l4.3-1.9l14.2,8l6.4,19.8
		l-4.8,8.8l-9.1,6.6l-8.7,0.6L23.9,471.3z"/>
	<path class="st0" d="M20.9,417c0,0,10.1-4.2,13.2-10.8c3.1-6.6-0.5-19.5-0.5-19.5s-2.3-6.5-9-8.7l4.3-1.9l14.2,8l6.4,19.8l-4.8,8.8
		l-9.1,6.6l-8.7,0.6L20.9,417z"/>
	<path class="st0" d="M18,363.4c0,0,10.1-4.2,13.2-10.8c3.1-6.6-0.5-19.5-0.5-19.5s-2.3-6.5-9-8.7l4.3-1.9l14.2,8l6.4,19.8l-4.8,8.8
		l-9.1,6.6l-8.7,0.6L18,363.4z"/>
	<path class="st0" d="M14.6,308.9c0,0,10.1-4.2,13.2-10.8s-0.5-19.5-0.5-19.5s-2.3-6.5-9-8.7l4.3-1.9l14.2,8l6.4,19.8l-4.8,8.8
		l-9.1,6.6l-8.7,0.6L14.6,308.9z"/>
	<path class="st0" d="M11.9,254.4c0,0,10.1-4.2,13.2-10.8s-0.5-19.5-0.5-19.5s-2.3-6.5-9-8.7l4.3-1.9l14.2,8l6.4,19.8l-4.8,8.8
		l-9.1,6.6l-8.7,0.6L11.9,254.4z"/>
	<path class="st0" d="M9,199.1c0,0,10.1-4.4,13.2-11c3.1-6.6-0.5-19.5-0.5-19.5s-2.3-6.5-9-8.7L17,158l14.2,8l6.4,19.8l-4.8,8.8
		l-9.1,6.6l-8.7,0.8L9,199.1z"/>
	<path class="st0" d="M6,144.7c0,0,10.1-4.2,13.2-10.8c3.1-6.6-0.5-19.5-0.5-19.5s-2.3-6.5-9-8.7l4.3-1.9l14.2,8l6.4,19.8l-4.8,8.8
		l-9.1,6.6l-8.7,0.6L6,144.7z"/>
	<path class="st0" d="M3,90.3c0,0,10.3-4,13.4-10.6c3.1-6.6-0.5-19.5-0.5-19.5s-2.3-6.5-9-8.7l4.3-1.9l14.2,8l6.4,19.8L27,86.1
		l-9.1,6.6l-8.7,0.6L3,90.3z"/>
	<path class="st1" d="M61.3,31.9l6,3.5c0,0-0.5,14.8-19.5,17.2c0,0-4.9,0.7-8.7-0.9C39,51.7,57,48.4,61.3,31.9z"/>
	<path class="st1" d="M115.5,28.8l6,3.5c0,0,0.3,16-18.7,18.4c0,0-6.7,0.2-10.5-1.4C92.2,49.3,110.9,45.7,115.5,28.8z"/>
	<path class="st1" d="M170.1,25.7l6,3.5c0,0,0.3,16-18.7,18.4c0,0-6.7,0.2-10.5-1.4C146.8,46.2,165.5,42.6,170.1,25.7z"/>
	<path class="st1" d="M224,22.8l6,3.5c0,0,0.3,16-18.7,18.4c0,0-6.7,0.2-10.5-1.4C200.8,43.3,219.5,39.7,224,22.8z"/>
	<path class="st1" d="M278,19.7l6,3.5c0,0,0.3,16-18.7,18.4c0,0-6.7,0.2-10.5-1.4C254.8,40.2,273.5,36.6,278,19.7z"/>
	<path class="st1" d="M332.7,16.6l6,3.5c0,0,0.3,16-18.7,18.4c0,0-6.7,0.2-10.5-1.4C309.5,37.1,328.1,33.5,332.7,16.6z"/>
	<path class="st1" d="M387.7,13.5l6,3.5c0,0,0.3,16-18.7,18.4c0,0-6.7,0.2-10.5-1.4C364.5,34,383.1,30.4,387.7,13.5z"/>
	<path class="st1" d="M442.2,10.5l6,3.5c0,0,0.3,16-18.7,18.4c0,0-6.7,0.2-10.5-1.4C419,30.9,437.7,27.3,442.2,10.5z"/>
	<path class="st1" d="M497,7.3l6,3.5c0,0,0.3,16-18.7,18.4c0,0-6.7,0.2-10.5-1.4C473.8,27.7,492.4,24.1,497,7.3z"/>
	<path class="st1" d="M551.1,4.2l6,3.5c0,0,0.3,16-18.7,18.4c0,0-6.7,0.2-10.5-1.4C527.9,24.7,546.6,21.1,551.1,4.2z"/>
	<path class="st1" d="M605.9,1.1l6,3.5c0,0,0.3,16-18.7,18.4c0,0-6.7,0.2-10.5-1.4C582.6,21.6,601.3,18,605.9,1.1z"/>
	<path class="st2" d="M640.6,417.5c0-8.6,5-16.1,12.2-19.8l-0.8-14.1c-8.3-3.2-14.2-11.2-14.2-20.7c0-8.5,4.8-15.9,11.9-19.6
		l-0.8-14c-8.7-3-14.9-11.2-14.9-20.9c0-8.8,5.1-16.3,12.5-19.9l-0.8-14c-8.2-3.3-14-11.2-14-20.6c0-8.4,4.7-15.8,11.6-19.5
		l-0.8-14.3c-8.4-3.2-14.3-11.2-14.3-20.7c0-8.6,4.9-16,12-19.7l-0.8-14.2c-8.4-3.2-14.3-11.2-14.3-20.7c0-8.6,4.9-16,12-19.7
		l-0.8-14.1c-8.4-3.2-14.4-11.2-14.4-20.7c0-8.6,4.9-16,12-19.7l-0.8-13.5c-8.4-3.1-14.4-11.2-14.4-20.7c0-8.6,4.9-16,12.1-19.7
		l-0.8-13.2l-17.8,1c-2.6,9.4-11.1,16.3-21.4,16.3c-9.3,0-17.3-5.8-20.6-13.9l-12.8,0.7c-2.4,9.6-11.1,16.7-21.5,16.7
		c-9.5,0-17.6-6-20.7-14.4l-12,0.7c-2.4,9.7-11.1,16.9-21.5,16.9c-9.5,0-17.6-6-20.8-14.5l-12.5,0.7c-2.3,9.7-11.1,17-21.5,17
		c-9.6,0-17.7-6.1-20.8-14.6l-12.2,0.7c-2.4,9.6-11.1,16.8-21.5,16.8c-9.5,0-17.6-6-20.7-14.4l-12.7,0.7
		c-2.5,9.4-11.1,16.4-21.4,16.4c-9.4,0-17.4-5.8-20.6-14l-12.8,0.7c-2.4,9.7-11.1,16.8-21.5,16.8c-9.5,0-17.6-6-20.8-14.5L230,26.2
		c-2.2,9.9-11,17.3-21.6,17.3c-9.7,0-17.9-6.2-20.9-14.9L176,29.3c-2.2,9.9-11,17.3-21.6,17.3c-9.7,0-17.9-6.2-20.9-14.9l-11.9,0.7
		c-2.2,10-11,17.5-21.7,17.5c-9.8,0-18-6.3-21-15.1l-11.6,0.7c-2.2,9.9-11,17.3-21.6,17.3c-9.7,0-17.9-6.2-20.9-14.9L6,38.9
		l0.7,13.5c8.6,3.1,14.7,11.2,14.7,20.8c0,8.8-5.1,16.3-12.5,19.9l0.7,13.3c8.9,2.9,15.3,11.2,15.3,21c0,9-5.3,16.7-13,20.2
		l0.7,12.9c9,2.8,15.5,11.2,15.5,21.1c0,9.1-5.4,16.8-13.2,20.3l0.8,14.7c8.6,3,14.8,11.2,14.8,20.9c0,8.8-5.1,16.4-12.5,19.9
		l0.7,13c8.9,2.9,15.4,11.2,15.4,21.1c0,9-5.4,16.7-13.1,20.2l0.7,12.7c9,2.8,15.6,11.2,15.6,21.2c0,9.1-5.5,16.9-13.3,20.3
		l0.7,12.7c8.8,2.9,15.2,11.2,15.2,21c0,8.9-5.3,16.6-13,20.1l0.7,12.6c9.3,2.6,16.1,11.2,16.1,21.3c0,9.3-5.7,17.2-13.8,20.5
		l0.8,13.7l19.4-1.1c2.3-9.8,11.1-17.1,21.6-17.1c9.6,0,17.8,6.2,20.9,14.8l12.2-0.7c1.9-10.3,10.9-18.1,21.8-18.1
		c10,0,18.4,6.6,21.2,15.7l11.2-0.6c2.4-9.7,11.1-16.9,21.5-16.9c9.6,0,17.7,6.1,20.8,14.5l12.5-0.7c1.7-10.6,10.8-18.6,21.9-18.6
		c10.2,0,18.7,6.9,21.3,16.2l11.7-0.6c1.7-10.5,10.8-18.5,21.8-18.5c10.1,0,18.7,6.8,21.3,16.1l10.9-0.6
		c1.9-10.3,10.9-18.1,21.8-18.1c10,0,18.4,6.6,21.2,15.7l11.6-0.6c2.1-10.1,11-17.6,21.7-17.6c9.8,0,18.1,6.4,21,15.3l12.2-0.7
		c1.9-10.3,10.9-18.1,21.8-18.1c10,0,18.5,6.6,21.2,15.7l12.1-0.7c2.1-10.1,11-17.6,21.7-17.6c9.8,0,18.1,6.4,21.1,15.3l11.1-0.6
		c1.9-10.3,10.9-18.2,21.8-18.2c10,0,18.5,6.7,21.2,15.8l11-0.6c1.2-11.1,10.6-19.7,22-19.7c10.6,0,19.4,7.4,21.6,17.3l17.5-1
		l-0.9-15C646.7,435.2,640.6,427.1,640.6,417.5z"/>
	<polygon class="st3" points="33.8,65.8 603.4,33.7 626.5,425.7 58.2,457.8 	"/>
	<path class="st2" d="M595,43.2l-549.4,34l26.9,372.2l544.3-33.6L595,43.2z M53.9,85.7l531.5-32.1l21.2,351.6L80,437L53.9,85.7z"/>
	<path class="st2" d="M67.3,35.4"/>
	<polygon class="st1" points="9.7,106.4 3.7,103.6 3,90.3 9,93.2 	"/>
	<polygon class="st1" points="6.7,52.4 0.7,49.5 0,35.4 6,38.9 	"/>
	<polygon class="st1" points="12.6,160.5 6.7,158 6,144.7 11.9,147.6 	"/>
	<polygon class="st1" points="16,216.8 10,214.3 9,199.1 14.9,201.9 	"/>
	<polygon class="st1" points="18.7,270.4 12.7,267.9 12,254.6 17.9,257.4 	"/>
	<polygon class="st1" points="24.6,378.6 18.7,376 18,363.1 23.9,365.9 	"/>
	<polygon class="st1" points="21.7,324.5 15.4,321.8 14.6,308.9 20.9,311.7 	"/>
	<polygon class="st1" points="27.6,432.4 21.6,429.9 20.9,416.9 26.9,419.8 	"/>
	<polygon class="st1" points="30.6,487.9 24.6,485.3 23.9,471.3 29.9,474.2 	"/>
	<polygon class="st0" points="24.7,37.8 18.7,34.2 0,35.4 6,38.9 	"/>
	<polygon class="st0" points="78.9,34.7 72.9,31.2 61.3,31.9 67.3,35.4 	"/>
	<polygon class="st0" points="133.4,31.7 127.5,28.1 115.5,28.9 121.5,32.3 	"/>
	<polygon class="st0" points="187.5,28.6 181.6,25 170,25.8 176,29.3 	"/>
	<polygon class="st0" points="241.7,25.5 235.7,21.9 224,22.7 230,26.2 	"/>
	<polygon class="st0" points="296.7,22.4 290.8,18.8 278,19.7 284,23.2 	"/>
	<polygon class="st0" points="351.4,19.3 345.5,15.7 332.7,16.6 338.6,20.1 	"/>
	<polygon class="st0" points="405.9,16.2 400,12.6 387.6,13.5 393.6,17 	"/>
	<polygon class="st0" points="460.8,13.2 454.8,9.6 442.2,10.5 448.2,13.9 	"/>
	<polygon class="st0" points="515.1,10.1 509.1,6.5 497,7.3 503,10.8 	"/>
	<polygon class="st0" points="570,7 564.1,3.4 551.2,4.3 557.2,7.7 	"/>
	<polygon class="st0" points="629.8,3.6 623.8,0 606,1.1 612,4.6 	"/>
</g>
<g id="Layer_3" class="st4">
	
		<image style="display:inline;overflow:visible;" width="4664" height="2193" xlink:href="../../../../DES/assetsMobile/Caïro.png"  transform="matrix(0.24 0 0 0.24 -1099.8208 396.1526)">
	</image>
</g>
<g id="Layer_4">
	<circle class="st5" cx="481.5" cy="147.5" r="73.5"/>
	<polygon class="st6" points="481.5,255.6 409.4,320.6 462.9,379.9 	"/>
	<polygon class="st6" points="188.3,398.5 198,334.2 84.2,436.7 155.7,432.4 	"/>
	<polygon class="st7" points="225.6,364.9 198,334.2 188.3,398.5 	"/>
	<polygon class="st6" points="295,423.6 328.1,393.8 349.1,253.7 225.6,364.9 279.3,424.5 	"/>
	<polygon class="st6" points="328.1,393.8 295,423.6 323.8,422.4 	"/>
	<polygon class="st6" points="188.3,398.5 151.7,432.4 183.6,430.6 	"/>
	<polygon class="st6" points="181.7,430.7 323.8,422.4 225.6,364.9 188.3,398.5 	"/>
	<polygon class="st7" points="409.4,320.6 349.1,253.7 328.1,393.8 	"/>
	<polygon class="st7" points="323.8,422.4 457.7,414.6 462.9,379.9 409.4,320.6 328.1,393.8 	"/>
	<polygon class="st7" points="462.9,379.9 457.7,414.6 492.4,412.7 	"/>
	<polygon class="st7" points="481.5,255.6 462.9,379.9 492.4,412.7 606.6,405.3 605.9,392.9 	"/>
	<g>
		<path class="st2" d="M113.7,109.1l-0.5,6.9l-26.1,1.8l1,15.5l23.6-1.6l0.5,6.8l-23.6,1.6l1.1,16.7l26.5-1.8l1.5,6.8l-35.2,2.4
			l-3.6-52.8L113.7,109.1z"/>
		<path class="st2" d="M158.8,119.1c-1.3,1.9-3.1,3.1-5.5,3.8l-0.1,0.2c2.7,2.1,4.2,4.8,4.4,8.2c0.2,3.7-0.9,6.8-3.6,9.2
			c-2.6,2.4-6.3,3.8-11.1,4.1l-5.2,0.4c-1.5,0.1-2.8,0.6-3.8,1.5c-1,0.9-1.4,1.9-1.3,3.1c0.1,1.2,0.6,2.2,1.7,2.8
			c1,0.7,2.4,0.9,4,0.8l14.8-1c3-0.2,5.5,0.6,7.5,2.4c1.9,1.8,3,4.1,3.2,7c0.2,3.5-0.9,6.4-3.4,8.7c-2.5,2.3-6,3.6-10.4,3.9l-15.5,1
			c-1.7,0.1-3.4-0.2-4.9-1.1s-2.8-1.9-3.7-3.3c-0.9-1.4-1.5-2.8-1.6-4.3c-0.1-2.2,0.3-4.1,1.2-5.7c0.9-1.7,2.3-2.9,4-3.8
			c-2.5-1.3-3.8-3.3-4-6.1c-0.1-1.8,0.3-3.5,1.3-4.9c1-1.4,2.4-2.5,4.3-3.3c-3.6-1.7-5.5-4.8-5.8-9.3c-0.3-3.8,0.9-6.9,3.6-9.3
			c2.6-2.4,6.5-3.8,11.4-4.1l0.3,0c2.9-0.2,5.5,0.1,7.9,0.8c3.5-2,5.4-4.7,5.7-8l6.2-0.4C160.6,115,160.1,117.2,158.8,119.1z
			 M135.5,160.4c-1.2,0.1-2.3,0.6-3.1,1.5c-0.8,0.9-1.2,2-1.1,3.2c0.1,1.2,0.6,2.3,1.5,3.1c0.9,0.8,2,1.2,3.2,1.1l14.8-1
			c1.6-0.1,3-0.7,4.1-1.7c1.1-1,1.6-2.2,1.5-3.4c-0.1-1.3-0.6-2.3-1.5-3c-0.9-0.7-2.2-1-3.8-0.9L135.5,160.4z M134.5,127.8
			c-1.5,1.2-2.2,2.9-2.1,5.2c0.2,2.3,1.1,3.9,2.8,4.8c1.7,0.9,3.9,1.3,6.6,1.1c2.7-0.2,4.9-0.8,6.4-2c1.6-1.1,2.3-2.9,2.1-5.2
			c-0.2-2.3-1.1-3.9-2.8-4.9s-3.9-1.3-6.6-1.1C138.2,126,136.1,126.6,134.5,127.8z"/>
		<path class="st2" d="M188.5,155.5c-1.5,4.4-2.8,7.8-4.2,10.2c-1.3,2.4-2.7,4-4.2,5c-1.5,0.9-3.3,1.5-5.3,1.6
			c-1.9,0.1-3.7-0.1-5.5-0.7l-0.4-5.9c1.7,0.6,3,0.9,3.9,0.8c2.1-0.1,3.8-1,5.1-2.5c1.3-1.5,2.3-3.8,3.1-6.9l-17.9-37.9l7.7-0.5
			l13.3,28.2l0.3,0l9.2-29.8l7.1-0.5L188.5,155.5z"/>
		<path class="st2" d="M238.5,118.9c3.1,3.5,4.8,8.4,5.2,14.7l0.1,0.8c0.4,6.1-0.7,10.9-3.2,14.6c-2.6,3.7-6.4,5.7-11.4,6
			c-4.8,0.3-8.7-1.3-11.7-5l1.3,18.9l-7.2,0.5l-3.6-53.2l5.4-0.4c0.5,1.6,0.9,3.4,1.4,5.3c2.6-4.3,6.6-6.6,11.7-7
			C231.4,113.9,235.5,115.5,238.5,118.9z M218.1,124.2c-1.5,2.5-2,6.2-1.7,11.2c0.3,5,1.4,8.7,3.3,10.9c1.8,2.3,4.4,3.3,7.8,3.1
			c3.4-0.2,5.8-1.6,7.3-4.1c1.5-2.5,2.1-6.3,1.7-11.2c-0.3-5-1.4-8.7-3.2-10.9c-1.8-2.2-4.4-3.3-7.7-3
			C222.1,120.3,219.6,121.7,218.1,124.2z"/>
		<path class="st2" d="M261.3,112.7l9.2-0.6l0.4,5.8l-9.2,0.6l1.6,23.5c0.1,1.8,0.6,3.2,1.3,3.9c0.8,0.8,1.9,1.1,3.4,1
			c1.3-0.1,2.9-0.6,4.7-1.5l0.4,5.4c-1.8,1-4.1,1.7-7.1,1.9c-3,0.2-5.4-0.5-7.1-2.2c-1.7-1.7-2.7-4.5-2.9-8.4l-1.6-23.1l-4.3,0.3
			l-0.4-5.8l4.5-0.3l1.6-12.7l4.5-0.3L261.3,112.7z"/>
	</g>
</g>
</svg>
