<?xml version="1.0" encoding="utf-8"?>
<!-- Generator: Adobe Illustrator 26.5.0, SVG Export Plug-In . SVG Version: 6.00 Build 0)  -->
<svg version="1.1" xmlns="http://www.w3.org/2000/svg" xmlns:xlink="http://www.w3.org/1999/xlink" x="0px" y="0px"
	 viewBox="0 0 561.7 268.7" style="enable-background:new 0 0 561.7 268.7;" xml:space="preserve">
<style type="text/css">
	.st0{display:none;}
	.st1{fill:#632F59;}
	.st2{fill:#4C2546;}
	.st3{fill:#9A3D3E;}
	.st4{fill:#BD4A4A;}
	.st5{fill:#AE4646;}
	.st6{fill:#54294E;}
	.st7{fill:#78396E;}
	.st8{fill:#8D4482;}
	.st9{fill:#C24C4C;}
	.st10{fill:#D65853;}
	.st11{fill:#713464;}
	.st12{fill:#C54D4D;}
	.st13{fill:#A94343;}
	.st14{fill:#AE454C;}
	.st15{fill:#8D3838;}
	.st16{fill:#B54848;}
	.st17{fill:#943B3C;}
	.st18{fill:#92393A;}
	.st19{fill:#A14040;}
	.st20{fill:#A4529A;}
	.st21{fill:#7D3D76;}
	.st22{fill:#3D1F3A;}
	.st23{fill:#AB4444;}
	.st24{fill:#943A3B;}
	.st25{fill:#70376B;}
	.st26{fill:#592D57;}
	.st27{fill:#3A1E3A;}
	.st28{fill:#381B34;}
	.st29{fill:#B54748;}
	.st30{fill:#9F3F40;}
	.st31{fill:#973C42;}
	.st32{fill:#84353A;}
	.st33{fill:#7B3C74;}
</style>
<g id="Laag_1" class="st0">
	
		<image style="display:inline;overflow:visible;opacity:0.6;" width="612" height="461" xlink:href="../../../../DES/originalMaterial/istockphoto-92047256-612x612-2.jpg"  transform="matrix(1.1485 0 0 1.1485 1.8547 -169.9783)">
	</image>
	
		<image style="display:inline;overflow:visible;opacity:0.2;" width="3508" height="2480" xlink:href="../../../../DES/originalMaterial/Untitled_Artwork copy.png"  transform="matrix(0.1953 0 0 0.1953 -21.9472 -147.4616)">
	</image>
</g>
<g id="Laag_2">
	<path class="st1" d="M554.7,189H160.6c18.1,0,33.6,11.6,39.3,27.7h229.3c4.2-7.8,12.4-13.1,21.9-13.1s17.7,5.3,21.9,13.1h81.6V189z
		"/>
	<path class="st2" d="M451.2,203.6c-9.5,0-17.7,5.3-21.9,13.1h43.8C468.9,208.9,460.7,203.6,451.2,203.6z"/>
	<polygon class="st3" points="130.2,246.3 131.4,246.8 150.1,239 150.3,238.1 	"/>
	<polygon class="st3" points="144.9,261.2 144.6,260 152.3,241.5 153.3,241.1 	"/>
	<path class="st4" d="M131.4,246.8c0,0,5.7,9.5,13.1,13.2l0.3,1.2l-1.9,0.3c0,0-7.9-4-8-4.1c-0.1-0.1-4.2-6.5-4.2-6.5l-1.6-3.8
		l0.9-0.7L131.4,246.8z"/>
	<path class="st4" d="M150.1,239c0,0,0.4,1.2,2.2,2.6l1.6-0.7l-1-2.9l-2-0.5l-0.6,0.7L150.1,239z"/>
	<polygon class="st3" points="158.5,243.3 159,244 151.4,262.8 150.1,263.4 	"/>
	<polygon class="st3" points="162.7,243.3 162.2,244 169.9,263 171,263.4 	"/>
	<path class="st4" d="M159,244c0,0,1.5,0.7,3.2,0l0.5-0.7l-1.9-0.7h-1.6l-0.8,0.7L159,244z"/>
	<path class="st4" d="M151.4,262.8c0,0,8.1,2.9,18.5,0.2l1.2,0.4l-2.3,1.4l-9.6,1.5c0,0-5.9-0.9-6-0.9c-0.1,0-3-2-3-2L151.4,262.8z"
		/>
	<g>
		<polygon class="st3" points="167.9,241.1 169,241.3 176.7,259.9 176.3,261.3 		"/>
		<polygon class="st3" points="170.5,238.7 170.5,239.7 188.9,248.1 190.3,247.9 		"/>
		<path class="st5" d="M169,241.3c0,0,1.2-0.8,1.6-1.6v-1h-1.2l-1.7,1.3l0.3,1.1L169,241.3z"/>
		<path class="st5" d="M188.9,248.1c0,0-2.8,6.1-12.2,11.8l-0.5,1.4h1.7l6.3-3.6c0,0,5.4-4.4,5.5-4.6s1.6-5.1,1.6-5.1l-1.1-0.1
			L188.9,248.1z"/>
	</g>
	<polygon class="st3" points="173.1,228.6 174.1,229.3 192.7,221.7 193.2,220.4 	"/>
	<polygon class="st3" points="173,233.5 173.7,233.1 192.4,241.5 192.7,242.8 	"/>
	<path class="st5" d="M174.1,229.3c0,0,0.8,1.7-0.4,3.7l-0.7,0.4l-0.6-0.3l0.3-4.8l0.4,0.2L174.1,229.3z"/>
	<path class="st5" d="M192.7,221.7c0,0,1.5,7.5,1.1,9c0,0,0,4.9-1.4,10.8l0.3,1.3l0.9,0.4l3.5-5.9c0,0-0.6-6.5-0.6-6.6
		c0-0.1-1.5-9.8-1.5-9.8l-1.5-1.5l-0.3,1L192.7,221.7z"/>
	<path class="st1" d="M160.6,189H35.9v27.7h85.4C127.1,200.6,142.5,189,160.6,189z"/>
	<path class="st2" d="M160.6,189c-18.1,0-33.6,11.6-39.3,27.7H200C194.2,200.6,178.8,189,160.6,189z"/>
	<rect x="35.9" y="189" class="st2" width="518.8" height="6.2"/>
	<g>
		<polygon class="st3" points="168,220.4 169,220.2 176.8,201.7 176.3,200.4 		"/>
		<polygon class="st3" points="171,223.4 171.3,222.6 189.5,214.8 191.1,215.1 		"/>
		<path class="st5" d="M169,220.2c0,0,1.8,0.5,2.4,2.3l-0.3,0.8l-0.3,0.4l-3.2-3.1l0.5-0.4L169,220.2z"/>
		<path class="st5" d="M176.8,201.7c0,0,3.3,1.4,6.9,5.3c3.6,3.9,5.8,7.8,5.8,7.8l2.4,0.4l-4.4-9.7l-7.4-4.7l-3.9-0.7L176.8,201.7z"
			/>
	</g>
	<g>
		<polygon class="st3" points="150.3,198.2 151.5,198.8 158.9,217.5 158.5,218.2 		"/>
		<polygon class="st3" points="171.1,198.2 169.9,198.7 162.4,217.3 162.8,218.2 		"/>
		<path class="st5" d="M158.9,217.5c0,0,1.4-0.7,3.5-0.1l0.4,0.8l-4.3,0L158.9,217.5z"/>
		<path class="st5" d="M151.5,198.8c0,0,1.9-0.8,9.1-1.4c0,0,4-0.2,9.3,1.3l1.2-0.5l-2.8-1.6l-9.8-0.6l-6.5,1l-1.8,1.3L151.5,198.8z
			"/>
	</g>
	<g>
		<polygon class="st3" points="129.2,220.4 148.5,229.2 148.2,228.1 128.6,218.9 		"/>
		<polygon class="st3" points="128.6,239.6 128,241.1 148.3,232.7 148.1,232.2 		"/>
		<path class="st5" d="M148.2,228.1l-0.9,0.5c-0.4,1.2-0.5,2.4,0,3.8l0.9,0.3l0.6-3l-0.5-1.6H148.2z"/>
		<path class="st5" d="M128.6,218.9l0.7,1.5c-2.1,7.7-1.9,11.5-0.7,19.2l-0.5,1.5l-1.9-2.3c0,0-1.3-13.3-1.2-13.4s1.9-6.2,1.9-6.2
			L128.6,218.9z"/>
	</g>
	<g>
		<polygon class="st3" points="144.8,201.7 153.2,221.2 153.6,220.4 145.3,200.2 		"/>
		<polygon class="st3" points="132.2,213.2 130.8,213.7 150.8,223.4 151,222.8 		"/>
		<path class="st5" d="M153.6,220.4l-1-0.3c-1,0.5-1.9,1.1-2.4,2.4l0.5,0.8l2.3-1.5L153.6,220.4L153.6,220.4z"/>
		<path class="st5" d="M145.3,200.2l-0.5,1.4c-6.4,3.3-8.6,5.8-12.6,11.5l-1.4,0.5l0.1-2.8c0,0,7.5-9.3,7.6-9.3
			c0.1,0,5.3-2.5,5.3-2.5L145.3,200.2z"/>
	</g>
	<polygon class="st6" points="163.7,60.4 172,67 172,163.4 163.7,168 162.7,60.4 	"/>
	<polygon class="st6" points="162.7,60.4 152.5,66.1 152.5,175.2 163.7,168 	"/>
	<polygon class="st2" points="152.5,175.2 554.7,175.2 534.9,155.4 169.9,155.4 	"/>
	<polygon class="st7" points="162.7,163.4 159.8,167 533.6,166.9 537,161.6 532.9,157 	"/>
	<rect x="20.6" y="66.1" class="st8" width="131.9" height="109.1"/>
	<g>
		<polygon class="st1" points="162.7,163.4 304.1,163.4 304.1,163.4 392.8,163.4 528.8,163.4 538.8,147.8 152.5,147.8 		"/>
		<polygon class="st1" points="538.8,112 528.7,96.3 392.9,96.3 392.9,96.3 295.9,96.3 295.9,96.4 162.6,96.3 152.5,112 
			152.5,112.1 538.8,112.1 		"/>
	</g>
	<polygon class="st9" points="205.2,102.1 212.6,98.9 212.6,82.5 205.2,85 	"/>
	<rect x="183.1" y="85" class="st10" width="22.1" height="17.1"/>
	<rect x="183.1" y="50.4" class="st10" width="22.1" height="29.5"/>
	<polygon class="st9" points="205.2,79.9 212.6,79.9 212.6,47.9 205.2,50.4 	"/>
	<path class="st10" d="M205.2,37.1C205.2,37.1,205.2,37.1,205.2,37.1c0,0.2,0,0.4,0,0.6V37.1z"/>
	<path class="st10" d="M183.1,37.1C183.1,37.1,183.1,37.1,183.1,37.1l0,0.6C183.1,37.4,183.1,37.2,183.1,37.1z"/>
	<path class="st9" d="M205.2,45.3l7.4-2.5c-1.5-2.8-1.4-4-7.4-5.7v0.6V45.3z"/>
	<rect x="183.1" y="37.6" class="st10" width="22.1" height="7.7"/>
	<path class="st10" d="M205.2,37.1c-0.3-4.6-4.3-8.3-9.4-9v2.2h-3.2v-2.2c-5.1,0.6-9.1,4.4-9.4,9c3.2-0.9,7-1.4,11-1.4
		C198.2,35.6,201.9,36.2,205.2,37.1z"/>
	<path class="st10" d="M205.2,37.6c0-0.2,0-0.4,0-0.6c-3.2-0.9-7-1.4-11-1.4c-4,0-7.8,0.5-11,1.4c0,0.2,0,0.4,0,0.6H205.2z"/>
	<path class="st10" d="M195.7,30.3v-2.2c-0.5-0.1-1-0.1-1.6-0.1s-1.1,0-1.6,0.1v2.2H195.7z"/>
	<rect x="183.1" y="45.3" class="st11" width="22.1" height="5.1"/>
	<path class="st1" d="M205.2,50.4l7.4-2.5l0,0c1.2,0,2.7-2.9,2.1-3.9c-0.7-1.2-2.1-1.2-2.1-1.2l0,0l-7.4,2.5V50.4z"/>
	<path class="st1" d="M205.2,85l7.4-2.5l0,0c1.2,0,2.7-2.9,2.1-3.9c-0.7-1.2-2.1-1.2-2.1-1.2l0,0l-7.4,2.5V85z"/>
	<rect x="183.1" y="79.9" class="st11" width="22.1" height="5.1"/>
	<polygon class="st9" points="183.1,102.1 175.7,98.9 175.7,82.5 183.1,85 	"/>
	<polygon class="st9" points="183.1,79.9 175.7,79.9 175.7,47.9 183.1,50.4 	"/>
	<path class="st9" d="M183.1,45.3l-7.4-2.5c1.5-2.8,1.4-4,7.4-5.7v0.6V45.3z"/>
	<path class="st1" d="M183.1,50.4l-7.4-2.5l0,0c-1.2,0-2.7-2.9-2.1-3.9c0.7-1.2,2.1-1.2,2.1-1.2l0,0l7.4,2.5V50.4z"/>
	<path class="st1" d="M183.1,85l-7.4-2.5l0,0c-1.2,0-2.7-2.9-2.1-3.9c0.7-1.2,2.1-1.2,2.1-1.2l0,0l7.4,2.5V85z"/>
	<rect x="183.1" y="85" class="st11" width="22.1" height="0"/>
	<polygon class="st9" points="367.6,103.6 375.3,101.2 375.3,89 367.6,90.9 	"/>
	<rect x="344.6" y="90.9" class="st10" width="23" height="12.7"/>
	<rect x="344.6" y="65.1" class="st10" width="23" height="22"/>
	<polygon class="st9" points="367.6,87.1 375.3,87.1 375.3,63.3 367.6,65.1 	"/>
	<path class="st10" d="M368.6,56.7C368.6,56.7,368.6,56.7,368.6,56.7c0,0.1,0,0.3,0,0.4V56.7z"/>
	<path class="st10" d="M347.1,56.7C347,56.7,347,56.7,347.1,56.7l0,0.4C347,57,347,56.9,347.1,56.7z"/>
	<path class="st9" d="M367.6,61.4l7.7-1.9c-1.5-2-1.4-3-7.7-4.2v0.4V61.4z"/>
	<rect x="344.6" y="55.7" class="st10" width="23" height="5.7"/>
	<path class="st10" d="M367.6,55.1c-0.3-3.2-4.5-5.8-9.9-6.3v1.5h-3.3v-1.5c-5.4,0.4-9.5,3.1-9.9,6.3c3.4-0.6,7.3-1,11.5-1
		C360.3,54.1,364.2,54.5,367.6,55.1z"/>
	<path class="st10" d="M367.6,55.8c0-0.3,0-0.5,0-0.8c-3.3-1.2-7.3-1.9-11.5-1.9c-4.2,0-8.1,0.7-11.5,1.9c0,0.3,0,0.5,0,0.8H367.6z"
		/>
	<path class="st10" d="M356,52v-1.5c-0.4,0-0.7-0.1-1.1-0.1c-0.4,0-0.7,0-1.1,0.1V52H356z"/>
	<rect x="344.6" y="61.4" class="st11" width="23" height="3.8"/>
	<path class="st1" d="M367.6,65.1l7.7-1.9l0,0c1.2,0,2.8-2.1,2.2-2.9c-0.7-0.9-2.2-0.9-2.2-0.9l0,0l-7.7,1.9V65.1z"/>
	<path class="st1" d="M367.6,90.9l7.7-1.9l0,0c1.2,0,2.8-2.1,2.2-2.9c-0.7-0.9-2.2-0.9-2.2-0.9l0,0l-7.7,1.9V90.9z"/>
	<rect x="344.6" y="87.1" class="st11" width="23" height="3.8"/>
	<polygon class="st9" points="344.6,103.6 336.9,101.2 336.9,89 344.6,90.9 	"/>
	<polygon class="st9" points="503,103.6 509.1,100.9 509.1,76.6 503,78.2 	"/>
	<polygon class="st9" points="485,103.6 479,100.9 479,76.6 485,78.2 	"/>
	<rect x="485" y="78.2" class="st10" width="18" height="25.5"/>
	<polygon class="st9" points="344.6,87.1 336.9,87.1 336.9,63.3 344.6,65.1 	"/>
	<path class="st10" d="M354.4,48.9l1.4-0.7l1.8,0.7c0,0,0.4,2.1,0.4,2.1s-2.5-0.1-2.5-0.1l-2.1-0.3l0.5-1.4L354.4,48.9z"/>
	<path class="st9" d="M344.6,61.4l-7.7-1.9c1.5-2,1.4-3,7.7-4.2v0.4V61.4z"/>
	<path class="st1" d="M344.6,65.1l-7.7-1.9l0,0c-1.2,0-2.8-2.1-2.2-2.9c0.7-0.9,2.2-0.9,2.2-0.9l0,0l7.7,1.9V65.1z"/>
	<path class="st1" d="M344.6,90.9l-7.7-1.9l0,0c-1.2,0-2.8-2.1-2.2-2.9c0.7-0.9,2.2-0.9,2.2-0.9l0,0l7.7,1.9V90.9z"/>
	<rect x="344.6" y="90.9" class="st11" width="23" height="0"/>
	<path class="st9" d="M195.5,24.4c0-0.6-0.4-0.8-0.9-1v1.3L195.5,24.4z"/>
	<path class="st9" d="M195.5,24.4l-0.9,0.3V28c0.4,0,0.5,0,0.9,0.1L195.5,24.4z"/>
	<path class="st9" d="M192.8,24.4c0-0.6,0.4-0.8,0.9-1v1.3L192.8,24.4z"/>
	<path class="st9" d="M192.8,24.4l0.9,0.3V28c-0.4,0-0.5,0-0.9,0.1L192.8,24.4z"/>
	<path class="st10" d="M193.6,28v0.5h1V28c-0.2,0-0.3,0-0.5,0S193.8,28,193.6,28z"/>
	<path class="st10" d="M194.6,24.7v-1.3c-0.2,0-0.3-0.1-0.5-0.1s-0.4,0-0.5,0.1v1.3H194.6z"/>
	<path class="st10" d="M193.6,24.7V28c0.2,0,0.3,0,0.5,0s0.3,0,0.5,0v-3.3H193.6z"/>
	<path class="st9" d="M357.8,45.2c0-0.6-0.5-0.8-1-1v1.3L357.8,45.2z"/>
	<path class="st9" d="M357.8,45.2l-1,0.3v3.3c0.4,0,0.6,0,1.1,0.1L357.8,45.2z"/>
	<path class="st9" d="M354.5,45.2c0-0.6,0.5-0.8,1-1v1.3L354.5,45.2z"/>
	<path class="st9" d="M354.5,45.2l1,0.3v3.3c-0.4,0-0.6,0-1.1,0.1L354.5,45.2z"/>
	<path class="st10" d="M356.8,45.5v-1.3c-0.2,0-0.4-0.1-0.6-0.1c-0.2,0-0.4,0-0.6,0.1v1.3H356.8z"/>
	<path class="st10" d="M355.5,45.5v3.3c0.2,0,0.4,0,0.6,0s0.4,0,0.6,0v-3.3H355.5z"/>
	<g>
		<polygon class="st12" points="344.8,66.6 344.8,85.6 345.1,84.9 345.2,67.3 		"/>
		<polygon class="st13" points="345.2,67.3 347.1,67.3 347.1,66.6 344.8,66.6 		"/>
		<polygon class="st13" points="345.1,84.9 347.1,84.9 347.1,85.6 344.8,85.6 		"/>
		<polygon class="st12" points="347.1,66.6 347.1,85.6 346.8,84.9 346.8,67.3 		"/>
	</g>
	<g>
		<polygon class="st14" points="342.3,66 342.3,85.1 342.7,84.4 342.7,66.7 		"/>
		<polygon class="st15" points="342.7,66.7 344.3,67.2 344.3,66.5 342.3,66 		"/>
		<polygon class="st15" points="342.7,84.4 344.3,84.8 344.3,85.5 342.3,85.1 		"/>
		<polygon class="st14" points="344.3,66.5 344.3,85.5 343.9,84.7 344,67.1 		"/>
	</g>
	<g>
		<polygon class="st14" points="339.7,65.4 339.7,84.5 340,83.8 340,66.1 		"/>
		<polygon class="st15" points="340,66.1 341.6,66.6 341.6,65.9 339.7,65.4 		"/>
		<polygon class="st15" points="340,83.8 341.6,84.2 341.6,84.9 339.7,84.5 		"/>
		<polygon class="st14" points="341.6,65.9 341.6,84.9 341.3,84.1 341.3,66.5 		"/>
	</g>
	<g>
		<polygon class="st14" points="337.1,64.8 337.1,83.9 337.4,83.2 337.4,65.5 		"/>
		<polygon class="st15" points="337.4,65.5 339,66 339,65.3 337.1,64.8 		"/>
		<polygon class="st15" points="337.4,83.2 339,83.6 339,84.3 337.1,83.9 		"/>
		<polygon class="st14" points="339,65.3 339,84.3 338.7,83.5 338.7,65.9 		"/>
	</g>
	<g>
		<polygon class="st14" points="369.8,66.2 369.8,85.3 369.5,84.6 369.5,66.9 		"/>
		<polygon class="st15" points="369.5,66.9 367.9,67.4 367.9,66.7 369.8,66.2 		"/>
		<polygon class="st15" points="369.5,84.6 367.9,85 367.9,85.7 369.8,85.3 		"/>
		<polygon class="st14" points="367.9,66.7 367.9,85.7 368.2,84.9 368.2,67.3 		"/>
	</g>
	<g>
		<polygon class="st14" points="372.4,65.6 372.4,84.7 372.1,84 372.1,66.3 		"/>
		<polygon class="st15" points="372.1,66.3 370.5,66.8 370.5,66.1 372.4,65.6 		"/>
		<polygon class="st15" points="372.1,84 370.5,84.4 370.5,85.1 372.4,84.7 		"/>
		<polygon class="st14" points="370.5,66.1 370.5,85.1 370.8,84.3 370.8,66.7 		"/>
	</g>
	<g>
		<polygon class="st14" points="375.1,65 375.1,84 374.7,83.3 374.7,65.7 		"/>
		<polygon class="st15" points="374.7,65.7 373.1,66.2 373.1,65.5 375.1,65 		"/>
		<polygon class="st15" points="374.7,83.3 373.1,83.7 373.1,84.4 375.1,84 		"/>
		<polygon class="st14" points="373.1,65.5 373.1,84.4 373.5,83.7 373.4,66.1 		"/>
	</g>
	<g>
		<polygon class="st12" points="347.7,66.6 347.7,85.6 348,84.9 348,67.3 		"/>
		<polygon class="st13" points="348,67.3 350,67.3 350,66.6 347.7,66.6 		"/>
		<polygon class="st13" points="348,84.9 350,84.9 350,85.6 347.7,85.6 		"/>
		<polygon class="st12" points="350,66.6 350,85.6 349.7,84.9 349.6,67.3 		"/>
	</g>
	<g>
		<polygon class="st12" points="350.6,66.6 350.6,85.6 350.9,84.9 350.9,67.3 		"/>
		<polygon class="st13" points="350.9,67.3 352.9,67.3 352.9,66.6 350.6,66.6 		"/>
		<polygon class="st13" points="350.9,84.9 352.9,84.9 352.9,85.6 350.6,85.6 		"/>
		<polygon class="st12" points="352.9,66.6 352.9,85.6 352.5,84.9 352.5,67.3 		"/>
	</g>
	<g>
		<polygon class="st12" points="353.5,66.6 353.5,85.6 353.8,84.9 353.8,67.3 		"/>
		<polygon class="st13" points="353.8,67.3 355.8,67.3 355.8,66.6 353.5,66.6 		"/>
		<polygon class="st13" points="353.8,84.9 355.8,84.9 355.8,85.6 353.5,85.6 		"/>
		<polygon class="st12" points="355.8,66.6 355.8,85.6 355.4,84.9 355.4,67.3 		"/>
	</g>
	<g>
		<polygon class="st12" points="356.4,66.6 356.4,85.6 356.7,84.9 356.7,67.3 		"/>
		<polygon class="st13" points="356.7,67.3 358.7,67.3 358.7,66.6 356.4,66.6 		"/>
		<polygon class="st13" points="356.7,84.9 358.7,84.9 358.7,85.6 356.4,85.6 		"/>
		<polygon class="st12" points="358.7,66.6 358.7,85.6 358.3,84.9 358.3,67.3 		"/>
	</g>
	<g>
		<polygon class="st12" points="359.3,66.6 359.3,85.6 359.6,84.9 359.6,67.3 		"/>
		<polygon class="st13" points="359.6,67.3 361.6,67.3 361.6,66.6 359.3,66.6 		"/>
		<polygon class="st13" points="359.6,84.9 361.6,84.9 361.6,85.6 359.3,85.6 		"/>
		<polygon class="st12" points="361.6,66.6 361.6,85.6 361.2,84.9 361.2,67.3 		"/>
	</g>
	<g>
		<polygon class="st12" points="362.2,66.6 362.2,85.6 362.5,84.9 362.5,67.3 		"/>
		<polygon class="st13" points="362.5,67.3 364.5,67.3 364.5,66.6 362.2,66.6 		"/>
		<polygon class="st13" points="362.5,84.9 364.5,84.9 364.5,85.6 362.2,85.6 		"/>
		<polygon class="st12" points="364.5,66.6 364.5,85.6 364.1,84.9 364.1,67.3 		"/>
	</g>
	<g>
		<polygon class="st12" points="365.1,66.6 365.1,85.6 365.4,84.9 365.4,67.3 		"/>
		<polygon class="st13" points="365.4,67.3 367.4,67.3 367.4,66.6 365.1,66.6 		"/>
		<polygon class="st13" points="365.4,84.9 367.4,84.9 367.4,85.6 365.1,85.6 		"/>
		<polygon class="st12" points="367.4,66.6 367.4,85.6 367,84.9 367,67.3 		"/>
	</g>
	<polygon class="st16" points="503,78.2 522.3,26 465.6,26 485,78.2 	"/>
	<polygon class="st17" points="479,76.6 452.4,23 465.6,26 485,78.2 	"/>
	<polygon class="st17" points="509.1,76.6 535.6,23 522.5,26 503,78.2 	"/>
	<polygon class="st10" points="465.6,26 487.8,2.5 500.5,2.5 522.5,26 	"/>
	<polygon class="st9" points="452.4,23 483,0.8 487.8,2.5 465.6,26 	"/>
	<polygon class="st9" points="535.6,23 505.1,0.8 500.3,2.5 522.5,26 	"/>
	<path class="st18" d="M487.8,2.5V0c0,0-4.4,0.9-4.8,0.8"/>
	<polygon class="st18" points="505.1,0.8 500.3,0 500.3,2.5 	"/>
	<rect x="487.8" class="st19" width="12.5" height="2.5"/>
	<polygon class="st11" points="538.8,112.1 152.5,112.1 152.5,147.7 152.5,147.8 538.8,147.8 538.8,147.7 	"/>
	<polygon class="st20" points="162.7,60.4 9,60.4 1.9,66.1 152.5,66.1 	"/>
	<rect x="20.6" y="66.1" class="st21" width="131.9" height="3.3"/>
	<polyline class="st20" points="153.2,65.6 150.4,67.7 0,67.7 2.4,65.6 	"/>
	<polygon class="st22" points="152.5,69.4 162.7,62.9 163.7,62.9 172,68.9 172,67 163.7,60.4 162.7,60.4 152.5,66.1 	"/>
	<rect x="88.6" y="71.9" class="st10" width="50" height="62"/>
	<rect x="28.9" y="71.9" class="st10" width="50" height="62"/>
	<rect x="28.9" y="139.7" class="st10" width="109.6" height="27.3"/>
	<polygon class="st4" points="28.9,71.9 30.7,73.6 30.7,132.6 28.9,133.9 	"/>
	<polygon class="st4" points="28.9,139.7 30.7,141.4 30.7,165.2 28.9,167 	"/>
	<polygon class="st4" points="138.5,139.7 136.8,141.4 136.8,165.2 138.5,167 	"/>
	<polygon class="st4" points="78.9,71.9 77.1,73.6 77.1,132.6 78.9,133.9 	"/>
	<polygon class="st23" points="30.7,73.6 77.1,73.6 78.9,71.9 28.9,71.9 	"/>
	<polygon class="st4" points="138.5,71.9 136.8,73.6 136.8,132.6 138.5,133.9 	"/>
	<polygon class="st23" points="90.3,73.6 136.8,73.6 138.5,71.9 88.6,71.9 	"/>
	<polygon class="st23" points="30.7,132.1 77.1,132.1 78.9,133.9 28.9,133.9 	"/>
	<polygon class="st23" points="30.7,165.2 136.8,165.2 138.5,167 28.9,167 	"/>
	<polygon class="st23" points="30.7,141.4 136.8,141.4 138.5,139.7 28.9,139.7 	"/>
	<rect x="30.7" y="73.6" class="st24" width="46.4" height="58.5"/>
	<polygon class="st4" points="88.6,71.9 90.3,73.6 90.3,132.6 88.6,133.9 	"/>
	<polygon class="st23" points="90.3,132.1 136.8,132.1 138.5,133.9 88.6,133.9 	"/>
	<rect x="90.3" y="73.6" class="st24" width="46.4" height="58.5"/>
	<rect x="30.7" y="141.4" class="st24" width="106.1" height="23.8"/>
	<g>
		<polygon class="st25" points="28.8,133.8 27.3,135.3 77.4,135.3 78.9,133.9 		"/>
		<polygon class="st25" points="28.8,72.7 28.9,71.9 27.2,73.5 27.2,135.3 28.8,133.8 		"/>
	</g>
	<g>
		<polygon class="st25" points="88.5,133.8 87,135.3 137.1,135.3 138.5,133.9 		"/>
		<polygon class="st25" points="88.5,72.7 88.6,71.9 86.9,73.5 86.9,135.3 88.5,133.8 		"/>
	</g>
	<polygon class="st25" points="28.9,167 27.4,168.5 27.4,139.7 28.9,139.7 	"/>
	<polygon class="st25" points="138.5,167 136.9,168.6 27.4,168.6 29,167 	"/>
	<polygon class="st26" points="183.1,102.1 182,103.2 206.4,103.2 205.3,102.1 	"/>
	<polygon class="st27" points="183.1,102.1 175.7,98.9 174.4,99.1 182,103.2 	"/>
	<polygon class="st27" points="205.2,102.1 212.6,98.9 213.9,99.1 206.2,103.2 	"/>
	<polygon class="st26" points="344.8,103.5 343.8,104.3 368.7,104.3 367.6,103.5 	"/>
	<polygon class="st27" points="344.8,103.5 336.9,100.9 335.9,101.1 343.8,104.3 	"/>
	<polygon class="st27" points="367.5,103.5 375.3,101.2 376.5,101.1 368.6,104.3 	"/>
	<polygon class="st26" points="485,103.7 484.2,104.5 503.9,104.5 503,103.6 	"/>
	<polygon class="st27" points="485,103.7 479,100.9 478.3,101.1 484.2,104.5 	"/>
	<polygon class="st27" points="502.9,103.7 509.1,100.9 510,100.8 503.8,104.5 	"/>
	<polygon class="st28" points="174.4,99.1 175.7,97.5 175.7,98.9 	"/>
	<polygon class="st28" points="213.9,99.1 212.6,97.5 212.6,98.9 	"/>
	<g>
		<polygon class="st29" points="183.1,85.8 205.2,85.8 205.2,85 183.1,85 		"/>
		<polygon class="st30" points="183.1,85 175.7,82.5 175.7,83.1 183.1,85.8 		"/>
		<polygon class="st30" points="205.2,85 212.6,82.5 212.6,83.2 205.2,85.8 		"/>
	</g>
	<g>
		<polygon class="st29" points="183.1,51.1 205.2,51.1 205.2,50.4 183.1,50.4 		"/>
		<polygon class="st30" points="183.1,50.4 175.7,47.9 175.7,48.5 183.1,51.1 		"/>
		<polygon class="st30" points="205.2,50.4 212.6,47.9 212.6,48.6 205.2,51.1 		"/>
	</g>
	<g>
		<polygon class="st29" points="344.6,65.6 367.6,65.6 367.6,65 344.6,65 		"/>
		<polygon class="st30" points="344.6,65 336.9,63.1 336.9,63.5 344.6,65.6 		"/>
		<polygon class="st30" points="367.6,65 375.3,63.1 375.3,63.6 367.6,65.6 		"/>
	</g>
	<g>
		<polygon class="st31" points="485.1,78.6 503,78.6 503,78.2 485,78.2 		"/>
		<polygon class="st32" points="485,78.2 479,76.6 479,76.9 485.1,78.6 		"/>
		<polygon class="st32" points="503,78.2 509.1,76.6 509.1,77 503,78.6 		"/>
	</g>
	<rect x="20.6" y="175.2" class="st8" width="534" height="13.9"/>
	<path class="st33" d="M160.6,192.9c-20.9,0-37.9,17-37.9,37.9c0,20.9,17,37.9,37.9,37.9s37.9-17,37.9-37.9
		C198.5,209.9,181.6,192.9,160.6,192.9z M160.6,265c-18.9,0-34.2-15.3-34.2-34.2s15.3-34.2,34.2-34.2s34.2,15.3,34.2,34.2
		S179.5,265,160.6,265z"/>
	<circle class="st33" cx="160.6" cy="230.7" r="12.7"/>
	
		<rect x="123.8" y="228" transform="matrix(0.9051 0.4253 -0.4253 0.9051 113.4286 -46.4023)" class="st33" width="73.7" height="5.7"/>
	
		<rect x="123.8" y="228" transform="matrix(0.3812 0.9245 -0.9245 0.3812 312.7793 -5.6819)" class="st33" width="73.7" height="5.7"/>
	
		<rect x="123.8" y="227.9" transform="matrix(-0.3842 0.9232 -0.9232 -0.3842 435.3727 171.0321)" class="st33" width="73.7" height="5.7"/>
	
		<rect x="123.8" y="227.9" transform="matrix(-0.9245 0.3812 -0.3812 -0.9245 397.1062 382.7707)" class="st33" width="73.7" height="5.7"/>
	<path class="st4" d="M160.6,221.4c-5.1,0-9.2,4.1-9.2,9.2s4.1,9.2,9.2,9.2c5.1,0,9.2-4.1,9.2-9.2S165.7,221.4,160.6,221.4z
		 M160.6,239c-4.6,0-8.3-3.7-8.3-8.3c0-4.6,3.7-8.3,8.3-8.3s8.3,3.7,8.3,8.3C169,235.3,165.2,239,160.6,239z"/>
	<polygon class="st3" points="239.2,246.3 240.5,246.8 259.2,239 259.3,238.1 	"/>
	<polygon class="st3" points="253.9,261.2 253.6,260 261.3,241.5 262.3,241.1 	"/>
	<path class="st4" d="M240.5,246.8c0,0,5.7,9.5,13.1,13.2l0.3,1.2l-1.9,0.3c0,0-7.9-4-8-4.1c-0.1-0.1-4.2-6.5-4.2-6.5l-1.6-3.8
		l0.9-0.7L240.5,246.8z"/>
	<path class="st4" d="M259.2,239c0,0,0.4,1.2,2.2,2.6l1.6-0.7l-1-2.9l-2-0.5l-0.6,0.7L259.2,239z"/>
	<polygon class="st3" points="267.5,243.3 268,244 260.4,262.8 259.2,263.4 	"/>
	<polygon class="st3" points="271.7,243.3 271.2,244 278.9,263 280.1,263.4 	"/>
	<path class="st4" d="M268,244c0,0,1.5,0.7,3.2,0l0.5-0.7l-1.9-0.7h-1.6l-0.8,0.7L268,244z"/>
	<path class="st4" d="M260.4,262.8c0,0,8.1,2.9,18.5,0.2l1.2,0.4l-2.3,1.4l-9.6,1.5c0,0-5.9-0.9-6-0.9c-0.1,0-3-2-3-2L260.4,262.8z"
		/>
	<g>
		<polygon class="st3" points="277,241.1 278,241.3 285.8,259.9 285.3,261.3 		"/>
		<polygon class="st3" points="279.6,238.7 279.6,239.7 298,248.1 299.3,247.9 		"/>
		<path class="st5" d="M278,241.3c0,0,1.2-0.8,1.6-1.6v-1h-1.2l-1.7,1.3l0.3,1.1L278,241.3z"/>
		<path class="st5" d="M298,248.1c0,0-2.8,6.1-12.2,11.8l-0.5,1.4h1.7l6.3-3.6c0,0,5.4-4.4,5.5-4.6s1.6-5.1,1.6-5.1l-1.1-0.1
			L298,248.1z"/>
	</g>
	<polygon class="st3" points="282.2,228.6 283.2,229.3 301.7,221.7 302.2,220.4 	"/>
	<polygon class="st3" points="282.1,233.5 282.8,233.1 301.4,241.5 301.8,242.8 	"/>
	<path class="st5" d="M283.2,229.3c0,0,0.8,1.7-0.4,3.7l-0.7,0.4l-0.6-0.3l0.3-4.8l0.4,0.2L283.2,229.3z"/>
	<path class="st5" d="M301.7,221.7c0,0,1.5,7.5,1.1,9c0,0,0,4.9-1.4,10.8l0.3,1.3l0.9,0.4l3.5-5.9c0,0-0.6-6.5-0.6-6.6
		c0-0.1-1.5-9.8-1.5-9.8l-1.5-1.5l-0.3,1L301.7,221.7z"/>
	<path class="st2" d="M269.7,189c-18.1,0-33.6,11.6-39.3,27.7H309C303.2,200.6,287.8,189,269.7,189z"/>
	<g>
		<polygon class="st3" points="277.1,220.4 278,220.2 285.8,201.7 285.4,200.4 		"/>
		<polygon class="st3" points="280,223.4 280.4,222.6 298.6,214.8 300.1,215.1 		"/>
		<path class="st5" d="M278,220.2c0,0,1.8,0.5,2.4,2.3l-0.3,0.8l-0.3,0.4l-3.2-3.1l0.5-0.4L278,220.2z"/>
		<path class="st5" d="M285.8,201.7c0,0,3.3,1.4,6.9,5.3c3.6,3.9,5.8,7.8,5.8,7.8l2.4,0.4l-4.4-9.7l-7.4-4.7l-3.9-0.7L285.8,201.7z"
			/>
	</g>
	<g>
		<polygon class="st3" points="259.3,198.2 260.5,198.8 267.9,217.5 267.5,218.2 		"/>
		<polygon class="st3" points="280.1,198.2 278.9,198.7 271.4,217.3 271.8,218.2 		"/>
		<path class="st5" d="M267.9,217.5c0,0,1.4-0.7,3.5-0.1l0.4,0.8l-4.3,0L267.9,217.5z"/>
		<path class="st5" d="M260.5,198.8c0,0,1.9-0.8,9.1-1.4c0,0,4-0.2,9.3,1.3l1.2-0.5l-2.8-1.6l-9.8-0.6l-6.5,1l-1.8,1.3L260.5,198.8z
			"/>
	</g>
	<g>
		<polygon class="st3" points="238.2,220.4 257.5,229.2 257.3,228.1 237.6,218.9 		"/>
		<polygon class="st3" points="237.6,239.6 237,241.1 257.4,232.7 257.1,232.2 		"/>
		<path class="st5" d="M257.3,228.1l-0.9,0.5c-0.4,1.2-0.5,2.4,0,3.8l0.9,0.3l0.6-3l-0.5-1.6H257.3z"/>
		<path class="st5" d="M237.6,218.9l0.7,1.5c-2.1,7.7-1.9,11.5-0.7,19.2l-0.5,1.5l-1.9-2.3c0,0-1.3-13.3-1.2-13.4s1.9-6.2,1.9-6.2
			L237.6,218.9z"/>
	</g>
	<g>
		<polygon class="st3" points="253.8,201.7 262.2,221.2 262.7,220.4 254.3,200.2 		"/>
		<polygon class="st3" points="241.2,213.2 239.8,213.7 259.8,223.4 260,222.8 		"/>
		<path class="st5" d="M262.7,220.4l-1-0.3c-1,0.5-1.9,1.1-2.4,2.4l0.5,0.8l2.3-1.5L262.7,220.4L262.7,220.4z"/>
		<path class="st5" d="M254.3,200.2l-0.5,1.4c-6.4,3.3-8.6,5.8-12.6,11.5l-1.4,0.5l0.1-2.8c0,0,7.5-9.3,7.6-9.3
			c0.1,0,5.3-2.5,5.3-2.5L254.3,200.2z"/>
	</g>
	<path class="st33" d="M269.7,192.9c-20.9,0-37.9,17-37.9,37.9c0,20.9,17,37.9,37.9,37.9s37.9-17,37.9-37.9
		C307.6,209.9,290.6,192.9,269.7,192.9z M269.7,265c-18.9,0-34.2-15.3-34.2-34.2s15.3-34.2,34.2-34.2s34.2,15.3,34.2,34.2
		S288.6,265,269.7,265z"/>
	<circle class="st33" cx="269.7" cy="230.7" r="12.7"/>
	
		<rect x="232.8" y="228" transform="matrix(0.9051 0.4253 -0.4253 0.9051 123.7813 -92.7759)" class="st33" width="73.7" height="5.7"/>
	
		<rect x="232.8" y="228" transform="matrix(0.3812 0.9245 -0.9245 0.3812 380.2572 -106.4895)" class="st33" width="73.7" height="5.7"/>
	
		<rect x="232.8" y="227.9" transform="matrix(-0.3842 0.9232 -0.9232 -0.3842 586.3052 70.3623)" class="st33" width="73.7" height="5.7"/>
	
		<rect x="232.8" y="227.9" transform="matrix(-0.9245 0.3812 -0.3812 -0.9245 606.9526 341.2097)" class="st33" width="73.7" height="5.7"/>
	<path class="st4" d="M269.7,221.4c-5.1,0-9.2,4.1-9.2,9.2s4.1,9.2,9.2,9.2s9.2-4.1,9.2-9.2S274.8,221.4,269.7,221.4z M269.7,239
		c-4.6,0-8.3-3.7-8.3-8.3c0-4.6,3.7-8.3,8.3-8.3c4.6,0,8.3,3.7,8.3,8.3C278,235.3,274.3,239,269.7,239z"/>
	<polygon class="st3" points="331.1,246.3 332.4,246.8 351.1,239 351.2,238.1 	"/>
	<polygon class="st3" points="345.8,261.2 345.5,260 353.2,241.5 354.2,241.1 	"/>
	<path class="st4" d="M332.4,246.8c0,0,5.7,9.5,13.1,13.2l0.3,1.2l-1.9,0.3c0,0-7.9-4-8-4.1c-0.1-0.1-4.2-6.5-4.2-6.5l-1.6-3.8
		l0.9-0.7L332.4,246.8z"/>
	<path class="st4" d="M351.1,239c0,0,0.4,1.2,2.2,2.6l1.6-0.7l-1-2.9l-2-0.5l-0.6,0.7L351.1,239z"/>
	<polygon class="st3" points="359.4,243.3 359.9,244 352.3,262.8 351.1,263.4 	"/>
	<polygon class="st3" points="363.6,243.3 363.1,244 370.8,263 371.9,263.4 	"/>
	<path class="st4" d="M359.9,244c0,0,1.5,0.7,3.2,0l0.5-0.7l-1.9-0.7h-1.6l-0.8,0.7L359.9,244z"/>
	<path class="st4" d="M352.3,262.8c0,0,8.1,2.9,18.5,0.2l1.2,0.4l-2.3,1.4l-9.6,1.5c0,0-5.9-0.9-6-0.9c-0.1,0-3-2-3-2L352.3,262.8z"
		/>
	<g>
		<polygon class="st3" points="368.9,241.1 369.9,241.3 377.6,259.9 377.2,261.3 		"/>
		<polygon class="st3" points="371.5,238.7 371.5,239.7 389.8,248.1 391.2,247.9 		"/>
		<path class="st5" d="M369.9,241.3c0,0,1.2-0.8,1.6-1.6v-1h-1.2l-1.7,1.3l0.3,1.1L369.9,241.3z"/>
		<path class="st5" d="M389.8,248.1c0,0-2.8,6.1-12.2,11.8l-0.5,1.4h1.7l6.3-3.6c0,0,5.4-4.4,5.5-4.6s1.6-5.1,1.6-5.1l-1.1-0.1
			L389.8,248.1z"/>
	</g>
	<polygon class="st3" points="374.1,228.6 375.1,229.3 393.6,221.7 394.1,220.4 	"/>
	<polygon class="st3" points="374,233.5 374.6,233.1 393.3,241.5 393.6,242.8 	"/>
	<path class="st5" d="M375.1,229.3c0,0,0.8,1.7-0.4,3.7l-0.7,0.4l-0.6-0.3l0.3-4.8l0.4,0.2L375.1,229.3z"/>
	<path class="st5" d="M393.6,221.7c0,0,1.5,7.5,1.1,9c0,0,0,4.9-1.4,10.8l0.3,1.3l0.9,0.4l3.5-5.9c0,0-0.6-6.5-0.6-6.6
		s-1.5-9.8-1.5-9.8l-1.5-1.5l-0.3,1L393.6,221.7z"/>
	<path class="st2" d="M361.6,189c-18.1,0-33.6,11.6-39.3,27.7h78.7C395.1,200.6,379.7,189,361.6,189z"/>
	<g>
		<polygon class="st3" points="369,220.4 369.9,220.2 377.7,201.7 377.3,200.4 		"/>
		<polygon class="st3" points="371.9,223.4 372.3,222.6 390.5,214.8 392,215.1 		"/>
		<path class="st5" d="M369.9,220.2c0,0,1.8,0.5,2.4,2.3l-0.3,0.8l-0.3,0.4l-3.2-3.1l0.5-0.4L369.9,220.2z"/>
		<path class="st5" d="M377.7,201.7c0,0,3.3,1.4,6.9,5.3c3.6,3.9,5.8,7.8,5.8,7.8l2.4,0.4l-4.4-9.7l-7.4-4.7l-3.9-0.7L377.7,201.7z"
			/>
	</g>
	<g>
		<polygon class="st3" points="351.2,198.2 352.4,198.8 359.8,217.5 359.4,218.2 		"/>
		<polygon class="st3" points="372,198.2 370.8,198.7 363.3,217.3 363.7,218.2 		"/>
		<path class="st5" d="M359.8,217.5c0,0,1.4-0.7,3.5-0.1l0.4,0.8l-4.3,0L359.8,217.5z"/>
		<path class="st5" d="M352.4,198.8c0,0,1.9-0.8,9.1-1.4c0,0,4-0.2,9.3,1.3l1.2-0.5l-2.8-1.6l-9.8-0.6l-6.5,1l-1.8,1.3L352.4,198.8z
			"/>
	</g>
	<g>
		<polygon class="st3" points="330.1,220.4 349.4,229.2 349.2,228.1 329.5,218.9 		"/>
		<polygon class="st3" points="329.5,239.6 328.9,241.1 349.3,232.7 349,232.2 		"/>
		<path class="st5" d="M349.2,228.1l-0.9,0.5c-0.4,1.2-0.5,2.4,0,3.8l0.9,0.3l0.6-3l-0.5-1.6H349.2z"/>
		<path class="st5" d="M329.5,218.9l0.7,1.5c-2.1,7.7-1.9,11.5-0.7,19.2l-0.5,1.5l-1.9-2.3c0,0-1.3-13.3-1.2-13.4s1.9-6.2,1.9-6.2
			L329.5,218.9z"/>
	</g>
	<g>
		<polygon class="st3" points="345.7,201.7 354.1,221.2 354.6,220.4 346.2,200.2 		"/>
		<polygon class="st3" points="333.1,213.2 331.7,213.7 351.7,223.4 351.9,222.8 		"/>
		<path class="st5" d="M354.6,220.4l-1-0.3c-1,0.5-1.9,1.1-2.4,2.4l0.5,0.8l2.3-1.5L354.6,220.4L354.6,220.4z"/>
		<path class="st5" d="M346.2,200.2l-0.5,1.4c-6.4,3.3-8.6,5.8-12.6,11.5l-1.4,0.5l0.1-2.8c0,0,7.5-9.3,7.6-9.3
			c0.1,0,5.3-2.5,5.3-2.5L346.2,200.2z"/>
	</g>
	<path class="st33" d="M361.6,192.9c-20.9,0-37.9,17-37.9,37.9c0,20.9,17,37.9,37.9,37.9s37.9-17,37.9-37.9
		C399.5,209.9,382.5,192.9,361.6,192.9z M361.6,265c-18.9,0-34.2-15.3-34.2-34.2s15.3-34.2,34.2-34.2s34.2,15.3,34.2,34.2
		S380.5,265,361.6,265z"/>
	<circle class="st33" cx="361.6" cy="230.7" r="12.7"/>
	
		<rect x="324.7" y="228" transform="matrix(0.9051 0.4253 -0.4253 0.9051 132.5058 -131.8563)" class="st33" width="73.7" height="5.7"/>
	
		<rect x="324.7" y="228" transform="matrix(0.3812 0.9245 -0.9245 0.3812 437.1228 -191.443)" class="st33" width="73.7" height="5.7"/>
	
		<rect x="324.7" y="227.9" transform="matrix(-0.3842 0.9232 -0.9232 -0.3842 713.5005 -14.4751)" class="st33" width="73.7" height="5.7"/>
	
		<rect x="324.7" y="227.9" transform="matrix(-0.9245 0.3812 -0.3812 -0.9245 783.7965 306.1849)" class="st33" width="73.7" height="5.7"/>
	<path class="st4" d="M361.6,221.4c-5.1,0-9.2,4.1-9.2,9.2s4.1,9.2,9.2,9.2c5.1,0,9.2-4.1,9.2-9.2S366.7,221.4,361.6,221.4z
		 M361.6,239c-4.6,0-8.3-3.7-8.3-8.3c0-4.6,3.7-8.3,8.3-8.3c4.6,0,8.3,3.7,8.3,8.3C369.9,235.3,366.2,239,361.6,239z"/>
	<polygon class="st3" points="428.1,251.4 429,251.7 443.2,245.8 443.4,245.1 	"/>
	<polygon class="st3" points="439.3,262.7 439,261.8 444.9,247.7 445.6,247.4 	"/>
	<path class="st4" d="M429,251.7c0,0,4.4,7.2,10,10l0.3,0.9l-1.4,0.2c0,0-6-3-6.1-3.1c-0.1-0.1-3.2-4.9-3.2-4.9l-1.2-2.9l0.7-0.5
		L429,251.7z"/>
	<path class="st4" d="M443.2,245.8c0,0,0.3,0.9,1.6,1.9l1.2-0.5l-0.8-2.2l-1.5-0.4l-0.4,0.5L443.2,245.8z"/>
	<polygon class="st3" points="449.6,249.1 449.9,249.6 444.2,263.9 443.2,264.3 	"/>
	<polygon class="st3" points="452.8,249 452.4,249.6 458.2,264.1 459.1,264.4 	"/>
	<path class="st4" d="M449.9,249.6c0,0,1.1,0.5,2.5,0l0.4-0.5l-1.4-0.5h-1.2l-0.6,0.6L449.9,249.6z"/>
	<path class="st4" d="M444.2,263.9c0,0,6.2,2.2,14,0.2l0.9,0.3l-1.7,1.1l-7.3,1.1c0,0-4.5-0.7-4.6-0.7c-0.1,0-2.3-1.5-2.3-1.5
		L444.2,263.9z"/>
	<g>
		<polygon class="st3" points="456.8,247.4 457.5,247.6 463.4,261.7 463.1,262.7 		"/>
		<polygon class="st3" points="458.7,245.6 458.7,246.3 472.7,252.8 473.7,252.6 		"/>
		<path class="st5" d="M457.5,247.6c0,0,0.9-0.6,1.2-1.2v-0.8h-0.9l-1.3,1l0.2,0.8L457.5,247.6z"/>
		<path class="st5" d="M472.7,252.8c0,0-2.1,4.7-9.3,8.9l-0.3,1h1.3l4.7-2.7c0,0,4.1-3.3,4.2-3.5c0.1-0.2,1.2-3.9,1.2-3.9l-0.8,0
			L472.7,252.8z"/>
	</g>
	<polygon class="st3" points="460.7,237.9 461.5,238.5 475.6,232.7 475.9,231.7 	"/>
	<polygon class="st3" points="460.6,241.6 461.2,241.3 475.3,247.7 475.6,248.7 	"/>
	<path class="st5" d="M461.5,238.5c0,0,0.6,1.3-0.3,2.8l-0.5,0.3l-0.5-0.2l0.3-3.6l0.3,0.1L461.5,238.5z"/>
	<path class="st5" d="M475.6,232.7c0,0,1.2,5.7,0.8,6.8c0,0,0,3.7-1.1,8.2l0.3,1l0.7,0.3l2.6-4.5c0,0-0.4-4.9-0.4-5
		s-1.1-7.4-1.1-7.4l-1.2-1.1l-0.3,0.7L475.6,232.7z"/>
	<g>
		<polygon class="st3" points="456.8,231.7 457.5,231.5 463.5,217.5 463.1,216.5 		"/>
		<polygon class="st3" points="459.1,233.9 459.4,233.3 473.2,227.5 474.3,227.7 		"/>
		<path class="st5" d="M457.5,231.5c0,0,1.3,0.4,1.8,1.8l-0.3,0.6l-0.2,0.3l-2.4-2.3l0.4-0.3L457.5,231.5z"/>
		<path class="st5" d="M463.5,217.5c0,0,2.5,1.1,5.3,4c2.7,3,4.4,5.9,4.4,5.9l1.8,0.3l-3.3-7.4l-5.7-3.5l-3-0.6L463.5,217.5z"/>
	</g>
	<g>
		<polygon class="st3" points="443.3,214.8 444.2,215.3 449.9,229.5 449.6,230 		"/>
		<polygon class="st3" points="459.2,214.8 458.2,215.2 452.5,229.4 452.8,230 		"/>
		<path class="st5" d="M449.9,229.5c0,0,1.1-0.5,2.6-0.1l0.3,0.6l-3.2,0L449.9,229.5z"/>
		<path class="st5" d="M444.2,215.3c0,0,1.5-0.6,6.9-1c0,0,3-0.1,7,1l0.9-0.4l-2.2-1.2l-7.4-0.5l-4.9,0.8l-1.3,1L444.2,215.3z"/>
	</g>
	<g>
		<polygon class="st3" points="427.3,231.7 442,238.3 441.8,237.6 426.9,230.5 		"/>
		<polygon class="st3" points="426.9,246.3 426.4,247.4 441.9,241.1 441.7,240.6 		"/>
		<path class="st5" d="M441.8,237.6l-0.7,0.4c-0.3,0.9-0.4,1.8,0,2.9l0.7,0.2l0.4-2.3L441.8,237.6L441.8,237.6z"/>
		<path class="st5" d="M426.9,230.5l0.5,1.2c-1.6,5.9-1.4,8.7-0.5,14.6l-0.4,1.1l-1.4-1.7c0,0-1-10.1-0.9-10.2
			c0.1-0.1,1.5-4.7,1.5-4.7L426.9,230.5z"/>
	</g>
	<g>
		<polygon class="st3" points="439.2,217.5 445.6,232.3 445.9,231.7 439.5,216.4 		"/>
		<polygon class="st3" points="429.6,226.2 428.6,226.6 443.8,233.9 443.9,233.5 		"/>
		<path class="st5" d="M445.9,231.7l-0.7-0.3c-0.8,0.4-1.5,0.9-1.8,1.8l0.3,0.6l1.8-1.1L445.9,231.7L445.9,231.7z"/>
		<path class="st5" d="M439.5,216.4l-0.4,1.1c-4.9,2.5-6.5,4.4-9.6,8.7l-1,0.4l0.1-2.1c0,0,5.7-7,5.8-7c0.1,0,4-1.9,4-1.9
			L439.5,216.4z"/>
	</g>
	<path class="st33" d="M451.2,210.8c-15.9,0-28.8,12.9-28.8,28.8c0,15.9,12.9,28.8,28.8,28.8s28.8-12.9,28.8-28.8
		C480,223.7,467.1,210.8,451.2,210.8z M451.2,265.6c-14.4,0-26-11.6-26-26c0-14.4,11.6-26,26-26s26,11.6,26,26
		C477.2,253.9,465.6,265.6,451.2,265.6z"/>
	<circle class="st33" cx="451.2" cy="239.5" r="9.6"/>
	
		<rect x="423.2" y="237.5" transform="matrix(0.9051 0.4253 -0.4253 0.9051 144.7499 -169.1524)" class="st33" width="56" height="4.3"/>
	
		<rect x="423.2" y="237.4" transform="matrix(0.3812 0.9245 -0.9245 0.3812 500.7288 -268.8927)" class="st33" width="56" height="4.3"/>
	
		<rect x="423.2" y="237.4" transform="matrix(-0.3842 0.9232 -0.9232 -0.3842 845.7287 -85.0548)" class="st33" width="56" height="4.3"/>
	
		<rect x="423.2" y="237.4" transform="matrix(-0.9245 0.3812 -0.3812 -0.9245 959.6895 288.9631)" class="st33" width="56" height="4.3"/>
	<path class="st4" d="M451.2,232.5c-3.9,0-7,3.1-7,7s3.1,7,7,7s7-3.1,7-7S455.1,232.5,451.2,232.5z M451.2,245.8
		c-3.5,0-6.3-2.8-6.3-6.3c0-3.5,2.8-6.3,6.3-6.3s6.3,2.8,6.3,6.3C457.5,243,454.7,245.8,451.2,245.8z"/>
	<path class="st2" d="M532.8,203.6c-9.5,0-17.7,5.3-21.9,13.1h43.8C550.5,208.9,542.3,203.6,532.8,203.6z"/>
	<polygon class="st3" points="509.7,251.4 510.7,251.7 524.9,245.8 525,245.1 	"/>
	<polygon class="st3" points="520.9,262.7 520.7,261.8 526.5,247.7 527.3,247.4 	"/>
	<path class="st4" d="M510.7,251.7c0,0,4.4,7.2,10,10l0.3,0.9l-1.4,0.2c0,0-6-3-6.1-3.1c-0.1-0.1-3.2-4.9-3.2-4.9l-1.2-2.9l0.7-0.5
		L510.7,251.7z"/>
	<path class="st4" d="M524.9,245.8c0,0,0.3,0.9,1.6,1.9l1.2-0.5L527,245l-1.5-0.4l-0.4,0.5L524.9,245.8z"/>
	<polygon class="st3" points="531.2,249.1 531.6,249.6 525.9,263.9 524.9,264.3 	"/>
	<polygon class="st3" points="534.5,249 534.1,249.6 539.9,264.1 540.8,264.4 	"/>
	<path class="st4" d="M531.6,249.6c0,0,1.1,0.5,2.5,0l0.4-0.5l-1.4-0.5h-1.2l-0.6,0.6L531.6,249.6z"/>
	<path class="st4" d="M525.9,263.9c0,0,6.2,2.2,14,0.2l0.9,0.3l-1.7,1.1l-7.3,1.1c0,0-4.5-0.7-4.6-0.7c-0.1,0-2.3-1.5-2.3-1.5
		L525.9,263.9z"/>
	<g>
		<polygon class="st3" points="538.4,247.4 539.2,247.6 545.1,261.7 544.7,262.7 		"/>
		<polygon class="st3" points="540.4,245.6 540.4,246.3 554.4,252.8 555.4,252.6 		"/>
		<path class="st5" d="M539.2,247.6c0,0,0.9-0.6,1.2-1.2v-0.8h-0.9l-1.3,1l0.2,0.8L539.2,247.6z"/>
		<path class="st5" d="M554.4,252.8c0,0-2.1,4.7-9.3,8.9l-0.3,1h1.3l4.7-2.7c0,0,4.1-3.3,4.2-3.5c0.1-0.2,1.2-3.9,1.2-3.9l-0.8,0
			L554.4,252.8z"/>
	</g>
	<polygon class="st3" points="542.4,237.9 543.1,238.5 557.2,232.7 557.6,231.7 	"/>
	<polygon class="st3" points="542.3,241.6 542.8,241.3 557,247.7 557.2,248.7 	"/>
	<path class="st5" d="M543.1,238.5c0,0,0.6,1.3-0.3,2.8l-0.5,0.3l-0.5-0.2l0.3-3.6l0.3,0.1L543.1,238.5z"/>
	<g>
		<polygon class="st3" points="538.5,231.7 539.2,231.5 545.1,217.5 544.8,216.5 		"/>
		<polygon class="st3" points="540.8,233.9 541,233.3 554.8,227.5 556,227.7 		"/>
		<path class="st5" d="M539.2,231.5c0,0,1.3,0.4,1.8,1.8l-0.3,0.6l-0.2,0.3l-2.4-2.3l0.4-0.3L539.2,231.5z"/>
		<path class="st5" d="M545.1,217.5c0,0,2.5,1.1,5.3,4c2.7,3,4.4,5.9,4.4,5.9l1.8,0.3l-3.3-7.4l-5.7-3.5l-3-0.6L545.1,217.5z"/>
	</g>
	<g>
		<polygon class="st3" points="525,214.8 525.9,215.3 531.6,229.5 531.3,230 		"/>
		<polygon class="st3" points="540.8,214.8 539.9,215.2 534.2,229.4 534.5,230 		"/>
		<path class="st5" d="M531.6,229.5c0,0,1.1-0.5,2.6-0.1l0.3,0.6l-3.2,0L531.6,229.5z"/>
		<path class="st5" d="M525.9,215.3c0,0,1.5-0.6,6.9-1c0,0,3-0.1,7,1l0.9-0.4l-2.2-1.2l-7.4-0.5l-4.9,0.8l-1.3,1L525.9,215.3z"/>
	</g>
	<g>
		<polygon class="st3" points="509,231.7 523.7,238.3 523.5,237.6 508.5,230.5 		"/>
		<polygon class="st3" points="508.5,246.3 508.1,247.4 523.5,241.1 523.3,240.6 		"/>
		<path class="st5" d="M523.5,237.6l-0.7,0.4c-0.3,0.9-0.4,1.8,0,2.9l0.7,0.2l0.4-2.3L523.5,237.6L523.5,237.6z"/>
		<path class="st5" d="M508.5,230.5l0.5,1.2c-1.6,5.9-1.4,8.7-0.5,14.6l-0.4,1.1l-1.4-1.7c0,0-1-10.1-0.9-10.2
			c0.1-0.1,1.5-4.7,1.5-4.7L508.5,230.5z"/>
	</g>
	<g>
		<polygon class="st3" points="520.8,217.5 527.2,232.3 527.6,231.7 521.2,216.4 		"/>
		<polygon class="st3" points="511.3,226.2 510.2,226.6 525.4,233.9 525.5,233.5 		"/>
		<path class="st5" d="M527.6,231.7l-0.7-0.3c-0.8,0.4-1.5,0.9-1.8,1.8l0.3,0.6l1.8-1.1L527.6,231.7L527.6,231.7z"/>
		<path class="st5" d="M521.2,216.4l-0.4,1.1c-4.9,2.5-6.5,4.4-9.6,8.7l-1,0.4l0.1-2.1c0,0,5.7-7,5.8-7c0.1,0,4-1.9,4-1.9
			L521.2,216.4z"/>
	</g>
	<path class="st33" d="M532.9,210.8c-15.9,0-28.8,12.9-28.8,28.8c0,15.9,12.9,28.8,28.8,28.8c15.9,0,28.8-12.9,28.8-28.8
		C561.7,223.7,548.8,210.8,532.9,210.8z M532.9,265.6c-14.4,0-26-11.6-26-26c0-14.4,11.6-26,26-26c14.4,0,26,11.6,26,26
		C558.9,253.9,547.2,265.6,532.9,265.6z"/>
	<circle class="st33" cx="532.9" cy="239.5" r="9.6"/>
	
		<rect x="504.9" y="237.5" transform="matrix(0.9051 0.4253 -0.4253 0.9051 152.5034 -203.8831)" class="st33" width="56" height="4.3"/>
	
		<rect x="504.9" y="237.4" transform="matrix(0.3812 0.9245 -0.9245 0.3812 551.2651 -344.3907)" class="st33" width="56" height="4.3"/>
	
		<rect x="504.9" y="237.4" transform="matrix(-0.3842 0.9232 -0.9232 -0.3842 958.767 -160.4497)" class="st33" width="56" height="4.3"/>
	
		<rect x="504.9" y="237.4" transform="matrix(-0.9245 0.3812 -0.3812 -0.9245 1116.8502 257.8367)" class="st33" width="56" height="4.3"/>
	<path class="st4" d="M532.9,232.5c-3.9,0-7,3.1-7,7s3.1,7,7,7c3.9,0,7-3.1,7-7S536.7,232.5,532.9,232.5z M532.9,245.8
		c-3.5,0-6.3-2.8-6.3-6.3c0-3.5,2.8-6.3,6.3-6.3c3.5,0,6.3,2.8,6.3,6.3C539.2,243,536.4,245.8,532.9,245.8z"/>
	<path class="st4" d="M160.6,218c-7,0-12.7,5.7-12.7,12.7c0,7,5.7,12.7,12.7,12.7c7,0,12.7-5.7,12.7-12.7
		C173.3,223.7,167.6,218,160.6,218z M160.6,242.1c-6.3,0-11.5-5.1-11.5-11.4c0-6.3,5.1-11.4,11.5-11.4c6.3,0,11.5,5.1,11.5,11.4
		C172.1,237,166.9,242.1,160.6,242.1z"/>
</g>
</svg>
