<?xml version="1.0" encoding="utf-8"?>
<!-- Generator: Adobe Illustrator 26.5.0, SVG Export Plug-In . SVG Version: 6.00 Build 0)  -->
<svg version="1.1" xmlns="http://www.w3.org/2000/svg" xmlns:xlink="http://www.w3.org/1999/xlink" x="0px" y="0px"
	 viewBox="0 0 500 500" style="enable-background:new 0 0 500 500;" xml:space="preserve">
<style type="text/css">
	.st0{fill:#5C2A5B;}
</style>
<g id="Laag_1">
	<g>
		<path class="st0" d="M249.5,125.9c26.1,0,52.3,0.3,77.8,0.9c2.6,0.1,5.1,0.1,7.7,0.2c16.1,0.4,32.7,0.7,48.9,1.5
			c12.5,0.6,24.4,6,33.2,15.2c8.9,9.1,13.8,20.9,13.9,33.3c0.5,47.3,0.5,96.2,0,145.3c-0.2,25.8-21.2,47.5-46.8,48.5
			c-31.2,1.2-61.8,1.8-94.1,2.4c-13.4,0.3-27.3,0.6-41.2,0.9c-13.1-0.3-26.5-0.6-39.4-0.9c-31.1-0.7-63.3-1.4-95-2.5
			c-10.8-0.4-21.5-5.1-30.1-13.3c-8.7-8.2-14.1-18.8-15.3-29.8c-0.4-3.5-0.6-7-0.6-10.4l0-5.8c0-43.3-0.1-88.2,0-132.2
			c0-23.3,15-43,37.2-48.9c4.4-1.2,9.7-1.8,16.6-2.1C165.3,126.7,208,125.9,249.5,125.9 M193.1,339.9l25.6-14.9l103.5-60.1
			l25.3-14.7l-25.3-14.7l-22.2-12.9l-81.3-47.2l-25.6-14.8V190v120.3V339.9 M249.5,108.9c-42.6,0-85.1,0.8-127.7,2.2
			c-6.8,0.2-13.8,0.9-20.4,2.6c-29.7,7.9-49.8,34.4-49.9,65.3c-0.1,46,0,92.1,0,138.1c0,4.1,0.2,8.2,0.7,12.3
			c3.4,30.8,30.7,57.2,61.8,58.2c45.3,1.6,90.7,2.3,135,3.4c46-1.1,91-1.7,135.9-3.3c34.7-1.3,62.9-30.5,63.2-65.3
			c0.4-48.6,0.5-97.1,0-145.7c-0.3-34.7-28.6-63.5-63.3-65.3c-19-1-38.1-1.3-57.1-1.7C301.6,109.2,275.6,108.9,249.5,108.9
			L249.5,108.9z M210.1,310.3c0-40.3,0-79.8,0-120.3c34.6,20.1,68.6,39.9,103.5,60.1C278.9,270.3,244.9,290.1,210.1,310.3
			L210.1,310.3z"/>
	</g>
</g>
<g id="Laag_2">
	<g>
		<path class="st0" d="M453.4,18c15.7,0,28.6,12.8,28.6,28.6v407.9c0,15.7-12.8,28.6-28.6,28.6H45.6C29.8,483,17,470.2,17,454.4
			V46.6C17,30.8,29.8,18,45.6,18H453.4 M453.4,1H45.6C20.5,1,0,21.5,0,46.6v407.9C0,479.5,20.5,500,45.6,500h407.9
			c25.1,0,45.6-20.5,45.6-45.6V46.6C499,21.5,478.5,1,453.4,1L453.4,1z"/>
	</g>
</g>
<g id="Laag_3">
</g>
</svg>
