<?xml version="1.0" encoding="utf-8"?>
<!-- Generator: Adobe Illustrator 26.5.0, SVG Export Plug-In . SVG Version: 6.00 Build 0)  -->
<svg version="1.1" xmlns="http://www.w3.org/2000/svg" xmlns:xlink="http://www.w3.org/1999/xlink" x="0px" y="0px"
	 viewBox="0 0 841.9 573.7" style="enable-background:new 0 0 841.9 573.7;" xml:space="preserve">
<style type="text/css">
	.st0{display:none;}
	.st1{fill:#D65853;}
	.st2{fill:#CD5252;}
	.st3{fill:#E95B5B;}
</style>
<g id="Laag_1" class="st0">
	
		<image style="display:inline;overflow:visible;" width="3508" height="2480" xlink:href="INT3/DES/originalMaterial/Untitled_Artwork copy 3.png"  transform="matrix(0.24 0 0 0.24 -21.5163 -31.7743)">
	</image>
</g>
<g id="Laag_2">
	<rect class="st1" width="841.9" height="574.2"/>
	<g>
		<path class="st2" d="M451.2,348.1c0-25.3-20.5-45.7-45.7-45.7c-25.3,0-45.7,20.5-45.7,45.7c0,12.8,5.3,24.4,13.8,32.7l1.6,1.5
			c8.1,7.1,18.7,11.5,30.3,11.5c11.3,0,21.7-4.1,29.7-11l2.9-2.7C446.1,371.9,451.2,360.6,451.2,348.1z"/>
		<g>
			<path class="st2" d="M359.7,348.1c0-25.3,20.5-45.7,45.7-45.7c25.3,0,45.7,20.5,45.7,45.7c0,12.5-5,23.8-13.1,32.1l388.1-361
				l-798.9,6L0,25.4l373.5,355.4C365,372.5,359.7,360.9,359.7,348.1z"/>
			<polygon class="st2" points="0,0 27.1,25.2 0,25.4 			"/>
		</g>
	</g>
	<path class="st3" d="M375.5,328.9c0-25.3,20.5-45.7,45.7-45.7c25.3,0,45.7,20.5,45.7,45.7c0,12.5-5,23.8-13.1,32.1L841.9,0H0
		l389.3,361.6C380.8,353.3,375.5,341.7,375.5,328.9z"/>
	<path class="st1" d="M390.9,363.2l-1.6-1.5C389.8,362.2,390.4,362.7,390.9,363.2z"/>
	<path class="st1" d="M453.8,361l-2.9,2.7C451.9,362.8,452.9,361.9,453.8,361z"/>
	<path class="st3" d="M467,328.9c0-25.3-20.5-45.7-45.7-45.7c-25.3,0-45.7,20.5-45.7,45.7c0,12.8,5.3,24.4,13.8,32.7l1.6,1.5
		c8.1,7.1,18.7,11.5,30.3,11.5c11.3,0,21.7-4.1,29.7-11l2.9-2.7C461.9,352.7,467,341.4,467,328.9z"/>
</g>
</svg>
