<svg width="153" height="153" viewBox="0 0 153 153" fill="none" xmlns="http://www.w3.org/2000/svg">
<path d="M68.0003 33C72.9709 32.9998 77.0002 28.9702 77 23.9997C76.9998 19.0291 72.9702 14.9998 67.9997 15L68.0003 33ZM67.9997 15C59.61 15.0003 46.466 15.5912 35.3783 22.8849C23.5096 30.6925 16 44.7073 16 66.9961H34C34 49.0332 39.7564 41.5503 45.2707 37.9229C51.5659 33.7817 59.9219 33.0003 68.0003 33L67.9997 15ZM16 66.9961C16 91.0776 24.9174 105.188 37.5377 112.479C49.1667 119.198 62.2862 118.992 68 118.992V100.992C61.8202 100.992 53.4397 100.878 46.5421 96.8934C40.6358 93.4812 34 86.0937 34 66.9961H16ZM68 118.992C74.9722 118.992 88.5332 119.662 99.8883 112.997C112.424 105.639 120 91.1858 120 66.9961H102C102 87.4492 95.8522 94.4943 90.7766 97.4735C84.52 101.146 76.5809 100.992 68 100.992V118.992Z" fill="#A14F98"/>
<path d="M92 72.2609L111.694 56L129 78" stroke="#A14F98" stroke-width="18" stroke-linecap="round"/>
</svg>
