<svg width="749" height="749" viewBox="0 0 749 749" fill="none" xmlns="http://www.w3.org/2000/svg">
<g clip-path="url(#clip0_520_38)">
<path d="M166 184.887L366.729 288.936M166 184.887L366.729 82L575 184.887M166 184.887V451.113L366.729 554M366.729 288.936L575 184.887M366.729 288.936V554M575 184.887V451.113L366.729 554" stroke="#5C2A5B" stroke-width="34"/>
<path d="M622.549 369.5C724.549 423.833 842.349 556.8 497.549 654" stroke="#5C2A5B" stroke-width="34" stroke-linecap="round"/>
<path d="M114.329 353.341C123.254 350.425 132.853 355.295 135.769 364.219C138.686 373.144 133.815 382.743 124.891 385.659L114.329 353.341ZM419.549 666L242.87 751.543L257.127 555.763L419.549 666ZM124.891 385.659C62.2014 406.146 29.4106 458.179 41.5555 506.647C53.9215 555.998 115.57 614.148 269.543 638.088L264.319 671.684C106.534 647.152 26.1276 584.96 8.57516 514.911C-9.19828 443.98 40.2294 377.557 114.329 353.341L124.891 385.659Z" fill="#5C2A5B"/>
</g>
<defs>
<clipPath id="clip0_520_38">
<rect width="749" height="749" fill="white"/>
</clipPath>
</defs>
</svg>
